<?xml version="1.0" encoding="utf-8"?>
<!-- Generator: Adobe Illustrator 24.0.0, SVG Export Plug-In . SVG Version: 6.00 Build 0)  -->
<svg version="1.1" id="Layer_1" xmlns="http://www.w3.org/2000/svg" xmlns:xlink="http://www.w3.org/1999/xlink" x="0px" y="0px"
	 viewBox="0 0 200 200" style="enable-background:new 0 0 200 200;" xml:space="preserve">
<style type="text/css">
	.st0{fill:#00A3EF;}
	.st1{fill:#18F763;}
	.st2{fill:#28292B;}
	.st3{fill:none;stroke:#E4F000;stroke-miterlimit:10;}
</style>
<path class="st0" d="M109.6,42.7c-3-0.9-6.2-1.3-9.5-1.3c0,0,0,0,0,0c-16.9,0-31.1,11.7-34.9,27.4c-0.7,2.7-1,5.5-1,8.5
	c0,1,0,2,0.1,3.1c0.3,3,0.9,5.9,1.8,8.6c1.2,3.5,2.9,6.7,5,9.5c1.8,2.4,3.8,4.6,6.1,6.5c6.2,5.1,14.1,8.2,22.8,8.2
	c5.1,0,10.1-1.1,14.5-3.1c12.6-5.6,21.4-18.2,21.4-32.8C135.9,60.8,124.7,46.9,109.6,42.7z M101.1,103.6c-0.4,0-0.7,0-1.1,0
	c-0.4,0-0.7,0-1.1,0c-9.7-0.4-18-6-22.3-14.1c-0.1-0.2-0.2-0.3-0.3-0.5c-1.3-2.7-2.2-5.6-2.5-8.6c-0.1-0.6-0.1-1.3-0.2-2
	c0,0,0,0,0,0c0-0.4,0-0.7,0-1.1c0-0.4,0-0.8,0-1.1c0.1-2.6,0.6-5,1.4-7.3C78.5,58.7,87.8,51.4,99,50.9c0.3,0,0.7,0,1,0c0,0,0,0,0,0
	c0.3,0,0.7,0,1,0c3,0.1,5.8,0.7,8.5,1.8c9.5,3.7,16.3,12.8,16.8,23.5c0,0.4,0,0.7,0,1.1c0,0.4,0,0.8,0,1.1
	C125.8,92,114.8,103,101.1,103.6z"/>
<path class="st0" d="M104.3,74.4v-0.6c0-0.3-0.1-0.7-0.3-1c-0.1-0.1-0.2-0.3-0.3-0.4c0,0-0.1-0.1-0.1-0.1c-0.1-0.1-0.1-0.1-0.2-0.2
	c-0.1,0-0.2-0.1-0.2-0.1c-0.3-0.2-0.6-0.3-1-0.4c-0.1,0-0.2-0.1-0.3-0.1c-0.1,0-0.1,0-0.2,0c-0.1,0-0.2,0-0.3-0.1
	c-0.1,0-0.2,0-0.3,0c-0.3,0-0.6,0-0.9,0c0,0,0,0,0,0c-0.3,0-0.6,0-0.9,0c0,0-0.1,0-0.1,0c-0.2,0-0.4,0.1-0.6,0.1
	c-0.2,0-0.3,0.1-0.4,0.1c-1.2,0.4-2.1,1.1-2.2,2c0,0,0,0.1,0,0.2v22.7c0,1.2,1.4,2.2,3.3,2.4c0.3,0,0.7,0,1,0c0.3,0,0.7,0,1,0
	c1.9-0.3,3.3-1.3,3.3-2.4V74.4C104.3,74.4,104.3,74.4,104.3,74.4z M100,74L100,74L100,74L100,74L100,74z"/>
<rect x="100" y="74" class="st0" width="0" height="0"/>
<path class="st0" d="M124.2,130.7c2.1,0.1,4.8,2.1,6,4c1.9,3,1.4,6.8-1.5,8.9c-2.8,2-6.4,3.7-9.8,4c-5.3,0.5-10.7-0.3-16-0.5
	c-2-0.1-4.3-0.6-4.6,2.2c-0.4,3,2,3.3,4.2,3.3c7,0,14.1,0.3,21-0.2c2.6-0.2,5.9-1.7,7.5-3.7c3-3.7,7-4.2,10.9-5.3
	c3.1-0.9,6.2-2,9.4-2.6c4.2-0.9,7.5,0.8,9.2,4.3c1.7,3.4,1.2,7.6-2.1,9.9c-16.5,11.2-33.3,21.9-53.4,25.1c-10,1.6-19.7-1.5-29.2-4.4
	c-5-1.5-8.6-1-12.5,2.4c-4.6,4.1-6,3.7-9.7-1.1c-4.5-5.8-8.9-11.6-13.4-17.4c-1.9-2.5-2.3-4.8,0.4-6.8c10.9-8,21.6-16.3,34.6-20.3
	C81.6,130.4,114.5,130.3,124.2,130.7z"/>
<rect x="100" y="74" class="st0" width="0" height="0"/>
<circle class="st0" cx="99.9" cy="63" r="4.5"/>
</svg>
