<?xml version="1.0" encoding="utf-8"?>
<!-- Generator: Adobe Illustrator 24.0.0, SVG Export Plug-In . SVG Version: 6.00 Build 0)  -->
<svg version="1.1" id="Layer_1" xmlns="http://www.w3.org/2000/svg" xmlns:xlink="http://www.w3.org/1999/xlink" x="0px" y="0px"
	 viewBox="0 0 200 200" style="enable-background:new 0 0 200 200;" xml:space="preserve">
<style type="text/css">
	.st0{fill:#00A3EF;}
	.st1{fill:#18F763;}
	.st2{fill:#28292B;}
	.st3{fill:none;stroke:#E4F000;stroke-miterlimit:10;}
</style>
<g>
	<path class="st0" d="M79,49.9c-8.5,8.8-14.9,15.5-14.9,15.5l-5.7-5.4c-1.5-1.4-3.8-1.6-5.4-0.3c-1.8,1.5-1.8,4.2-0.2,5.8l9.3,9
		c1.1,1,2.8,1,3.8-0.1l18.4-19.2c1.4-1.5,1.4-3.9-0.1-5.4l0,0C82.9,48.3,80.5,48.4,79,49.9z"/>
</g>
<path class="st0" d="M118.7,91.6c-0.7,0-1.3,0.1-2,0.1h-0.3c-1.8,0-3.7,0-5.6,0v0C113.4,91.6,116,91.6,118.7,91.6z"/>
<path class="st0" d="M151.4,140.4c0-4.8,0-9.5,0-14.3c0-3.4-1.2-6.5-3.6-8.8c-2.3-2.3-5.3-3.5-8.5-3.5c-0.7,0-1.5,0.1-2.2,0.2
	c-1-2.9-2.7-5.2-5.2-6.7c-1.9-1.1-3.9-1.7-6-1.7c-0.7,0-1.5,0.1-2.3,0.2c-1.7-5.1-6.1-8.4-11.4-8.4c-0.5,0-1,0-1.4,0.1v-5.9
	c2.6,0,5.3,0,7.9,0c7-0.5,12.1-4,13.3-10.4c0-0.2,0.1-0.4,0.1-0.6V43.2c0-0.3,0-0.6,0-0.8c-0.1-0.8-0.3-1.6-0.6-2.4
	c-3-7-6.8-8.1-15.2-8.1H39.6c-8.7,0-14.3,5.6-14.3,14.3v19.4c0,6.7,0,11.4,0,11.4c0,9.1,5.5,14.6,14.6,14.6h46.6v35.2
	c-2.3-1.2-4.7-2.3-7-3.5c-2-1-4-1.5-6.1-1.5c-1,0-2,0.1-2.9,0.3c-5.5,1.2-9.1,4.7-10.4,10c-1.4,5.4,0.2,10.4,4.5,14
	c1.5,1.3,3.1,2.5,4.7,3.7c1.2,0.9,2.5,1.9,3.7,2.9c6.1,5,12.3,10.5,16.1,17.9c1.8,3.5,5,5.9,9.3,7.2c0.3,0.1,0.6,0.2,1,0.3l0.9,0.3
	H135c0,0,1-0.3,1.3-0.3c0.7-0.2,1.5-0.4,2.2-0.7c7.9-2.6,12.8-9.6,12.9-18.1C151.4,153,151.4,146.6,151.4,140.4z M53.5,81.2h-7.7
	l-6.3,0c-2.7,0-3.7-1-3.7-3.7V46.2c0-2.9,1-3.9,3.8-3.9h78.1c3.2,0,4.1,0.9,4.1,4.1v30.8c0,3-1,3.9-3.9,3.9h-9.2
	c0,0-0.1-0.1-0.1-0.1c-1.7-2.5-4.2-4.3-7-5h0c-5.2-0.4-8.4,1-10,2.1c0,0-0.1,0-0.1,0.1c-0.5,0.4-0.9,0.8-1.3,1.2
	c0,0-0.1,0.1-0.1,0.1c-0.5,0.5-0.9,1.1-1.3,1.7C80.6,81.2,64.3,81.2,53.5,81.2z M141,159.5c-0.1,5.1-3.7,8.5-8.9,8.5
	c-3.8,0-7.5,0-11.3,0h-17.6c-2.6,0-4.3-1-5.4-3.1c-3.2-6-7.6-11.3-13.6-16.3c-3.2-2.7-6.5-5.3-9.7-7.8l-3-2.4c-1.3-1-1.7-2-1.4-3.4
	c0.3-1.4,1-2.2,2.2-2.4c0.2,0,0.5-0.1,0.8-0.1c0.8,0,1.7,0.2,2.4,0.5c3.1,1.4,6.2,3,9.2,4.5c1.4,0.7,2.8,1.4,4.1,2.1
	c1.2,0.6,2.3,0.9,3.3,0.9c2.3,0,4-1.6,4-6c0-5.4,0-10.9,0-16.3V104c0-5.3,0-10.7,0-16c0-0.9,0.8-1.5,1.6-1.6
	c0.2-0.1,0.3-0.1,0.5-0.1c1.2,0,2.2,0.7,2.2,1.4c0,0.3,0,1.7,0,3.9c0,10.7,0,39.6,0,39.6c0,5.9,3.4,6.5,5,6.5c1.6,0,5.1-0.7,5.1-6.5
	c0,0,0-16.4,0-21.3c0-1.2,1.1-2,2.2-2c1.1,0,2.2,0.7,2.2,2.1c0,5.2,0,22.3,0,22.8c0.3,2.9,1.3,5,4,5h0.2c2.9-0.1,4.9-2.3,4.9-5.3
	c0-3.1,0-14.3,0-14.6c0.1-0.8,1-1.9,2.2-1.9c0.9,0,2.2,0.8,2.3,1.8c0,3.1,0,14.5,0,14.9c0.2,2.8,1,4.9,3.7,5.1h0.3
	c2.8,0,3.8-2.2,3.9-5c0-1.4,0-5.7,0-6.4c0-0.6,0.8-2,2.2-2c1.4,0,2.4,1.3,2.4,1.9C141,126.2,141.1,150.2,141,159.5z"/>
</svg>
