<?xml version="1.0" encoding="utf-8"?>
<!-- Generator: Adobe Illustrator 24.0.0, SVG Export Plug-In . SVG Version: 6.00 Build 0)  -->
<svg version="1.1" id="Layer_1" xmlns="http://www.w3.org/2000/svg" xmlns:xlink="http://www.w3.org/1999/xlink" x="0px" y="0px"
	 viewBox="0 0 200 200" style="enable-background:new 0 0 200 200;" xml:space="preserve">
<style type="text/css">
	.st0{fill:#00A3EF;}
	.st1{fill:#18F763;}
	.st2{fill:#28292B;}
	.st3{fill:none;stroke:#E4F000;stroke-miterlimit:10;}
</style>
<path class="st0" d="M127,77.6h-21.1c-1.6,0-2.9,1.5-2.9,3.4v0c0,1.9,1.3,3.4,2.9,3.4H127c1.6,0,2.9-1.5,2.9-3.4v0
	C129.9,79.1,128.6,77.6,127,77.6z"/>
<path class="st0" d="M127,64.7h-21.1c-1.6,0-2.9,1.5-2.9,3.4l0,0c0,1.9,1.3,3.4,2.9,3.4H127c1.6,0,2.9-1.5,2.9-3.4l0,0
	C129.9,66.2,128.6,64.7,127,64.7z"/>
<path class="st0" d="M127,89.5h-21.1c-1.6,0-2.9,1.5-2.9,3.4v0c0,1.9,1.3,3.4,2.9,3.4H127c1.6,0,2.9-1.5,2.9-3.4v0
	C129.9,91.1,128.6,89.5,127,89.5z"/>
<path class="st0" d="M116.6,36c-3.6-1-7.4-1.5-11.4-1.5c0,0,0,0,0,0c-20.1,0-37.1,14-41.6,32.7c-0.8,3.2-1.2,6.6-1.2,10.1
	c0,1.2,0.1,2.4,0.2,3.7c0.3,3.6,1,7,2.2,10.3c1.4,4.1,3.4,8,6,11.4c2.1,2.9,4.6,5.5,7.3,7.7c7.4,6.1,16.9,9.8,27.2,9.8
	c6.1,0,12-1.3,17.3-3.6c15-6.7,25.5-21.7,25.5-39.2C148,57.6,134.6,41,116.6,36z M105.2,111.2c-18.7,0-33.9-15.2-33.9-33.9
	c0-18.7,15.2-33.9,33.9-33.9s33.9,15.2,33.9,33.9C139.1,96,123.9,111.2,105.2,111.2z"/>
<path class="st0" d="M95.5,73v-0.6c0-0.3-0.1-0.7-0.3-1c-0.1-0.1-0.2-0.3-0.3-0.4c0,0-0.1-0.1-0.1-0.1c-0.1-0.1-0.1-0.1-0.2-0.2
	c-0.1,0-0.2-0.1-0.2-0.1c-0.3-0.2-0.6-0.3-1-0.4c-0.1,0-0.2-0.1-0.3-0.1c-0.1,0-0.1,0-0.2,0c-0.1,0-0.2,0-0.3-0.1
	c-0.1,0-0.2,0-0.3,0c-0.3,0-0.6,0-0.9,0c0,0,0,0,0,0c-0.3,0-0.6,0-0.9,0c0,0-0.1,0-0.1,0c-0.2,0-0.4,0.1-0.6,0.1
	c-0.2,0-0.3,0.1-0.4,0.1c-1.2,0.4-2.1,1.1-2.2,2c0,0,0,0.1,0,0.2v22.7c0,1.2,1.4,2.2,3.3,2.4c0.3,0,0.7,0,1,0c0.3,0,0.7,0,1,0
	c1.9-0.3,3.3-1.3,3.3-2.4V73C95.5,73,95.5,73,95.5,73z M91.2,72.5L91.2,72.5L91.2,72.5L91.2,72.5L91.2,72.5z"/>
<rect x="105.1" y="74" class="st0" width="0" height="0"/>
<path class="st0" d="M129.3,130.7c2.1,0.1,4.8,2.1,6,4c1.9,3,1.4,6.8-1.5,8.9c-2.8,2-6.4,3.7-9.8,4c-5.3,0.5-10.7-0.3-16-0.5
	c-2-0.1-4.3-0.6-4.6,2.2c-0.4,3,2,3.3,4.2,3.3c7,0,14.1,0.3,21-0.2c2.6-0.2,5.9-1.7,7.5-3.7c3-3.7,7-4.2,10.9-5.3
	c3.1-0.9,6.2-2,9.4-2.6c4.2-0.9,7.5,0.8,9.2,4.3c1.7,3.4,1.2,7.6-2.1,9.9c-16.5,11.2-33.3,21.9-53.4,25.1c-10,1.6-19.7-1.5-29.2-4.4
	c-5-1.5-8.6-1-12.5,2.4c-4.6,4.1-6,3.7-9.7-1.1c-4.5-5.8-8.9-11.6-13.4-17.4c-1.9-2.5-2.3-4.8,0.4-6.8c10.9-8,21.6-16.3,34.6-20.3
	C86.7,130.4,119.7,130.3,129.3,130.7z"/>
<rect x="105.1" y="74" class="st0" width="0" height="0"/>
<circle class="st0" cx="91.1" cy="61.6" r="4.5"/>
</svg>
