<?xml version="1.0" encoding="utf-8"?>
<!-- Generator: Adobe Illustrator 24.0.0, SVG Export Plug-In . SVG Version: 6.00 Build 0)  -->
<svg version="1.1" id="Layer_1" xmlns="http://www.w3.org/2000/svg" xmlns:xlink="http://www.w3.org/1999/xlink" x="0px" y="0px"
	 viewBox="0 0 200 200" style="enable-background:new 0 0 200 200;" xml:space="preserve">
<style type="text/css">
	.st0{fill:#00A3EF;}
	.st1{fill:#18F763;}
	.st2{fill:#28292B;}
	.st3{fill:none;stroke:#E4F000;stroke-miterlimit:10;}
</style>
<path class="st0" d="M163.3,79c-1.8-5.4-5.3-8.9-11.1-9.9c-0.8-0.1-1.6-0.1-2.4-0.1c-36.4,0-72.7,0-109,0c-3.3,0-6.5,0-9.8,0
	c-2.2,0-4.3,0-6.5,0c-7.7,0-13.8,6.1-14.1,13.8c0,0.3,0,0.5,0,0.8v58h0c0,6.3,0,12.7,0,19.1c0,5.3,2.1,9.6,6.6,12.6
	c1.9,1.3,4.1,1.9,6.4,2c0.5,0,0.9,0,1.4,0c41.5,0,83-0.1,124.5,0.1c8.5,0,13.7-6.3,14.4-12.5c0-0.1,0.1-0.3,0.1-0.4V81.8
	C163.8,80.9,163.6,79.9,163.3,79z M154.2,157.1c0,4.4-3.6,7.9-7.9,7.9H28.2c-4.4,0-7.9-3.5-7.9-7.9v-70c0-1,0.2-1.9,0.5-2.7v-0.4
	c0.1,0,0.1,0.1,0.1,0.1c1.2-2.8,4-4.9,7.3-4.9h118.2c3.3,0,6.1,2,7.3,4.8c0.1,0,0.1-0.1,0.1-0.1v0.5c0.3,0.8,0.5,1.8,0.5,2.7V157.1z
	"/>
<path class="st0" d="M189.5,58.6c0,0,0,80.8,0,81c-0.7,6.2-6,12.4-14.5,12.4c-2,0-4.1,0-6.1,0v-10.2h2.9c4.4,0,7.9-3.6,7.9-7.9v-70
	c0-0.9-0.2-1.9-0.5-2.7c0,0-0.1-0.4-0.2-0.4c-1.2-2.8-4-4.8-7.3-4.8H53.7c-3.3,0-6.1,2-7.3,4.9c0,0-0.1,0.3-0.1,0.3
	c-0.3,0.8-0.5,1.8-0.5,2.7v0.1c-3.3,0-6.5,0-9.8,0c0,0,0-4.1,0-4.4c0.3-7.7,6.4-13.8,14.1-13.8c41.8,0.1,83.5,0.1,125.3,0.1
	c0.8,0,1.6,0,2.4,0.1c5.8,1,9.3,4.5,11.1,9.9C189.2,56.7,189.3,57.7,189.5,58.6z"/>
<g>
	<polygon class="st0" points="81.5,114 97.2,141.2 117.4,100 140,157.1 34.4,157.1 34.4,143.5 45.9,143.5 51.3,128 56.4,143.5 
		70.5,143.2 	"/>
	<path class="st0" d="M61.6,101.7c-0.1,5.9-4.7,10.6-10.6,10.6c-5.8,0-10.6-4.8-10.5-10.7c0-5.8,5-10.7,10.7-10.6
		C57,91,61.7,95.9,61.6,101.7z"/>
</g>
</svg>
