<?xml version="1.0" encoding="utf-8"?>
<!-- Generator: Adobe Illustrator 24.0.0, SVG Export Plug-In . SVG Version: 6.00 Build 0)  -->
<svg version="1.1" id="Layer_1" xmlns="http://www.w3.org/2000/svg" xmlns:xlink="http://www.w3.org/1999/xlink" x="0px" y="0px"
	 viewBox="0 0 200 200" style="enable-background:new 0 0 200 200;" xml:space="preserve">
<style type="text/css">
	.st0{fill:#00A3EF;}
	.st1{fill:#18F763;}
	.st2{fill:#28292B;}
	.st3{fill:#3E94A6;}
	.st4{fill:#F91500;}
	.st5{fill:none;stroke:#00A3EF;stroke-width:9;stroke-miterlimit:10;}
	.st6{fill:none;stroke:#00A3EF;stroke-width:8;stroke-miterlimit:10;}
	.st7{fill:#005784;}
	.st8{fill:#00B4FF;}
	.st9{fill:#FFFFFF;}
</style>
<g>
	<path class="st0" d="M42.6,135.6c-4.2-0.7-7.9-1.3-11.7-2c-3.5-0.6-5.1-2.9-4.8-6.3c1-10.5,1.8-21.1,3.4-31.6
		c1.6-10.3,8.4-16.4,18.6-19.7c3.5,8.6,6.9,17,10.3,25.4c0.3,0,0.6,0,1,0c0.7-5.5,1.4-11.1,2.1-16.8c0,0-1.3-0.4-1.4-0.4
		c-0.4-0.2-0.9-0.4-1.2-0.8c-0.8-0.7-1-1.9-1.2-3c-0.2-1.6-0.2-3.5,0.8-4.9c0.7-1,2.2-1.2,3.4-1.2c2.1-0.1,4.4-0.2,6.6,0.2
		c0.6,0.1,1.2,0.3,1.5,0.8c0.2,0.3,0.5,1,0.6,1.3c0.5,2.7,0.8,6.3-2.3,7.6c-0.1,0-1.1,0.3-1.1,0.3c0.7,5.8,1.4,11.4,2,17
		c0.3,0.1,0.6,0.1,0.9,0.2c2.8-7,5.9-13.9,8.3-21.1c1.3-3.8,3.1-5.1,7.2-5.1c14.7,0.3,29.5,0.1,44.2,0.1c6,0,7.2,1.7,4.9,7.3
		c-5.2,13-2,11.1-16.4,11.3c-7.4,0.1-14.7,0-22.1,0c-6,0.1-8.5,2.5-8.8,8.6c-1.2,26-2.4,52.1-3.6,78.1c-0.3,6.4-3,9.1-9.4,9.1
		c-6.8,0-13.6,0.1-20.3,0c-5.6-0.1-8.2-2.3-8.6-7.8c-0.9-12.8-1.6-25.6-2.3-38.4C43,141,42.7,138.3,42.6,135.6z"/>
	<path class="st0" d="M88.4,46.3c0,13.3-10.9,24.2-24.2,24.2C51,70.4,40,59.5,39.9,46.3c-0.1-13.4,11-24.4,24.5-24.3
		C77.7,22.1,88.4,32.9,88.4,46.3z"/>
</g>
<path class="st0" d="M140.2,105.2c-23.4-0.1-42.4,18.9-42.3,42.4c0,23.3,18.9,42.2,42.1,42.3c23.4,0.1,42.4-19,42.3-42.4
	C182.2,124.1,163.5,105.3,140.2,105.2z"/>
<g>
	<path class="st9" d="M144.2,123.3c2.3,0.7,3.6,1.2,6.3,3.3c2.1,1.6,2.6,3.9,1.3,5.8c-1.4,2-3.8,2.3-6,0.7
		c-3.3-2.3-7.8-2.4-11.1-0.2c-3.6,2.5-3.6,6.5,0,9c1.8,1.2,3.9,1.5,6,1.6c5.2,0.2,9.6,2.1,12.8,6.2c4.9,6.2,3.2,14.9-3.8,19.3
		c-1.7,1-3.6,1.7-5.6,2.7c0,1.2,0,2.6,0,4c0,2.5-1.7,4.3-4,4.3c-2.4,0-4.1-1.8-4.1-4.4c0-1.4,0-2.8,0-3.8c-2.3-1.2-4.5-2.1-6.4-3.4
		c-2.1-1.4-2.5-3.9-1.2-5.7c1.4-1.9,3.8-2.3,5.9-0.8c3.4,2.4,7.8,2.5,11.1,0.4c3.7-2.5,3.7-6.7,0-9.1c-1.7-1.1-3.5-1.5-5.5-1.5
		c-4.4-0.1-8.4-1.5-11.6-4.6c-6.2-5.9-5.8-15.1,1.1-20.2c3.8-2.7,4-2.6,6.7-3.6c0-1,0-2.4,0-3.8c0-2.5,1.7-4.3,4-4.3
		c2.4,0,4.1,1.8,4.1,4.4C144.2,120.8,144.2,122.2,144.2,123.3z"/>
</g>
</svg>
