<?xml version="1.0" encoding="utf-8"?>
<!-- Generator: Adobe Illustrator 24.0.0, SVG Export Plug-In . SVG Version: 6.00 Build 0)  -->
<svg version="1.1" id="Layer_1" xmlns="http://www.w3.org/2000/svg" xmlns:xlink="http://www.w3.org/1999/xlink" x="0px" y="0px"
	 viewBox="0 0 200 200" style="enable-background:new 0 0 200 200;" xml:space="preserve">
<style type="text/css">
	.st0{fill:#00A3EF;}
	.st1{fill:#18F763;}
	.st2{fill:#28292B;}
	.st3{fill:#3E94A6;}
	.st4{fill:#F91500;}
	.st5{fill:none;stroke:#00A3EF;stroke-width:9;stroke-miterlimit:10;}
	.st6{fill:none;stroke:#00A3EF;stroke-width:8;stroke-miterlimit:10;}
	.st7{fill:#005784;}
	.st8{fill:#00B4FF;}
	.st9{fill:#FFFFFF;}
</style>
<path class="st0" d="M91.6,40.6c0,13.6-11.2,24.7-24.7,24.7c-13.5,0-24.7-11.2-24.8-24.7c-0.1-13.7,11.2-24.9,25-24.8
	C80.7,15.9,91.6,26.9,91.6,40.6z"/>
<path class="st0" d="M161.8,181.6c0,0.2,0,0.4,0,0.6c-0.1-0.4-0.1-0.8,0-1.2C161.8,181.2,161.8,181.4,161.8,181.6z"/>
<path class="st0" d="M162.8,178.3c-0.2,0.3-0.4,0.7-0.6,1C162.4,179,162.6,178.6,162.8,178.3z"/>
<path class="st0" d="M63.9,81.8c0,0.3-0.1,0.6-0.1,0.8h0C63.8,82.4,63.8,82.1,63.9,81.8z"/>
<path class="st0" d="M64.1,79.6C64.1,79.7,64.1,79.7,64.1,79.6c0,0.1-1.3-0.3-1.4-0.4c-0.5-0.2-0.9-0.5-1.3-0.8
	c-0.3-0.3-0.5-0.6-0.6-0.9C61.3,78.5,62.3,79.3,64.1,79.6z"/>
<path class="st0" d="M71.3,79.2c-0.1,0.1-0.2,0.1-0.3,0.1c-0.1,0-1.1,0.4-1.1,0.3c0,0,0,0,0-0.1C70.4,79.5,70.9,79.3,71.3,79.2z"/>
<path class="st0" d="M181.2,131.5c-2.3,9.3-4.6,18.6-6.9,27.9c-0.4,1.6-1.5,2.4-3.3,2.4h-38c0.5,3.1,1,6,1.5,9.1h33.7
	c1.8,0,3.1,1,3.3,2.6c0.2,1.1-0.3,2-1,2.7c1.9,1,3.3,3,3.3,5.3c0,3.3-2.7,6-6,6c-2.2,0-4.1-1.2-5.2-2.9c0,0,0,0,0-0.1
	c-0.1-0.2-0.2-0.4-0.3-0.5c-0.1-0.2-0.2-0.4-0.2-0.6c0-0.1-0.1-0.3-0.1-0.4c-0.1-0.3-0.1-0.6-0.2-0.9c0-0.2,0-0.4,0-0.6s0-0.4,0-0.6
	c0-0.2,0-0.4,0.1-0.6c0,0,0,0,0,0c0-0.1,0-0.1,0-0.2c0-0.1,0.1-0.3,0.1-0.4c0.1-0.2,0.1-0.4,0.2-0.6c0.2-0.4,0.3-0.7,0.6-1
	c0.1-0.2,0.2-0.3,0.3-0.5c0.2-0.2,0.4-0.5,0.6-0.7h-27.4c1.3,1.1,2.1,2.7,2.1,4.5c0,3.3-2.7,6-6,6c-3.3,0-6-2.7-6-6
	c0-2.3,1.3-4.3,3.2-5.3c-0.3-0.9-0.6-1.8-0.8-2.7c-2.9-16.7-5.8-33.5-8.7-50.2c-0.1-0.7-0.4-0.9-1-0.8c-0.4,0-0.7,0-1.1,0
	c-1.3,0-2.4-0.8-2.8-1.9c-0.5-1.2-0.1-2.4,0.9-3.4c0.1-0.1,0.2-0.2,0.4-0.4c-3.5,1.3-7.1-1.7-9.5-3.8c-1.7-1.5-14.8-18.6-16.4-20.1
	c-0.1,0.7,0.1,4.4,0,5.3c-1.2,26.6-2.5,53.2-3.7,79.8c-0.3,6.5-3.1,9.3-9.6,9.3c-6.9,0-13.9,0.1-20.8,0c-5.7-0.1-8.4-2.3-8.8-8
	c-0.9-13.1-1.6-26.1-2.4-39.2c-0.2-2.8-0.4-5.6-0.6-8.4c-4.3-0.7-8.1-1.3-11.9-2c-3.5-0.7-5.2-2.9-4.8-6.4
	c1.1-10.8,1.8-21.6,3.5-32.3c1.6-10.6,6.4-19.7,19-20.1c3.6,8.8,7.1,17.4,10.6,26c0.5-0.1,0.4-0.1,0.9-0.1c0.6-4.7,1.2-9.4,1.8-14.2
	c0-0.3,0.1-0.6,0.1-0.8c0.1-0.7,0.2-1.4,0.3-2.1c0,0,0,0,0-0.1c-1.8-0.3-2.8-1.1-3.3-2.1c0-0.1-0.1-0.2-0.1-0.3
	c-0.2-0.6-0.3-1.2-0.4-1.8c-0.2-1.7-0.2-3.7,0.8-5.1c0.7-1,2.3-1.2,3.5-1.3c2.2-0.2,4.6-0.2,6.7,0.3c0.6,0.1,1.2,0.3,1.5,0.8
	c0.2,0.3,0.5,1.1,0.6,1.4c0.3,1.6,0.5,3.6,0,5.2c0,0,0,0,0,0c-0.3,1-0.9,1.9-2,2.4c0,0-0.1,0.1-0.1,0.1c-0.4,0.2-0.9,0.3-1.4,0.4
	c0,0,0,0,0,0.1c0.1,1,0.2,2,0.4,3c0.6,4.8,1.2,9.6,1.7,14.3c0.5,0.1,0.4,0.1,0.9,0.1c2.9-7.1,6-14.2,8.5-21.5
	c1.4-3.9,3.2-5.3,7.4-5.2c0,0,0,0,0,0c1.8,0,6.3,0.5,7.3,2c3.9,6.1,12.2,20.4,13,21.8c2.4,3.7,3.8,5.8,6.4,8.3
	c2,1.9,3.6,3.9,6.3,4.5c2.2,0.5,3.7,1.9,4.2,4.1c0.5,2.2-0.1,4.1-1.9,5.5c-0.1,0.1-0.2,0.1-0.4,0.3c1.6,0.8,1.7,2.1,2,3.5
	c2,11.6,4.1,23.2,6.2,34.8c0.1,0.5,0.3,0.7,0.8,0.7c11.9,0,23.8,0,35.6,0c0.6,0,1.3-0.4,1.6-2c0.8-4.5,0.9-5.6,0.9-5.9h-30.5
	c-0.9,0-1.7-0.1-2.3-0.7c-0.9-0.8-1.3-2-1-3.2c0.4-1.2,1.4-2,2.7-2.1c0.3,0,0.6,0,0.8,0c10.3,0,20.7,0,31,0c0.8,0,1.1-0.3,1.3-1.4
	c0.5-2.2,0.8-3.4,1.2-5.4c0.1-0.4,0.2-0.7,0.3-1.2h-32c-2,0-3.4-1.3-3.3-3.2c0.1-1.5,1.3-2.7,2.8-2.9c0.1,0,0.3,0,0.4,0
	c12,0,24,0,36,0c1.7,0,2.9,1,3.1,2.7C181.3,130.8,181.3,131.2,181.2,131.5z"/>
<path class="st0" d="M162,180.2c0,0.1,0,0.1,0,0.2c0,0,0,0,0,0C161.9,180.4,161.9,180.3,162,180.2z"/>
</svg>
