<?xml version="1.0" encoding="utf-8"?>
<!-- Generator: Adobe Illustrator 24.0.0, SVG Export Plug-In . SVG Version: 6.00 Build 0)  -->
<svg version="1.1" id="Layer_1" xmlns="http://www.w3.org/2000/svg" xmlns:xlink="http://www.w3.org/1999/xlink" x="0px" y="0px"
	 viewBox="0 0 200 200" style="enable-background:new 0 0 200 200;" xml:space="preserve">
<style type="text/css">
	.st0{fill:#00A3EF;}
	.st1{fill:#18F763;}
	.st2{fill:#28292B;}
	.st3{fill:#3E94A6;}
	.st4{fill:#F91500;}
	.st5{fill:none;stroke:#00A3EF;stroke-width:9;stroke-miterlimit:10;}
	.st6{fill:none;stroke:#00A3EF;stroke-width:8;stroke-miterlimit:10;}
	.st7{fill:#005784;}
	.st8{fill:#00B4FF;}
	.st9{fill:#FFFFFF;}
</style>
<path class="st0" d="M26.4,54v101.8c0,7.7,6.3,14,14,14h111.1c7.7,0,14-6.3,14-14v-35c0-3.4-2.9-6-6.2-5.8l-0.1,0
	c-3,0.2-5.3,2.8-5.3,5.8v34.9c0,1.3-1,2.3-2.3,2.3H40.4c-1.3,0-2.3-1-2.3-2.3V54c0-1.3,1-2.3,2.3-2.3H93c3.2,0,5.8-2.6,5.8-5.8v0
	c0-3.2-2.6-5.8-5.8-5.8H40.4C32.7,40,26.4,46.2,26.4,54z"/>
<path class="st0" d="M123.8,102.5c0-1-0.2-1.4-1.3-1.5c-23.6-2-44.9,3.6-63.2,19.1c-2.8,2.4-5.3,5.2-7.9,7.9
	c-0.3,0.3-0.5,0.5-0.7,0.8c-0.1,0-0.2-0.1-0.3-0.1c0.3-1.5,0.5-3,0.8-4.5c2.9-13.2,8.9-24.7,18.8-34c8.3-7.8,18.1-12.6,29-15.3
	c7.7-1.9,15.6-2.7,23.5-2.7c0.9,0,1.2-0.2,1.2-1.2c0-8.6-0.1-27.3-0.1-27.3s30.8,28.7,46.1,42.9c-15.3,14.3-46,42.9-46,42.9
	S123.7,111,123.8,102.5z"/>
</svg>
