<?xml version="1.0" encoding="utf-8"?>
<!-- Generator: Adobe Illustrator 24.0.0, SVG Export Plug-In . SVG Version: 6.00 Build 0)  -->
<svg version="1.1" id="Layer_1" xmlns="http://www.w3.org/2000/svg" xmlns:xlink="http://www.w3.org/1999/xlink" x="0px" y="0px"
	 viewBox="0 0 200 200" style="enable-background:new 0 0 200 200;" xml:space="preserve">
<style type="text/css">
	.st0{fill:#00A3EF;}
	.st1{fill:#18F763;}
	.st2{fill:#28292B;}
	.st3{fill:#3E94A6;}
	.st4{fill:#F91500;}
	.st5{fill:none;stroke:#00A3EF;stroke-width:9;stroke-miterlimit:10;}
	.st6{fill:none;stroke:#00A3EF;stroke-width:8;stroke-miterlimit:10;}
	.st7{fill:#005784;}
	.st8{fill:#00B4FF;}
	.st9{fill:#FFFFFF;}
</style>
<path class="st0" d="M72.8,136.8c0.6-6-1.8-10.3-7.2-12.5c-5.8-2.3-9.8,0.6-12.9,5.9c-1.6-3.9-4-6.7-7.8-7.7c-3.8-1.1-7.2-0.3-10,3
	c-2.6-3.2-5.2-6.3-7.8-9.5c8-14.3,16.1-28.5,24.3-43.1c5.7,4.8,12.5,5.3,19.6,6.3c-1.9,2.7-3.7,5-5.2,7.5c-2.2,3.7-4.7,7.4-6,11.4
	c-1.8,5.5,1.2,8.8,7.1,8.6c7.2-0.2,13-3.6,17.9-8.5c1.6-1.5,2.8-3.4,4.4-5c0.7-0.8,1.6-1.4,2.6-1.9c3.7-2,7-1.2,10.7,0.8
	c7.2,3.8,14.3,7.9,21.1,12.3c6.9,4.4,13.6,9.1,20.1,14c3,2.2,5.9,4.5,8.8,6.8c2.4,1.9,5.7,3.9,7,6.9c0.9,2.1,0.5,4.6-0.8,6.4
	c-1.3,1.8-3.6,2.9-5.9,2.8c-2.4-0.1-4.5-1.4-6.6-2.6c-0.3,0-1-0.6-1.2-0.8c-0.5-0.3-1-0.6-1.5-0.9c-0.9-0.6-1.9-1.2-2.8-1.7
	c-1.8-1.1-3.6-2.2-5.4-3.3c-3.8-2.3-7.6-4.6-11.4-6.8c-0.6-0.3-1.1-0.7-1.7-1c-1.3-0.8-3-2.7-4.4-0.3c-1.3,2.2,1,2.8,2.3,3.6
	c7.9,4.8,15.9,9.6,23.9,14.2c1.2,0.7,2.3,1.7,2.7,3c0.2,1,0,2-0.3,2.9c-0.4,1.2-1,2.3-1.9,3.2c-1.6,1.5-3.9,2.1-6.1,1.8
	s-4.2-1.2-6.1-2.3c-6.2-3.7-12.5-7.4-18.8-11c-0.1-0.1-0.3-0.1-0.4-0.2c-1.2-0.7-2.5-1.4-3.5,0.2c-1.1,1.8,0.6,2.6,2,3.3
	c2.1,1.1,4.1,2.2,6.1,3.4c2.2,1.3,4.5,2.6,6.7,3.9c2.3,1.4,4.6,2.8,7,4.1c1,0.6,2.1,1.3,2.5,2.4c0.4,1.2-0.1,2.5-0.8,3.6
	c-0.7,1.2-1.5,2.3-2.7,3c-1.3,0.8-2.9,0.9-4.4,0.7c-3.8-0.4-7.2-2.4-10.5-4.1c-3.5-1.8-7.2-3.3-10.7-5.1c-1.3-0.6-2.7-1.2-3.5,0.4
	c-0.9,1.7,0.5,2.5,1.9,3.2c2.9,1.4,5.7,2.8,8.6,4.1c1.5,0.7,2.9,1.4,4.4,2.1c0.7,0.3,1.4,0.7,2.2,1c0.3,0.2,2,0.7,2,1
	c0,0.1,0,0.2-0.1,0.3c-1.4,2.4-3.5,4.3-6.1,5.3c-1.9,0.7-3.9,0.8-5.9,0.7c-2.8-0.2-5.5-0.9-8.2-1.6c-1.3-0.3-2.6-0.7-4-1
	c-0.7-0.2-1.4-0.3-2-0.5c-0.2-0.1-2-0.6-2.1-0.5c3.5-4,4.6-8,2.5-12.4c-2.1-4.3-5.6-6.5-10.5-6.6c0.3-3.4-0.4-6.4-2.6-9.1
	C79.2,138.3,76.4,137,72.8,136.8z"/>
<path class="st0" d="M172.3,115.4c-3.7,3-7.5,6.2-11.3,9.3c-1.1,0.9-2.1,0.7-3.3-0.3c-18-14.7-37-27.8-57.9-37.9
	c-1.3-0.6-2.9-0.3-4.4-0.5c-0.2,0-0.3,0.1-0.5,0.1c-4.5,1-8,3.2-10.9,7c-4.2,5.6-10,9.5-17.5,9.5c-3.1,0-3.9-0.8-3.1-3.9
	c1-3.4,3.2-6.3,5.1-9.2c3.3-5,6.7-10,10.3-14.8c2-2.8,5.5-3,8.5-3.5c9.8-1.6,19.6-2.7,29.5-1.4c5.7,0.7,11.3,2,16.9,3.3
	c4.4,1,8.6,1.1,12.8-0.4c1.1-0.4,1.8-0.3,2.5,0.9c7.6,13.6,15.2,27.1,22.8,40.6C172.1,114.6,172.1,114.8,172.3,115.4z"/>
<path class="st0" d="M163.5,55c0.1,0,0.2,0,0.3,0.1c0.5,0.2,1.4,1.8,1.7,2.3c1,1.9,1.5,2.7,2.5,4.6c1.6,2.9,3.2,5.8,4.9,8.7
	c3.2,5.8,6.5,11.6,9.7,17.5c2.4,4.3,4.9,8.6,7.3,12.9c1.3,2.3,2.7,4.6,4,6.9c1.1,1.9,0.8,2.9-1.1,3.9c-3.8,2.2-7.6,4.5-11.3,6.9
	c-1.5,0.9-2.3,0.7-3.2-0.9c-9.6-17.2-19.3-34.3-29-51.5c-1-1.7-0.9-2.8,0.9-3.8c4-2.3,7-4.2,10.9-6.6C161.7,55.7,163,55,163.5,55z"
	/>
<path class="st0" d="M51.5,64.4c0,0.2-0.1,0.5-0.2,0.7c-4.1,7.5-8.4,15-12.6,22.5c0,0,0,0.1-0.1,0.1c-4.4,7.8-8.7,15.5-13.1,23.3
	c-1.3,2.3-2.6,4.6-3.9,6.9c-1,1.7-1.8,1.7-3.3,0.8c-3.8-2.4-7.6-4.7-11.5-7c-1.6-0.9-1.7-1.9-0.8-3.4C15.7,91,25.5,73.7,35.1,56.5
	c0.7-1.3,1.6-1.8,3-1c2.3,1.4,4.6,2.8,6.9,4.2c1.2,0.7,2.4,1.4,3.5,2.1C49.3,62.4,51.5,63.3,51.5,64.4z"/>
<path class="st0" d="M69.3,134.7c-0.1,1-0.8,2.1-1.3,2.9c-0.6,1-1.2,2-1.9,3c-3.2,4.5-6.5,8.9-9.8,13.3c-2.5,3.3-5.3,3.8-8.5,1.5
	c-3.3-2.3-4.1-6.4-1.9-9.5c3.7-5.2,7.5-10.3,11.3-15.5c2.1-2.9,3.9-3.6,6.6-2.7c2.2,0.7,4,2.4,5,4.6c0.2,0.5,0.4,1.1,0.5,1.7
	C69.3,134.2,69.3,134.5,69.3,134.7z"/>
<path class="st0" d="M66.4,166.2c-0.1,0-0.2,0-0.3,0c-0.9,0.1-1.8,0-2.7-0.3c-4-1.5-6.5-6.6-3.8-10.2c3.2-4.4,6.4-8.8,9.7-13.2
	c1.2-1.6,2.9-2.1,4.8-1.7c4.5,0.9,8.1,6.8,4.3,11.4c-2.7,3.2-5.1,6.8-7.5,10.1C69.8,164,68.4,165.8,66.4,166.2z"/>
<path class="st0" d="M73.4,167.4c0-0.3,0.1-0.5,0.2-0.8c0.6-1.8,1.7-3.3,2.8-4.9c1.3-1.8,2.6-3.5,3.8-5.2c1.6-2.2,4-3.3,6.7-2.3
	c1.3,0.5,2.5,1.5,3.4,2.7c1.1,1.4,1.8,3.2,1.5,5c-0.3,1.5-1.2,2.7-2.1,3.9c-0.9,1.3-1.9,2.7-2.9,3.9c-1.2,1.4-2.2,3.4-3.8,4.4
	c-1,0.6-2.1,0.7-3.2,0.5c-3.1-0.5-5.5-3.1-6.2-6.1C73.4,168.3,73.3,167.9,73.4,167.4C73.4,167.5,73.4,167.5,73.4,167.4z"/>
<path class="st0" d="M49.2,133c-0.2,2.7-2.2,4.8-3.7,6.8c-0.6,0.8-1.2,1.7-2,2.4c-1.3,1.1-2.9,1.5-4.5,1.1c-2.2-0.5-4.3-2.2-5.2-4.3
	c-0.9-2.2,0-4.9,1.1-6.8c1.1-2,2.5-3.8,4.2-5.3c1.4-1.3,3.3-1.4,5-0.8C46.8,127,49.4,130.1,49.2,133z"/>
</svg>
