<svg width="61" height="60" viewBox="0 0 61 60" fill="none" xmlns="http://www.w3.org/2000/svg">
<path fill-rule="evenodd" clip-rule="evenodd" d="M30.2633 0C13.5497 0 0 13.4142 0 29.9606C0 46.5071 13.5497 59.9213 30.2633 59.9213C46.9769 59.9213 60.5266 46.5071 60.5266 29.9606C60.5266 13.4142 46.9769 0 30.2633 0ZM43.381 24.8946C43.6226 24.6212 43.8065 24.3028 43.9219 23.9581C44.0373 23.6133 44.0819 23.2492 44.0531 22.8872C44.0243 22.5251 43.9226 22.1724 43.754 21.8498C43.5855 21.5272 43.3535 21.2413 43.0717 21.0088C42.7898 20.7763 42.4639 20.6019 42.113 20.496C41.7621 20.39 41.3934 20.3546 41.0284 20.3918C40.6635 20.4291 40.3098 20.5382 39.9881 20.7127C39.6664 20.8873 39.3832 21.1237 39.1552 21.4082L27.325 35.4598L21.2036 29.3968C20.6847 28.9007 19.9897 28.6262 19.2684 28.6324C18.547 28.6386 17.857 28.925 17.3469 29.43C16.8368 29.935 16.5474 30.6182 16.5412 31.3323C16.5349 32.0464 16.8122 32.7345 17.3133 33.2481L25.567 41.4192C25.8373 41.6867 26.1609 41.8955 26.5173 42.0322C26.8736 42.169 27.2548 42.2308 27.6366 42.2136C28.0184 42.1964 28.3924 42.1007 28.7347 41.9325C29.0771 41.7643 29.3803 41.5274 29.625 41.2367L43.381 24.8946Z" fill="#00EF99"/>
</svg>
