<svg width="73" height="73" viewBox="0 0 73 73" fill="none" xmlns="http://www.w3.org/2000/svg">
<path fill-rule="evenodd" clip-rule="evenodd" d="M36.5 66.1562C41.7063 66.1639 46.8219 64.7945 51.3281 62.1869V52.4688C51.3281 49.7461 50.2466 47.135 48.3214 45.2099C46.3962 43.2847 43.7851 42.2031 41.0625 42.2031H31.9375C29.2149 42.2031 26.6038 43.2847 24.6786 45.2099C22.7534 47.135 21.6719 49.7461 21.6719 52.4688V62.1869C26.1781 64.7945 31.2937 66.1639 36.5 66.1562V66.1562ZM58.1719 52.4688V56.7438C62.1171 52.5203 64.7423 47.2361 65.7247 41.5408C66.7071 35.8454 66.0039 29.9871 63.7016 24.686C61.3993 19.3849 57.5983 14.872 52.7656 11.7021C47.933 8.53221 42.2795 6.84348 36.5 6.84348C30.7205 6.84348 25.067 8.53221 20.2344 11.7021C15.4017 14.872 11.6007 19.3849 9.29837 24.686C6.99608 29.9871 6.29292 35.8454 7.27534 41.5408C8.25775 47.2361 10.8829 52.5203 14.8281 56.7438V52.4688C14.8281 48.9414 15.9177 45.5001 17.948 42.6156C19.9782 39.7311 22.85 37.5442 26.1705 36.354C24.4476 34.3723 23.3312 31.9369 22.9542 29.3382C22.5773 26.7396 22.9559 24.0873 24.0447 21.6978C25.1336 19.3083 26.8868 17.2825 29.0952 15.8619C31.3037 14.4413 33.8741 13.686 36.5 13.686C39.1259 13.686 41.6963 14.4413 43.9048 15.8619C46.1132 17.2825 47.8664 19.3083 48.9553 21.6978C50.0441 24.0873 50.4227 26.7396 50.0458 29.3382C49.6688 31.9369 48.5524 34.3723 46.8295 36.354C50.15 37.5442 53.0218 39.7311 55.052 42.6156C57.0823 45.5001 58.1719 48.9414 58.1719 52.4688V52.4688ZM36.5 73C46.1804 73 55.4643 69.1545 62.3094 62.3094C69.1545 55.4643 73 46.1804 73 36.5C73 26.8196 69.1545 17.5357 62.3094 10.6906C55.4643 3.84553 46.1804 0 36.5 0C26.8196 0 17.5357 3.84553 10.6906 10.6906C3.84553 17.5357 0 26.8196 0 36.5C0 46.1804 3.84553 55.4643 10.6906 62.3094C17.5357 69.1545 26.8196 73 36.5 73V73ZM43.3438 27.375C43.3437 29.1901 42.6227 30.9308 41.3393 32.2143C40.0558 33.4977 38.3151 34.2188 36.5 34.2188C34.6849 34.2188 32.9442 33.4977 31.6607 32.2143C30.3773 30.9308 29.6562 29.1901 29.6562 27.375C29.6562 25.5599 30.3773 23.8192 31.6607 22.5357C32.9442 21.2523 34.6849 20.5313 36.5 20.5312C38.3151 20.5312 40.0558 21.2523 41.3393 22.5357C42.6227 23.8192 43.3438 25.5599 43.3438 27.375V27.375Z" fill="#00A3EF"/>
</svg>
