<svg width="36" height="49" viewBox="0 0 36 49" fill="none" xmlns="http://www.w3.org/2000/svg">
<path d="M13.5156 9.35918H27.0067V12.3572H13.5156V9.35918Z" fill="#00A3EF"/>
<path d="M13.5156 15.3552H27.0067V18.3532H13.5156V15.3552Z" fill="#00A3EF"/>
<path d="M13.5156 21.3513H27.0067V24.3493H13.5156V21.3513Z" fill="#00A3EF"/>
<path d="M13.5156 27.3473H27.0067V30.3453H13.5156V27.3473Z" fill="#00A3EF"/>
<path d="M13.5156 33.3432H27.0067V36.3412H13.5156V33.3432Z" fill="#00A3EF"/>
<path d="M7.51855 9.35918H10.5166V12.3572H7.51855V9.35918Z" fill="#00A3EF"/>
<path d="M7.51855 15.3552H10.5166V18.3532H7.51855V15.3552Z" fill="#00A3EF"/>
<path d="M7.51855 21.3513H10.5166V24.3493H7.51855V21.3513Z" fill="#00A3EF"/>
<path d="M7.51855 27.3473H10.5166V30.3453H7.51855V27.3473Z" fill="#00A3EF"/>
<path d="M7.51855 33.3432H10.5166V36.3412H7.51855V33.3432Z" fill="#00A3EF"/>
<path d="M33.0016 0.365097H3.02145C2.22633 0.365097 1.46377 0.680958 0.901535 1.2432C0.339299 1.80543 0.0234375 2.56799 0.0234375 3.36311V45.3353C0.0234375 46.1304 0.339299 46.893 0.901535 47.4552C1.46377 48.0175 2.22633 48.3333 3.02145 48.3333H33.0016C33.7967 48.3333 34.5593 48.0175 35.1215 47.4552C35.6837 46.893 35.9996 46.1304 35.9996 45.3353V3.36311C35.9996 2.56799 35.6837 1.80543 35.1215 1.2432C34.5593 0.680958 33.7967 0.365097 33.0016 0.365097ZM33.0016 45.3353H3.02145V3.36311H33.0016V45.3353Z" fill="#00A3EF"/>
</svg>
