<?xml version="1.0" encoding="UTF-8"?>
<svg width="95px" height="88px" viewBox="0 0 95 88" version="1.1" xmlns="http://www.w3.org/2000/svg" xmlns:xlink="http://www.w3.org/1999/xlink">
    <!-- Generator: Sketch 63.1 (92452) - https://sketch.com -->
    <title>Group 18</title>
    <desc>Created with Sketch.</desc>
    <defs>
        <polygon id="path-1" points="0 87.8117244 94.4390244 87.8117244 94.4390244 0 0 0"></polygon>
    </defs>
    <g id="Finance-Center" stroke="none" stroke-width="1" fill="none" fill-rule="evenodd">
        <g id="D-BBS-Finance-Center-YourSBA" transform="translate(-437.000000, -680.000000)">
            <g id="Group-18" transform="translate(437.000000, 680.000000)">
                <polygon id="Fill-1" fill="#2570A7" points="16.5682499 23.1955499 19.8818999 23.1955499 19.8818999 19.8818999 16.5682499 19.8818999"></polygon>
                <g id="Group-17">
                    <path d="M66.2729996,39.7637997 L62.9593496,39.7637997 C60.2189611,39.7637997 57.9888746,37.5337133 57.9888746,34.7933248 L61.3025246,34.7933248 C61.3025246,35.7078922 62.0447822,36.4501498 62.9593496,36.4501498 L66.2729996,36.4501498 C67.187567,36.4501498 67.9298246,35.7078922 67.9298246,34.7933248 C67.9298246,33.8787574 67.187567,33.1364998 66.2729996,33.1364998 L62.9593496,33.1364998 C60.2189611,33.1364998 57.9888746,30.9064134 57.9888746,28.1660248 C57.9888746,25.4256363 60.2189611,23.1955499 62.9593496,23.1955499 L66.2729996,23.1955499 C69.0133881,23.1955499 71.2434745,25.4256363 71.2434745,28.1660248 L67.9298246,28.1660248 C67.9298246,27.2514574 67.187567,26.5091998 66.2729996,26.5091998 L62.9593496,26.5091998 C62.0447822,26.5091998 61.3025246,27.2514574 61.3025246,28.1660248 C61.3025246,29.0805922 62.0447822,29.8228498 62.9593496,29.8228498 L66.2729996,29.8228498 C69.0133881,29.8228498 71.2434745,32.0529362 71.2434745,34.7933248 C71.2434745,37.5337133 69.0133881,39.7637997 66.2729996,39.7637997" id="Fill-2" fill="#2570A7"></path>
                    <mask id="mask-2" fill="white">
                        <use xlink:href="#path-1"></use>
                    </mask>
                    <g id="Clip-5"></g>
                    <polygon id="Fill-4" fill="#2570A7" mask="url(#mask-2)" points="62.9593496 24.8523748 66.2729996 24.8523748 66.2729996 19.8818999 62.9593496 19.8818999"></polygon>
                    <polygon id="Fill-6" fill="#2570A7" mask="url(#mask-2)" points="62.9593496 43.0774497 66.2729996 43.0774497 66.2729996 38.1069748 62.9593496 38.1069748"></polygon>
                    <path d="M36.4501498,3.31364998 C31.8822833,3.31364998 28.1660248,7.02990843 28.1660248,11.5977749 C28.1660248,16.1656414 31.8822833,19.8818999 36.4501498,19.8818999 C41.0180163,19.8818999 44.7342747,16.1656414 44.7342747,11.5977749 C44.7342747,7.02990843 41.0180163,3.31364998 36.4501498,3.31364998 M36.4501498,23.1955499 C30.0564621,23.1955499 24.8523748,17.9914626 24.8523748,11.5977749 C24.8523748,5.20408729 30.0564621,0 36.4501498,0 C42.8438374,0 48.0479247,5.20408729 48.0479247,11.5977749 C48.0479247,17.9914626 42.8438374,23.1955499 36.4501498,23.1955499" id="Fill-7" fill="#2570A7" mask="url(#mask-2)"></path>
                    <polygon id="Fill-8" fill="#2570A7" mask="url(#mask-2)" points="34.7933248 36.4501498 38.1069748 36.4501498 38.1069748 28.1660248 34.7933248 28.1660248"></polygon>
                    <polygon id="Fill-9" fill="#2570A7" mask="url(#mask-2)" points="72.9002995 11.5977749 76.2139495 11.5977749 76.2139495 0 72.9002995 0"></polygon>
                    <polygon id="Fill-10" fill="#2570A7" mask="url(#mask-2)" points="86.1548994 29.8228498 89.4685494 29.8228498 89.4685494 14.9114249 86.1548994 14.9114249"></polygon>
                    <polygon id="Fill-11" fill="#2570A7" mask="url(#mask-2)" points="16.5682499 16.5682499 19.8818999 16.5682499 19.8818999 1.65682499 16.5682499 1.65682499"></polygon>
                    <polygon id="Fill-12" fill="#2570A7" mask="url(#mask-2)" points="16.5682499 23.1955499 19.8818999 23.1955499 19.8818999 19.8818999 16.5682499 19.8818999"></polygon>
                    <path d="M62.8218331,74.5571245 C62.0679777,74.5571245 60.891632,74.3367668 60.2653522,74.1313205 L44.3399504,69.0548087 L45.3456431,65.8952435 L61.2859564,70.9783825 C61.6637125,71.1026444 62.4871545,71.2434745 62.8218331,71.2434745 C64.7238682,71.2434745 66.2729996,69.7573025 66.2729996,67.9298246 C66.2729996,66.344243 64.8862371,65.2176021 63.5889431,64.6923885 C61.0871374,63.6784116 58.5074608,62.4970954 56.0139392,61.3538862 C48.8415439,58.0700591 41.427252,54.6752246 34.7933248,54.6752246 C28.7343158,54.6752246 15.7762875,61.0639418 15.6470552,61.1302148 L14.1757946,58.1611844 C14.7358015,57.8844947 27.9605785,51.3615747 34.7933248,51.3615747 C42.1479709,51.3615747 49.8985982,54.9104938 57.3940745,58.3417783 C59.8544596,59.4684193 62.4009996,60.6348241 64.8348755,61.620635 C67.7641421,62.8085785 69.5866496,65.2258862 69.5866496,67.9298246 C69.5866496,71.5847805 66.5513462,74.5571245 62.8218331,74.5571245" id="Fill-13" fill="#2570A7" mask="url(#mask-2)"></path>
                    <path d="M59.5081831,87.8117244 C52.2463192,87.8117244 44.4078802,83.9314403 37.4939495,80.5084399 C33.0337766,78.2998922 28.8221275,76.2139495 26.5091998,76.2139495 C24.3768661,76.2139495 20.4833273,77.345561 15.5493025,79.400024 L14.2735473,76.341525 C19.7609516,74.0567634 23.8765049,72.9002995 26.5091998,72.9002995 C29.5958648,72.9002995 33.9367463,75.0492015 38.9635533,77.5377527 C45.5527463,80.8016979 53.0217133,84.4980745 59.5081831,84.4980745 C60.9065434,84.4980745 63.4447993,83.9828019 67.5984596,81.5290441 L69.3712623,80.4902148 C75.0972495,77.146742 81.5853761,73.3559264 90.1196816,65.3402071 C90.9729465,64.536647 91.1253744,64.0180608 91.1253744,62.9593496 C91.1253744,60.3929277 88.1215507,58.5588224 85.6081472,60.4807394 C81.179454,63.8706033 67.8105332,72.545739 67.2422422,72.9135541 L65.4396166,70.1334018 C65.5771331,70.0439332 79.267478,61.1616945 83.5917912,57.8497013 C84.8890852,56.8556063 86.3470911,56.3320496 87.8117244,56.3320496 C91.4666804,56.3320496 94.4390244,59.3043937 94.4390244,62.9593496 C94.4390244,64.4488353 94.1905006,66.060926 92.3878751,67.7542011 C83.5801934,76.0283851 76.6298126,80.0892632 71.0429987,83.3515516 L69.2834506,84.3837535 C65.4313325,86.6585742 62.1425349,87.8117244 59.5081831,87.8117244" id="Fill-14" fill="#2570A7" mask="url(#mask-2)"></path>
                    <path d="M13.2545999,84.4980745 L0,84.4980745 L0,81.1844245 L13.2545999,81.1844245 L13.2545999,56.3320496 L0,56.3320496 L0,53.0183997 L13.2545999,53.0183997 C15.0820779,53.0183997 16.5682499,54.5045717 16.5682499,56.3320496 L16.5682499,81.1844245 C16.5682499,83.0119024 15.0820779,84.4980745 13.2545999,84.4980745" id="Fill-15" fill="#2570A7" mask="url(#mask-2)"></path>
                    <path d="M64.6161746,16.5682499 C56.3933522,16.5682499 49.7047497,23.2568524 49.7047497,31.4796748 C49.7047497,39.7024972 56.3933522,46.3910997 64.6161746,46.3910997 C72.838997,46.3910997 79.5275995,39.7024972 79.5275995,31.4796748 C79.5275995,23.2568524 72.838997,16.5682499 64.6161746,16.5682499 M64.6161746,49.7047497 C54.567531,49.7047497 46.3910997,41.5283184 46.3910997,31.4796748 C46.3910997,21.4310312 54.567531,13.2545999 64.6161746,13.2545999 C74.6648181,13.2545999 82.8412495,21.4310312 82.8412495,31.4796748 C82.8412495,41.5283184 74.6648181,49.7047497 64.6161746,49.7047497" id="Fill-16" fill="#2570A7" mask="url(#mask-2)"></path>
                </g>
            </g>
        </g>
    </g>
</svg>