<?xml version="1.0" encoding="UTF-8"?>
<svg width="92px" height="88px" viewBox="0 0 92 88" version="1.1" xmlns="http://www.w3.org/2000/svg" xmlns:xlink="http://www.w3.org/1999/xlink">
    <!-- Generator: Sketch 63.1 (92452) - https://sketch.com -->
    <title>Group 22</title>
    <desc>Created with Sketch.</desc>
    <defs>
        <polygon id="path-1" points="0 88 91.6975439 88 91.6975439 0 0 0"></polygon>
    </defs>
    <g id="Finance-Center" stroke="none" stroke-width="1" fill="none" fill-rule="evenodd">
        <g id="D-BBS-Finance-Center-YourSBA" transform="translate(-674.000000, -681.000000)">
            <g id="Group-22" transform="translate(674.000000, 681.000000)">
                <path d="M30.7158596,57.122807 L26.0842807,57.122807 C23.1046316,57.122807 20.6807719,54.6989474 20.6807719,51.7192982 L20.6807719,50.9473684 L23.7684912,50.9473684 L23.7684912,51.7192982 C23.7684912,52.9960702 24.8075088,54.0350877 26.0842807,54.0350877 L30.7158596,54.0350877 C31.9926316,54.0350877 33.0316491,52.9960702 33.0316491,51.7192982 C33.0316491,50.4425263 31.9926316,49.4035088 30.7158596,49.4035088 L26.0842807,49.4035088 C23.1046316,49.4035088 20.6807719,46.9796491 20.6807719,44 C20.6807719,41.0203509 23.1046316,38.5964912 26.0842807,38.5964912 L30.7158596,38.5964912 C33.6955088,38.5964912 36.1193684,41.0203509 36.1193684,44 L36.1193684,44.7719298 L33.0316491,44.7719298 L33.0316491,44 C33.0316491,42.7232281 31.9926316,41.6842105 30.7158596,41.6842105 L26.0842807,41.6842105 C24.8075088,41.6842105 23.7684912,42.7232281 23.7684912,44 C23.7684912,45.2767719 24.8075088,46.3157895 26.0842807,46.3157895 L30.7158596,46.3157895 C33.6955088,46.3157895 36.1193684,48.7396491 36.1193684,51.7192982 C36.1193684,54.6989474 33.6955088,57.122807 30.7158596,57.122807" id="Fill-1" fill="#2570A7"></path>
                <mask id="mask-2" fill="white">
                    <use xlink:href="#path-1"></use>
                </mask>
                <g id="Clip-4"></g>
                <polygon id="Fill-3" fill="#2570A7" mask="url(#mask-2)" points="26.8569825 60.2105263 29.9447018 60.2105263 29.9447018 55.5789474 26.8569825 55.5789474"></polygon>
                <polygon id="Fill-5" fill="#2570A7" mask="url(#mask-2)" points="26.8569825 40.1403509 29.9447018 40.1403509 29.9447018 35.5087719 26.8569825 35.5087719"></polygon>
                <polygon id="Fill-6" fill="#2570A7" mask="url(#mask-2)" points="82.4359298 80.2807018 85.5236491 80.2807018 85.5236491 44.7719298 82.4359298 44.7719298"></polygon>
                <polygon id="Fill-7" fill="#2570A7" mask="url(#mask-2)" points="73.1727719 80.2807018 76.2604912 80.2807018 76.2604912 44.7719298 73.1727719 44.7719298"></polygon>
                <polygon id="Fill-8" fill="#2570A7" mask="url(#mask-2)" points="74.7166316 74.1052632 83.9797895 74.1052632 83.9797895 71.0175439 74.7166316 71.0175439"></polygon>
                <polygon id="Fill-9" fill="#2570A7" mask="url(#mask-2)" points="63.909614 80.2807018 66.9973333 80.2807018 66.9973333 44.7719298 63.909614 44.7719298"></polygon>
                <polygon id="Fill-10" fill="#2570A7" mask="url(#mask-2)" points="54.6464561 80.2807018 57.7341754 80.2807018 57.7341754 44.7719298 54.6464561 44.7719298"></polygon>
                <polygon id="Fill-11" fill="#2570A7" mask="url(#mask-2)" points="56.1903158 74.1052632 65.4534737 74.1052632 65.4534737 71.0175439 56.1903158 71.0175439"></polygon>
                <path d="M86.2163789,46.3157895 L48.2328,46.3157895 L48.2328,43.2280702 L86.2163789,43.2280702 C87.5363789,43.2280702 88.6109053,42.1550877 88.6109053,40.8335439 C88.6109053,39.9936842 88.163186,39.2063158 87.4437474,38.7771228 L61.5779228,23.3570526 C61.1147649,23.0899649 60.5250105,23.0899649 60.0479579,23.3663158 L42.2611509,33.9710877 L40.6817825,31.317193 L58.4840281,20.7031579 C59.9321684,19.8648421 61.7122386,19.866386 63.1418526,20.6938947 L89.0231158,36.1232281 C90.6735018,37.1082105 91.6986246,38.9129825 91.6986246,40.8335439 C91.6986246,43.8564211 89.2392561,46.3157895 86.2163789,46.3157895" id="Fill-12" fill="#2570A7" mask="url(#mask-2)"></path>
                <path d="M33.013586,81.8245614 C32.1613754,81.8245614 31.4697263,82.5162105 31.4697263,83.3684211 C31.4697263,84.2206316 32.1613754,84.9122807 33.013586,84.9122807 L87.0486737,84.9122807 C87.9008842,84.9122807 88.5925333,84.2206316 88.5925333,83.3684211 C88.5925333,82.5162105 87.9008842,81.8245614 87.0486737,81.8245614 L33.013586,81.8245614 Z M87.0486737,88 L33.013586,88 C30.4600421,88 28.382007,85.9219649 28.382007,83.3684211 C28.382007,80.8148772 30.4600421,78.7368421 33.013586,78.7368421 L87.0486737,78.7368421 C89.6022175,78.7368421 91.6802526,80.8148772 91.6802526,83.3684211 C91.6802526,85.9219649 89.6022175,88 87.0486737,88 L87.0486737,88 Z" id="Fill-13" fill="#2570A7" mask="url(#mask-2)"></path>
                <polygon id="Fill-14" fill="#2570A7" mask="url(#mask-2)" points="34.5762807 80.2807018 37.664 80.2807018 37.664 66.3859649 34.5762807 66.3859649"></polygon>
                <polygon id="Fill-15" fill="#2570A7" mask="url(#mask-2)" points="45.3832982 80.2807018 48.4710175 80.2807018 48.4710175 55.5789474 45.3832982 55.5789474"></polygon>
                <polygon id="Fill-16" fill="#2570A7" mask="url(#mask-2)" points="36.1201404 74.1052632 46.9271579 74.1052632 46.9271579 71.0175439 36.1201404 71.0175439"></polygon>
                <path d="M2.05194386,24.0278596 L0.270329825,21.5067368 L4.56534737,18.4668772 C4.70892632,18.3464561 4.87566316,18.1025263 4.96829474,17.8261754 L5.53952281,16.1171228 C6.06443509,14.5377544 6.96759298,13.0757193 8.14710175,11.8931228 L12.071593,7.97017544 L14.2546105,10.153193 L10.3316632,14.0761404 C9.48717193,14.9221754 8.84338246,15.9642807 8.46822456,17.0928421 L7.89699649,18.8003509 C7.62064561,19.6324912 7.11425965,20.3689123 6.43032982,20.9247018 L2.05194386,24.0278596 Z" id="Fill-17" fill="#2570A7" mask="url(#mask-2)"></path>
                <path d="M2.18919298,46.9656 L0,44.7887579 L9.7525614,34.9898807 C10.9475088,33.7949333 12.5237895,33.0168281 14.1942456,32.7929684 L28.1306667,30.9357053 C31.6151579,30.4710035 34.5577544,27.1084772 34.5577544,23.5931088 L34.5577544,16.2906526 C34.5577544,14.1184421 32.7900351,12.3507228 30.6178246,12.3507228 C30.2874386,12.3507228 29.9570526,12.392407 29.6390175,12.4742316 L21.813193,14.482793 L21.0443509,11.490793 L28.8701754,9.48377544 C29.4398596,9.33710877 30.0280702,9.26300351 30.6178246,9.26300351 C34.4929123,9.26300351 37.6454737,12.4155649 37.6454737,16.2906526 L37.6454737,23.5931088 C37.6454737,28.6600561 33.5588772,33.3271439 28.5367018,33.9971789 L14.6018246,35.8544421 C13.6014035,35.9887579 12.6534737,36.4550035 11.9386667,37.1698105 L2.18919298,46.9656 Z" id="Fill-18" fill="#2570A7" mask="url(#mask-2)"></path>
                <polygon id="Fill-19" fill="#2570A7" mask="url(#mask-2)" points="59.2595088 40.1403509 62.3472281 40.1403509 62.3472281 37.0526316 59.2595088 37.0526316"></polygon>
                <path d="M14.416407,16.3794246 L10.1491789,5.6650386 C9.95465263,5.17872281 9.85584561,4.66307368 9.85584561,4.13352982 C9.85584561,1.85479298 11.7100211,0.00061754386 13.9903018,0.00061754386 L14.4874246,0.00061754386 C16.7507228,0.00061754386 18.0043368,1.19402105 18.9213895,2.06630175 C19.6470035,2.75640702 20.0252491,3.08833684 20.6628632,3.08833684 C21.0457404,3.08833684 21.2680561,2.88300351 21.8948632,2.12342456 C22.5911439,1.27738947 23.6425123,0.00061754386 25.5846877,0.00061754386 C28.144407,0.00061754386 29.9306526,1.84398596 29.9306526,4.48552982 L29.9260211,11.204407 L26.8383018,11.2013193 L26.8429333,4.48398596 C26.8429333,3.55767018 26.4183719,3.08833684 25.5846877,3.08833684 C25.1601263,3.08833684 24.9254596,3.29984561 24.2785825,4.08412632 C23.5931088,4.91781053 22.5556351,6.17605614 20.6628632,6.17605614 C18.7623719,6.17605614 17.6245474,5.09226667 16.792407,4.30335439 C15.9540912,3.50363509 15.4708632,3.08833684 14.4874246,3.08833684 L13.9903018,3.08833684 C13.4128982,3.08833684 12.9435649,3.55612632 12.9435649,4.13352982 C12.9435649,4.26784561 12.9682667,4.39752982 13.0161263,4.51795088 L16.2798456,12.7127579 L22.5062316,11.116407 L23.271986,14.1068632 L14.416407,16.3794246 Z" id="Fill-20" fill="#2570A7" mask="url(#mask-2)"></path>
                <path d="M28.382007,69.4736842 C16.4634105,69.4736842 6.76797193,59.7782456 6.76797193,47.8596491 C6.76797193,42.5719298 8.69625263,37.4833684 12.1992702,33.5341754 L14.5088842,35.5813333 C11.5076211,38.9670175 9.85569123,43.3268772 9.85569123,47.8596491 C9.85569123,58.0753684 18.1662877,66.3859649 28.382007,66.3859649 C38.5977263,66.3859649 46.9083228,58.0753684 46.9083228,47.8596491 C46.9083228,39.7173333 41.6931649,32.6124912 33.9337263,30.1793684 L34.8554105,27.2336842 C43.9132351,30.0728421 49.9960421,38.3618246 49.9960421,47.8596491 C49.9960421,59.7782456 40.3006035,69.4736842 28.382007,69.4736842" id="Fill-21" fill="#2570A7" mask="url(#mask-2)"></path>
            </g>
        </g>
    </g>
</svg>