<?xml version="1.0" encoding="UTF-8"?>
<svg width="94px" height="88px" viewBox="0 0 94 88" version="1.1" xmlns="http://www.w3.org/2000/svg" xmlns:xlink="http://www.w3.org/1999/xlink">
    <!-- Generator: Sketch 63.1 (92452) - https://sketch.com -->
    <title>Group 38</title>
    <desc>Created with Sketch.</desc>
    <defs>
        <polygon id="path-1" points="0 87.3383459 93.8127051 87.3383459 93.8127051 0 0 0"></polygon>
    </defs>
    <g id="Finance-Center" stroke="none" stroke-width="1" fill="none" fill-rule="evenodd">
        <g id="D-BBS-Finance-Center-YourSBA" transform="translate(-201.000000, -680.000000)">
            <g id="Group-38" transform="translate(201.000000, 680.000000)">
                <path d="M39.7695158,84.6342536 L9.32078062,29.200282 C8.50400535,27.6945043 6.52110142,27.0815185 5.02341053,27.835216 L3.57585831,24.941729 C4.47997193,24.4888635 5.45363275,24.2608134 6.46934536,24.2608134 C8.84688922,24.2608134 11.0271131,25.5595669 12.1608942,27.6508351 L41.0989995,80.3385009 L60.3247572,70.6261534 L61.7836311,73.5131709 L39.7695158,84.6342536 Z" id="Fill-1" fill="#2570A7"></path>
                <path d="M63.5357353,34.8604538 L48.0477353,9.63584561 C47.1872909,8.22711044 45.2884906,7.69822824 43.839321,8.42604779 L24.3612525,18.1675081 L22.9153176,15.2740211 L42.3933861,5.53256074 C43.2958824,5.08131261 44.2711606,4.85164511 45.2868732,4.85164511 C47.5544354,4.85164511 49.6198256,6.00806951 50.8053627,7.94406951 L66.2933627,33.1670603 L63.5357353,34.8604538 Z" id="Fill-3" fill="#2570A7"></path>
                <polygon id="Fill-5" fill="#2570A7" points="41.7169992 25.1767338 40.269447 22.2832468 47.4020785 18.7185484 48.8480134 21.6120354"></polygon>
                <polygon id="Fill-7" fill="#2570A7" points="46.5628217 33.2146112 45.1152695 30.3211241 52.1783539 26.7887733 53.6242887 29.6822603"></polygon>
                <polygon id="Fill-9" fill="#2570A7" points="33.7848982 56.1723041 32.337346 53.278817 39.4230737 49.7367619 40.8706259 52.630249"></polygon>
                <path d="M4.08128855,41.0108525 L0.658919298,33.5725367 C0.228697076,32.7201791 0.00064695071,31.7465183 0.00064695071,30.7308057 C0.00064695071,28.2659235 1.3689477,26.0484999 3.57504962,24.9422142 L24.4505317,14.5052819 L25.8964665,17.3987689 L5.02260184,27.8357013 C3.91955088,28.3872267 3.2354005,29.4967472 3.2354005,30.7308057 C3.2354005,31.238662 3.34861688,31.723875 3.57343225,32.1718884 L5.62264862,36.6229093 L13.1984414,32.8333955 L14.6443763,35.7268825 L4.08128855,41.0108525 Z" id="Fill-11" fill="#2570A7"></path>
                <path d="M66.3124478,35.5822891 C56.5030576,35.5822891 48.5213033,43.5640434 48.5213033,53.3734336 C48.5213033,63.1828237 56.5030576,71.1645781 66.3124478,71.1645781 C76.1218379,71.1645781 84.1035923,63.1828237 84.1035923,53.3734336 C84.1035923,43.5640434 76.1218379,35.5822891 66.3124478,35.5822891 M66.3124478,74.3993317 C54.7190911,74.3993317 45.2865497,64.9667903 45.2865497,53.3734336 C45.2865497,41.7800769 54.7190911,32.3475355 66.3124478,32.3475355 C77.9058045,32.3475355 87.3383459,41.7800769 87.3383459,53.3734336 C87.3383459,64.9667903 77.9058045,74.3993317 66.3124478,74.3993317" id="Fill-13" fill="#2570A7"></path>
                <path d="M86.6748979,87.3383459 L86.6182897,87.3383459 C85.8888528,87.3334937 84.8100625,87.2429206 83.8266974,86.8418112 C82.7867241,86.4212932 81.8454109,85.7516992 81.1062697,84.9106633 L70.6644852,73.0391178 L73.0937851,70.9041805 L83.5355696,82.775726 C83.949618,83.248 84.4590917,83.6070576 85.0461995,83.8464294 C85.4424568,84.0081671 86.0101561,84.0987402 86.640933,84.1035923 L86.6732805,84.1035923 C88.3019789,84.1035923 89.6945404,83.1558095 90.3188478,81.6257711 C90.5145504,81.1421754 90.5938018,80.6521103 90.5727759,80.0342723 C90.5452805,79.0444378 90.191075,78.0950376 89.6055846,77.427061 L80.1584869,66.6828271 L82.5877868,64.5478897 L92.0365019,75.293741 C93.1266139,76.534269 93.7541561,78.1839933 93.8075295,79.9356124 C93.8414944,81.0095505 93.6846089,81.9330727 93.3142296,82.8436558 C92.199857,85.5802573 89.5991151,87.3383459 86.6748979,87.3383459" id="Fill-15" fill="#2570A7"></path>
                <mask id="mask-2" fill="white">
                    <use xlink:href="#path-1"></use>
                </mask>
                <g id="Clip-18"></g>
                <polygon id="Fill-17" fill="#2570A7" mask="url(#mask-2)" points="84.1035923 14.556391 87.3383459 14.556391 87.3383459 11.3216374 84.1035923 11.3216374"></polygon>
                <polygon id="Fill-19" fill="#2570A7" mask="url(#mask-2)" points="80.8688388 22.6432749 84.1035923 22.6432749 84.1035923 19.4085213 80.8688388 19.4085213"></polygon>
                <polygon id="Fill-20" fill="#2570A7" mask="url(#mask-2)" points="72.7819549 3.23475355 76.0167084 3.23475355 76.0167084 0 72.7819549 0"></polygon>
                <polygon id="Fill-21" fill="#2570A7" mask="url(#mask-2)" points="61.4603175 14.556391 64.695071 14.556391 64.695071 11.3216374 61.4603175 11.3216374"></polygon>
                <polygon id="Fill-22" fill="#2570A7" mask="url(#mask-2)" points="64.695071 6.4695071 67.9298246 6.4695071 67.9298246 3.23475355 64.695071 3.23475355"></polygon>
                <polygon id="Fill-23" fill="#2570A7" mask="url(#mask-2)" points="80.8688388 6.4695071 84.1035923 6.4695071 84.1035923 3.23475355 80.8688388 3.23475355"></polygon>
                <polygon id="Fill-24" fill="#2570A7" mask="url(#mask-2)" points="64.695071 22.6432749 67.9298246 22.6432749 67.9298246 19.4085213 64.695071 19.4085213"></polygon>
                <polygon id="Fill-25" fill="#2570A7" mask="url(#mask-2)" points="72.7819549 25.8780284 76.0167084 25.8780284 76.0167084 22.6432749 72.7819549 22.6432749"></polygon>
                <polygon id="Fill-26" fill="#2570A7" mask="url(#mask-2)" points="14.556391 66.3124478 17.7911445 66.3124478 17.7911445 63.0776942 14.556391 63.0776942"></polygon>
                <polygon id="Fill-27" fill="#2570A7" mask="url(#mask-2)" points="21.0258981 69.5472013 24.2606516 69.5472013 24.2606516 66.3124478 21.0258981 66.3124478"></polygon>
                <polygon id="Fill-28" fill="#2570A7" mask="url(#mask-2)" points="4.85213033 76.0167084 8.08688388 76.0167084 8.08688388 72.7819549 4.85213033 72.7819549"></polygon>
                <polygon id="Fill-29" fill="#2570A7" mask="url(#mask-2)" points="24.2606516 76.0167084 27.4954052 76.0167084 27.4954052 72.7819549 24.2606516 72.7819549"></polygon>
                <polygon id="Fill-30" fill="#2570A7" mask="url(#mask-2)" points="14.556391 85.7209691 17.7911445 85.7209691 17.7911445 82.4862155 14.556391 82.4862155"></polygon>
                <polygon id="Fill-31" fill="#2570A7" mask="url(#mask-2)" points="8.08688388 82.4862155 11.3216374 82.4862155 11.3216374 79.251462 8.08688388 79.251462"></polygon>
                <polygon id="Fill-32" fill="#2570A7" mask="url(#mask-2)" points="21.0258981 82.4862155 24.2606516 82.4862155 24.2606516 79.251462 21.0258981 79.251462"></polygon>
                <polygon id="Fill-33" fill="#2570A7" mask="url(#mask-2)" points="8.08688388 69.5472013 11.3216374 69.5472013 11.3216374 66.3124478 8.08688388 66.3124478"></polygon>
                <polygon id="Fill-34" fill="#2570A7" mask="url(#mask-2)" points="64.695071 62.1300732 56.2475121 53.6825143 58.5344829 51.3955435 64.695071 57.5561317 75.7951278 46.4560749 78.0820986 48.7430456"></polygon>
                <polygon id="Fill-35" fill="#2570A7" mask="url(#mask-2)" points="25.2588966 26.582396 22.9347261 22.264 25.784544 20.7323442 28.1087145 25.0507402"></polygon>
                <polygon id="Fill-36" fill="#2570A7" mask="url(#mask-2)" points="35.5017437 45.7335926 33.2018339 41.3424147 36.0678256 39.8414891 38.366118 44.232667"></polygon>
                <path d="M30.7301587,43.6691729 C28.0453133,43.6691729 25.7098212,41.759051 25.1793216,39.1291963 L28.3509975,38.4919499 C28.5774302,39.6176441 29.5785865,40.4344194 30.7301587,40.4344194 C31.1102423,40.4344194 31.4757694,40.3486984 31.8121838,40.1804912 L35.0469373,38.5631145 C35.8766516,38.149066 36.3909774,37.316117 36.3909774,36.3909774 C36.3909774,34.8075656 34.7687485,33.6123241 33.2435622,34.0716591 L29.1661554,35.3315957 C28.6210994,35.4981855 28.0614871,35.5822891 27.4954052,35.5822891 C24.373868,35.5822891 21.8345865,33.0430075 21.8345865,29.9214703 C21.8345865,27.7638897 23.03468,25.8230376 24.9674453,24.8558463 L28.2021988,23.2384695 C28.9930961,22.8438296 29.8422189,22.6432749 30.7301587,22.6432749 C33.3341353,22.6432749 35.5936107,24.4062155 36.2227703,26.9277059 L33.0850593,27.7121337 C32.8149574,26.631726 31.8461487,25.8780284 30.7301587,25.8780284 C30.3500752,25.8780284 29.984548,25.9637494 29.6481337,26.1319566 L26.4133801,27.7493333 C25.5836658,28.1633818 25.06934,28.9963308 25.06934,29.9214703 C25.06934,31.5048822 26.6931863,32.6985063 28.2167552,32.2407886 L32.2941621,30.9808521 C32.839218,30.8142623 33.3988304,30.7301587 33.9649123,30.7301587 C37.0864495,30.7301587 39.625731,33.2694403 39.625731,36.3909774 C39.625731,38.5485581 38.4256374,40.4894102 36.4928722,41.4566015 L33.2581186,43.0739783 C32.4672214,43.4686182 31.6180986,43.6691729 30.7301587,43.6691729" id="Fill-37" fill="#2570A7" mask="url(#mask-2)"></path>
            </g>
        </g>
    </g>
</svg>