<?xml version="1.0" encoding="utf-8"?>
<!-- Generator: Adobe Illustrator 24.0.3, SVG Export Plug-In . SVG Version: 6.00 Build 0)  -->
<svg version="1.1" id="Layer_1" xmlns="http://www.w3.org/2000/svg" xmlns:xlink="http://www.w3.org/1999/xlink" x="0px" y="0px"
	 viewBox="0 0 233.41 64.81" style="enable-background:new 0 0 233.41 64.81;" xml:space="preserve">
<style type="text/css">
	.st0{fill:#081C3D;}
	.st1{fill:#00A3EF;}
</style>
<g>
	<g>
		<g>
			<path class="st0" d="M32.61,24.27c-1.11-0.06-1.96-0.55-2.42-1.58c-0.48-1.07-0.28-2.07,0.48-2.95c0.05-0.05,0.1-0.1,0.15-0.15
				c4.99-4.99,9.98-9.98,14.97-14.97c0.41-0.41,0.87-0.71,1.44-0.82c1.24-0.24,2.31,0.3,2.88,1.26c0.6,1.01,0.46,2.29-0.32,3.15
				c-0.06,0.07-0.13,0.13-0.19,0.2c-4.99,4.99-9.98,9.98-14.97,14.97c-0.43,0.43-0.93,0.73-1.53,0.84
				C32.95,24.24,32.78,24.25,32.61,24.27z"/>
		</g>
		<g>
			<path class="st0" d="M31.58,58.23c0.05-0.3,0.13-0.85,0.21-1.39c0.46-2.8,0.92-5.6,1.38-8.41c0.28-1.68,0.55-3.35,0.83-5.03
				c0.35-2.16,0.71-4.32,1.06-6.48c0.21-1.3,1.27-2.28,2.58-2.3c1.8-0.03,2.96,1.51,2.73,3.03c-0.26,1.75-0.57,3.5-0.85,5.24
				c-0.34,2.06-0.67,4.12-1.01,6.18c-0.4,2.42-0.79,4.84-1.19,7.26c-0.14,0.83-0.27,1.67-0.41,2.5c-0.19,1.14-0.98,2.01-2.09,2.25
				C33.09,61.48,31.54,60.09,31.58,58.23z"/>
		</g>
		<g>
			<path class="st0" d="M27.09,27.48c0,1.23-0.8,2.28-1.96,2.61c-1.16,0.33-2.42-0.17-3.02-1.23c-0.35-0.61-0.64-1.25-0.95-1.88
				c-1.21-2.43-2.42-4.87-3.63-7.3c-1.5-3.03-3.01-6.06-4.51-9.08c-0.19-0.37-0.37-0.75-0.55-1.13c-0.74-1.55,0.08-3.33,1.75-3.77
				c1.2-0.32,2.47,0.25,3.04,1.37c0.66,1.31,1.31,2.62,1.96,3.94c0.68,1.37,1.36,2.73,2.04,4.1c1.48,2.97,2.95,5.95,4.43,8.92
				c0.38,0.76,0.75,1.52,1.12,2.27C26.99,26.68,27.1,27.08,27.09,27.48z"/>
		</g>
		<g>
			<path class="st0" d="M40.86,24.9c0.49,0.02,0.91,0.13,1.3,0.33c1.4,0.72,2.81,1.44,4.21,2.15c1.48,0.76,2.95,1.51,4.43,2.27
				c3.28,1.68,6.56,3.36,9.84,5.04c0.22,0.11,0.43,0.23,0.65,0.34c1,0.54,1.54,1.68,1.34,2.81c-0.18,1.08-1.07,1.96-2.15,2.16
				c-0.62,0.12-1.19,0.02-1.75-0.27c-1.96-1-3.91-2-5.87-3c-2.65-1.36-5.31-2.72-7.96-4.08c-1.75-0.9-3.5-1.79-5.24-2.7
				c-0.94-0.49-1.44-1.3-1.45-2.35c-0.02-1.41,0.98-2.44,2.2-2.66C40.58,24.93,40.74,24.91,40.86,24.9z"/>
		</g>
		<g>
			<path class="st0" d="M3.58,40.44c0.02-1.32,0.99-2.45,2.32-2.65c2.34-0.35,4.69-0.7,7.03-1.05c1.68-0.25,3.36-0.51,5.04-0.77
				c1.84-0.28,3.68-0.55,5.52-0.82c1.15-0.17,2.29-0.35,3.44-0.53c1.15-0.18,2.1,0.16,2.78,1.12c1.12,1.6,0.19,3.81-1.73,4.14
				c-1.06,0.18-2.13,0.33-3.2,0.49c-1.17,0.18-2.33,0.35-3.5,0.53c-1.3,0.19-2.6,0.39-3.89,0.58c-1.14,0.17-2.27,0.34-3.41,0.51
				c-1.44,0.22-2.88,0.43-4.31,0.65c-1,0.15-1.99,0.29-2.99,0.45c-1.37,0.21-2.71-0.7-3-2.05C3.62,40.84,3.61,40.64,3.58,40.44z"/>
		</g>
		<g>
			<path class="st1" d="M8,20.53c-0.02-1.37,1.02-2.68,2.65-2.7c1.04-0.01,1.87,0.47,2.36,1.42c0.74,1.44,1.45,2.89,2.17,4.34
				c1.12,2.26,2.25,4.52,3.36,6.79c0.42,0.85,0.4,1.69-0.05,2.52c-0.93,1.7-3.4,1.83-4.5,0.22c-0.11-0.16-0.21-0.33-0.29-0.5
				c-0.55-1.1-1.09-2.21-1.64-3.31c-1.22-2.46-2.45-4.92-3.68-7.38C8.16,21.48,7.97,21.02,8,20.53z"/>
		</g>
		<g>
			<path class="st1" d="M31.53,46.25c0,1.39-0.96,2.54-2.24,2.73c-2.07,0.32-4.14,0.62-6.22,0.93c-1.81,0.27-3.62,0.55-5.43,0.82
				c-0.29,0.04-0.58,0.1-0.88,0.12c-0.45,0.04-0.87-0.06-1.28-0.24c-1.15-0.52-1.65-1.7-1.55-2.68c0.13-1.25,1.07-2.2,2.24-2.38
				c1.66-0.26,3.32-0.5,4.98-0.75c1.26-0.19,2.51-0.38,3.77-0.57c1.26-0.19,2.51-0.39,3.77-0.55c0.53-0.07,1.04,0.08,1.49,0.36
				C31.05,44.57,31.49,45.35,31.53,46.25z"/>
		</g>
		<g>
			<path class="st1" d="M42.11,51c0.08-0.55,0.16-1.11,0.25-1.66c0.4-2.43,0.8-4.86,1.2-7.29c0.2-1.25,0.39-2.5,0.62-3.74
				c0.21-1.12,0.91-1.85,2.01-2.1c1.5-0.35,2.92,0.55,3.22,2.1c0.06,0.33,0.04,0.69-0.01,1.03c-0.4,2.51-0.82,5.02-1.23,7.53
				c-0.25,1.53-0.49,3.06-0.75,4.58c-0.2,1.15-0.98,1.94-2.11,2.18c-1.59,0.34-3.18-0.91-3.16-2.51c0-0.04,0-0.08,0-0.12
				C42.14,51,42.13,51,42.11,51z"/>
		</g>
		<g>
			<path class="st1" d="M42.44,19.11c-0.05-0.9,0.92-2.17,2.34-2.34c0.51-0.06,1,0.01,1.45,0.24c1.6,0.81,3.19,1.63,4.79,2.45
				c0.33,0.17,0.65,0.33,0.98,0.5c1.76,0.9,3.51,1.8,5.27,2.7c0.76,0.39,1.26,0.99,1.46,1.82c0.3,1.25-0.4,2.59-1.59,3.06
				c-0.76,0.3-1.51,0.27-2.24-0.11c-2.05-1.05-4.1-2.09-6.14-3.14c-1.5-0.77-3.01-1.54-4.51-2.31c-0.14-0.07-0.29-0.15-0.43-0.23
				C42.91,21.21,42.46,20.43,42.44,19.11z"/>
		</g>
		<g>
			<path class="st1" d="M37.53,6.27c0.02,0.8-0.26,1.44-0.79,1.97c-2.89,2.9-5.79,5.79-8.68,8.68c-0.53,0.53-1.17,0.83-1.91,0.83
				c-1.29-0.01-2.35-0.83-2.62-2.09c-0.2-0.95,0.05-1.77,0.73-2.46c2.91-2.92,5.84-5.82,8.74-8.75c1.18-1.19,3.33-1.08,4.27,0.67
				C37.47,5.48,37.57,5.89,37.53,6.27z"/>
		</g>
	</g>
	<g>
		<g>
			<g>
				<path class="st0" d="M86.38,28.17c0.63,0.79,0.95,1.69,0.95,2.69c0,0.86-0.22,1.63-0.67,2.32c-0.44,0.69-1.09,1.23-1.93,1.62
					c-0.84,0.4-1.82,0.59-2.93,0.59h-6.74V18.54h6.42c1.15,0,2.13,0.19,2.96,0.58c0.82,0.39,1.45,0.91,1.87,1.56
					c0.42,0.65,0.63,1.39,0.63,2.19c0,0.97-0.26,1.78-0.78,2.42c-0.52,0.65-1.21,1.12-2.08,1.43C84.99,26.9,85.75,27.38,86.38,28.17
					z M77.83,25.62h3.42c0.9,0,1.61-0.21,2.12-0.62c0.51-0.41,0.76-1.01,0.76-1.78c0-0.76-0.25-1.35-0.76-1.78
					c-0.51-0.43-1.22-0.64-2.12-0.64h-3.42V25.62z M83.76,32.46c0.53-0.45,0.8-1.08,0.8-1.89c0-0.82-0.28-1.48-0.85-1.96
					c-0.57-0.48-1.32-0.73-2.25-0.73h-3.64v5.26h3.73C82.5,33.14,83.23,32.91,83.76,32.46z"/>
			</g>
			<g>
				<path class="st0" d="M90.48,19.76c-0.34-0.34-0.51-0.76-0.51-1.26c0-0.5,0.17-0.92,0.51-1.26c0.34-0.34,0.76-0.51,1.26-0.51
					c0.48,0,0.9,0.17,1.24,0.51c0.34,0.34,0.51,0.76,0.51,1.26c0,0.5-0.17,0.92-0.51,1.26c-0.34,0.34-0.75,0.51-1.24,0.51
					C91.24,20.27,90.82,20.1,90.48,19.76z M93.1,22.04v13.36h-2.76V22.04H93.1z"/>
			</g>
			<g>
				<path class="st0" d="M99.18,33.14h6.06v2.25h-9.26v-2.25l6.09-8.85h-6.09v-2.25h9.26v2.25L99.18,33.14z"/>
			</g>
			<g>
				<path class="st0" d="M111.49,34.45c-1.33-0.74-2.39-1.78-3.18-3.12c-0.78-1.33-1.18-2.83-1.18-4.5c0-1.66,0.39-3.16,1.18-4.48
					c0.78-1.33,1.84-2.36,3.18-3.1c1.33-0.74,2.8-1.12,4.4-1.12c1.6,0,3.07,0.37,4.4,1.12c1.33,0.74,2.38,1.78,3.15,3.1
					c0.77,1.33,1.15,2.82,1.15,4.48c0,1.66-0.39,3.16-1.16,4.5c-0.78,1.33-1.83,2.37-3.15,3.12c-1.33,0.74-2.79,1.12-4.39,1.12
					C114.29,35.56,112.82,35.19,111.49,34.45z M119.15,30.42c0.82-0.91,1.22-2.1,1.22-3.59c0-1.5-0.41-2.7-1.22-3.6
					c-0.82-0.9-1.9-1.35-3.26-1.35c-1.37,0-2.47,0.44-3.29,1.33c-0.82,0.89-1.22,2.09-1.22,3.61c0,1.5,0.41,2.7,1.22,3.6
					c0.82,0.9,1.91,1.35,3.29,1.35C117.25,31.78,118.33,31.33,119.15,30.42z"/>
			</g>
			<g>
				<path class="st0" d="M146.31,21.87l-3.66,13.53h-4.58l-2.13-8.78l-2.21,8.78h-4.56l-3.69-13.53h4.15l1.92,9.67l2.28-9.67h4.39
					l2.3,9.62l1.89-9.62H146.31z"/>
			</g>
			<g>
				<path class="st0" d="M159.93,23.26c0.95,1.03,1.42,2.44,1.42,4.23v7.9h-4.12v-7.35c0-0.91-0.23-1.61-0.7-2.11
					c-0.47-0.5-1.1-0.75-1.89-0.75c-0.79,0-1.42,0.25-1.89,0.75c-0.47,0.5-0.7,1.2-0.7,2.11v7.35h-4.15V21.87h4.15v1.79
					c0.42-0.6,0.99-1.07,1.7-1.42c0.71-0.35,1.51-0.52,2.4-0.52C157.72,21.72,158.98,22.23,159.93,23.26z"/>
			</g>
			<g>
				<path class="st0" d="M176.91,29.62h-9.38c0.06,0.84,0.34,1.48,0.81,1.93c0.48,0.44,1.06,0.67,1.76,0.67
					c1.03,0,1.75-0.44,2.16-1.31h4.41c-0.23,0.89-0.63,1.69-1.22,2.4c-0.59,0.71-1.33,1.27-2.22,1.67c-0.89,0.4-1.88,0.61-2.98,0.61
					c-1.33,0-2.51-0.28-3.54-0.85c-1.03-0.57-1.84-1.37-2.42-2.42c-0.58-1.05-0.87-2.28-0.87-3.68c0-1.41,0.29-2.63,0.86-3.69
					c0.57-1.05,1.38-1.86,2.41-2.42c1.03-0.57,2.22-0.85,3.56-0.85c1.31,0,2.47,0.27,3.49,0.82c1.02,0.55,1.81,1.33,2.39,2.35
					c0.57,1.02,0.86,2.21,0.86,3.56C176.98,28.8,176.96,29.2,176.91,29.62z M172.74,27.32c0-0.71-0.24-1.28-0.73-1.7
					c-0.49-0.42-1.09-0.63-1.82-0.63c-0.7,0-1.28,0.2-1.76,0.61c-0.48,0.4-0.77,0.98-0.88,1.72H172.74z"/>
			</g>
			<g>
				<path class="st0" d="M185.13,22.36c0.73-0.43,1.54-0.64,2.42-0.64v4.39h-1.14c-1.03,0-1.81,0.22-2.33,0.67
					c-0.52,0.44-0.78,1.22-0.78,2.34v6.28h-4.15V21.87h4.15v2.25C183.79,23.38,184.4,22.79,185.13,22.36z"/>
			</g>
			<g>
				<path class="st0" d="M192.35,34.97c-0.91-0.4-1.62-0.96-2.13-1.68c-0.52-0.73-0.78-1.58-0.78-2.55h2.96
					c0.06,0.73,0.35,1.33,0.86,1.79c0.51,0.47,1.22,0.7,2.15,0.7c0.95,0,1.7-0.23,2.23-0.69c0.53-0.46,0.8-1.05,0.8-1.78
					c0-0.57-0.17-1.03-0.5-1.38c-0.33-0.36-0.74-0.63-1.24-0.82c-0.49-0.19-1.18-0.4-2.05-0.63c-1.1-0.29-1.99-0.59-2.68-0.88
					c-0.69-0.3-1.27-0.76-1.76-1.39c-0.48-0.63-0.73-1.47-0.73-2.52c0-0.97,0.24-1.82,0.73-2.55c0.49-0.73,1.16-1.29,2.04-1.67
					c0.87-0.39,1.88-0.58,3.03-0.58c1.63,0,2.97,0.41,4.01,1.22c1.04,0.82,1.62,1.94,1.73,3.36h-3.05
					c-0.05-0.61-0.34-1.14-0.87-1.58c-0.53-0.44-1.24-0.65-2.11-0.65c-0.79,0-1.44,0.2-1.94,0.61c-0.5,0.4-0.75,0.99-0.75,1.75
					c0,0.52,0.16,0.94,0.47,1.27c0.32,0.33,0.72,0.59,1.2,0.79c0.48,0.19,1.15,0.4,1.99,0.63c1.12,0.31,2.02,0.61,2.73,0.92
					c0.7,0.31,1.3,0.78,1.79,1.42c0.49,0.64,0.74,1.49,0.74,2.56c0,0.86-0.23,1.66-0.69,2.42c-0.46,0.76-1.13,1.37-2.01,1.83
					c-0.88,0.46-1.92,0.69-3.12,0.69C194.27,35.56,193.26,35.37,192.35,34.97z"/>
			</g>
			<g>
				<path class="st0" d="M216.64,29.74h-10.21c0.08,1.07,0.48,1.92,1.19,2.57c0.71,0.65,1.58,0.97,2.62,0.97
					c1.49,0,2.54-0.62,3.15-1.87h2.98c-0.4,1.23-1.14,2.23-2.19,3.02c-1.06,0.78-2.37,1.18-3.94,1.18c-1.28,0-2.42-0.29-3.43-0.86
					c-1.01-0.57-1.8-1.38-2.38-2.42c-0.57-1.04-0.86-2.25-0.86-3.62c0-1.37,0.28-2.58,0.84-3.62c0.56-1.04,1.34-1.85,2.35-2.41
					c1.01-0.57,2.17-0.85,3.48-0.85c1.26,0,2.38,0.27,3.37,0.82c0.99,0.55,1.75,1.32,2.3,2.32c0.55,0.99,0.82,2.14,0.82,3.43
					C216.74,28.89,216.71,29.34,216.64,29.74z M213.86,27.51c-0.02-1.02-0.38-1.83-1.09-2.45c-0.71-0.61-1.59-0.92-2.64-0.92
					c-0.95,0-1.77,0.3-2.45,0.91c-0.68,0.61-1.08,1.43-1.21,2.46H213.86z"/>
			</g>
			<g>
				<path class="st0" d="M222.22,17.45v17.94h-2.76V17.45H222.22z"/>
			</g>
			<g>
				<path class="st0" d="M228.62,17.45v17.94h-2.76V17.45H228.62z"/>
			</g>
		</g>
		<g>
			<path class="st1" d="M229.02,42.44H74.79c-0.45,0-0.82-0.37-0.82-0.82c0-0.45,0.37-0.82,0.82-0.82h154.22
				c0.45,0,0.82,0.37,0.82,0.82C229.83,42.08,229.47,42.44,229.02,42.44z"/>
		</g>
	</g>
</g>
</svg>
