<?xml version="1.0" encoding="utf-8"?>
<!-- Generator: Adobe Illustrator 24.0.0, SVG Export Plug-In . SVG Version: 6.00 Build 0)  -->
<svg version="1.1" id="Layer_1" xmlns="http://www.w3.org/2000/svg" xmlns:xlink="http://www.w3.org/1999/xlink" x="0px" y="0px"
	 viewBox="0 0 51.4 51.4" style="enable-background:new 0 0 51.4 51.4;" xml:space="preserve">
<style type="text/css">
	.st0{fill:#FFFFFF;}
	.st1{fill:#7C7C7C;}
	.st2{fill:#3E94A6;}
	.st3{fill-rule:evenodd;clip-rule:evenodd;fill:#3E94A6;}
	.st4{fill:#00A3EF;}
	.st5{fill:#18F763;}
	.st6{fill:#28292B;}
	.st7{fill:none;stroke:#00A3EF;stroke-width:9;stroke-miterlimit:10;}
	.st8{fill:none;stroke:#00A3EF;stroke-width:8;stroke-miterlimit:10;}
	.st9{fill:#F91500;}
	.st10{fill-rule:evenodd;clip-rule:evenodd;fill:#00A3EF;}
	.st11{fill-rule:evenodd;clip-rule:evenodd;fill:#7C868F;}
	.st12{fill:#7C868F;}
	.st13{fill:#FAFAFA;}
	.st14{fill:#323232;}
	.st15{fill:#1D1D1B;}
	.st16{fill:#C4C6C6;}
	.st17{fill:#3E94A9;}
</style>
<g>
	<path class="st4" d="M45.4,44.1c-0.1-1.7-0.2-3.5-0.4-5.3c-0.4-3.3-2-5.9-5-7.7c-2.6-1.6-5.6-2.5-8.1-3.1c-0.1,0-0.2,0-0.4,0
		c-0.4,0-0.7,0.1-1,0.3c-0.3,0.1-0.5,0.3-0.7,0.4c-0.3,0.2-0.6,0.3-0.8,0.4c-1.1,0.4-2.3,0.7-3.4,0.7c-1.5,0-3.1-0.5-4.5-1.3
		c-0.3-0.2-0.7-0.4-1.2-0.4c-0.2,0-0.4,0-0.6,0.1c-2.3,0.7-4.8,1.6-7.2,2.8c-3.5,1.8-5.5,4.7-5.8,8.4C6.1,40.9,6,42.5,6,44.1
		c0,0.6-0.1,1.1-0.1,1.7c0,0.4,0,1,0.4,1.4c0.4,0.4,1.1,0.5,1.5,0.5c0.9,0,20.8,0,30.4,0h0.5c1.5,0,3,0,4.6,0h0.5
		c0.6,0,1.1-0.2,1.4-0.5c0.2-0.2,0.5-0.6,0.4-1.2C45.5,45.3,45.4,44.7,45.4,44.1z M42.1,44.5h-2c-0.6,0-1.2,0-1.8,0
		c-9,0-27.2,0-27.9,0H9.3c0-0.3,0-0.5,0-0.8c0-0.4,0.1-0.8,0.1-1.2c0.1-1.3,0.2-2.6,0.4-3.9c0.3-1.9,1.4-3.4,3.2-4.5
		c2.1-1.3,4.4-2.1,6.6-2.8c2,1.1,4,1.6,6,1.6c2,0,4.1-0.5,6.1-1.6c2.2,0.6,4,1.3,5.6,2.1c2.7,1.3,4.1,3.4,4.4,6.3
		c0.1,1.3,0.2,2.6,0.3,3.8C42.1,43.8,42.1,44.1,42.1,44.5L42.1,44.5z"/>
	<path class="st4" d="M40.1,44.5c-0.6,0-1.2,0-1.8,0h3.8v0H40.1z"/>
	<path class="st4" d="M43.3,47.7L43.3,47.7l-4.6,0C40.2,47.7,41.7,47.7,43.3,47.7z"/>
	<path class="st4" d="M25.8,3.7L25.8,3.7c-5.8,0-10.4,4.7-10.5,10.4c0,2.8,1.1,5.4,3,7.3c2,2,4.6,3.1,7.3,3.1h0
		c5.7,0,10.4-4.6,10.4-10.4C36.1,8.5,31.5,3.8,25.8,3.7z M25.7,21.4c-4,0-7.2-3.3-7.2-7.2c0-4,3.2-7.2,7.2-7.2h0
		c1.9,0,3.7,0.8,5.1,2.1c1.4,1.4,2.1,3.2,2.1,5.2C32.9,18.1,29.7,21.4,25.7,21.4z"/>
</g>
</svg>
