<?xml version="1.0" encoding="utf-8"?>
<!-- Generator: Adobe Illustrator 24.0.0, SVG Export Plug-In . SVG Version: 6.00 Build 0)  -->
<svg version="1.1" id="Layer_1" xmlns="http://www.w3.org/2000/svg" xmlns:xlink="http://www.w3.org/1999/xlink" x="0px" y="0px"
	 viewBox="0 0 200 200" style="enable-background:new 0 0 200 200;" xml:space="preserve">
	 <title>Ads</title>
<style type="text/css">
	.st0{fill:#00A3EF;}
	.st1{fill:#18F763;}
	.st2{fill:#28292B;}
	.st3{fill:none;stroke:#00A3EF;stroke-width:9;stroke-miterlimit:10;}
	.st4{fill:none;stroke:#00A3EF;stroke-width:8;stroke-miterlimit:10;}
	.st5{fill:#3E94A6;}
	.st6{fill:#F91500;}
</style>
<path class="st0" d="M168.1,43.6H31.9c-7.6,0-13.7,6.1-13.7,13.7v85.3c0,7.6,6.1,13.7,13.7,13.7H131c3.3,0,5.9-2.8,5.7-6.1l0-0.1
	c-0.2-3-2.7-5.2-5.7-5.2H31.9c-1.3,0-2.3-1-2.3-2.3V57.4c0-1.3,1-2.3,2.3-2.3h136.2c1.3,0,2.3,1,2.3,2.3v61.9c0,3.2,2.6,5.7,5.7,5.7
	c3.2,0,5.7-2.6,5.7-5.7V57.4C181.8,49.8,175.7,43.6,168.1,43.6z"/>
<g>
	<path class="st0" d="M70.6,108.9c0,0,0,7.4,0,11c0,2.7-1.3,4.4-3.5,4.9c-2.6,0.6-5.1-1.1-5.4-3.8c0-0.1,0-0.2,0-0.3
		c0-10.1-0.2-20.2,0.2-30.2c0.2-6.7,5.6-12.8,12.1-14.6c6.9-2,14.3,0.4,18.5,5.9c2.4,3.1,3.7,6.7,3.7,10.6c0,9.2,0,18.4,0,27.7
		c0,2.1-0.8,3.7-2.7,4.6c-1.8,0.8-4.2,0.3-5.3-1.2c-0.7-1-0.9-2.2-1-3.5c-0.2-3.2-0.1-11.1-0.1-11.1L70.6,108.9z M86.8,99.7
		c0.1-3.4,0-6.3,0-8.5c0-1.3-0.1-2.4-0.8-3.6c-1.2-2.1-3.4-2.9-4-3.1c-2.3-0.8-4.2-0.4-5-0.2c-0.5,0.1-1.6,0.4-2.6,1.1
		c-2.2,1.4-3.7,3.9-3.8,7c-0.1,2-0.1,7.3-0.1,7.3S85,99.7,86.8,99.7z"/>
	<path class="st0" d="M105,100c0-6.5,0-13,0-19.6c0-3.7,1.7-5.4,5.4-5.4c3.3,0,6.6,0,9.9,0c10.4,0.1,18,7.7,18.1,18.1
		c0,4.5,0,9,0,13.4c0,10.6-7.5,18.1-18,18.4c-3.4,0.1-6.8,0-10.2,0c-3.5,0-5.2-1.8-5.2-5.3C105,113.1,105,106.5,105,100z
		 M114.1,84.3c0,0.7,0,31.6,0,31.6s5.4,0,7.4-0.1c4.2-0.3,7.6-3.5,7.8-7.7c0.2-5.4,0.2-10.9,0-16.3c-0.1-3.7-3.4-7.1-7.1-7.5
		C119.6,84.1,117,84.3,114.1,84.3z"/>
</g>
<path class="st0" d="M170,141.3c3.4,3.4,6.6,6.5,9.7,9.6c2.8,2.8,2.8,4.4,0,7.2c-1.8,1.8-3.5,3.5-5.2,5.3c-2.4,2.4-4.2,2.4-6.7,0
	c-3.2-3.2-6.4-6.4-10-10c-1.2,1.4-2.3,2.8-3.5,4c-2.9,2.9-6,2.1-7.1-1.7c-2.8-9.4-5.5-18.8-8.3-28.2c-0.5-1.6-0.5-3,0.7-4.3
	c1.3-1.4,2.8-1.2,4.5-0.7c9.5,2.8,18.9,5.5,28.4,8.3c3.6,1.1,4.4,4.1,1.8,6.8C172.9,138.8,171.5,139.9,170,141.3z"/>
</svg>
