<?xml version="1.0" encoding="utf-8"?>
<!-- Generator: Adobe Illustrator 24.0.0, SVG Export Plug-In . SVG Version: 6.00 Build 0)  -->
<svg version="1.1" id="Layer_1" xmlns="http://www.w3.org/2000/svg" xmlns:xlink="http://www.w3.org/1999/xlink" x="0px" y="0px"
	 viewBox="0 0 200 200" style="enable-background:new 0 0 200 200;" xml:space="preserve">
 <title>Coupon</title>
<style type="text/css">
	.st0{fill:#00A3EF;}
	.st1{fill:#18F763;}
	.st2{fill:#28292B;}
	.st3{fill:none;stroke:#00A3EF;stroke-width:9;stroke-miterlimit:10;}
	.st4{fill:none;stroke:#00A3EF;stroke-width:8;stroke-miterlimit:10;}
	.st5{fill:#3E94A6;}
	.st6{fill:#F91500;}
</style>
<g>
	<path class="st0" d="M191.4,85.4c3-1.3,4.4-3.4,4.3-6.7c-0.1-4.4-0.2-9.4,0-14.4c0.1-4.4-1.3-8.3-4.2-11.3c-2.9-3-7.2-4.7-11.6-4.7
		l-0.2,0c-8.2,0.1-16.9,0.1-27.5,0.1c-7.4,0-14.8,0-22.2,0c-4.9,0-9.9,0-14.8,0c-1,0-2.2-0.2-3.2-0.5C98.2,43,84.4,38.3,70.6,33.5
		c-9.7-3.4-19.4-6.7-29-10.1c-1.9-0.6-3.7-1-5.5-1c-6.2,0-11.1,3.9-13.3,10.3l-1,3c-1.3,3.8-2.6,7.8-3.8,11.7
		c-0.3,0.9-0.6,1.1-1.4,1.3C9.4,50.3,4.8,55.9,4.7,63.2c-0.1,3.7,0,7.4,0,11c0,1.8,0,3.6,0,5.4c0,2.9,1.3,4.8,3.9,5.7
		c2.3,0.8,4.3,2.5,5.9,4.9c2.7,4.1,3.7,8.7,2.9,13.7c-1,6.7-4.1,10.9-9.4,13c-2.2,0.9-3.3,2.7-3.3,5.5c0,3.5,0,20.7,0,23.5
		c0,10.1,6,16.1,16.1,16.1h22.5c14,0,27.9,0,41.9,0c1.1,0,2.3,0.2,3.4,0.6c13.8,4.7,27.5,9.4,41.3,14.1c9.7,3.3,19.4,6.6,29.1,9.9
		c1.8,0.6,3.7,0.9,5.4,0.9c6.1,0,11.1-3.8,13.2-10.2l0.8-2.3c1.3-4,2.7-8.2,4-12.3c0.2-0.8,0.5-1,1.3-1.1c7.4-1.5,12-7.2,12-14.7
		c0-5.2,0-10.5,0-15.7c0-3,0-5.9,0-8.9c0-2.9-1.3-4.9-4-5.9c-2.2-0.8-4.1-2.3-5.6-4.6c-2.9-4.2-3.9-9-3-14.3
		C184.1,91.4,186.8,87.4,191.4,85.4z M170.5,165.1c-1.2,3.5-2.3,6.8-3.5,10.2c-0.4,1.1-1.2,1.6-2.4,1.6c-0.6,0-1.2-0.1-2-0.4
		c-7.9-2.7-15.8-5.4-23.6-8.1l-6.6-2.3c-3.7-1.3-7.8-2.7-11.9-4.1h51C171.2,163.1,170.8,164.1,170.5,165.1z M185,147.3
		c0,2.5-1.5,4-4.1,4.2c-0.3,0-0.5,0-0.8,0l-0.9,0l-125.2,0c0-0.1,0-0.3,0-0.4c0-1,0-1.9,0-2.8c-0.1-3.3-2.2-5.6-5.2-5.6l-0.1,0
		c-3.1,0-5.2,2.3-5.3,5.7c0,0.9,0,1.7,0,2.7c0,0.1,0,0.3,0,0.4l-13.7,0c-3,0-6.1,0-9.1,0c-3.8,0-5.2-1.3-5.2-5.1
		c0-6.4,0-13.6,0-20.7c0-0.5,0.3-1.1,0.6-1.3c8.3-5.5,12.4-13.6,12.2-24.2c-0.2-10-4.3-17.8-12.3-22.9c-0.2-0.1-0.4-0.6-0.4-0.7
		c-0.1-5.6-0.1-9.9,0-13.8c0-2.1,1.5-3.7,3.4-3.7C22,59,25.6,59,30,59c2.3,0,4.7,0,7.1,0c2.1,0,4.2,0,6.2,0v1.5
		c0,6.1,3.7,6.8,5.4,6.9c1.6,0,5.3-0.7,5.3-7v-1.4l125.7,0c4.1,0,5.3,1.2,5.4,5.3l0,2.3c0,3.1,0,6.4-0.1,9.5c0,0.5-0.4,1.2-0.7,1.4
		c-8.5,5.8-12.6,14.3-12,25.3c0.5,9.6,4.7,16.9,12.4,21.8c0.1,0.1,0.3,0.5,0.3,0.8C185.1,131.3,185.1,139.2,185,147.3z M37.4,33.2
		c13.1,4.5,26.3,9.1,39.1,13.6l4.4,1.5H28.8l0.7-2.1c1.2-3.5,2.4-7.2,3.6-10.7c0.6-1.7,1.6-2.6,3-2.6C36.4,32.9,36.9,33,37.4,33.2z"
		/>
	<path class="st0" d="M142.7,86.6c0.2-0.3,0.3-0.6,0.5-0.9l0.2-0.4l-0.1-0.4c-0.1-0.3-0.2-0.7-0.3-1c-0.2-0.6-0.3-1.2-0.7-1.8
		c-0.9-1.7-2.5-2.6-4.4-2.6c-1.5,0-3,0.7-4.2,1.8c-3.3,3.3-6.6,6.6-9.9,9.9l-4.2,4.2l-7.2,7.2c-6.3,6.3-12.5,12.5-18.8,18.8
		c-2.5,2.5-2.7,5.6-0.5,7.8c1,1.1,2.3,1.6,3.7,1.6c1.5,0,2.9-0.7,4.2-1.9c15.7-15.6,28.4-28.4,40.1-40.2
		C141.8,88.2,142.3,87.3,142.7,86.6z"/>
	<path class="st0" d="M97,69.8c-8.1,0-15,6.8-15,14.9c0,3.9,1.5,7.7,4.4,10.5C89.2,98,93,99.6,97,99.6c4,0,7.8-1.6,10.6-4.4
		c2.8-2.8,4.3-6.6,4.3-10.6C111.8,76.5,105.1,69.8,97,69.8z M96.9,90c-2.9,0-5.3-2.4-5.3-5.3c0-2.9,2.4-5.3,5.3-5.3
		c2.9,0,5.3,2.4,5.3,5.3C102.3,87.6,99.9,90,96.9,90z"/>
	<path class="st0" d="M148.4,115.2c-2.8-2.8-6.5-4.4-10.6-4.4c-8.2,0-14.9,6.7-14.9,14.9c0,4,1.6,7.7,4.4,10.6
		c2.8,2.9,6.6,4.4,10.5,4.4h0c8.2,0,14.8-6.7,14.9-14.8C152.8,121.8,151.2,118,148.4,115.2z M137.8,130.9c-2.9,0-5.3-2.4-5.3-5.3
		c0-2.9,2.4-5.3,5.3-5.3c2.9,0,5.3,2.4,5.3,5.3C143.1,128.6,140.8,130.9,137.8,130.9z"/>
	<path class="st0" d="M43.4,81.5l0,0.5c0,0.3,0,0.6,0,0.9c0,1.1,0,2.3,0,3.4c0.2,3,2.3,5.1,5.2,5.2l0.1,0c3,0,5.2-2.1,5.3-5.2
		c0.1-3,0.1-6.1,0-9.3c-0.1-3.1-2.3-5.3-5.3-5.3c-3,0-5.1,2.1-5.3,5.3c-0.1,1,0,2.1,0,3.1C43.3,80.6,43.4,81.1,43.4,81.5z"/>
	<path class="st0" d="M48.7,114.9L48.7,114.9c3,0,5.1-2.1,5.3-5.3c0.1-1.1,0-2.1,0-3.2c0-0.4,0-0.9,0-1.3c0-0.5,0-1,0-1.5
		c0-1.1,0-2.2,0-3.4c-0.2-3.1-2.3-5.2-5.3-5.2l-0.1,0c-2.9,0.1-5,2.2-5.2,5.2c-0.1,3-0.1,6.1,0,9.3
		C43.5,112.7,45.7,114.9,48.7,114.9z"/>
	<path class="st0" d="M48.7,118.4c-3,0-5.1,2.1-5.3,5.2c-0.1,1.1-0.1,2.2,0,3.2c0,0.5,0,1,0,1.4c0,0.5,0,0.9,0,1.4
		c0,1.1,0,2.2,0,3.3c0.2,3.1,2.4,5.3,5.3,5.3h0c3,0,5.1-2.1,5.2-5.1c0.1-3.1,0.1-6.3,0-9.5C53.8,120.6,51.7,118.4,48.7,118.4z"/>
</g>
</svg>
