<svg id="Layer_1" data-name="Layer 1" xmlns="http://www.w3.org/2000/svg" viewBox="0 0 200 200"><defs><style>.cls-1{fill:#00a3ef;}</style></defs><title>Dashboard</title><path class="cls-1" d="M185.29,37.92c0-9.24-6.46-15.7-15.7-15.7H30.37C21.15,22.23,14.71,28.7,14.7,38q0,51.62,0,103.23a17.59,17.59,0,0,0,.45,4.15,15,15,0,0,0,14.9,11.54H77.81c3.33,7.24,3,13.91-1,20.38a9.51,9.51,0,0,1-8.61,5l-.6,0c-.86,0-1.73-.06-2.59-.06s-2,0-3,.07a5.16,5.16,0,0,0-4.91,5,5.22,5.22,0,0,0,4.15,5.38,13,13,0,0,0,2.57.18h73c.35,0,.7,0,1,0a5.31,5.31,0,0,0,5-5.58,5.19,5.19,0,0,0-5.32-5l-3,0c-.82,0-1.64,0-2.47,0h-.38a9.13,9.13,0,0,1-7.8-4c-4.48-6.27-5.1-13.08-1.92-20.81.23-.55.23-.56.89-.56h0q12.51.06,25,0H169.3a20.19,20.19,0,0,0,3.74-.27c7.32-1.44,12.24-7.58,12.25-15.28q0-18.47,0-36.93V74.67Q185.3,56.3,185.29,37.92Zm-96,119h21.49c-2.52,9.27-1.57,17.55,2.88,25.16H86.37C90.83,174.49,91.77,166.21,89.25,156.93Zm85.39-14.83a4.34,4.34,0,0,1-4,4.13,11.83,11.83,0,0,1-1.75.12H31.19c-4.24,0-5.9-1.64-5.9-5.84v-9.58H174.68c0,.68,0,1.36,0,2C174.72,136.11,174.74,139.08,174.64,142.1ZM25.29,120V38.57c0-4.15,1.62-5.76,5.78-5.76H168.93c4.16,0,5.78,1.62,5.78,5.76V120Z"/><path class="cls-1" d="M156.26,77.75H133.09V54.51c0-5.07-3.17-6.13-5.81-6.13-.22,0-.44,0-.67,0A29.17,29.17,0,0,0,122,49C105,52.65,93.52,70.15,96.81,87.18c3.12,16.09,16.51,27.34,32.59,27.33A33.59,33.59,0,0,0,147.65,109c9.14-5.93,14.1-14.29,14.76-24.84a6.26,6.26,0,0,0-1.32-4.8C159.73,77.92,157.68,77.75,156.26,77.75ZM151,88.29a21.85,21.85,0,0,1-10.87,12.8,22.57,22.57,0,0,1-10.82,2.73,21.27,21.27,0,0,1-11.52-3.26l.91-.91c3.82-3.82,7.59-7.59,11.37-11.34,5.25,0,10.51,0,15.88,0ZM122.39,74.37c0,2,0,4,0,6a1.46,1.46,0,0,1-.1.48c-3.54,3.6-7.05,7.1-10.77,10.8L110.21,93a21.06,21.06,0,0,1-2.07-18.58c2.48-7.32,7.16-12.09,14.25-14.53V74.37Z"/><path class="cls-1" d="M141.73,38.55H141a5.24,5.24,0,0,0-5.47,5.61q0,4.47,0,8.93v7.55c0,3,0,5.92,0,8.88,0,3.61,2.15,5.78,5.71,5.79l12.49,0,12.7,0c3.66,0,5.79-2.14,5.82-5.85a30.38,30.38,0,0,0-30.5-30.92Zm4.49,26V49.75A19.32,19.32,0,0,1,161,64.54Z"/><path class="cls-1" d="M34.46,53.2h69.05a13.24,13.24,0,0,0,2.37-.15,5.35,5.35,0,0,0,2.93-8.81,6.16,6.16,0,0,0-4.63-1.67H34.45c-2.44,0-4.17.55-5.31,1.69a5,5,0,0,0-1.37,3.63C27.77,49.47,28.43,53.2,34.46,53.2Z"/><path class="cls-1" d="M95.39,100.84l-.51,0H33.22a4.9,4.9,0,0,0-1,.09,5.16,5.16,0,0,0-4.38,4.42,5,5,0,0,0,2.78,5.48,7.38,7.38,0,0,0,3.32.59q9.16,0,18.33,0H92.54c.92,0,1.83,0,2.75,0a5.1,5.1,0,0,0,5.07-5.26A5.2,5.2,0,0,0,95.39,100.84Z"/><path class="cls-1" d="M84.87,71.22H33.55A5.79,5.79,0,0,0,29,73a5.2,5.2,0,0,0-1.2,4.21c.33,2.81,2.54,4.55,5.77,4.56H84.72A5.39,5.39,0,0,0,90,78.87a5,5,0,0,0-.15-5A5.71,5.71,0,0,0,84.87,71.22Z"/></svg>