<svg id="Layer_1" data-name="Layer 1" xmlns="http://www.w3.org/2000/svg" viewBox="0 0 200 200"><defs><style>.cls-1{fill:#00a3ef;}.cls-2,.cls-3{fill:none;stroke:#00a3ef;stroke-miterlimit:10;}.cls-2{stroke-width:9px;}.cls-3{stroke-width:8px;}</style></defs><title>Locations</title><rect class="cls-1" x="94.43" y="64" width="0.01" height="0.01"/><path class="cls-1" d="M129.63,62.34a27.68,27.68,0,0,0-.53-3.11A3.68,3.68,0,0,0,125.23,56a6.24,6.24,0,0,1-5.68-8.58,4.49,4.49,0,0,0-2.18-6l-6.15-3.41a4.91,4.91,0,0,0-6.13.76,25.56,25.56,0,0,1-2.68,2,3.68,3.68,0,0,1-4.49,0,28.23,28.23,0,0,1-2.87-2.23,4.93,4.93,0,0,0-5.92-.72c-2.12,1.15-4.22,2.32-6.33,3.47a6,6,0,0,0-1.87,1.52,4.38,4.38,0,0,0-.42,4.61,6.07,6.07,0,0,1,.35,3.26,6.28,6.28,0,0,1-6,5.22,3.79,3.79,0,0,0-4,3.4c-.09.37-.15.75-.21,1.13-.1.59-.17,1.18-.26,1.77v.06a20.2,20.2,0,0,0-.2,2.31,25.78,25.78,0,0,0,.43,5.55l0,.15c.06.41.15.82.23,1.23a6.45,6.45,0,0,0,.28.94,3.54,3.54,0,0,0,3.54,2.36,6.24,6.24,0,0,1,5.73,8.66,4.47,4.47,0,0,0,2.14,5.85c1.14.64,2.28,1.28,3.43,1.91l2.63,1.47A4.93,4.93,0,0,0,94.83,92c.24-.22.48-.44.73-.64a25,25,0,0,1,2.28-1.7,3.38,3.38,0,0,1,4,0,27.92,27.92,0,0,1,2.23,1.7q.45.38.9.78a5.63,5.63,0,0,0,4,1.54l.67-.21a8.06,8.06,0,0,0,1.34-.51c2-1.08,4.06-2.22,6.08-3.35,2.63-1.44,3.46-3.45,2.37-6.24a6.25,6.25,0,0,1,5.71-8.44,3.68,3.68,0,0,0,3.87-3.1,14.22,14.22,0,0,0,.31-1.58c.07-.41.12-.82.19-1.23A25.38,25.38,0,0,0,129.63,62.34Zm-6.58,7.07a11.8,11.8,0,0,0-9.27,14.74.72.72,0,0,1-.41,1c-1.37.72-2.72,1.45-4.05,2.23-.48.29-.75.15-1.16-.15a35.3,35.3,0,0,0-4.06-2.85,8.4,8.4,0,0,0-8.44,0,48.48,48.48,0,0,0-4,2.74l-.59.47c-.22-.11-.38-.18-.53-.27-1.3-.72-2.58-1.47-3.89-2.17-.47-.25-.5-.51-.38-1A11.82,11.82,0,0,0,77,69.4c-.46-.1-.77-.23-.77-.77,0-2,0-4.07,0-6.11,0-.69.33-.94,1-1.07a11.79,11.79,0,0,0,9.48-10.56v-.13a19.65,19.65,0,0,0-.38-4c-.07-.49,0-.74.43-1,1.41-.75,2.82-1.51,4.21-2.32.48-.28.75-.15,1.16.15a38.61,38.61,0,0,0,4.38,2.85s0,0,.06,0a8.1,8.1,0,0,0,7.73-.15,36.12,36.12,0,0,0,4.06-2.69.83.83,0,0,1,1.09-.11c1.33.78,2.68,1.51,4,2.24a.66.66,0,0,1,.39.92,11.82,11.82,0,0,0,9.29,14.79c.48.09.75.28.75.79,0,2.1,0,4.2,0,6.29C123.85,69.1,123.57,69.3,123.05,69.41Z"/><path class="cls-1" d="M99.88,53.75a11.66,11.66,0,1,0,11.64,11.68A11.66,11.66,0,0,0,99.88,53.75Zm-.06,17.3a5.64,5.64,0,1,1,5.7-5.59A5.62,5.62,0,0,1,99.82,71.05Z"/><path class="cls-2" d="M102.06,21.58c-.69,0-1.37,0-2.06,0s-1.38,0-2.07,0c-29.65,1.33-48.29,32.75-36.42,60l33.75,77.32,4.68,10.72a.06.06,0,0,0,.11,0l4.68-10.72,33.75-77.32C150.35,54.33,131.71,22.91,102.06,21.58Z"/><path class="cls-3" d="M139.1,173.53c0,8.17-17.51,14.79-39.1,14.79s-39.11-6.62-39.11-14.79c0-7.56,15-13.8,34.37-14.68l4.68,10.72a.06.06,0,0,0,.11,0l4.68-10.72C124.09,159.73,139.1,166,139.1,173.53Z"/></svg>