<svg id="Layer_1" data-name="Layer 1" xmlns="http://www.w3.org/2000/svg" viewBox="0 0 116.4024 155.4024">
  <defs>
    <style>
      .cls-1 {
        fill: #00a3ef;
      }
    </style>
  </defs>
  <title>location</title>
  <g>
    <path class="cls-1" d="M84.3017,60.814A25.9155,25.9155,0,1,1,58.31,34.9417,25.9621,25.9621,0,0,1,84.3017,60.814Zm-10.9162.0135a15,15,0,1,0-14.9712,15.03A15.04,15.04,0,0,0,73.3855,60.8275Z"/>
    <path class="cls-1" d="M58.3862,150.1763l-4.0234-4.3173c-5.295-5.6817-51.7266-56.3448-51.7266-85.4229a55.75,55.75,0,0,1,111.5,0c0,29.0781-46.4316,79.7412-51.7266,85.4229Zm0-134.49a44.8012,44.8012,0,0,0-44.75,44.75c0,19.1514,29.31,56.1074,44.749,73.4912,15.44-17.3906,44.751-54.3564,44.751-73.4912A44.8012,44.8012,0,0,0,58.3862,15.6861Z"/>
  </g>
</svg>
