<svg width="50" height="50" id="Layer_1" data-name="Layer 1" xmlns="http://www.w3.org/2000/svg" viewBox="0 0 200 200"><defs><style>.cls-1{fill:#00a3ef;}</style></defs><title>Users</title><path class="cls-1" d="M167.64,158.53a6.46,6.46,0,0,1-4.73,1.69H143.84l.27-1.72a33,33,0,0,0,.11-9.26h13.12c-.07-1.13-.12-2.26-.18-3.39-.22-4.36-.46-8.86-.88-13.25-.94-10-5.93-17.1-15.23-21.72a104.81,104.81,0,0,0-19.4-7.12,44,44,0,0,1-21,5.62,44.07,44.07,0,0,1-20.88-5.55c-7.68,2.4-15.73,5.14-22.94,9.58-6.37,3.92-10.11,9.15-11.11,15.55-.7,4.47-1.06,9.12-1.42,13.61-.1,1.36-.21,2.71-.32,4.06-.07.83-.08,1.7-.07,2.61H57.19a29.61,29.61,0,0,0-.3,3.23,35.39,35.39,0,0,0,.64,7.75H38.81a7,7,0,0,1-5.09-1.68,6.09,6.09,0,0,1-1.5-4.85c.1-1.91.2-3.83.28-5.74.27-5.49.55-11.17,1.08-16.76,1.22-12.83,8-22.55,20.19-28.91,8.11-4.24,16.68-7.15,24.72-9.66a6.86,6.86,0,0,1,2-.31,7.93,7.93,0,0,1,4.25,1.41,30.15,30.15,0,0,0,15.7,4.64A32.58,32.58,0,0,0,112,96.09a24,24,0,0,0,2.91-1.46c.8-.45,1.62-.91,2.51-1.32a8.33,8.33,0,0,1,3.55-1,5,5,0,0,1,1.24.15c8.76,2.28,19,5.35,28.08,10.87,10.14,6.12,15.93,15,17.21,26.45.68,6.09,1,12.27,1.27,18.25.11,2.08.21,4.17.33,6.25A5.34,5.34,0,0,1,167.64,158.53Z"/><path class="cls-1" d="M100.88,22.47h-.19a36.12,36.12,0,0,0-36,35.91,36,36,0,0,0,35.73,36h.11a36,36,0,0,0,.31-71.92Zm-.27,60.88a24.94,24.94,0,0,1,0-49.88v-3l.07,3a25,25,0,0,1,24.88,25.18A25,25,0,0,1,100.61,83.35Z"/><path class="cls-1" d="M139.93,149.48a36.17,36.17,0,0,0-.7-4.12c-.64-2.85-2.29-4.19-5.12-4.27a8.26,8.26,0,0,1-7.53-11.36c1.34-3.26.17-6.2-2.88-7.91l-8.15-4.53a6.52,6.52,0,0,0-8.12,1,33.72,33.72,0,0,1-3.56,2.71,4.86,4.86,0,0,1-5.94,0,40.43,40.43,0,0,1-3.81-3,6.54,6.54,0,0,0-7.84-1c-2.8,1.53-5.59,3.08-8.38,4.6a8,8,0,0,0-2.48,2c-1.3,1.63-1.53,3.68-.56,6.1a8,8,0,0,1,.47,4.33,8.33,8.33,0,0,1-7.93,6.91c-3.05.12-4.64,1.51-5.31,4.51-.28,1.26-.42,2.55-.61,3.84,0,0,0,0,0,.08a26.34,26.34,0,0,0-.27,3.06,35.56,35.56,0,0,0,.57,7.35c.1.61.23,1.21.35,1.82a8.22,8.22,0,0,0,.37,1.24,4.68,4.68,0,0,0,4.69,3.13,8.27,8.27,0,0,1,7.59,11.48,5.92,5.92,0,0,0,2.83,7.75c2.67,1.5,5.36,3,8,4.47a6.5,6.5,0,0,0,8.2-1.09,32.42,32.42,0,0,1,4-3.09,4.49,4.49,0,0,1,5.32,0,39.86,39.86,0,0,1,4.15,3.28,7.42,7.42,0,0,0,5.35,2,16.55,16.55,0,0,0,2.65-1c2.71-1.42,5.38-2.94,8.06-4.42,3.48-1.92,4.58-4.58,3.13-8.28a8.28,8.28,0,0,1,7.57-11.17,4.87,4.87,0,0,0,5.13-4.11,18.82,18.82,0,0,0,.41-2.09c.09-.54.16-1.09.25-1.63A33.53,33.53,0,0,0,139.93,149.48Zm-8.71,9.37a15.63,15.63,0,0,0-12.28,19.52.94.94,0,0,1-.55,1.29c-1.81,1-3.6,1.93-5.37,3-.63.38-1,.2-1.52-.2a47,47,0,0,0-5.39-3.77,11.1,11.1,0,0,0-11.17,0,63.51,63.51,0,0,0-5.34,3.63c-.28.2-.53.42-.79.63l-.7-.36c-1.72-1-3.42-2-5.15-2.87-.63-.34-.67-.69-.5-1.31a15.66,15.66,0,0,0-12.3-19.52c-.61-.14-1-.31-1-1,0-2.7,0-5.39-.06-8.1,0-.91.44-1.24,1.31-1.42a15.58,15.58,0,0,0,12.55-14c0-.06,0-.11,0-.17a27.35,27.35,0,0,0-.5-5.31c-.1-.66,0-1,.57-1.31,1.86-1,3.73-2,5.57-3.07.63-.37,1-.19,1.54.19a50.51,50.51,0,0,0,5.79,3.79l.08,0a10.78,10.78,0,0,0,10.24-.2,47.89,47.89,0,0,0,5.39-3.57,1.09,1.09,0,0,1,1.43-.15c1.77,1,3.56,2,5.36,3a.87.87,0,0,1,.51,1.22c-2.51,7.94,2.62,17.77,12.31,19.6.64.12,1,.37,1,1,0,2.78,0,5.56.05,8.34C132.28,158.43,131.91,158.69,131.22,158.85Z"/><path class="cls-1" d="M100.52,138.09a15.45,15.45,0,1,0,15.42,15.47A15.45,15.45,0,0,0,100.52,138.09ZM100.44,161A7.47,7.47,0,1,1,108,153.6,7.44,7.44,0,0,1,100.44,161Z"/></svg>