<svg id="Layer_1" data-name="Layer 1" xmlns="http://www.w3.org/2000/svg" viewBox="0 0 200 200"><defs><style>.cls-1{fill:#00a3ef;}</style></defs><title>Invoices</title><path class="cls-1" d="M139.23,135.63H60.77c-2.56,0-4.63-2.46-4.63-5.5s2.07-5.5,4.63-5.5h78.46c2.56,0,4.63,2.46,4.63,5.5S141.79,135.63,139.23,135.63Z"/><path class="cls-1" d="M91.51,105.5H60.77c-2.56,0-4.63-2.46-4.63-5.5s2.07-5.5,4.63-5.5H91.51c2.56,0,4.63,2.46,4.63,5.5S94.07,105.5,91.51,105.5Z"/><path class="cls-1" d="M139.23,166H60.77c-2.56,0-4.63-2.46-4.63-5.5s2.07-5.5,4.63-5.5h78.46c2.56,0,4.63,2.47,4.63,5.5S141.79,166,139.23,166Z"/><path class="cls-1" d="M159.59,21.69H85.34a2.36,2.36,0,0,0-1.7.72L74.08,32l-1.26,1.34c-4,4.28-8.36,9-13.19,14.18-4,4.34-8.08,8.77-12,12.9-3.54,3.78-6.92,7.32-9.91,10.33l-1,1a2.43,2.43,0,0,0-.71,1.71V183.26a4.37,4.37,0,0,0,4.36,4.35H159.59a4.36,4.36,0,0,0,4.36-4.35V26.05A4.36,4.36,0,0,0,159.59,21.69ZM59.94,64.22l8.28-8.94.1-.11c3.3-3.57,6.68-7.23,9.94-10.73l2.44-2.61,0,24.73-23,0Zm92.41,108.93a2.86,2.86,0,0,1-2.86,2.86h-99a2.86,2.86,0,0,1-2.85-2.86V78.21l44.63-.08c0-6.42,0-33,0-43.43V33.29h57.2a2.86,2.86,0,0,1,2.86,2.86Z"/><path class="cls-1" d="M124.66,58.15A17.16,17.16,0,0,1,131,61.43c2.09,1.58,2.64,3.91,1.3,5.83s-3.85,2.26-6,.72a9.8,9.8,0,0,0-11.08-.21c-3.58,2.45-3.57,6.53,0,9a11.06,11.06,0,0,0,6,1.63A16.41,16.41,0,0,1,134,84.59c4.93,6.23,3.23,14.89-3.81,19.3a52.49,52.49,0,0,1-5.56,2.65c0,1.16,0,2.59,0,4a4.07,4.07,0,1,1-8.12,0c0-1.39,0-2.79,0-3.83-2.29-1.19-4.46-2.14-6.43-3.4a3.93,3.93,0,0,1-1.19-5.74,4.08,4.08,0,0,1,5.93-.79,9.81,9.81,0,0,0,11.07.35c3.72-2.45,3.71-6.68,0-9.11a10.36,10.36,0,0,0-5.54-1.54,16.92,16.92,0,0,1-11.64-4.56C102.49,76,103,66.81,109.85,61.73c3.84-2.71,4-2.6,6.69-3.65,0-1,0-2.41,0-3.84a4.07,4.07,0,1,1,8.12,0C124.67,55.68,124.66,57.07,124.66,58.15Z"/></svg>