<svg id="Layer_1" data-name="Layer 1" xmlns="http://www.w3.org/2000/svg" viewBox="0 0 200 200"><defs><style>.cls-1{fill:#00a3ef;}</style></defs><title>Listings</title><path class="cls-1" d="M121.57,60.91H28.48a5.5,5.5,0,0,1,0-11h93.09a5.5,5.5,0,0,1,0,11Z"/><path class="cls-1" d="M121.57,91.31H28.48a5.5,5.5,0,0,1,0-11h93.09a5.5,5.5,0,0,1,0,11Z"/><path class="cls-1" d="M105.25,121.71H28.48a5.5,5.5,0,0,1,0-11h76.86c-1.37,1.72-1.61,3.89-.59,6.44A8.43,8.43,0,0,1,105.25,121.71Z"/><path class="cls-1" d="M91.71,152.09l-.41,0H28.48a5.5,5.5,0,1,1,0-11H90.35a39.9,39.9,0,0,0,1,9.67A8,8,0,0,0,91.71,152.09Z"/><path class="cls-1" d="M175.62,133.54c-.68-3-2.42-4.42-5.4-4.5a8.71,8.71,0,0,1-7.94-12c1.41-3.43.18-6.53-3-8.34-2.86-1.6-5.73-3.18-8.59-4.77a6.87,6.87,0,0,0-8.56,1.06,37.46,37.46,0,0,1-3.75,2.86,5.15,5.15,0,0,1-6.27,0,41.79,41.79,0,0,1-4-3.12,6.9,6.9,0,0,0-8.27-1c-3,1.61-5.89,3.24-8.83,4.85a8.34,8.34,0,0,0-2.62,2.12c-1.37,1.72-1.61,3.89-.59,6.44a8.43,8.43,0,0,1,.5,4.56A8.8,8.8,0,0,1,99.89,129c-3.22.12-4.9,1.59-5.6,4.75-.3,1.33-.45,2.69-.65,4.05a28.63,28.63,0,0,0-.29,3.31,39.9,39.9,0,0,0,1,9.67,8,8,0,0,0,.39,1.31,4.93,4.93,0,0,0,4.94,3.3,8.72,8.72,0,0,1,8,12.1,6.24,6.24,0,0,0,3,8.17l8.47,4.72a6.86,6.86,0,0,0,8.64-1.15A33.31,33.31,0,0,1,132,176a4.71,4.71,0,0,1,5.61,0,40.48,40.48,0,0,1,4.37,3.46,7.9,7.9,0,0,0,5.64,2.15,18.46,18.46,0,0,0,2.8-1c2.86-1.5,5.67-3.1,8.5-4.67,3.67-2,4.83-4.82,3.3-8.72a8.73,8.73,0,0,1,8-11.78,5.15,5.15,0,0,0,5.41-4.34,39.66,39.66,0,0,0,.69-3.92A36.84,36.84,0,0,0,175.62,133.54Zm-8.45,14.22a16.47,16.47,0,0,0-12.94,20.58,1,1,0,0,1-.58,1.37c-1.91,1-3.8,2-5.66,3.12-.67.4-1.05.21-1.61-.22a49.9,49.9,0,0,0-5.68-4,11.7,11.7,0,0,0-11.78,0,65.67,65.67,0,0,0-5.63,3.83c-.29.21-.56.44-.83.66-.3-.16-.53-.26-.74-.38-1.81-1-3.6-2.06-5.43-3-.66-.35-.7-.72-.53-1.38a16.51,16.51,0,0,0-13-20.58c-.65-.14-1.08-.32-1.08-1.07,0-2.85,0-5.69-.06-8.54,0-1,.46-1.31,1.38-1.5a16.43,16.43,0,0,0,13.23-14.74c0-.06,0-.12,0-.18a28.09,28.09,0,0,0-.53-5.6c-.1-.69,0-1,.6-1.38,2-1,3.94-2.1,5.88-3.23.66-.39,1-.21,1.62.2a53.8,53.8,0,0,0,6.11,4l.08,0a11.34,11.34,0,0,0,10.8-.21,50.28,50.28,0,0,0,5.68-3.76,1.15,1.15,0,0,1,1.51-.16c1.86,1.09,3.75,2.12,5.65,3.13a.93.93,0,0,1,.54,1.29c-2.65,8.37,2.76,18.73,13,20.66.67.13,1,.39,1,1.1,0,2.93,0,5.86,0,8.79C168.29,147.32,167.9,147.6,167.17,147.76Z"/><path class="cls-1" d="M134.81,125.87a16.29,16.29,0,1,0,16.26,16.31A16.3,16.3,0,0,0,134.81,125.87ZM134.72,150a7.88,7.88,0,1,1,8-7.82A7.86,7.86,0,0,1,134.72,150Z"/></svg>