<svg id="Layer_1" data-name="Layer 1" xmlns="http://www.w3.org/2000/svg" viewBox="0 0 200 200"><defs><style>.cls-1{fill:#00a3ef;}</style></defs><title>Message</title><path class="cls-1" d="M189.68,63V159.7a3.17,3.17,0,0,0-.15.5,16.08,16.08,0,0,1-16.37,14.24c-47.29-.15-94.57-.07-141.86-.07l-1.6,0a13.53,13.53,0,0,1-7.32-2.24,16.26,16.26,0,0,1-7.56-14.33q0-46.43,0-92.85c0-.3,0-.6,0-.9a16.09,16.09,0,0,1,16-15.74q71.37.16,142.75.05a15.75,15.75,0,0,1,2.75.15c6.55,1.14,10.58,5.14,12.6,11.32C189.29,60.84,189.44,61.94,189.68,63ZM89.22,109.29,36.73,162.7H167.81q-26.37-26.8-52.52-53.42c-3.06,2.15-6.07,4.22-9,6.35s-5.18,2-8.06,0S92.27,111.43,89.22,109.29ZM39,60c.24.21.32.3.41.36q31.14,21.81,62.29,43.62a.85.85,0,0,0,1.16-.05q31-21.72,62-43.41c.17-.12.33-.28.61-.52ZM26.48,65.38v91.25l53.13-54.06Zm151.58,0-53.15,37.21,53.15,54.1Z"/></svg>