<svg id="Layer_1" data-name="Layer 1" xmlns="http://www.w3.org/2000/svg" viewBox="0 0 200 200"><defs><style>.cls-1{fill:#00a3ef;}</style></defs><title>Packages</title><path class="cls-1" d="M76.2,112.36h0a4.7,4.7,0,0,0,4.45,4.91q36,0,72,0a4.7,4.7,0,0,0,4.45-4.91h0a4.7,4.7,0,0,0-4.45-4.91h-72A4.7,4.7,0,0,0,76.2,112.36Z"/><path class="cls-1" d="M121.77,130.13c2.1.09,4.78,2.11,6,4A6.53,6.53,0,0,1,126.3,143a21,21,0,0,1-9.81,4c-5.27.5-10.67-.27-16-.52-2-.09-4.28-.59-4.63,2.19-.38,3,2,3.29,4.18,3.3,7,0,14.06.3,21-.23a11.77,11.77,0,0,0,7.53-3.7c3-3.66,7-4.23,10.91-5.34,3.14-.88,6.23-2,9.41-2.64,4.17-.85,7.45.85,9.15,4.33s1.21,7.64-2.11,9.9c-16.46,11.17-33.28,21.9-53.38,25.09-10,1.58-19.75-1.5-29.21-4.44-5-1.54-8.6-1-12.47,2.43-4.62,4.12-6,3.74-9.75-1.13-4.46-5.79-8.89-11.61-13.4-17.37-1.92-2.45-2.27-4.78.43-6.76,10.85-8,21.59-16.27,34.62-20.34C79.17,129.83,112.12,129.71,121.77,130.13Z"/><polygon class="cls-1" points="58.22 95.13 62.8 104.41 73.04 105.89 65.63 113.11 67.38 123.31 58.22 118.5 49.07 123.31 50.81 113.11 43.41 105.89 53.65 104.41 58.22 95.13"/><path class="cls-1" d="M157.15,78.51A4.88,4.88,0,0,1,154,83.19a4.11,4.11,0,0,1-1.32.22H80.64A4.65,4.65,0,0,1,76.21,79c0-.17,0-.34,0-.51a4.87,4.87,0,0,1,3.13-4.69,4.11,4.11,0,0,1,1.32-.22h52l2.63,1.47a4.93,4.93,0,0,0,6.19-.82c.24-.22.48-.44.73-.64h8.53q.45.38.9.78a5.63,5.63,0,0,0,4,1.54l.67-.21a5,5,0,0,1,.79,2.28C157.14,78.16,157.15,78.33,157.15,78.51Z"/><polygon class="cls-1" points="58.22 61.27 62.8 70.55 73.04 72.04 65.63 79.26 67.38 89.45 58.22 84.64 49.07 89.45 50.81 79.26 43.41 72.04 53.65 70.55 58.22 61.27"/><path class="cls-1" d="M113.58,49.42l0,.15h-33a4.71,4.71,0,0,1-4.45-4.91h0a4.7,4.7,0,0,1,4.46-4.91h33c-.1.59-.17,1.18-.26,1.77v.06a20.2,20.2,0,0,0-.2,2.31A25.78,25.78,0,0,0,113.58,49.42Z"/><rect class="cls-1" x="141.08" y="43.29" width="0.01" height="0.01"/><polygon class="cls-1" points="58.22 27.42 62.8 36.69 73.04 38.18 65.63 45.4 67.38 55.59 58.22 50.78 49.07 55.59 50.81 45.4 43.41 38.18 53.65 36.69 58.22 27.42"/><path class="cls-1" d="M176.28,41.63a27.68,27.68,0,0,0-.53-3.11,3.68,3.68,0,0,0-3.87-3.22,6.24,6.24,0,0,1-5.68-8.58,4.49,4.49,0,0,0-2.18-6l-6.15-3.41a4.91,4.91,0,0,0-6.13.76,25.56,25.56,0,0,1-2.68,2,3.68,3.68,0,0,1-4.49,0,28.23,28.23,0,0,1-2.87-2.23,4.93,4.93,0,0,0-5.92-.72c-2.12,1.15-4.22,2.32-6.33,3.47a6,6,0,0,0-1.87,1.52,4.38,4.38,0,0,0-.42,4.61,6.07,6.07,0,0,1,.35,3.26,6.28,6.28,0,0,1-6,5.22,3.79,3.79,0,0,0-4,3.4c-.09.37-.15.75-.21,1.13-.1.59-.17,1.18-.26,1.77v.06a20.2,20.2,0,0,0-.2,2.31,25.78,25.78,0,0,0,.43,5.55l0,.15c.06.41.15.82.23,1.23a6.45,6.45,0,0,0,.28.94,3.54,3.54,0,0,0,3.54,2.36,6.24,6.24,0,0,1,5.73,8.66,4.47,4.47,0,0,0,2.14,5.85c1.14.64,2.28,1.28,3.43,1.91l2.63,1.47a4.93,4.93,0,0,0,6.19-.82c.24-.22.48-.44.73-.64a25,25,0,0,1,2.28-1.7,3.38,3.38,0,0,1,4,0,27.92,27.92,0,0,1,2.23,1.7q.45.38.9.78a5.63,5.63,0,0,0,4,1.54l.67-.21a8.06,8.06,0,0,0,1.34-.51c2-1.08,4.06-2.22,6.08-3.35,2.63-1.44,3.46-3.45,2.37-6.24a6.25,6.25,0,0,1,5.71-8.44,3.68,3.68,0,0,0,3.87-3.1,14.22,14.22,0,0,0,.31-1.58c.07-.41.12-.82.19-1.23A25.38,25.38,0,0,0,176.28,41.63ZM169.7,48.7a11.8,11.8,0,0,0-9.27,14.74.72.72,0,0,1-.41,1c-1.37.72-2.72,1.45-4.05,2.23-.48.29-.75.15-1.16-.15a35.3,35.3,0,0,0-4.06-2.85,8.4,8.4,0,0,0-8.44,0,48.48,48.48,0,0,0-4,2.74l-.59.47c-.22-.11-.38-.18-.53-.27-1.3-.72-2.58-1.47-3.89-2.17-.47-.25-.5-.51-.38-1a11.82,11.82,0,0,0-9.28-14.74c-.46-.1-.77-.23-.77-.77,0-2,0-4.07,0-6.11,0-.69.33-.94,1-1.07a11.79,11.79,0,0,0,9.48-10.56v-.13a19.65,19.65,0,0,0-.38-4c-.07-.49,0-.74.43-1,1.41-.75,2.82-1.51,4.21-2.32.48-.28.75-.15,1.16.15a38.61,38.61,0,0,0,4.38,2.85s0,0,.06,0a8.1,8.1,0,0,0,7.73-.15,36.12,36.12,0,0,0,4.06-2.69.83.83,0,0,1,1.09-.11c1.33.78,2.68,1.51,4,2.24a.66.66,0,0,1,.39.92,11.82,11.82,0,0,0,9.29,14.79c.48.09.75.28.75.79,0,2.1,0,4.2,0,6.29C170.5,48.39,170.22,48.59,169.7,48.7Z"/><path class="cls-1" d="M146.53,33a11.66,11.66,0,1,0,11.65,11.67A11.67,11.67,0,0,0,146.53,33Zm-.06,17.3a5.64,5.64,0,1,1,5.7-5.6A5.62,5.62,0,0,1,146.47,50.34Z"/></svg>