<svg id="Layer_1" data-name="Layer 1" xmlns="http://www.w3.org/2000/svg" viewBox="0 0 200 200"><defs><style>.cls-1{fill:#00a3ef;}</style></defs><title>Reasons</title><path class="cls-1" d="M160.42,71.44A56.55,56.55,0,0,0,106,30.29c-1.54,0-3.11.07-4.65.19-27.74,2.29-49.13,23-52,50.35-.1,1-.15,1.91-.17,2.86l2.35-1.29a5.88,5.88,0,0,1,6.07,0,44,44,0,0,1,3.08-13.17,48.42,48.42,0,0,1,45-30.53,50.16,50.16,0,0,1,16,2.65A47.47,47.47,0,0,1,150,105.68c-2.86,6.44-7.16,11.91-11.39,16.86a81.58,81.58,0,0,0-17.51,34.11,1.64,1.64,0,0,1-.09.27,2.87,2.87,0,0,1-.39,0q-8.35,0-16.71,0h-13l-4.33-12a9,9,0,0,1-.92.57c-2.14,1.19-4.28,2.4-6.44,3.55a76.3,76.3,0,0,1,5,18.76,8.7,8.7,0,0,0,4.55,6.81c.71.37.78.6.71,1.3a8.49,8.49,0,0,0,0,1.33v.24a9.49,9.49,0,0,0,9.62,9.36c2.29,0,4.57,0,6.86,0s4.42,0,6.62,0a9.53,9.53,0,0,0,9.5-8.7,10.67,10.67,0,0,0,0-1.37,6.55,6.55,0,0,1,0-1.2,1.46,1.46,0,0,1,.22-.5,10.15,10.15,0,0,0,5.25-7.89c2.12-14.45,7-26.25,15-36.07l.09-.12c3.15-3.88,6.4-7.9,9.33-12.07C162.25,104.28,165.1,88.3,160.42,71.44ZM113.68,177.1c-.07,1.1-.55,1.33-1.3,1.34q-3.36,0-6.72,0c-2.17,0-4.35,0-6.52,0-.75,0-1.23-.23-1.29-1.31,0-.32,0-.63,0-1H113.7C113.7,176.49,113.7,176.8,113.68,177.1Zm5.38-10.4a2.39,2.39,0,0,1-1.31.92c-3.71.06-7.8.08-12.87.08h-11c-.89,0-1.26-.32-1.41-1.23-.06-.35-.11-.7-.16-1.07h27A3.56,3.56,0,0,1,119.06,166.7Z"/><path class="cls-1" d="M97.84,112.57a31.83,31.83,0,0,0-.59-3.47,4.11,4.11,0,0,0-4.32-3.6,7,7,0,0,1-6.35-9.58,5,5,0,0,0-2.43-6.66l-6.87-3.82a5.49,5.49,0,0,0-6.84.85,28,28,0,0,1-3,2.29,4.13,4.13,0,0,1-5,0,33.68,33.68,0,0,1-3.21-2.5,5.9,5.9,0,0,0-1.06-.76,5.37,5.37,0,0,0-5.55,0l-2.14,1.18c-1.65.89-3.29,1.8-4.92,2.7a6.59,6.59,0,0,0-2.1,1.69A4.9,4.9,0,0,0,43,96a6.83,6.83,0,0,1,.39,3.65,7,7,0,0,1-6.68,5.83c-2.57.1-3.92,1.28-4.47,3.8-.25,1.06-.37,2.15-.52,3.24,0,0,0,0,0,.06a22.81,22.81,0,0,0-.22,2.59,29.93,29.93,0,0,0,.47,6.19q.14.77.3,1.53a6.16,6.16,0,0,0,.31,1.05,4,4,0,0,0,3.95,2.64,7,7,0,0,1,6.4,9.67,5,5,0,0,0,2.38,6.54c2.26,1.26,4.53,2.5,6.78,3.77a5.5,5.5,0,0,0,6.91-.92A26.71,26.71,0,0,1,62.34,143a3.75,3.75,0,0,1,4.48,0,31.31,31.31,0,0,1,3.5,2.77,6.33,6.33,0,0,0,4.51,1.72,14.89,14.89,0,0,0,2.24-.81l.91-.49c2-1.05,3.93-2.15,5.88-3.24a9.34,9.34,0,0,0,.84-.52c2.26-1.57,2.89-3.66,1.81-6.46a7,7,0,0,1,6.37-9.41,4.12,4.12,0,0,0,4.33-3.47,15.18,15.18,0,0,0,.34-1.76l.21-1.38A28.21,28.21,0,0,0,97.84,112.57Zm-7.35,7.9a13.18,13.18,0,0,0-10.35,16.45.8.8,0,0,1-.46,1.1c-1.52.8-3,1.62-4.52,2.49-.54.32-.84.17-1.29-.18a41.49,41.49,0,0,0-4.54-3.17,9.38,9.38,0,0,0-9.42,0,51.78,51.78,0,0,0-4.5,3.07c-.24.17-.45.35-.67.53-.23-.13-.42-.21-.59-.3-1.44-.82-2.87-1.65-4.33-2.43-.53-.28-.57-.57-.43-1.1A13.2,13.2,0,0,0,39,120.45c-.52-.11-.87-.26-.87-.85,0-2.28,0-4.55,0-6.83,0-.77.37-1,1.11-1.2A13.15,13.15,0,0,0,49.8,99.79c0-.05,0-.1,0-.15a22.81,22.81,0,0,0-.43-4.48c-.07-.55,0-.83.48-1.09l.71-.38c1.33-.71,2.67-1.44,4-2.21.53-.31.83-.17,1.3.16.07.06.16.11.23.16a40.67,40.67,0,0,0,4.65,3s0,0,.07,0a9.08,9.08,0,0,0,8.63-.16,42.49,42.49,0,0,0,4.54-3,.92.92,0,0,1,1.21-.13c1.49.87,3,1.69,4.51,2.51a.73.73,0,0,1,.44,1c-2.12,6.69,2.21,15,10.38,16.52.53.11.83.31.83.88,0,2.35,0,4.69,0,7C91.39,120.12,91.08,120.34,90.49,120.47Z"/><path class="cls-1" d="M119.41,107.07c7.8-6,11.75-13.08,12.06-21.48.42-11.3-7.19-21.46-18.52-24.71a24.63,24.63,0,0,0-6.79-1,26.09,26.09,0,0,0-22.23,12.6c-1.07,1.83-1.41,3.36-1.05,4.68a3.86,3.86,0,0,0,2,2.36,4.13,4.13,0,0,0,2,.57c2,0,3.35-1.75,4.3-3.27,3.51-5.62,8.42-8.47,14.58-8.47a20.18,20.18,0,0,1,2,.1,16,16,0,0,1,14.34,11.07c2.3,6.28.9,12.15-4.18,17.45a46,46,0,0,1-4.69,4.1c-.83.66-1.66,1.32-2.46,2-4,3.38-8.64,8.21-9.29,15.6a57.13,57.13,0,0,0-.1,6.53l0,1.35h-.09V136c0,.33,0,.66,0,1a4.21,4.21,0,0,0,4.12,4.1h.08a4.15,4.15,0,0,0,4.17-4.28c0-4.93.05-10.14,0-15.49,0-3.07.72-5.4,2.27-7.13A55.46,55.46,0,0,1,119.41,107.07Z"/><path class="cls-1" d="M155.24,130.4h-.11c-2.38.06-5.06,2.83-5,5.19a4.2,4.2,0,0,0,4.16,4.15h0a5.2,5.2,0,0,0,3.61-1.75,5,5,0,0,0,1.55-3.55A4.24,4.24,0,0,0,155.24,130.4Z"/><path class="cls-1" d="M170.31,108.27a4.39,4.39,0,0,0-3.1,1.46,5.82,5.82,0,0,0-1.64,4.14,4.17,4.17,0,0,0,4.19,4h.11c2.47-.07,4.68-2.67,4.63-5.46A4.22,4.22,0,0,0,170.31,108.27Z"/><path class="cls-1" d="M35.83,84.53h0c1,0,4.18-.38,4.25-5.13,0-2.63-1.62-4.51-4.05-4.58h-.13c-2.53,0-4.2,2-4.26,5.05a4.71,4.71,0,0,0,1.23,3.48A4,4,0,0,0,35.83,84.53Z"/><path class="cls-1" d="M174.54,95.45h-.2c-2.53,0-4.35,2.18-4.45,5.29a4.29,4.29,0,0,0,1.15,3.14,4.15,4.15,0,0,0,3,1.25h.07c2.62,0,4.46-2.21,4.48-5.38A4.23,4.23,0,0,0,174.54,95.45Z"/><path class="cls-1" d="M82.23,23.9c2.89,0,5.45-2.15,5.47-4.6a4.2,4.2,0,0,0-1.24-3,4.29,4.29,0,0,0-3.1-1.28h0c-3,.07-5.35,2.15-5.31,4.72A4.2,4.2,0,0,0,82.23,23.9Z"/><path class="cls-1" d="M132.25,25.25a5.91,5.91,0,0,0,3.62,1.41h.1a4.31,4.31,0,0,0,3-1.28,4.11,4.11,0,0,0,1.21-3c0-2.41-2.68-4.69-5.44-4.7a4.23,4.23,0,0,0-4.19,4.12A4.46,4.46,0,0,0,132.25,25.25Z"/><path class="cls-1" d="M49.94,47.29H50c2.37,0,4.94-2.64,5-5.14a4.17,4.17,0,0,0-4-4.28h-.14a4.93,4.93,0,0,0-3.36,1.62,5.34,5.34,0,0,0-1.7,3.66A4.19,4.19,0,0,0,49.94,47.29Z"/><path class="cls-1" d="M175.92,82.07h-.11c-2.54,0-4.19,1.94-4.2,4.94a5.09,5.09,0,0,0,1.31,3.68,4,4,0,0,0,2.89,1.14h0c2.51,0,4.2-2,4.2-5C180,84,178.37,82.13,175.92,82.07Z"/><path class="cls-1" d="M38.34,61.64h0c-2.58,0-4.49,2.42-4.44,5.51a4.23,4.23,0,0,0,4.17,4.15h0A4.23,4.23,0,0,0,41,70a5.93,5.93,0,0,0,1.6-4.17A4.19,4.19,0,0,0,38.34,61.64Z"/><path class="cls-1" d="M144.83,139h-.11c-2.58.07-5.21,2.56-5.2,4.94a4.23,4.23,0,0,0,4.16,4.18h0c2.48,0,5.28-2.53,5.34-4.84a4,4,0,0,0-1.18-3A4.22,4.22,0,0,0,144.83,139Z"/><path class="cls-1" d="M123.27,22.06h0a4.24,4.24,0,0,0,3.07-1.26,4.13,4.13,0,0,0,1.17-3c0-2.52-2.36-4.42-5.36-4.42H122a4.23,4.23,0,0,0-3,1.37,4.14,4.14,0,0,0-1.1,3.05C118,20.26,120.25,22.05,123.27,22.06Z"/><path class="cls-1" d="M59.15,37.46h0a5.66,5.66,0,0,0,5.19-5,4.15,4.15,0,0,0-4.05-4.25h-.11A5.41,5.41,0,0,0,56.52,30,4.89,4.89,0,0,0,55,33.35,4.21,4.21,0,0,0,59.15,37.46Z"/><path class="cls-1" d="M165.64,53.29h.05a4.2,4.2,0,0,0,4.15-4.16c0-2.63-2.5-5.31-5-5.31h-.12a4.13,4.13,0,0,0-4,4.28C160.82,50.72,163.24,53.29,165.64,53.29Z"/><path class="cls-1" d="M170.55,72.79A5.94,5.94,0,0,0,172,77.12a4,4,0,0,0,2.84,1.29h.12a4.21,4.21,0,0,0,4.18-4.22,5.86,5.86,0,0,0-1.45-4.27,4,4,0,0,0-3-1.21A4.11,4.11,0,0,0,170.55,72.79Z"/><path class="cls-1" d="M95.44,20.62h.09c3.19-.05,5.31-1.81,5.29-4.38a4.23,4.23,0,0,0-4.42-4.14h-.15a5.68,5.68,0,0,0-4.09,1.54,4,4,0,0,0-1.06,3A4.15,4.15,0,0,0,95.44,20.62Z"/><path class="cls-1" d="M69.87,29.58H70a5.7,5.7,0,0,0,3.9-1.78,4.45,4.45,0,0,0,1.44-3.12,4.14,4.14,0,0,0-4.17-4.13c-2.67,0-5.27,2.29-5.34,4.72A4.19,4.19,0,0,0,69.87,29.58Z"/><path class="cls-1" d="M147.46,33.6h.08a4.23,4.23,0,0,0,4.19-4.33c-.07-2.27-2.89-4.86-5.34-4.86a4.19,4.19,0,0,0-4.12,4.21C142.28,30.94,145,33.55,147.46,33.6Z"/><path class="cls-1" d="M166.88,59.74A5.83,5.83,0,0,0,168.42,64a4.33,4.33,0,0,0,3.07,1.42h0a4.15,4.15,0,0,0,4.16-4.09c.07-2.9-2-5.44-4.49-5.53H171A4.17,4.17,0,0,0,166.88,59.74Z"/><path class="cls-1" d="M163.84,120.1a4.77,4.77,0,0,0-3.28,1.61,5.5,5.5,0,0,0-1.69,3.78,4.31,4.31,0,0,0,4.23,4.09h0c2.39,0,4.86-2.67,4.89-5.28A4.16,4.16,0,0,0,163.84,120.1Z"/><path class="cls-1" d="M43.48,49.16a4.47,4.47,0,0,0-3.17,1.47,5.66,5.66,0,0,0-1.63,4,4.16,4.16,0,0,0,4.18,4H43c2.42-.05,4.72-2.66,4.73-5.38A4.23,4.23,0,0,0,43.48,49.16Z"/><path class="cls-1" d="M109.46,20h.12c2.71,0,4.58-1.62,4.68-4A3.93,3.93,0,0,0,113.2,13a5.51,5.51,0,0,0-4.07-1.47c-2.77,0-4.57,1.63-4.58,4.16S106.37,19.91,109.46,20Z"/><path class="cls-1" d="M157.55,42.56h0a4.2,4.2,0,0,0,4.17-4.14c0-2.39-2.66-5.16-5.11-5.21a4.16,4.16,0,0,0-4.18,4,5.62,5.62,0,0,0,5.1,5.3Z"/><path class="cls-1" d="M105.89,143.47h-.16a4.11,4.11,0,0,0-4.16,4,4.22,4.22,0,0,0,1.15,3.11,4.16,4.16,0,0,0,3,1.29h0a4.19,4.19,0,0,0,.15-8.37Z"/><path class="cls-1" d="M64.62,103a13,13,0,1,0,13,13A13,13,0,0,0,64.62,103Zm-.07,19.33A6.3,6.3,0,1,1,70.91,116,6.28,6.28,0,0,1,64.55,122.3Z"/></svg>