<svg id="Layer_1" data-name="Layer 1" xmlns="http://www.w3.org/2000/svg" viewBox="0 0 200 200"><defs><style>.cls-1{fill:#00a3ef;}</style></defs><title>Recommendations</title><path class="cls-1" d="M160.77,99.48a19.87,19.87,0,0,0-19-15.1c-2.49-.07-5.16-.1-8.63-.1H122.54c0-.08,0-.17,0-.25.3-1.46.61-2.91.92-4.36a148.44,148.44,0,0,0,3.37-20.28c.51-7.07-1.55-13.56-6.29-19.85a12.16,12.16,0,0,0-9.8-5.1,13.44,13.44,0,0,0-11.68,7.18,23.8,23.8,0,0,0-2.68,10.8c-.15,9-3.33,17.64-9.72,26.38-4,5.49-9.2,9.5-13.74,12.7a17.77,17.77,0,0,0-7.8,15c0,8.27,0,16.67.06,24.8,0,3.59,0,7.18,0,10.77,0,1.48,0,3,0,4.46v1.1H50.48V107.64c0-2.4,0-4.8,0-7.2a5.88,5.88,0,0,0-5.37-6,4.87,4.87,0,0,0-.66,0c-3.43,0-5.93,2.76-5.93,6.55v51.74c0,4.28,2.36,6.64,6.64,6.64H70.07c2.37,0,4.09-.57,5.25-1.74A6.92,6.92,0,0,0,77,152.44l0-9.8c0-11.54-.06-23.46-.15-35.2a8.13,8.13,0,0,1,3.89-7.3C98.06,88,107.31,71.84,108.22,52A14.51,14.51,0,0,1,109.57,47c.25-.59.55-.85.72-.85s.57.25.94.82c2.92,4.35,4.06,8.62,3.5,13,0,.45-.11.91-.16,1.36-.12,1.08-.25,2.19-.45,3.24-1.38,7-2.89,14.46-4.75,23.6a5.83,5.83,0,0,0,6.24,7.68h18.7c2.27,0,4.91,0,7.53.12a8,8,0,0,1,7.36,8.74l-1,8.12q-2.11,16.65-4.22,33.29c-.67,5.26-3.85,8.16-9,8.16h-1.18c-10.46,0-19.58-.08-27.89-.23-2.57,0-5.2-.24-7.73-.43-1.71-.13-3.42-.26-5.13-.35h-.3A5.78,5.78,0,0,0,87,158.5a5.68,5.68,0,0,0,5.18,6.19l2.73.22c4.31.34,8.77.7,13.18.8s8.78.1,12.12.1l9.9,0h4.18c5.1,0,9-1,12.33-3.14,5.53-3.59,8.64-9,9.51-16.46,1.07-9.28,2.28-18.7,3.45-27.82q.67-5.17,1.33-10.37A22.77,22.77,0,0,0,160.77,99.48Z"/></svg>