<svg id="Layer_1" data-name="Layer 1" xmlns="http://www.w3.org/2000/svg" viewBox="0 0 200 200"><defs><style>.cls-1{fill:#00a3ef;}</style></defs><title>Reported Listings</title><path class="cls-1" d="M125.5,57.49H32.41a5.5,5.5,0,1,1,0-11H125.5a5.5,5.5,0,0,1,0,11Z"/><path class="cls-1" d="M125.5,87.9H32.41a5.5,5.5,0,1,1,0-11H125.5a5.5,5.5,0,0,1,0,11Z"/><path class="cls-1" d="M111.67,107.29l-2.26,3.65-2.11,3.41c-.81,1.32-1.63,2.63-2.44,3.94H32.4a5.5,5.5,0,1,1,0-11Z"/><path class="cls-1" d="M32.4,137.7H92.82L91.4,140a11.18,11.18,0,0,0-1.33,8.72H32.4a5.51,5.51,0,0,1,0-11Z"/><path class="cls-1" d="M100.73,143.21A5.44,5.44,0,0,1,99.22,147c-.32-.5-.36-1.25.48-2.63l1-1.64A4,4,0,0,1,100.73,143.21Z"/><path class="cls-1" d="M171.19,139.71c-1.6-2.59-3.21-5.16-4.82-7.74s-3.26-5.2-4.87-7.81q-6-9.76-12-19.54l-5.1-8.29a12.42,12.42,0,0,0-5.1-5.09,12.84,12.84,0,0,0-5.51-1.3,11.91,11.91,0,0,0-10.21,6.14c-2.27,3.73-4.59,7.5-6.89,11.21l-2.26,3.65-2.11,3.41c-.81,1.32-1.63,2.63-2.44,3.94l-6.35,10.23-5.69,9.18L96.4,140a11.18,11.18,0,0,0-1.33,8.72,12.36,12.36,0,0,0,1.13,2.8,12,12,0,0,0,10.32,6.26h.19c3.18-.05,6.58-.08,10.72-.08l8.22,0,8.23,0h27.35a11.73,11.73,0,0,0,10-18Zm-7.84,7.56a2.84,2.84,0,0,1-2.46,1.14H121.27c-5.7,0-10,0-14.1,0a4.4,4.4,0,0,1-2.49-.9,1.91,1.91,0,0,1-.46-.48h0c-.32-.5-.36-1.25.48-2.63l1-1.64h0c.89-1.47,1.79-2.91,2.68-4.36q2.1-3.39,4.17-6.79,1.62-2.66,3.19-5.33c1.53-2.55,3.1-5.2,4.7-7.76l.11-.18c2.35-3.78,4.73-7.55,6.93-11,1.57-2.46,3-4.76,4.35-6.79a2.45,2.45,0,0,1,2-1.29,2.71,2.71,0,0,1,2.21,1.46q4,6.4,8,12.84,5,8.14,10.09,16.28c1.41,2.26,2.88,4.53,4.31,6.73,1.15,1.78,2.3,3.56,3.43,5.35a22.77,22.77,0,0,1,1.59,3.07A2.39,2.39,0,0,1,163.35,147.27Z"/><path class="cls-1" d="M138.7,114.62c-.35,4.66-.76,9.31-1.2,14-.23,2.48-1.52,3.79-3.58,3.79s-3.51-1.38-3.72-3.72c-.3-3.5-.56-7-.8-10.36-.06-.86-.13-1.7-.19-2.53-.05-3.67,1.07-5.36,3.75-6a4.38,4.38,0,0,1,2.16,0A4.74,4.74,0,0,1,138.7,114.62Z"/><path class="cls-1" d="M129.43,141a4.24,4.24,0,0,1,4.49-4.26,4.33,4.33,0,0,1,4.52,4.26,4.58,4.58,0,0,1-4.52,4.29A4.29,4.29,0,0,1,129.43,141Z"/></svg>