<svg id="Layer_1" data-name="Layer 1" xmlns="http://www.w3.org/2000/svg" viewBox="0 0 200 200"><defs><style>.cls-1{fill:#00a3ef;}</style></defs><title>Searchings</title><path class="cls-1" d="M116,57.58h.16l.16,0,1.15.17c1.31.19,3.1.45,4.88.87a6.29,6.29,0,0,1-1.43,12.43,6.91,6.91,0,0,1-1.19-.1,31.77,31.77,0,0,0-5.4-.59,14,14,0,0,0-2.89.28A16.77,16.77,0,0,0,98.05,86.75v.51c0,.52,0,1-.06,1.61a6.42,6.42,0,0,1-6.24,5.88h-.2a6.28,6.28,0,0,1-6.19-6.1,28.89,28.89,0,0,1,8.72-22.49C99.79,60.47,106.75,57.75,116,57.58Z"/><path class="cls-1" d="M19.85,179a7.87,7.87,0,0,0,6.2,3.22,7.44,7.44,0,0,0,3.53-.9,12.53,12.53,0,0,0,3-2.34l3-3,3.83-3.83q7.86-7.86,15.7-15.71L59,152.63,69.55,142S80.93,130.63,81,130.62A54.81,54.81,0,0,0,152.4,47.84,54.15,54.15,0,0,0,113.92,32a54.88,54.88,0,0,0-44,87.6l-.13.14Q57.25,132.29,44.7,144.88c-1.28,1.28-2.55,2.57-3.83,3.84Q33,156.58,25.16,164.46l-1.05,1-2.61,2.62h0c-.42.42-.87.87-1.29,1.37A7.49,7.49,0,0,0,19.85,179Zm52.7-92.32A41.31,41.31,0,1,1,113.86,128,41.29,41.29,0,0,1,72.55,86.71Z"/></svg>