<svg id="Layer_1" data-name="Layer 1" xmlns="http://www.w3.org/2000/svg" viewBox="0 0 200 200"><defs><style>.cls-1{fill:#00a3ef;}</style></defs><title>Selling</title><path class="cls-1" d="M99.27,71.23a18.77,18.77,0,0,0-2.39-.11c-.78,0-1.57,0-2.35,0h-8.2V62.56h9.91c2.57,0,4.33-1.56,4.39-3.86a3.82,3.82,0,0,0-1-2.81,4.55,4.55,0,0,0-3.37-1.24H86.34V46.06H98.48c2.56-.08,4.3-1.77,4.24-4.1s-1.8-3.81-4.3-3.82H82.94c-3.16,0-4.63,1.47-4.63,4.62q0,8.12,0,16.22v8.55q0,3.64,0,7.29c0,2.54,1.55,4.19,3.93,4.21,3.34,0,6.69.07,10,.08,2.31,0,4.5,0,6.83-.06a3.93,3.93,0,0,0,1.53-7.39A4.39,4.39,0,0,0,99.27,71.23Z"/><path class="cls-1" d="M184.36,29c-3.11-8.43-6.63-10.86-15.69-10.86H31c-8.68,0-14.29,5.6-14.29,14.28V84.55c0,9.12,5.48,14.57,14.65,14.57H87.21v35.17l-7-3.49a13.62,13.62,0,0,0-6.14-1.49,13.47,13.47,0,0,0-2.95.33,13.77,13.77,0,0,0-6,24c1.53,1.3,3.12,2.53,4.66,3.72,1.23.95,2.5,1.93,3.71,2.92,6.07,5,12.31,10.46,16.08,17.87A14.4,14.4,0,0,0,99,185.32c.32.09.64.2,1,.32l.93.31h34.78l1.26-.34c.71-.2,1.46-.4,2.21-.65,7.86-2.63,12.79-9.56,12.86-18.08.05-6.32,0-12.74,0-18.95,0-4.76,0-9.52,0-14.29a12.31,12.31,0,0,0-3.55-8.84,11.87,11.87,0,0,0-8.46-3.51,12.5,12.5,0,0,0-2.2.2,11.87,11.87,0,0,0-5.24-6.67,11.65,11.65,0,0,0-6-1.69,12.7,12.7,0,0,0-2.27.21A11.82,11.82,0,0,0,112.81,105a11.58,11.58,0,0,0-1.44.08V99.12l15.82,0,16.4,0c9.84,0,17.83,0,25.17.12h.29c8.21,0,13.68-4,15.4-11.21l.06-.28V29.39Zm-71,86.39a2.05,2.05,0,0,1,2.16,2.09c0,5.21,0,22.33,0,22.81.27,2.88,1.3,5,4,5h.15a5,5,0,0,0,4.89-5.31c0-3.11,0-14.3,0-14.62a2.29,2.29,0,0,1,2.23-1.89c.92,0,2.25.82,2.26,1.85,0,3.1,0,14.5,0,14.9.17,2.85,1,4.94,3.74,5.07h.25c2.8,0,3.77-2.21,3.88-5,.05-1.41,0-5.68,0-6.43a2.27,2.27,0,0,1,2.16-2,2.47,2.47,0,0,1,2.36,1.91s.08,24,0,33.35c-.06,5.06-3.7,8.47-8.92,8.48H103.74a5.56,5.56,0,0,1-5.44-3.14,53,53,0,0,0-13.56-16.28c-3.2-2.65-6.48-5.29-9.66-7.84l-3-2.39a3.19,3.19,0,0,1-1.37-3.44A2.66,2.66,0,0,1,73,140a4.72,4.72,0,0,1,.77-.06,5.87,5.87,0,0,1,2.37.48c3.08,1.4,6.17,3,9.16,4.49L89.39,147a7.51,7.51,0,0,0,3.3.86c2.3,0,4-1.56,4-6q0-8.16,0-16.33V111.51q0-8,0-16c0-1.1,1.28-1.7,2.06-1.7,1.24,0,2.18.74,2.22,1.41.09,1.6,0,43.51,0,43.51,0,5.89,3.45,6.52,5,6.52s5.08-.66,5.08-6.54c0,0,0-16.41,0-21.29A2.15,2.15,0,0,1,113.38,115.37ZM174.1,84.76c0,3-1,3.94-3.92,3.94H149.93q-20.24,0-40.48,0h-.2l-.1-.13a11.73,11.73,0,0,0-7-5h0c-5.23-.45-8.38,1-10,2.11l-.08.06A10.76,10.76,0,0,0,90.65,87l-.06.07a12.32,12.32,0,0,0-1.33,1.7q-20.79,0-41.58,0H30.82c-2.66,0-3.69-1-3.69-3.68q0-26.31,0-52.61c0-2.89,1-3.86,3.82-3.86H170c3.2,0,4.08.87,4.08,4.08Z"/><path class="cls-1" d="M61.61,54.36a8,8,0,0,1-5.25-1.64,3.21,3.21,0,0,1,.08-5.41,7.27,7.27,0,0,1,4.61-1.55,10.49,10.49,0,0,1,1.89.18c3,.59,4.13,1.71,4.75,4.8A4,4,0,0,0,71.58,54h.25a3.94,3.94,0,0,0,3.69-3.83A10.38,10.38,0,0,0,72.93,43,14.28,14.28,0,0,0,62.2,37.86h-.1a16.67,16.67,0,0,0-9.61,2.55,11.22,11.22,0,0,0,.08,19.33,16.09,16.09,0,0,0,8.67,2.54,7.44,7.44,0,0,1,5,1.7,3.53,3.53,0,0,1,1.36,2.62,3.42,3.42,0,0,1-1.38,2.55,7.1,7.1,0,0,1-4.7,1.72,9.45,9.45,0,0,1-1.87-.2c-3.21-.65-4.6-2-4.82-4.52A3.87,3.87,0,0,0,51,62.6l-.37,0A3.9,3.9,0,0,0,47,66.67a10.83,10.83,0,0,0,3.68,8.1A16,16,0,0,0,71.54,75a11,11,0,0,0,.14-16.82A15,15,0,0,0,61.61,54.36Z"/><path class="cls-1" d="M125.23,70.85c-.58,0-1.16,0-1.73,0H112.72V42.78a8.08,8.08,0,0,0-.22-2.06,3.74,3.74,0,0,0-3.71-2.85h-.33a3.78,3.78,0,0,0-3.61,3.35,8.24,8.24,0,0,0-.06,1.37V67.54c0,2.32,0,4.65,0,7,0,2.61,1.56,4.23,4,4.24l8.11,0,8.22,0A3.9,3.9,0,0,0,129.2,75,4,4,0,0,0,125.23,70.85Z"/><path class="cls-1" d="M151.87,78.76A4,4,0,0,0,156,74.93a3.83,3.83,0,0,0-1-2.77,4.37,4.37,0,0,0-3.1-1.31c-.52,0-1.05,0-1.57,0H139.55V66q0-11.62,0-23.24a7.59,7.59,0,0,0-.21-2.08,3.71,3.71,0,0,0-3.72-2.81h-.34a3.73,3.73,0,0,0-3.56,3.18,8.4,8.4,0,0,0-.1,1.53V60.93c0,4.45,0,8.9,0,13.35,0,4,2.92,4.47,4.18,4.48h16.08Z"/><path class="cls-1" d="M92,85.75A10.76,10.76,0,0,0,90.65,87,6.35,6.35,0,0,1,92,85.75Z"/></svg>