<svg width="18" height="31" viewBox="0 0 18 31" fill="none" xmlns="http://www.w3.org/2000/svg">
<path d="M17.198 30.1547C17.4485 29.9047 17.6473 29.6077 17.7829 29.2808C17.9185 28.9539 17.9883 28.6035 17.9883 28.2496C17.9883 27.8957 17.9185 27.5453 17.7829 27.2184C17.6473 26.8915 17.4485 26.5945 17.198 26.3445L6.71329 15.8598L17.198 5.37504C17.7033 4.86978 17.9871 4.1845 17.9871 3.46996C17.9871 2.75541 17.7033 2.07013 17.198 1.56487C16.6928 1.0596 16.0075 0.775757 15.2929 0.775757C14.5784 0.775757 13.8931 1.05961 13.3878 1.56487L0.984517 13.9682C0.734007 14.2182 0.535264 14.5151 0.399661 14.842C0.264058 15.1689 0.194262 15.5194 0.194262 15.8733C0.194262 16.2272 0.264058 16.5776 0.399661 16.9045C0.535264 17.2314 0.734008 17.5284 0.984517 17.7784L13.3879 30.1817C14.4147 31.2086 16.1441 31.2086 17.198 30.1547Z" fill="white" fill-opacity="0.7"/>
</svg>
