<svg width="8" height="17" viewBox="0 0 8 17" fill="none" xmlns="http://www.w3.org/2000/svg">
<path d="M6.50741 16.498C6.35801 16.4986 6.2104 16.4602 6.07543 16.3856C5.94045 16.3109 5.82153 16.202 5.72741 16.0668L0.89741 9.07385C0.750328 8.86531 0.669922 8.60372 0.669922 8.33376C0.669922 8.06381 0.750328 7.80222 0.89741 7.59368L5.89741 0.600724C6.06715 0.362711 6.31106 0.213034 6.57549 0.184619C6.83991 0.156205 7.10319 0.251381 7.30741 0.44921C7.51163 0.647039 7.64005 0.931316 7.66443 1.2395C7.68881 1.54769 7.60715 1.85454 7.43741 2.09255L2.96741 8.33959L7.28741 14.5866C7.40969 14.7577 7.48737 14.966 7.51125 15.1869C7.53513 15.4079 7.50421 15.6321 7.42216 15.8332C7.3401 16.0343 7.21034 16.2038 7.04823 16.3216C6.88612 16.4394 6.69844 16.5006 6.50741 16.498Z" fill="white"/>
</svg>
