<svg width="52" height="29" viewBox="0 0 52 29" fill="none" xmlns="http://www.w3.org/2000/svg">
<path fill-rule="evenodd" clip-rule="evenodd" d="M2.34312 14.5L6.1709 10.6722L4.99979 9.5L-0.000212888 14.5L4.99979 19.5L6.1709 18.3278L2.34312 14.5Z" fill="#00A3EF"/>
<path d="M17.5622 19.5V8.59091H21.3762C22.1361 8.59091 22.7629 8.7223 23.2565 8.98509C23.7501 9.24432 24.1176 9.5941 24.3591 10.0344C24.6006 10.4712 24.7213 10.956 24.7213 11.4886C24.7213 11.9574 24.6379 12.3445 24.471 12.6499C24.3076 12.9553 24.091 13.1967 23.8211 13.3743C23.5548 13.5518 23.2654 13.6832 22.9529 13.7685V13.875C23.2867 13.8963 23.6222 14.0135 23.9596 14.2266C24.297 14.4396 24.5793 14.745 24.8066 15.1428C25.0338 15.5405 25.1475 16.027 25.1475 16.6023C25.1475 17.1491 25.0232 17.641 24.7746 18.0778C24.526 18.5146 24.1336 18.8608 23.5974 19.1165C23.0612 19.3722 22.3634 19.5 21.504 19.5H17.5622ZM18.8833 18.3281H21.504C22.3669 18.3281 22.9795 18.1612 23.3417 17.8274C23.7075 17.4901 23.8904 17.0817 23.8904 16.6023C23.8904 16.233 23.7963 15.892 23.608 15.5795C23.4198 15.2635 23.1517 15.0114 22.8037 14.8232C22.4557 14.6314 22.0438 14.5355 21.5679 14.5355H18.8833V18.3281ZM18.8833 13.3849H21.3335C21.7313 13.3849 22.0899 13.3068 22.4095 13.1506C22.7327 12.9943 22.9884 12.7741 23.1766 12.4901C23.3683 12.206 23.4642 11.8722 23.4642 11.4886C23.4642 11.0092 23.2973 10.6026 22.9635 10.2688C22.6297 9.93146 22.1006 9.76278 21.3762 9.76278H18.8833V13.3849ZM29.5553 19.6918C29.0368 19.6918 28.5663 19.5941 28.1437 19.3988C27.7211 19.1999 27.3856 18.9141 27.137 18.5412C26.8884 18.1648 26.7641 17.7102 26.7641 17.1776C26.7641 16.7088 26.8564 16.3288 27.0411 16.0376C27.2258 15.7429 27.4726 15.5121 27.7815 15.3452C28.0905 15.1783 28.4314 15.054 28.8042 14.9723C29.1807 14.8871 29.5589 14.8196 29.9388 14.7699C30.436 14.706 30.839 14.658 31.148 14.6261C31.4605 14.5906 31.6878 14.532 31.8298 14.4503C31.9754 14.3686 32.0482 14.2266 32.0482 14.0241V13.9815C32.0482 13.456 31.9044 13.0476 31.6167 12.7564C31.3327 12.4652 30.9012 12.3196 30.3224 12.3196C29.7222 12.3196 29.2517 12.451 28.9108 12.7138C28.5699 12.9766 28.3302 13.2571 28.1917 13.5554L26.9985 13.1293C27.2116 12.6321 27.4956 12.245 27.8508 11.968C28.2094 11.6875 28.6001 11.4922 29.0226 11.3821C29.4488 11.2685 29.8678 11.2116 30.2797 11.2116C30.5425 11.2116 30.8444 11.2436 31.1853 11.3075C31.5297 11.3679 31.8618 11.494 32.1814 11.6857C32.5045 11.8775 32.7726 12.1669 32.9857 12.554C33.1988 12.9411 33.3053 13.4595 33.3053 14.1094V19.5H32.0482V18.392H31.9843C31.8991 18.5696 31.757 18.7596 31.5582 18.962C31.3593 19.1644 31.0947 19.3366 30.7645 19.4787C30.4342 19.6207 30.0312 19.6918 29.5553 19.6918ZM29.7471 18.5625C30.2442 18.5625 30.6633 18.4648 31.0042 18.2695C31.3486 18.0742 31.6079 17.8221 31.7819 17.5131C31.9594 17.2042 32.0482 16.8793 32.0482 16.5384V15.3878C31.9949 15.4517 31.8778 15.5103 31.6966 15.5636C31.5191 15.6133 31.3131 15.6577 31.0787 15.6967C30.8479 15.7322 30.6224 15.7642 30.4023 15.7926C30.1856 15.8175 30.0099 15.8388 29.8749 15.8565C29.5482 15.8991 29.2428 15.9684 28.9587 16.0643C28.6782 16.1566 28.4509 16.2969 28.2769 16.4851C28.1064 16.6697 28.0212 16.9219 28.0212 17.2415C28.0212 17.6783 28.1828 18.0085 28.5059 18.2322C28.8327 18.4524 29.2464 18.5625 29.7471 18.5625ZM38.9237 19.6705C38.1566 19.6705 37.4961 19.4893 36.9421 19.1271C36.3881 18.7649 35.962 18.266 35.6637 17.6303C35.3654 16.9947 35.2163 16.2685 35.2163 15.4517C35.2163 14.6207 35.369 13.8874 35.6744 13.2518C35.9833 12.6126 36.413 12.1136 36.9634 11.755C37.5174 11.3928 38.1637 11.2116 38.9023 11.2116C39.4776 11.2116 39.9961 11.3182 40.4577 11.5312C40.9194 11.7443 41.2976 12.0426 41.5923 12.4261C41.8871 12.8097 42.07 13.2571 42.141 13.7685H40.8839C40.788 13.3956 40.5749 13.0653 40.2447 12.7777C39.918 12.4865 39.4776 12.3409 38.9237 12.3409C38.4336 12.3409 38.0039 12.4687 37.6346 12.7244C37.2688 12.9766 36.983 13.3335 36.777 13.7951C36.5746 14.2532 36.4734 14.7912 36.4734 15.4091C36.4734 16.0412 36.5728 16.5916 36.7717 17.0604C36.9741 17.5291 37.2582 17.8931 37.6239 18.1523C37.9933 18.4116 38.4265 18.5412 38.9237 18.5412C39.2504 18.5412 39.5469 18.4844 39.8132 18.3707C40.0795 18.2571 40.305 18.0938 40.4897 17.8807C40.6744 17.6676 40.8058 17.4119 40.8839 17.1136H42.141C42.07 17.5966 41.8942 18.0316 41.6136 18.4187C41.3366 18.8022 40.9691 19.1076 40.511 19.3349C40.0565 19.5586 39.5273 19.6705 38.9237 19.6705ZM45.1506 16.517L45.1293 14.9616H45.3849L48.9645 11.3182H50.5199L46.706 15.1747H46.5994L45.1506 16.517ZM43.9787 19.5V8.59091H45.2358V19.5H43.9787ZM49.1776 19.5L45.9815 15.4517L46.8764 14.5781L50.7756 19.5H49.1776Z" fill="#00A3EF"/>
</svg>
