<svg id="Layer_1" data-name="Layer 1" xmlns="http://www.w3.org/2000/svg" viewBox="0 0 24 24"><defs><style>.cls-1{fill:#fff;}</style></defs><title>Branch icon</title><path d="M4.48,8.35a8.75,8.75,0,0,0-1.77,5.27,9.05,9.05,0,0,0,9.14,9,9.05,9.05,0,0,0,9.14-9,8.74,8.74,0,0,0-1.76-5.27l0,0a9.25,9.25,0,0,0-14.72,0Zm15.84,5H17.76a12.29,12.29,0,0,0-.9-4.42H18.8A8,8,0,0,1,20.32,13.3Zm-1.45,5h-2A12.26,12.26,0,0,0,17.76,14h2.56A8.09,8.09,0,0,1,18.87,18.27ZM3.38,14H6a12.26,12.26,0,0,0,.85,4.32h-2A8.18,8.18,0,0,1,3.38,14Zm3.23,0h4.91v4.32h-4A11.62,11.62,0,0,1,6.61,14Zm4.91,5v3a5,5,0,0,1-3.71-3Zm.66,3v-3h3.71A5,5,0,0,1,12.18,21.91Zm0-3.64V14H17.1a11.62,11.62,0,0,1-.9,4.32Zm4.92-5H12.18V8.88h4A11.67,11.67,0,0,1,17.1,13.3ZM12.18,8.23V5.34a5,5,0,0,1,3.66,2.89Zm-.66-2.89V8.23H7.87A5,5,0,0,1,11.52,5.34Zm0,3.54V13.3H6.61a11.67,11.67,0,0,1,.94-4.42ZM6,13.3H3.38A8.18,8.18,0,0,1,4.9,8.88H6.84A12.29,12.29,0,0,0,6,13.3Zm-.62,5.62H7.09A7.76,7.76,0,0,0,9,21.43,8.62,8.62,0,0,1,5.33,18.92Zm9.41,2.51a7.6,7.6,0,0,0,1.87-2.51h1.76A8.52,8.52,0,0,1,14.74,21.43Zm3.55-13.2H16.57a7.57,7.57,0,0,0-1.83-2.41A8.42,8.42,0,0,1,18.29,8.23ZM9,5.82A7.57,7.57,0,0,0,7.14,8.23H5.41A8.52,8.52,0,0,1,9,5.82Z"/><path class="cls-1" d="M7.54,10.73A2.8,2.8,0,0,0,6,8.22a2.77,2.77,0,0,0-2.91,0,2.89,2.89,0,0,0-1.46,2.46,3.74,3.74,0,0,0,.1.6A7.3,7.3,0,0,0,3,13.45l.24.32s.33.39.37.45c.26.27.5.55.75.82s.31.26.55,0l.62-.68A11.85,11.85,0,0,0,7.19,12,2.51,2.51,0,0,0,7.54,10.73Z"/><path d="M6.3,10.7A1.69,1.69,0,1,1,4.62,9,1.69,1.69,0,0,1,6.3,10.7Zm-.39,0A1.3,1.3,0,1,0,4.61,12,1.31,1.31,0,0,0,5.91,10.69Z"/><path d="M7.54,10.73A2.8,2.8,0,0,0,6,8.22a2.77,2.77,0,0,0-2.91,0,2.89,2.89,0,0,0-1.46,2.46,3.74,3.74,0,0,0,.1.6A7.3,7.3,0,0,0,3,13.45l.24.32s.33.39.37.45c.26.27.5.55.75.82s.31.26.55,0l.62-.68A11.85,11.85,0,0,0,7.19,12,2.51,2.51,0,0,0,7.54,10.73ZM7,11.56a12.54,12.54,0,0,1-2.34,3.2,15.41,15.41,0,0,1-2.25-3,2.46,2.46,0,0,1,1.77-3.5,2.53,2.53,0,0,1,3,2.36A2.28,2.28,0,0,1,7,11.56Z"/><path class="cls-1" d="M22.33,4.91a3.39,3.39,0,0,0-1.8-3,3.31,3.31,0,0,0-3.47,0,3.45,3.45,0,0,0-1.74,2.94,4.07,4.07,0,0,0,.11.72,8.9,8.9,0,0,0,1.45,2.54l.29.39s.38.47.44.53l.89,1c.28.31.37.31.66,0l.74-.82a13.94,13.94,0,0,0,2-2.83A3.1,3.1,0,0,0,22.33,4.91Z"/><path d="M20.85,4.87a2,2,0,1,1-2-2A2,2,0,0,1,20.85,4.87Zm-.47,0a1.55,1.55,0,1,0-1.55,1.57A1.55,1.55,0,0,0,20.38,4.85Z"/><path d="M22.33,4.91a3.39,3.39,0,0,0-1.8-3,3.31,3.31,0,0,0-3.47,0,3.45,3.45,0,0,0-1.74,2.94,4.07,4.07,0,0,0,.11.72,8.9,8.9,0,0,0,1.45,2.54l.29.39s.38.47.44.53l.89,1c.28.31.37.31.66,0l.74-.82a13.94,13.94,0,0,0,2-2.83A3.1,3.1,0,0,0,22.33,4.91Zm-.71,1a14.81,14.81,0,0,1-2.79,3.83,18.14,18.14,0,0,1-2.69-3.58A2.93,2.93,0,0,1,18.25,2a3,3,0,0,1,3.59,2.81A2.51,2.51,0,0,1,21.62,5.89Z"/><path d="M12.58,4l.07-.43a8.82,8.82,0,0,0-7,1.83A17.71,17.71,0,0,0,4.16,6.9c-.11.12-.21.29-.4.15s-.08-.3,0-.44A9.39,9.39,0,0,1,9.87,3.09a10.15,10.15,0,0,1,2.86,0l.08-.46,1,.88Z"/></svg>