<svg width="14" height="17" viewBox="0 0 14 17" fill="none" xmlns="http://www.w3.org/2000/svg">
<path fill-rule="evenodd" clip-rule="evenodd" d="M2.40212 2.82448C3.63128 1.59532 5.29837 0.904785 7.03667 0.904785C8.77496 0.904785 10.4421 1.59532 11.6712 2.82448C12.9004 4.05364 13.5909 5.72074 13.5909 7.45903C13.5909 8.19938 13.5124 8.85154 13.3076 9.46928C13.1018 10.0903 12.7804 10.6403 12.3386 11.1916C12.3327 11.1989 12.3267 11.2061 12.3206 11.2131L7.587 16.675C7.44867 16.8346 7.24787 16.9263 7.03667 16.9263C6.82546 16.9263 6.62466 16.8346 6.48634 16.675L1.75272 11.2131C1.7466 11.2061 1.74062 11.1989 1.73478 11.1916C1.29292 10.6403 0.971581 10.0903 0.765739 9.46928C0.560973 8.85154 0.482422 8.19938 0.482422 7.45903C0.482422 5.72074 1.17296 4.05364 2.40212 2.82448ZM7.03667 2.36128C5.68466 2.36128 4.38803 2.89837 3.43202 3.85438C2.476 4.81039 1.93892 6.10702 1.93892 7.45903C1.93892 8.09653 2.00675 8.58408 2.14826 9.01101C2.28759 9.43132 2.50998 9.82797 2.86279 10.2701L7.03667 15.0861L11.2105 10.2701C11.5634 9.82798 11.7857 9.43132 11.9251 9.01101C12.0666 8.58408 12.1344 8.09653 12.1344 7.45903C12.1344 6.10702 11.5973 4.81039 10.6413 3.85438C9.68531 2.89837 8.38867 2.36128 7.03667 2.36128ZM7.03667 6.00253C6.23227 6.00253 5.58017 6.65463 5.58017 7.45903C5.58017 8.26343 6.23227 8.91553 7.03667 8.91553C7.84107 8.91553 8.49317 8.26343 8.49317 7.45903C8.49317 6.65463 7.84107 6.00253 7.03667 6.00253ZM4.12367 7.45903C4.12367 5.85023 5.42786 4.54603 7.03667 4.54603C8.64547 4.54603 9.94967 5.85023 9.94967 7.45903C9.94967 9.06784 8.64547 10.372 7.03667 10.372C5.42786 10.372 4.12367 9.06784 4.12367 7.45903Z" fill="#081C3D"/>
</svg>
