<svg width="17" height="16" viewBox="0 0 17 16" fill="none" xmlns="http://www.w3.org/2000/svg">
<path d="M13.1996 5.02441L9.69961 1.74316C9.59961 1.64941 9.49961 1.60254 9.34961 1.60254H4.34961C3.79961 1.60254 3.34961 2.02441 3.34961 2.54004V13.79C3.34961 14.3057 3.79961 14.7275 4.34961 14.7275H12.3496C12.8996 14.7275 13.3496 14.3057 13.3496 13.79V5.35254C13.3496 5.21191 13.2996 5.11816 13.1996 5.02441ZM9.34961 2.72754L12.1496 5.35254H9.34961V2.72754ZM12.3496 13.79H4.34961V2.54004H8.34961V5.35254C8.34961 5.86816 8.79961 6.29004 9.34961 6.29004H12.3496V13.79Z" fill="black"/>
<path d="M5.34961 10.9775H11.3496V11.915H5.34961V10.9775ZM5.34961 8.16504H11.3496V9.10254H5.34961V8.16504Z" fill="black"/>
</svg>
