<?xml version="1.0" encoding="utf-8"?>
<!-- Generator: Adobe Illustrator 24.0.0, SVG Export Plug-In . SVG Version: 6.00 Build 0)  -->
<svg version="1.1" id="Layer_1" xmlns="http://www.w3.org/2000/svg" xmlns:xlink="http://www.w3.org/1999/xlink" x="0px" y="0px"
	 viewBox="0 0 28 26.5" style="enable-background:new 0 0 28 26.5;" xml:space="preserve">
<style type="text/css">
	.st0{fill:#0BA7F0;}
	.st1{fill:#ED1C24;}
	.st2{fill:#FFFFFF;}
</style>
<path class="st2" d="M16.7,5.3c0.2,0.1,0.3,0.3,0.4,0.5c0.1,0.2,0.1,0.5,0.1,0.7c0,0.2-0.1,0.5-0.2,0.7l-4.5,7l4.7,7
	c0.2,0.3,0.3,0.6,0.2,1c0,0.3-0.2,0.7-0.4,0.9c-0.2,0.2-0.5,0.3-0.8,0.3c-0.3,0-0.5-0.2-0.7-0.5L10.3,15c-0.2-0.2-0.2-0.5-0.2-0.8
	c0-0.3,0.1-0.6,0.2-0.8l5-7.8c0.1-0.2,0.2-0.3,0.4-0.4c0.1-0.1,0.3-0.1,0.4-0.1C16.4,5.1,16.6,5.1,16.7,5.3z"/>
</svg>
