<svg width="18" height="13" viewBox="0 0 18 13" fill="none" xmlns="http://www.w3.org/2000/svg">
<path d="M0.822754 2.79637C0.822754 1.65604 1.74824 0.73056 2.88856 0.73056H15.2834C16.4237 0.73056 17.3492 1.65604 17.3492 2.79637V10.4694C17.3492 11.0172 17.1316 11.5427 16.7441 11.9301C16.3567 12.3175 15.8313 12.5352 15.2834 12.5352H2.88856C2.34067 12.5352 1.81523 12.3175 1.42781 11.9301C1.0404 11.5427 0.822754 11.0172 0.822754 10.4694V2.79637ZM2.88856 1.91102C2.65375 1.91102 2.42856 2.0043 2.26253 2.17033C2.09649 2.33637 2.00321 2.56156 2.00321 2.79637V10.4694C2.00321 10.9581 2.39985 11.3547 2.88856 11.3547H15.2834C15.5182 11.3547 15.7434 11.2614 15.9094 11.0954C16.0755 10.9294 16.1687 10.7042 16.1687 10.4694V2.79637C16.1687 2.56156 16.0755 2.33637 15.9094 2.17033C15.7434 2.0043 15.5182 1.91102 15.2834 1.91102H2.88856ZM10.8567 4.27194C10.7001 4.27194 10.55 4.33413 10.4393 4.44482C10.3286 4.55551 10.2664 4.70563 10.2664 4.86217C10.2664 5.01871 10.3286 5.16884 10.4393 5.27953C10.55 5.39022 10.7001 5.4524 10.8567 5.4524H14.3981C14.5546 5.4524 14.7047 5.39022 14.8154 5.27953C14.9261 5.16884 14.9883 5.01871 14.9883 4.86217C14.9883 4.70563 14.9261 4.55551 14.8154 4.44482C14.7047 4.33413 14.5546 4.27194 14.3981 4.27194H10.8567ZM10.8567 7.81333C10.7001 7.81333 10.55 7.87551 10.4393 7.9862C10.3286 8.09689 10.2664 8.24702 10.2664 8.40356C10.2664 8.56009 10.3286 8.71022 10.4393 8.82091C10.55 8.9316 10.7001 8.99379 10.8567 8.99379H14.3981C14.5546 8.99379 14.7047 8.9316 14.8154 8.82091C14.9261 8.71022 14.9883 8.56009 14.9883 8.40356C14.9883 8.24702 14.9261 8.09689 14.8154 7.9862C14.7047 7.87551 14.5546 7.81333 14.3981 7.81333H10.8567ZM5.8527 6.29525C6.06306 6.29525 6.27136 6.25382 6.46571 6.17332C6.66006 6.09281 6.83665 5.97482 6.9854 5.82607C7.13415 5.67732 7.25214 5.50073 7.33265 5.30638C7.41315 5.11203 7.45458 4.90373 7.45458 4.69337C7.45458 4.483 7.41315 4.2747 7.33265 4.08035C7.25214 3.886 7.13415 3.70941 6.9854 3.56066C6.83665 3.41191 6.66006 3.29392 6.46571 3.21342C6.27136 3.13292 6.06306 3.09148 5.8527 3.09148C5.42785 3.09148 5.02041 3.26025 4.71999 3.56066C4.41958 3.86108 4.25081 4.26852 4.25081 4.69337C4.25081 5.11821 4.41958 5.52566 4.71999 5.82607C5.02041 6.12648 5.42785 6.29525 5.8527 6.29525V6.29525ZM4.19651 7.09561C3.92789 7.09561 3.67027 7.20231 3.48033 7.39226C3.29038 7.5822 3.18368 7.83982 3.18368 8.10844C3.18371 8.54806 3.3307 8.97506 3.60127 9.32156C3.87183 9.66805 4.25046 9.91417 4.67696 10.0208L4.73952 10.0373C5.47141 10.2203 6.23517 10.2203 6.96587 10.0373L7.02962 10.022C7.45612 9.91535 7.83474 9.66924 8.10531 9.32274C8.37588 8.97624 8.52286 8.54924 8.5229 8.10962C8.52305 7.97651 8.49697 7.84468 8.44614 7.72166C8.39531 7.59864 8.32073 7.48685 8.22666 7.39267C8.1326 7.2985 8.02089 7.22379 7.89793 7.17282C7.77497 7.12184 7.64317 7.09561 7.51006 7.09561H4.19651Z" fill="#00A3EF"/>
</svg>
