<?xml version="1.0" encoding="utf-8"?>
<!-- Generator: Adobe Illustrator 24.0.0, SVG Export Plug-In . SVG Version: 6.00 Build 0)  -->
<svg version="1.1" id="Layer_1" xmlns="http://www.w3.org/2000/svg" xmlns:xlink="http://www.w3.org/1999/xlink" x="0px" y="0px"
	 viewBox="0 0 495.9 495.9" style="enable-background:new 0 0 495.9 495.9;" xml:space="preserve">
<style type="text/css">
	.st0{opacity:0.35;}
	.st1{fill:#FFFFFF;}
</style>
<circle class="st0" cx="247.9" cy="247.9" r="189"/>
<g>
	<path class="st1" d="M184.1,303.5l119.4-119.4c2.3-2.3,6-2.3,8.2,0l0,0c2.3,2.3,2.3,6,0,8.2L192.4,311.7c-2.3,2.3-6,2.3-8.2,0l0,0
		C181.8,309.5,181.8,305.8,184.1,303.5z"/>
	<path class="st1" d="M192.4,184.1l119.4,119.4c2.3,2.3,2.3,6,0,8.2l0,0c-2.3,2.3-6,2.3-8.2,0L184.1,192.4c-2.3-2.3-2.3-6,0-8.2l0,0
		C186.4,181.8,190.1,181.8,192.4,184.1z"/>
</g>
</svg>
