<svg width="21" height="21" viewBox="0 0 21 21" fill="none" xmlns="http://www.w3.org/2000/svg">
<path d="M10.0581 0.988342C4.54411 0.988342 0.0581055 5.47434 0.0581055 10.9883C0.0581055 16.5023 4.54411 20.9883 10.0581 20.9883C15.5721 20.9883 20.0581 16.5023 20.0581 10.9883C20.0581 5.47434 15.5721 0.988342 10.0581 0.988342ZM11.0581 15.9033V16.9883H9.05811V15.9083C6.71911 15.5413 6.05811 13.9063 6.05811 12.9883H8.05811C8.06911 13.1313 8.21711 13.9883 10.0581 13.9883C11.4381 13.9883 12.0581 13.4033 12.0581 12.9883C12.0581 12.6643 12.0581 11.9883 10.0581 11.9883C6.57811 11.9883 6.05811 10.1083 6.05811 8.98834C6.05811 7.70034 7.08711 6.40434 9.05811 6.07334V5.00034H11.0581V6.10934C12.7921 6.51934 13.4581 7.96234 13.4581 8.98834H12.4581L11.4581 9.00634C11.4441 8.62634 11.2431 7.98834 10.0581 7.98834C8.75911 7.98834 8.05811 8.50434 8.05811 8.98834C8.05811 9.36234 8.05811 9.98834 10.0581 9.98834C13.5381 9.98834 14.0581 11.8683 14.0581 12.9883C14.0581 14.2763 13.0291 15.5723 11.0581 15.9033Z" fill="#081C3D"/>
</svg>
