<svg width="80" height="60" viewBox="0 0 80 60" fill="none" xmlns="http://www.w3.org/2000/svg">
<path d="M75 0H5C3.67392 0 2.40215 0.526784 1.46447 1.46447C0.526784 2.40215 0 3.67392 0 5V55C0 56.3261 0.526784 57.5979 1.46447 58.5355C2.40215 59.4732 3.67392 60 5 60H75C76.3261 60 77.5979 59.4732 78.5355 58.5355C79.4732 57.5979 80 56.3261 80 55V5C80 3.67392 79.4732 2.40215 78.5355 1.46447C77.5979 0.526784 76.3261 0 75 0V0ZM71.15 55H9.15L26.65 36.9L23.05 33.425L5 52.1V8.8L36.075 39.725C37.0118 40.6563 38.2791 41.179 39.6 41.179C40.9209 41.179 42.1882 40.6563 43.125 39.725L75 8.025V51.775L56.6 33.375L53.075 36.9L71.15 55ZM8.275 5H70.95L39.6 36.175L8.275 5Z" fill="#00A3EF"/>
</svg>
