<?xml version="1.0" encoding="utf-8"?>
<!-- Generator: Adobe Illustrator 24.0.0, SVG Export Plug-In . SVG Version: 6.00 Build 0)  -->
<svg version="1.1" id="Layer_1" xmlns="http://www.w3.org/2000/svg" xmlns:xlink="http://www.w3.org/1999/xlink" x="0px" y="0px"
	 viewBox="0 0 28 26.5" style="enable-background:new 0 0 28 26.5;" xml:space="preserve">
<style type="text/css">
	.st0{fill:#0BA7F0;}
	.st1{fill:#ED1C24;}
</style>
<g>
	<path class="st0" d="M14.1,0.2c-7.2,0-13,5.8-13,13s5.8,13,13,13s13-5.8,13-13S21.3,0.2,14.1,0.2z M14.1,25.3c-6.6,0-12-5.4-12-12
		s5.4-12,12-12s12,5.4,12,12S20.7,25.3,14.1,25.3z"/>
	<path class="st0" d="M18.4,5.7c-0.1,0-0.1,0-0.2,0C17,5.8,15.8,6.2,14.9,7c-0.3,0.2-0.5,0.5-0.8,0.7c0,0-0.1,0.1-0.1,0.1
		c-0.5-0.5-1-1-1.6-1.3c-0.9-0.5-2-0.8-3-0.7c-2.9,0.1-5.2,2.6-5.2,5.5c0,1.5,0.6,2.9,1.6,4l8.2,8.3l8.2-8.3l0,0
		c1.1-1.2,1.6-2.5,1.6-3.9c0-1.5-0.6-2.9-1.6-4C21.2,6.3,19.8,5.7,18.4,5.7z M21.4,14.5L14,22l-7.4-7.5c-0.9-0.9-1.4-2-1.4-3.2
		c0-2.4,1.9-4.4,4.3-4.5c0.1,0,0.1,0,0.2,0c0.8,0,1.5,0.2,2.2,0.6c0.6,0.3,1,0.8,1.5,1.3L14,9.1l0.4-0.3c0.2-0.1,0.3-0.3,0.5-0.4
		c0.2-0.2,0.5-0.4,0.7-0.6c0.7-0.6,1.7-1,2.6-1c0,0,0.1,0,0.2,0c1.1,0,2.3,0.5,3.1,1.3c0.9,0.9,1.4,2,1.4,3.2
		C22.8,12.4,22.4,13.5,21.4,14.5z"/>
</g>
</svg>
