<?xml version="1.0" encoding="utf-8"?>
<!-- Generator: Adobe Illustrator 24.0.0, SVG Export Plug-In . SVG Version: 6.00 Build 0)  -->
<svg version="1.1" id="Layer_1" xmlns="http://www.w3.org/2000/svg" xmlns:xlink="http://www.w3.org/1999/xlink" x="0px" y="0px"
	 viewBox="0 0 221.1 200" style="enable-background:new 0 0 221.1 200;" xml:space="preserve">
<style type="text/css">
	.st0{fill:#FFFFFF;}
	.st1{fill:#7C7C7C;}
	.st2{fill:#3E94A6;}
	.st3{fill-rule:evenodd;clip-rule:evenodd;fill:#3E94A6;}
	.st4{fill:#00A3EF;}
	.st5{fill:#18F763;}
	.st6{fill:#28292B;}
	.st7{fill:none;stroke:#00A3EF;stroke-width:9;stroke-miterlimit:10;}
	.st8{fill:none;stroke:#00A3EF;stroke-width:8;stroke-miterlimit:10;}
	.st9{fill:#F91500;}
	.st10{fill-rule:evenodd;clip-rule:evenodd;fill:#00A3EF;}
	.st11{fill-rule:evenodd;clip-rule:evenodd;fill:#7C868F;}
	.st12{fill:#7C868F;}
	.st13{fill:#FAFAFA;}
	.st14{fill:#323232;}
	.st15{fill:#1D1D1B;}
	.st16{fill:#C4C6C6;}
</style>
<g>
	<path class="st16" d="M218.1,124.6c-1.2-7.9-4.9-14.8-10.8-20.6c-5.7-5.7-12.6-9.5-20.8-11.5c-0.5-0.1-0.9-0.3-1.3-0.5
		c8.2-11.8,4.5-25.5-4.9-33.1c-5.2-4.2-11.2-6.4-18.1-6.7c-7.4-0.2-14,1.8-19.8,6.3c-0.3-0.5-0.5-0.8-0.6-1.1
		c-2.9-6-6.9-11.4-12.1-16c-3.5-3.1-7.3-5.8-11.6-8c-4.1-2.2-8.5-4-13.2-5.1c-3.4-0.8-6.9-1.4-10.4-1.7c-4.4-0.3-8.9-0.3-13.2,0.1
		c-7.1,0.7-13.8,2.7-20,5.9c-6.6,3.4-12.2,7.8-17.1,13.1c-4,4.3-7.1,9.1-9.2,14.4c-1.9,4.7-3.1,9.5-3.2,14.5c0,2.2-0.1,4.3,0,6.5
		c0.1,1.1-0.4,1.6-1.4,2.1c-3.8,1.7-7.3,3.7-10.5,6.3C14,94.3,9.5,100,6.5,106.7c-1.8,4-3,8.2-3.4,12.5c-0.3,3.2-0.1,6.4,0.2,9.5
		c0.4,4.9,2,9.6,4.3,14c2.7,5.1,6.5,9.6,11.1,13.5c4.4,3.8,9.3,6.8,14.9,8.9c5.1,1.9,10.4,3.3,16,3.3c42.2,0.1,84.4,0.1,126.7,0.1
		c5.5,0,10.8-0.9,15.8-2.9c9.8-3.7,17.1-10,22-18.4C218.1,140.2,219.3,132.6,218.1,124.6z M143.3,109c-0.2,0.3-0.5,0.5-0.8,0.6
		c-1.1,0.5-2.3,0.7-3.5,0.8c-4.9,0.2-9.8,0-14.7,0c0,12.2,0,24.5,0,36.7c0,3.7-0.6,4.2-4.2,4.2c-6.3,0-13,0-19.3,0
		c-4,0-4.1-0.5-4.1-4.5c0-11,0-22,0-33v-3.4c0-0.2-11.2-0.2-12.1-0.2c-2,0-5.9,0.6-7-1.6c-0.4-0.9,0-2,0.6-2.8
		c1.2-1.9,26.4-26.7,29.3-29.6c2.6-2.6,3.4-2.6,5.9-0.1c9.5,9.5,19.1,19.1,28.6,28.7C142.9,105.8,144,107.8,143.3,109z"/>
</g>
</svg>
