<svg width="13" height="15" viewBox="0 0 13 15" fill="none" xmlns="http://www.w3.org/2000/svg">
<path fill-rule="evenodd" clip-rule="evenodd" d="M2.16997 1.96084C3.29739 0.833419 4.8265 0.200043 6.42091 0.200043C8.01532 0.200043 9.54443 0.833419 10.6718 1.96084C11.7993 3.08826 12.4326 4.61736 12.4326 6.21177C12.4326 6.88175 12.3616 7.48283 12.1711 8.05733C11.9794 8.63566 11.681 9.14428 11.2778 9.64738C11.2709 9.65597 11.2639 9.66443 11.2566 9.67275L7.06991 14.5036C6.90678 14.6918 6.66998 14.8 6.42091 14.8C6.17184 14.8 5.93503 14.6918 5.77191 14.5036L1.58517 9.67275C1.57796 9.66443 1.57091 9.65597 1.56402 9.64738C1.16081 9.14428 0.862371 8.63566 0.670669 8.05733C0.480237 7.48283 0.40918 6.88175 0.40918 6.21177C0.40918 4.61736 1.04256 3.08826 2.16997 1.96084ZM6.42091 1.91768C5.28204 1.91768 4.18983 2.37009 3.38453 3.17539C2.57923 3.98069 2.12682 5.07291 2.12682 6.21177C2.12682 6.76046 2.18523 7.16742 2.30107 7.5169C2.41439 7.85876 2.59626 8.1866 2.89437 8.56075L6.42091 12.6298L9.94744 8.56075C10.2456 8.1866 10.4274 7.85876 10.5407 7.5169C10.6566 7.16742 10.715 6.76046 10.715 6.21177C10.715 5.07291 10.2626 3.98069 9.45729 3.17539C8.65199 2.37009 7.55977 1.91768 6.42091 1.91768ZM6.42091 5.13825C5.82802 5.13825 5.34739 5.61888 5.34739 6.21177C5.34739 6.80466 5.82802 7.28529 6.42091 7.28529C7.0138 7.28529 7.49443 6.80466 7.49443 6.21177C7.49443 5.61888 7.0138 5.13825 6.42091 5.13825ZM3.62975 6.21177C3.62975 4.67026 4.87939 3.42061 6.42091 3.42061C7.96242 3.42061 9.21207 4.67026 9.21207 6.21177C9.21207 7.75329 7.96242 9.00293 6.42091 9.00293C4.87939 9.00293 3.62975 7.75329 3.62975 6.21177Z" fill="#00A3EF"/>
</svg>
