<svg width="9" height="10" viewBox="0 0 9 10" fill="none" xmlns="http://www.w3.org/2000/svg">
<path fill-rule="evenodd" clip-rule="evenodd" d="M3.57626 6.55486C3.56683 6.58315 3.55976 6.60672 3.55505 6.6303C3.19436 8.04713 3.15428 8.36068 2.7818 9.01841C2.60499 9.33195 2.40461 9.62663 2.18536 9.91189C2.15943 9.94489 2.13821 9.98497 2.08634 9.97554C2.03212 9.96375 2.02741 9.91425 2.0227 9.87181C1.96376 9.44039 1.93076 9.00898 1.9449 8.5752C1.96376 8.00941 2.03448 7.81374 2.76294 4.74668C2.77472 4.69953 2.76058 4.66181 2.74644 4.61938C2.57199 4.14788 2.53662 3.66932 2.68986 3.18604C3.0199 2.13932 4.20571 2.05917 4.41316 2.922C4.54047 3.45715 4.20335 4.15496 3.94403 5.18753C3.7295 6.04093 4.73143 6.6468 5.58954 6.02443C6.37929 5.45156 6.68812 4.0748 6.62919 3.10117C6.51367 1.15862 4.38252 0.738987 3.03169 1.36372C1.48284 2.08039 1.12921 4.00172 1.82938 4.8787C1.91897 4.9895 1.98733 5.05787 1.95669 5.17102C1.9119 5.34783 1.87182 5.52464 1.82231 5.6991C1.78695 5.82876 1.67615 5.87591 1.54649 5.82404C1.28953 5.72031 1.07264 5.55529 0.898187 5.3384C0.304106 4.60287 0.134367 3.14596 0.919403 1.91536C1.78931 0.55039 3.40888 -0.00125737 4.88702 0.166123C6.65276 0.366507 7.76784 1.57353 7.97766 2.94322C8.07196 3.56559 8.00359 5.10501 7.12897 6.19181C6.12233 7.44126 4.49096 7.52378 3.73657 6.7576C3.67763 6.69395 3.63284 6.62558 3.57626 6.55486Z" fill="url(#paint0_linear_126_446)"/>
<defs>
<linearGradient id="paint0_linear_126_446" x1="6.47942" y1="7.80632" x2="0.940621" y2="1.30718" gradientUnits="userSpaceOnUse">
<stop stop-color="#FF4C3C"/>
<stop offset="0.9565" stop-color="#EF053E"/>
<stop offset="1" stop-color="#EE023E"/>
</linearGradient>
</defs>
</svg>
