<svg width="10" height="12" viewBox="0 0 10 12" fill="none" xmlns="http://www.w3.org/2000/svg">
<path d="M2.29864 0.555101L2.92106 0.356113C3.50472 0.16985 4.1283 0.471225 4.37819 1.06009L4.87566 2.2332C5.09201 2.74398 4.97169 3.34499 4.57834 3.71868L3.48216 4.75874C3.54984 5.38116 3.75924 5.99374 4.10979 6.59649C4.44267 7.17965 4.88918 7.69009 5.42288 8.09758L6.73945 7.65796C7.23808 7.49194 7.78182 7.68341 8.08725 8.13287L8.80048 9.17988C9.15623 9.7028 9.09203 10.4236 8.65067 10.8667L8.17807 11.3416C7.7072 11.8142 7.03446 11.986 6.41262 11.7916C4.94334 11.3335 3.59381 9.97352 2.3617 7.71175C1.12785 5.44652 0.692273 3.52374 1.05554 1.94571C1.20826 1.28164 1.68085 0.752355 2.29864 0.555101Z" fill="#00A3EF"/>
</svg>
