<svg width="11" height="11" viewBox="0 0 11 11" fill="none" xmlns="http://www.w3.org/2000/svg">
<path d="M7.40082 0.219666C7.63142 0.219649 7.85328 0.315894 8.02089 0.488657C8.1885 0.66142 8.28916 0.897603 8.30221 1.14876L8.3036 1.20451V1.55174C8.3036 1.82021 8.52124 2.03785 8.78971 2.03785V2.03785C9.59527 2.03785 10.248 2.74997 10.248 3.62876V7.71967C10.248 7.98086 10.1529 8.23136 9.98363 8.41606C9.81433 8.60075 9.5847 8.70451 9.34527 8.70451H8.83391C8.54103 8.70451 8.3036 8.94194 8.3036 9.23482V9.23482C8.3036 9.49602 8.20849 9.74652 8.03918 9.93121C7.86988 10.1159 7.64026 10.2197 7.40082 10.2197H3.09527C2.85584 10.2197 2.62621 10.1159 2.45691 9.93121C2.28761 9.74652 2.19249 9.49602 2.19249 9.23482V9.23482C2.19249 8.94194 1.95507 8.70451 1.66219 8.70451H1.15082C0.911393 8.70451 0.681768 8.60075 0.512464 8.41606C0.343161 8.23136 0.248047 7.98086 0.248047 7.71967V3.62876C0.248047 2.74997 0.900825 2.03785 1.70638 2.03785V2.03785C1.97485 2.03785 2.19249 1.82021 2.19249 1.55174V1.20451C2.19248 0.952957 2.2807 0.71093 2.43907 0.52808C2.59743 0.345231 2.81393 0.235423 3.04416 0.221181L3.09527 0.219666H7.40082ZM2.88694 9.23482C2.88694 9.36027 2.98027 9.46209 3.09527 9.46209H7.40082C7.45608 9.46209 7.50907 9.43815 7.54814 9.39552C7.58721 9.3529 7.60916 9.29509 7.60916 9.23482V6.65906C7.60916 6.59878 7.58721 6.54098 7.54814 6.49835C7.50907 6.45573 7.45608 6.43179 7.40082 6.43179H3.09527C3.04002 6.43179 2.98703 6.45573 2.94796 6.49835C2.90889 6.54098 2.88694 6.59878 2.88694 6.65906V9.23482ZM7.40082 0.977241H3.09527C3.04493 0.977244 2.99629 0.997133 2.95834 1.03323C2.9204 1.06933 2.89573 1.11919 2.88888 1.1736L2.88694 1.20451V1.20451C2.88694 1.66475 3.26003 2.03785 3.72027 2.03785H6.77583C7.23606 2.03785 7.60916 1.66475 7.60916 1.20451V1.20451C7.60916 1.14959 7.59092 1.09653 7.55783 1.05514C7.52474 1.01375 7.47903 0.986832 7.42916 0.979363L7.40082 0.977241Z" fill="white"/>
</svg>
