<svg width="11" height="11" viewBox="0 0 11 11" fill="none" xmlns="http://www.w3.org/2000/svg">
<path d="M7.47407 0.719757C7.70466 0.719741 7.92652 0.815986 8.09413 0.988748C8.26174 1.16151 8.3624 1.39769 8.37546 1.64885L8.37685 1.70461V2.05183C8.37685 2.3203 8.59448 2.53794 8.86296 2.53794C9.66851 2.53794 10.3213 3.25006 10.3213 4.12885V8.21976C10.3213 8.48096 10.2262 8.73145 10.0569 8.91615C9.88757 9.10085 9.65794 9.20461 9.41851 9.20461H8.90715C8.61427 9.20461 8.37685 9.44203 8.37685 9.73491C8.37685 9.99611 8.28173 10.2466 8.11243 10.4313C7.94312 10.616 7.7135 10.7198 7.47407 10.7198H3.16851C2.92908 10.7198 2.69945 10.616 2.53015 10.4313C2.36085 10.2466 2.26573 9.99611 2.26573 9.73491C2.26573 9.44203 2.02831 9.20461 1.73543 9.20461H1.22407C0.984635 9.20461 0.75501 9.10085 0.585707 8.91615C0.416403 8.73145 0.321289 8.48096 0.321289 8.21976V4.12885C0.321289 3.25006 0.974067 2.53794 1.77962 2.53794C2.04809 2.53794 2.26573 2.3203 2.26573 2.05183V1.70461C2.26572 1.45305 2.35394 1.21102 2.51231 1.02817C2.67068 0.845323 2.88718 0.735514 3.1174 0.721272L3.16851 0.719757H7.47407ZM2.96018 9.73491C2.96018 9.86036 3.05351 9.96218 3.16851 9.96218H7.47407C7.52932 9.96218 7.58231 9.93824 7.62138 9.89562C7.66045 9.85299 7.6824 9.79519 7.6824 9.73491V7.15915C7.6824 7.09887 7.66045 7.04107 7.62138 6.99845C7.58231 6.95582 7.52932 6.93188 7.47407 6.93188H3.16851C3.11326 6.93188 3.06027 6.95582 3.0212 6.99845C2.98213 7.04107 2.96018 7.09887 2.96018 7.15915V9.73491ZM7.47407 1.47733H3.16851C3.11817 1.47734 3.06953 1.49722 3.03159 1.53332C2.99364 1.56942 2.96897 1.61929 2.96212 1.6737L2.96018 1.70461C2.96018 2.16484 3.33327 2.53794 3.79351 2.53794H6.84907C7.30931 2.53794 7.6824 2.16484 7.6824 1.70461C7.6824 1.64969 7.66417 1.59662 7.63108 1.55523C7.59799 1.51384 7.55228 1.48692 7.5024 1.47945L7.47407 1.47733Z" fill="#00A3EF"/>
</svg>
