<svg width="11" height="11" viewBox="0 0 11 11" fill="none" xmlns="http://www.w3.org/2000/svg">
<path d="M7.47407 0.719727C7.70466 0.71971 7.92652 0.815955 8.09413 0.988718C8.26174 1.16148 8.3624 1.39766 8.37546 1.64882L8.37685 1.70458V2.0518C8.37685 2.32027 8.59448 2.53791 8.86296 2.53791C9.66851 2.53791 10.3213 3.25003 10.3213 4.12882V8.21973C10.3213 8.48093 10.2262 8.73142 10.0569 8.91612C9.88757 9.10081 9.65794 9.20458 9.41851 9.20458H8.90715C8.61427 9.20458 8.37685 9.442 8.37685 9.73488C8.37685 9.99608 8.28173 10.2466 8.11243 10.4313C7.94312 10.616 7.7135 10.7197 7.47407 10.7197H3.16851C2.92908 10.7197 2.69945 10.616 2.53015 10.4313C2.36085 10.2466 2.26573 9.99608 2.26573 9.73488C2.26573 9.442 2.02831 9.20458 1.73543 9.20458H1.22407C0.984635 9.20458 0.75501 9.10081 0.585707 8.91612C0.416403 8.73142 0.321289 8.48093 0.321289 8.21973V4.12882C0.321289 3.25003 0.974067 2.53791 1.77962 2.53791C2.04809 2.53791 2.26573 2.32027 2.26573 2.0518V1.70458C2.26572 1.45302 2.35394 1.21099 2.51231 1.02814C2.67068 0.845292 2.88718 0.735484 3.1174 0.721242L3.16851 0.719727H7.47407ZM2.96018 9.73488C2.96018 9.86033 3.05351 9.96215 3.16851 9.96215H7.47407C7.52932 9.96215 7.58231 9.93821 7.62138 9.89559C7.66045 9.85296 7.6824 9.79515 7.6824 9.73488V7.15912C7.6824 7.09884 7.66045 7.04104 7.62138 6.99841C7.58231 6.95579 7.52932 6.93185 7.47407 6.93185H3.16851C3.11326 6.93185 3.06027 6.95579 3.0212 6.99841C2.98213 7.04104 2.96018 7.09884 2.96018 7.15912V9.73488ZM7.47407 1.4773H3.16851C3.11817 1.4773 3.06953 1.49719 3.03159 1.53329C2.99364 1.56939 2.96897 1.61926 2.96212 1.67367L2.96018 1.70458C2.96018 2.16481 3.33327 2.53791 3.79351 2.53791H6.84907C7.30931 2.53791 7.6824 2.16481 7.6824 1.70458C7.6824 1.64965 7.66417 1.59659 7.63108 1.5552C7.59799 1.51381 7.55228 1.48689 7.5024 1.47942L7.47407 1.4773Z" fill="#00A3EF"/>
</svg>
