<?xml version="1.0" encoding="utf-8"?>
<!-- Generator: Adobe Illustrator 24.0.0, SVG Export Plug-In . SVG Version: 6.00 Build 0)  -->
<svg version="1.1" id="Layer_1" xmlns="http://www.w3.org/2000/svg" xmlns:xlink="http://www.w3.org/1999/xlink" x="0px" y="0px"
	 viewBox="0 0 28 26.5" style="enable-background:new 0 0 28 26.5;" xml:space="preserve">
<style type="text/css">
	.st0{fill:#0BA7F0;}
	.st1{fill:#ED1C24;}
</style>
<g>
	<path class="st0" d="M14.1,0.2c-7.2,0-13,5.9-13,13c0,7.2,5.9,13,13,13s13-5.9,13-13C27.1,6.1,21.3,0.2,14.1,0.2z M14.1,25.3
		c-6.6,0-12-5.4-12-12s5.4-12,12-12s12,5.4,12,12S20.7,25.3,14.1,25.3z"/>
	<path class="st1" d="M18.3,6.2c-0.1,0-0.1,0-0.2,0c-1.1,0-2.1,0.5-2.9,1.1c-0.4,0.3-0.8,0.7-1.2,1.1c-0.6-0.6-1.1-1.2-1.8-1.6
		c-0.8-0.5-1.8-0.7-2.7-0.7c-2.6,0.1-4.8,2.4-4.8,5c0,1.3,0.5,2.6,1.5,3.6l7.8,7.9l7.8-7.9c0.9-1,1.5-2.2,1.5-3.6
		c0-1.3-0.5-2.6-1.5-3.6C20.9,6.7,19.6,6.2,18.3,6.2z"/>
</g>
</svg>
