<svg width="12" height="12" viewBox="0 0 12 12" fill="none" xmlns="http://www.w3.org/2000/svg">
<path d="M0.425781 6.21973C0.425781 7.2305 1.29672 8.05306 2.36696 8.05306C3.23706 8.05306 4.20227 7.82696 4.96795 8.24025L7.35492 9.52867C7.48365 9.59815 7.54343 9.74011 7.54343 9.88639C7.54343 10.8972 8.41437 11.7197 9.4846 11.7197C10.5548 11.7197 11.4258 10.8972 11.4258 9.88639C11.4258 8.87562 10.5548 8.05306 9.4846 8.05306C8.61449 8.05306 7.64928 8.27923 6.88353 7.86603L4.49719 6.57832C4.36811 6.50867 4.30813 6.3664 4.30813 6.21973C4.30813 6.07305 4.36811 5.93078 4.49719 5.86113L6.88353 4.57343C7.64928 4.16022 8.61449 4.38639 9.4846 4.38639C10.5548 4.38639 11.4258 3.56384 11.4258 2.55306C11.4258 1.54228 10.5548 0.719727 9.4846 0.719727C8.41437 0.719727 7.54343 1.54228 7.54343 2.55306C7.54343 2.69973 7.48345 2.842 7.35437 2.91165L4.96808 4.19933C4.20305 4.61216 3.23627 4.38771 2.36696 4.38639C1.29672 4.38639 0.425781 5.20895 0.425781 6.21973Z" fill="#00A3EF"/>
</svg>
