<?xml version="1.0" encoding="utf-8"?>
<!-- Generator: Adobe Illustrator 24.0.0, SVG Export Plug-In . SVG Version: 6.00 Build 0)  -->
<svg version="1.1" id="Layer_1" xmlns="http://www.w3.org/2000/svg" xmlns:xlink="http://www.w3.org/1999/xlink" x="0px" y="0px"
	 viewBox="0 0 200 200" style="enable-background:new 0 0 200 200;" xml:space="preserve">
<style type="text/css">
	.st0{fill:#00A3EF;}
	.st1{fill:#18F763;}
	.st2{fill:#28292B;}
	.st3{fill:none;stroke:#E4F000;stroke-miterlimit:10;}
</style>
<g>
	<path class="st0" d="M180.8,61.9c-0.8-0.1-1.5-0.1-2.3-0.1c-5,0-10,0-14.9,0c0-5.8,0-12.3,0-18.3h22.6c3.3,0,6-2.6,6-5.8
		s-2.7-5.8-6-5.8c-36.3,0-109.5,0-154,0c0-1.6,0-3.2,0-4.8c0-3.4-2.6-6.2-5.8-6.2h0c-3.2,0-5.8,2.8-5.8,6.2V32c-1.2,0-2.4,0-3.5,0
		c-3.3,0-6,2.6-6,5.8v0c0,3.2,2.7,5.8,6,5.8h3.5v129.3c0,3.4,2.6,6.2,5.8,6.2s5.8-2.8,5.8-6.2c0-37,0-88.7,0-129.3h42.2v18.3
		c-5,0-10,0-15,0c-7.3,0-13.1,5.8-13.4,13.1c0,0.2,0,0.5,0,0.7c0,11.5,0,22.9,0,34.4h0c0,5.6,0,11.1,0,16.7c0,5.1,2,9.1,6.3,12
		c1.8,1.2,3.9,1.8,6.1,1.9c0.4,0,0.9,0,1.3,0c39.5,0,78.9-0.1,118.4,0.1c8.1,0,13-6,13.7-11.9c0-0.1,0.1-0.3,0.1-0.4V110v-5.5V74.1
		c-0.2-0.9-0.3-1.8-0.6-2.7C189.6,66.2,186.3,62.9,180.8,61.9z M85.9,43.5H152v18.3c-22,0-44.1,0-66.1,0
		C85.9,56,85.9,49.5,85.9,43.5z M182.7,123.4c0,4.2-3.4,7.5-7.5,7.5H62.8c-4.2,0-7.5-3.4-7.5-7.5V110v-5.5V79c0-0.9,0.2-1.8,0.5-2.6
		c0,0,0-0.1,0.1-0.3c1.1-2.7,3.8-4.6,7-4.6h112.3c3.1,0,5.8,1.9,6.9,4.6c0.1,0.2,0.1,0.4,0.1,0.4c0.3,0.8,0.5,1.7,0.5,2.6V123.4z"/>
	<path class="st0" d="M79.7,99.6c-1.2-0.5-2.9-1.1-4.9-1.6c-1.5-0.4-2.7-0.8-3.5-1.1c-0.6-0.2-1.1-0.6-1.6-1.1
		c-0.2-0.2-0.4-0.6-0.4-1.4c0-1.2,0.5-1.8,0.9-2.1c0.7-0.6,1.6-0.8,2.8-0.8c1.3,0,2.3,0.3,3,0.9c0.7,0.6,1,1.1,1.1,1.8l0.2,1.5h7.6
		l-0.2-1.9c-0.3-2.7-1.5-5-3.6-6.6c-2-1.6-4.7-2.4-7.8-2.4c-2.1,0-4.1,0.4-5.7,1.2c-1.8,0.8-3.1,2-4.1,3.5c-1,1.5-1.5,3.2-1.5,5.2
		c0,2.2,0.5,4,1.6,5.4c1,1.3,2.2,2.3,3.6,2.9c1.2,0.5,2.9,1.1,4.8,1.6c1.5,0.4,2.7,0.8,3.5,1.1c0.7,0.3,1.2,0.6,1.6,1.1
		c0.3,0.4,0.5,0.9,0.5,1.6c0,0.9-0.3,1.6-1,2.2c-0.7,0.6-1.7,0.9-3.1,0.9c-1.4,0-2.5-0.3-3.1-0.9c-0.7-0.6-1.1-1.4-1.1-2.3l-0.2-1.6
		h-7.4l0,1.8c0,1.9,0.6,3.7,1.7,5.2c1,1.5,2.5,2.6,4.3,3.4c1.7,0.8,3.7,1.2,5.9,1.2c2.3,0,4.3-0.5,6-1.4c1.8-0.9,3.1-2.2,4-3.7
		c0.9-1.5,1.4-3.2,1.4-4.9c0-2.2-0.5-4-1.6-5.4C82.3,101.2,81.1,100.3,79.7,99.6z"/>
	<path class="st0" d="M114.4,86.9c-2.5-1.4-5.3-2.1-8.3-2.1c-3,0-5.8,0.7-8.2,2.1c-2.5,1.4-4.5,3.4-5.9,5.9
		c-1.4,2.5-2.2,5.4-2.2,8.5c0,3.1,0.7,6,2.2,8.5c1.4,2.5,3.4,4.5,5.9,5.9c2.5,1.4,5.2,2.1,8.2,2.1c3,0,5.8-0.7,8.3-2.1
		c2.5-1.4,4.5-3.4,5.9-5.9c1.4-2.5,2.1-5.4,2.1-8.5c0-3.2-0.7-6-2.1-8.5C118.9,90.3,116.9,88.3,114.4,86.9z M113.9,106.6
		c-0.8,1.5-1.8,2.6-3.2,3.3c-1.4,0.8-2.9,1.2-4.6,1.2s-3.2-0.4-4.6-1.2c-1.3-0.8-2.4-1.9-3.2-3.3c-0.8-1.5-1.2-3.3-1.2-5.3
		c0-2,0.4-3.8,1.2-5.3c0.8-1.5,1.8-2.6,3.2-3.3c1.4-0.8,2.9-1.2,4.6-1.2c1.8,0,3.3,0.4,4.6,1.2c1.3,0.8,2.4,1.9,3.2,3.3
		c0.8,1.5,1.2,3.2,1.2,5.3C115.1,103.3,114.7,105.1,113.9,106.6z"/>
	<polygon class="st0" points="135.4,85.1 128.1,85.1 128.1,117.6 145.5,117.6 145.5,111 135.4,111 	"/>
	<path class="st0" d="M170.1,87.1c-2.6-1.3-5.6-2-9-2h-10.8v32.5H161c3.4,0,6.4-0.6,9-1.9c2.6-1.3,4.7-3.2,6.1-5.7
		c1.4-2.4,2.1-5.3,2.1-8.6c0-3.3-0.7-6.2-2.1-8.6C174.7,90.3,172.7,88.4,170.1,87.1z M168.4,108.5c-1.6,1.7-4,2.5-7.3,2.5h-3.5V91.7
		h3.5c3.3,0,5.6,0.8,7.3,2.5c1.7,1.7,2.5,4.1,2.5,7.2C170.8,104.6,170,106.9,168.4,108.5z"/>
</g>
</svg>
