<svg width="28" height="28" viewBox="0 0 28 28" fill="none" xmlns="http://www.w3.org/2000/svg">
<circle cx="14" cy="14" r="14" fill="#081C3D"/>
<path d="M21.9919 8.27579C22.2953 8.56077 22.4724 8.9538 22.4842 9.36847C22.496 9.78313 22.3416 10.1855 22.0549 10.4871L13.1313 19.8745C12.9867 20.0264 12.8129 20.1479 12.6202 20.2319C12.4275 20.3159 12.2198 20.3607 12.0094 20.3636C11.799 20.3665 11.5901 20.3275 11.3951 20.2489C11.2002 20.1703 11.023 20.0536 10.8742 19.9058L6.14993 15.2121C5.87176 14.9155 5.72033 14.5232 5.72753 14.1179C5.73473 13.7125 5.89999 13.3258 6.18852 13.0391C6.47704 12.7525 6.86628 12.5883 7.27425 12.5811C7.68222 12.574 8.07706 12.7244 8.37558 13.0008L11.9555 16.5555L19.7663 8.33838C20.0531 8.03693 20.4487 7.861 20.8661 7.84926C21.2834 7.83752 21.6884 7.99095 21.9919 8.27579Z" fill="white"/>
</svg>
