<svg width="11" height="10" viewBox="0 0 11 10" fill="none" xmlns="http://www.w3.org/2000/svg">
<path d="M10.2201 1.84701C9.89474 1.99317 9.53405 2.08275 9.18279 2.14169C9.35017 2.1134 9.59534 1.81164 9.692 1.68906C9.84287 1.50282 9.96546 1.29064 10.0362 1.06197C10.0456 1.04311 10.0527 1.02189 10.0338 1.00775C10.0103 0.998319 9.99611 1.00303 9.97961 1.01246C9.58827 1.22228 9.18043 1.37551 8.74901 1.48396C8.71365 1.49339 8.68771 1.48396 8.66414 1.46038C8.62878 1.42031 8.59578 1.38259 8.5557 1.34958C8.37417 1.19399 8.1785 1.07376 7.95926 0.984174C7.67165 0.8663 7.35575 0.816794 7.04456 0.838011C6.74281 0.856871 6.44577 0.941739 6.17702 1.08319C5.90827 1.22464 5.6678 1.41795 5.47685 1.65369C5.27882 1.89651 5.13266 2.18412 5.05958 2.49059C4.9865 2.78528 4.99357 3.07525 5.03836 3.37464C5.04543 3.42415 5.04072 3.43122 4.99592 3.42415C3.30562 3.1719 1.90765 2.56839 0.768989 1.27414C0.719482 1.21756 0.693549 1.21756 0.653472 1.27886C0.156047 2.02382 0.396509 3.22141 1.01888 3.81078C1.10139 3.88857 1.18626 3.96873 1.2782 4.03945C1.2452 4.04652 0.830283 4.00173 0.462518 3.81078C0.413011 3.78013 0.389436 3.79663 0.384721 3.85321C0.380006 3.93336 0.387078 4.0088 0.398865 4.09603C0.493164 4.85278 1.01652 5.55059 1.73555 5.82405C1.82042 5.85941 1.91472 5.89242 2.00666 5.90656C1.84399 5.94193 1.67426 5.96786 1.20748 5.93014C1.14854 5.91835 1.12732 5.949 1.14854 6.00322C1.4998 6.96271 2.25891 7.24796 2.82941 7.41063C2.90485 7.42477 2.98265 7.42477 3.05809 7.44127C3.05337 7.44835 3.04866 7.44835 3.04394 7.45542C2.85535 7.74303 2.19997 7.95756 1.89586 8.06364C1.34185 8.25696 0.738342 8.34418 0.15369 8.2876C0.0593918 8.27346 0.0405329 8.27582 0.0146008 8.2876C-0.0113313 8.30411 0.0122435 8.32532 0.0405331 8.35126C0.158406 8.42905 0.280993 8.49978 0.403581 8.56579C0.776061 8.76381 1.16269 8.9194 1.56817 9.03256C3.6616 9.61014 6.02142 9.1858 7.5915 7.6228C8.82681 6.39692 9.25822 4.70426 9.25822 3.01159C9.25822 2.94559 9.33602 2.90787 9.38317 2.87486C9.70378 2.6344 9.96311 2.34443 10.2036 2.02146C10.2578 1.94838 10.2578 1.88473 10.2578 1.85879C10.2578 1.85408 10.2578 1.84936 10.2578 1.84936C10.2625 1.81872 10.2625 1.82815 10.2201 1.84701Z" fill="url(#paint0_linear_126_440)"/>
<defs>
<linearGradient id="paint0_linear_126_440" x1="8.62727" y1="8.26738" x2="2.50491" y2="2.14502" gradientUnits="userSpaceOnUse">
<stop stop-color="#00CCFF"/>
<stop offset="1" stop-color="#0080FF"/>
</linearGradient>
</defs>
</svg>
