<svg id="Layer_1" data-name="Layer 1" xmlns="http://www.w3.org/2000/svg" viewBox="0 0 167.79 56.82"><defs><style>.cls-1{fill:#00a3ef;}.cls-2{fill:#fff;}</style></defs><title>Blue icon</title><rect class="cls-1" x="3.96" width="156.86" height="54.64" rx="7.07"/><path class="cls-2" d="M48,18.81a23.86,23.86,0,0,1,4.1-.32c2.08,0,3.37.25,4.42,1a3.25,3.25,0,0,1,1.6,2.88,3.6,3.6,0,0,1-2.56,3.35v0a3.9,3.9,0,0,1,3.11,3.83,4,4,0,0,1-1.49,3.18c-1.09,1-2.9,1.44-5.72,1.44A27.89,27.89,0,0,1,48,34Zm2.79,6.09H52.2c1.94,0,3-.91,3-2.22s-1.1-2.1-2.88-2.1a7.73,7.73,0,0,0-1.61.11Zm0,7.1a11.64,11.64,0,0,0,1.49.07c1.81,0,3.42-.68,3.42-2.59S54.1,27,52.15,27h-1.4Z"/><path class="cls-2" d="M61,26.48c0-1.51,0-2.58-.1-3.59h2.45l.1,2.13h.09a3.32,3.32,0,0,1,3-2.38,2.76,2.76,0,0,1,.67.07v2.65a4.37,4.37,0,0,0-.83-.09,2.49,2.49,0,0,0-2.52,2.13,5.42,5.42,0,0,0-.09.87V34H61Z"/><path class="cls-2" d="M79.59,28.36a5.53,5.53,0,0,1-5.73,5.93,5.39,5.39,0,0,1-5.59-5.74A5.51,5.51,0,0,1,74,22.64,5.35,5.35,0,0,1,79.59,28.36Zm-8.41.12c0,2.15,1,3.78,2.77,3.78s2.73-1.58,2.73-3.83c0-1.74-.78-3.73-2.71-3.73S71.18,26.62,71.18,28.48Z"/><path class="cls-2" d="M83.41,22.89,84.58,28c.25,1.19.5,2.4.71,3.62h0c.23-1.22.6-2.45.92-3.6l1.44-5.08H90l1.4,4.95c.34,1.3.64,2.51.89,3.73h0c.18-1.22.43-2.43.73-3.73l1.24-4.95h2.77L93.55,34H90.94l-1.33-4.53a34.39,34.39,0,0,1-.84-3.58h0a29.59,29.59,0,0,1-.85,3.58L86.45,34H83.82l-3.3-11.15Z"/><path class="cls-2" d="M98.45,31.45a6.29,6.29,0,0,0,2.86.81c1.24,0,1.79-.51,1.79-1.24s-.46-1.15-1.83-1.63c-2.18-.75-3.09-1.94-3.07-3.25,0-2,1.63-3.5,4.21-3.5a6.61,6.61,0,0,1,3,.66l-.55,2a5.09,5.09,0,0,0-2.36-.64c-1,0-1.56.48-1.56,1.17s.53,1.05,1.95,1.56c2,.73,3,1.76,3,3.41,0,2-1.58,3.48-4.54,3.48a7.19,7.19,0,0,1-3.39-.78Z"/><path class="cls-2" d="M110.13,29.26c.07,2,1.65,2.88,3.44,2.88a8.42,8.42,0,0,0,3.09-.5l.41,1.94a10.47,10.47,0,0,1-3.89.69c-3.62,0-5.75-2.22-5.75-5.63,0-3.09,1.88-6,5.45-6s4.81,3,4.81,5.42a7.82,7.82,0,0,1-.09,1.2Zm4.9-2a2.4,2.4,0,0,0-2.31-2.73,2.76,2.76,0,0,0-2.59,2.73Z"/></svg>