<svg width="14" height="14" viewBox="0 0 14 14" fill="none" xmlns="http://www.w3.org/2000/svg">
<path fill-rule="evenodd" clip-rule="evenodd" d="M2.4368 1.60457C2.35743 1.60457 2.28131 1.6361 2.22518 1.69222C2.16906 1.74835 2.13752 1.82447 2.13752 1.90384V12.0792C2.13752 12.1585 2.16906 12.2346 2.22518 12.2908C2.28131 12.3469 2.35743 12.3784 2.4368 12.3784H9.91864V1.90384C9.91864 1.82447 9.88711 1.74835 9.83099 1.69222C9.77486 1.6361 9.69874 1.60457 9.61937 1.60457H2.4368ZM11.1157 5.7944V1.90384C11.1157 1.50698 10.9581 1.12637 10.6775 0.845747C10.3968 0.565124 10.0162 0.407471 9.61937 0.407471H2.4368C2.03994 0.407471 1.65933 0.565124 1.37871 0.845747C1.09808 1.12637 0.94043 1.50698 0.94043 1.90384V12.0792C0.94043 12.476 1.09808 12.8566 1.37871 13.1372C1.65933 13.4179 2.03994 13.5755 2.4368 13.5755H12.0136C12.4104 13.5755 12.791 13.4179 13.0717 13.1372C13.3523 12.8566 13.5099 12.476 13.5099 12.0792V6.9915C13.5099 6.67401 13.3838 6.36952 13.1593 6.14502C12.9348 5.92052 12.6303 5.7944 12.3128 5.7944H11.1157ZM11.1157 6.9915V12.3784H12.0136C12.0929 12.3784 12.1691 12.3469 12.2252 12.2908C12.2813 12.2346 12.3128 12.1585 12.3128 12.0792V6.9915H11.1157ZM2.73607 3.40021C2.73607 3.06964 3.00405 2.80166 3.33462 2.80166H5.72881C6.05938 2.80166 6.32736 3.06964 6.32736 3.40021C6.32736 3.73078 6.05938 3.99876 5.72881 3.99876H3.33462C3.00405 3.99876 2.73607 3.73078 2.73607 3.40021ZM2.73607 5.49513C2.73607 5.16456 3.00405 4.89658 3.33462 4.89658H6.92591C7.25648 4.89658 7.52445 5.16456 7.52445 5.49513C7.52445 5.8257 7.25648 6.09367 6.92591 6.09367H3.33462C3.00405 6.09367 2.73607 5.8257 2.73607 5.49513Z" fill="white"/>
</svg>
