<svg width="14" height="15" viewBox="0 0 14 15" fill="none" xmlns="http://www.w3.org/2000/svg">
<path fill-rule="evenodd" clip-rule="evenodd" d="M1.95828 2.09627C1.87891 2.09627 1.80279 2.1278 1.74666 2.18392C1.69054 2.24005 1.65901 2.31617 1.65901 2.39554V12.5709C1.65901 12.6502 1.69054 12.7263 1.74666 12.7825C1.80279 12.8386 1.87891 12.8701 1.95828 12.8701H9.44013V2.39554C9.44013 2.31617 9.4086 2.24005 9.35247 2.18392C9.29635 2.1278 9.22023 2.09627 9.14085 2.09627H1.95828ZM10.6372 6.2861V2.39554C10.6372 1.99868 10.4796 1.61807 10.1989 1.33745C9.91832 1.05682 9.53772 0.89917 9.14085 0.89917H1.95828C1.56142 0.89917 1.18081 1.05682 0.90019 1.33745C0.619567 1.61807 0.461914 1.99868 0.461914 2.39554V12.5709C0.461914 12.9677 0.619567 13.3483 0.90019 13.6289C1.18081 13.9096 1.56142 14.0672 1.95828 14.0672H11.535C11.9319 14.0672 12.3125 13.9096 12.5931 13.6289C12.8738 13.3483 13.0314 12.9677 13.0314 12.5709V7.48319C13.0314 7.16571 12.9053 6.86122 12.6808 6.63672C12.4563 6.41222 12.1518 6.2861 11.8343 6.2861H10.6372ZM10.6372 7.48319V12.8701H11.535C11.6144 12.8701 11.6905 12.8386 11.7467 12.7825C11.8028 12.7263 11.8343 12.6502 11.8343 12.5709V7.48319H10.6372ZM2.25756 3.89191C2.25756 3.56134 2.52554 3.29336 2.8561 3.29336H5.2503C5.58086 3.29336 5.84884 3.56134 5.84884 3.89191C5.84884 4.22248 5.58086 4.49046 5.2503 4.49046H2.8561C2.52554 4.49046 2.25756 4.22248 2.25756 3.89191ZM2.25756 5.98683C2.25756 5.65626 2.52554 5.38828 2.8561 5.38828H6.44739C6.77796 5.38828 7.04594 5.65626 7.04594 5.98683C7.04594 6.31739 6.77796 6.58537 6.44739 6.58537H2.8561C2.52554 6.58537 2.25756 6.31739 2.25756 5.98683Z" fill="#00A3EF"/>
</svg>
