<svg width="15" height="10" viewBox="0 0 15 10" fill="none" xmlns="http://www.w3.org/2000/svg">
<path fill-rule="evenodd" clip-rule="evenodd" d="M12.75 0.699H9.2V1.562H12.75V0.699ZM5.711 4.085C6.062 3.92849 6.36553 3.68222 6.591 3.371C6.80985 3.04246 6.92003 2.65351 6.906 2.259C6.91467 1.90556 6.84643 1.55446 6.706 1.23C6.56678 0.96051 6.36005 0.73173 6.106 0.566C5.84632 0.379113 5.55344 0.243364 5.243 0.166C4.87343 0.0717409 4.49506 0.0161093 4.114 0H0V8.833H4.217C4.59765 8.84064 4.97754 8.79589 5.346 8.7C5.70547 8.60888 6.04467 8.45115 6.346 8.235C6.64491 8.04926 6.88705 7.78498 7.046 7.471C7.22526 7.11092 7.31252 6.71204 7.3 6.31C7.31478 5.80974 7.17511 5.31708 6.9 4.899C6.60917 4.49417 6.18381 4.20599 5.7 4.086L5.711 4.085ZM1.826 1.562H3.719C3.88753 1.56629 4.05513 1.58841 4.219 1.628C4.36258 1.65439 4.49892 1.71097 4.619 1.794C4.7514 1.86059 4.86104 1.965 4.934 2.094C5.01654 2.24735 5.05659 2.41997 5.05 2.594C5.06335 2.73899 5.03993 2.885 4.9819 3.01854C4.92387 3.15208 4.8331 3.26883 4.718 3.358C4.45577 3.50682 4.15596 3.5763 3.855 3.558H1.826V1.562ZM5.279 6.775C5.21049 6.92848 5.10162 7.06051 4.964 7.157C4.8255 7.24174 4.67422 7.30353 4.516 7.34C4.33058 7.3802 4.14169 7.4023 3.952 7.406H1.826V4.982H4.018C4.37112 4.96221 4.72138 5.05537 5.018 5.248C5.14797 5.37027 5.24838 5.52052 5.31162 5.68738C5.37487 5.85424 5.39928 6.0333 5.383 6.211C5.39242 6.40412 5.35824 6.59689 5.283 6.775H5.279ZM14.045 4.716C13.9332 4.27703 13.7421 3.8622 13.481 3.492C13.2063 3.11893 12.8453 2.81797 12.4289 2.61491C12.0125 2.41184 11.5531 2.31271 11.09 2.326C10.6335 2.32003 10.181 2.41068 9.762 2.592C9.39039 2.76523 9.05196 3.00213 8.762 3.292C8.47339 3.60415 8.24851 3.96966 8.1 4.368C7.94194 4.79823 7.86366 5.25368 7.869 5.712C7.86249 6.1652 7.94083 6.61562 8.1 7.04C8.22045 7.44051 8.43709 7.80546 8.731 8.103C9.01555 8.41242 9.3677 8.65197 9.76 8.803C10.1843 8.96251 10.6347 9.04119 11.088 9.035C11.7363 9.04618 12.3728 8.86108 12.914 8.504C13.4867 8.11335 13.8901 7.5202 14.043 6.844H12.518C12.4384 7.09247 12.2738 7.30493 12.053 7.444C11.7869 7.62195 11.473 7.71472 11.153 7.71C10.7439 7.7366 10.3401 7.60605 10.024 7.345C9.87369 7.17859 9.75863 6.98346 9.68575 6.77138C9.61288 6.5593 9.58371 6.33466 9.6 6.111H14.149C14.1929 5.64367 14.1591 5.1723 14.049 4.716H14.045ZM9.6 4.982C9.60649 4.84336 9.64048 4.70739 9.7 4.582C9.72577 4.41919 9.80121 4.26831 9.916 4.15C10.0457 4.01047 10.197 3.89264 10.364 3.801C10.5807 3.69221 10.8218 3.64091 11.064 3.652C11.2389 3.63593 11.4152 3.65722 11.5812 3.71446C11.7472 3.7717 11.8992 3.86357 12.027 3.984C12.2573 4.26988 12.3966 4.61819 12.427 4.984H9.6V4.982Z" fill="white"/>
</svg>
