<svg width="8" height="15" viewBox="0 0 8 15" fill="none" xmlns="http://www.w3.org/2000/svg">
<path fill-rule="evenodd" clip-rule="evenodd" d="M4.814 7.70796H7.006L7.338 5.18396H4.814V3.55696C4.78876 3.23443 4.88349 2.91394 5.08 2.65696C5.2169 2.54055 5.37644 2.4538 5.54856 2.40216C5.72068 2.35053 5.90163 2.33513 6.08 2.35696L7.441 2.32396V0.103958C6.79073 0.0297703 6.13645 -0.0036284 5.482 0.00395837C5.0462 -0.017406 4.61048 0.0478667 4.20007 0.196C3.78966 0.344132 3.4127 0.572184 3.091 0.866958C2.77906 1.19188 2.53799 1.57804 2.38306 2.00098C2.22814 2.42392 2.16274 2.87442 2.191 3.32396V5.18396H0V7.70796H2.191V14.152H4.814V7.70796Z" fill="white"/>
</svg>
