<svg width="15" height="15" viewBox="0 0 15 15" fill="none" xmlns="http://www.w3.org/2000/svg">
<path fill-rule="evenodd" clip-rule="evenodd" d="M10.8572 8.33428V13.7793C10.8552 13.8295 10.8646 13.8795 10.8846 13.9256C10.9047 13.9717 10.935 14.0126 10.9732 14.0453C11.0411 14.1081 11.1298 14.1437 11.2222 14.1453H13.8122C13.9047 14.1435 13.9933 14.1079 14.0612 14.0453C14.0994 14.0126 14.1297 13.9716 14.1497 13.9256C14.1698 13.8795 14.1792 13.8295 14.1772 13.7793V7.73628C14.2104 7.25275 14.1381 6.76779 13.9654 6.31491C13.7928 5.86204 13.5239 5.45205 13.1772 5.11328C12.4048 4.47666 11.4205 4.15521 10.4212 4.21328C9.96211 4.1893 9.50277 4.25648 9.06974 4.41096C8.6367 4.56543 8.23855 4.80413 7.89825 5.11328C7.9032 5.03451 7.89197 4.95555 7.86525 4.88128V4.71528C7.84955 4.6377 7.80879 4.56743 7.74925 4.51528C7.68832 4.46925 7.61358 4.44528 7.53725 4.44728H5.08025C4.9861 4.45521 4.8978 4.49622 4.83099 4.56303C4.76418 4.62983 4.72318 4.71813 4.71525 4.81228V13.7773C4.71318 13.8275 4.72255 13.8775 4.74264 13.9236C4.76274 13.9697 4.79303 14.0106 4.83125 14.0433C4.89912 14.1061 4.98777 14.1417 5.08025 14.1433H7.60025C7.64902 14.1465 7.69792 14.1393 7.74367 14.1221C7.78943 14.1049 7.83098 14.0781 7.86554 14.0436C7.9001 14.009 7.92688 13.9675 7.94407 13.9217C7.96127 13.876 7.96849 13.8271 7.96525 13.7783V8.93128C7.93549 8.40753 8.06406 7.88695 8.33425 7.43728C8.48329 7.24911 8.67755 7.10173 8.89892 7.00888C9.12029 6.91603 9.36156 6.88074 9.60025 6.90628C9.78256 6.88337 9.96769 6.90296 10.1412 6.9635C10.3147 7.02405 10.4718 7.12391 10.6002 7.25528C10.8017 7.5774 10.8949 7.95546 10.8662 8.33428H10.8572ZM2.92225 0.498281C2.76494 0.336904 2.57625 0.209462 2.3678 0.123812C2.15935 0.0381625 1.93557 -0.00387872 1.71025 0.000281148C1.48477 -0.00367922 1.26088 0.0386492 1.05242 0.12465C0.843953 0.21065 0.655342 0.338495 0.498246 0.500281C0.337117 0.657352 0.209818 0.845721 0.124177 1.05381C0.0385351 1.26189 -0.0036395 1.48529 0.000246025 1.71028C-0.00306069 1.93819 0.0394994 2.16444 0.125395 2.37557C0.211291 2.58671 0.338768 2.77841 0.500246 2.93928C0.654987 3.10515 0.842818 3.23669 1.05159 3.3254C1.26037 3.41411 1.48544 3.45802 1.71225 3.45428C1.93905 3.45796 2.1641 3.41402 2.37286 3.32532C2.58163 3.23661 2.76947 3.1051 2.92425 2.93928C3.08572 2.77841 3.2132 2.58671 3.2991 2.37557C3.38499 2.16444 3.42755 1.93819 3.42425 1.71028C3.42789 1.48467 3.38522 1.26071 3.29887 1.05225C3.21253 0.843782 3.08435 0.655242 2.92225 0.498281ZM3.23725 4.56528C3.20585 4.52983 3.1676 4.5011 3.12481 4.48083C3.08202 4.46055 3.03556 4.44914 2.98825 4.44728H0.465246C0.415019 4.44522 0.364979 4.45459 0.318901 4.47468C0.272823 4.49477 0.231909 4.52507 0.199246 4.56328C0.136584 4.63126 0.101007 4.71984 0.099246 4.81228V13.7773C0.0960032 13.8261 0.103222 13.875 0.120418 13.9207C0.137614 13.9665 0.16439 14.008 0.198953 14.0426C0.233515 14.0771 0.275066 14.1039 0.32082 14.1211C0.366574 14.1383 0.415475 14.1455 0.464246 14.1423H2.98825C3.08068 14.1405 3.16927 14.1049 3.23725 14.0423C3.2754 14.0096 3.30566 13.9686 3.32575 13.9226C3.34583 13.8765 3.35524 13.8265 3.35325 13.7763V4.81428C3.35165 4.76711 3.34055 4.72075 3.32062 4.67796C3.30068 4.63518 3.27233 4.59685 3.23725 4.56528Z" fill="white"/>
</svg>
