<svg width="12" height="15" viewBox="0 0 12 15" fill="none" xmlns="http://www.w3.org/2000/svg">
<path fill-rule="evenodd" clip-rule="evenodd" d="M3.55392 6.77328L2.45392 11.3553C2.27154 12.2753 2.25056 13.2201 2.39192 14.1473H2.95592C3.48466 13.4462 3.89044 12.6603 4.15592 11.8233C4.22259 11.5799 4.42259 10.8163 4.75592 9.53228C4.94616 9.85281 5.22983 10.1075 5.56892 10.2623C5.95361 10.4613 6.38078 10.5643 6.81392 10.5623C7.4472 10.5729 8.07368 10.4305 8.64018 10.1473C9.20668 9.86405 9.69646 9.44828 10.0679 8.93528C10.9428 7.74551 11.3877 6.29394 11.3299 4.81828C11.329 4.19503 11.1989 3.57874 10.9479 3.00828C10.6982 2.42917 10.3374 1.90461 9.88592 1.46428C9.39665 0.998313 8.81847 0.635758 8.18592 0.39828C7.49256 0.129453 6.75455 -0.00559406 6.01092 0.000280389C5.27968 -0.00621067 4.5518 0.100036 3.85292 0.31528C3.24411 0.498242 2.6714 0.784769 2.15992 1.16228C1.70346 1.50618 1.29926 1.91442 0.95992 2.37428C0.641545 2.80183 0.39498 3.27841 0.22992 3.78528C0.078346 4.25782 0.00109169 4.75103 0.000919892 5.24728C-0.0131716 5.93596 0.134808 6.61831 0.43292 7.23928C0.698806 7.794 1.15987 8.23121 1.72792 8.46728C1.81081 8.48879 1.89853 8.48174 1.97692 8.44728C2.02027 8.42528 2.05879 8.39484 2.09021 8.35775C2.12164 8.32065 2.14534 8.27766 2.15992 8.23128C2.19846 8.00609 2.25395 7.78412 2.32592 7.56728C2.34888 7.48505 2.34861 7.39807 2.32513 7.31599C2.30165 7.2339 2.25589 7.15993 2.19292 7.10228C1.8157 6.63429 1.61563 6.04825 1.62792 5.44728C1.6187 4.92117 1.71531 4.39858 1.912 3.91054C2.1087 3.4225 2.40147 2.97897 2.77292 2.60628C3.16383 2.21241 3.63243 1.90419 4.1489 1.70122C4.66538 1.49824 5.21844 1.40495 5.77292 1.42728C6.2401 1.39859 6.70832 1.46341 7.15013 1.61795C7.59195 1.77249 7.99848 2.01364 8.34592 2.32728C8.65075 2.62975 8.88974 2.99199 9.04789 3.39123C9.20604 3.79048 9.27993 4.21811 9.26492 4.64728C9.29778 5.75144 9.04019 6.84489 8.51792 7.81828C8.35435 8.19396 8.08862 8.5162 7.75096 8.74831C7.4133 8.98043 7.01727 9.11312 6.60792 9.13128C6.40319 9.13733 6.19975 9.09693 6.01288 9.0131C5.826 8.92928 5.66054 8.80421 5.52892 8.64728C5.39334 8.49323 5.29931 8.30712 5.25574 8.10659C5.21217 7.90605 5.22049 7.6977 5.27992 7.50128C5.34659 7.23461 5.44659 6.89161 5.57992 6.47228C5.71325 6.02961 5.82392 5.65328 5.91192 5.34328C5.97166 5.07044 6.00515 4.7925 6.01192 4.51328C6.02272 4.18998 5.92328 3.87261 5.72992 3.61328C5.6284 3.48892 5.49844 3.39083 5.35101 3.3273C5.20359 3.26377 5.04303 3.23667 4.88292 3.24828C4.65731 3.25227 4.43618 3.31196 4.2392 3.42205C4.04223 3.53213 3.87553 3.6892 3.75392 3.87928C3.43622 4.32379 3.27289 4.86014 3.28892 5.40628C3.27612 5.87401 3.36696 6.33879 3.55492 6.76728L3.55392 6.77328Z" fill="white"/>
</svg>
