<svg id="Layer_1" data-name="Layer 1" xmlns="http://www.w3.org/2000/svg" viewBox="0 0 156.9643 166.0453">
  <defs>
    <style>
      .cls-1 {
        fill: #00a3ef;
      }
    </style>
  </defs>
  <title>filters 2</title>
  <g>
    <path class="cls-1" d="M61.1055,164.0905a8.4141,8.4141,0,0,1-2.74-.4726,8.128,8.128,0,0,1-5.5518-7.3975c-.0468-.5273-.0449-1.04-.0439-1.4912l.001-.2119-.001-11.208q-.003-22.418.0205-44.8291a5.2577,5.2577,0,0,0-1.46-3.9024q-6.9843-7.5585-13.9492-15.1425C27.1905,68.3571,16.6524,56.9011,6.1768,45.7566A11.7036,11.7036,0,0,1,2.9844,34.9587a10.4111,10.4111,0,0,1,7.0967-7.2773l.6533-.2159h69.668V35.989H12.2315a1.6972,1.6972,0,0,0-.9844,1.0644,3.3222,3.3222,0,0,0,1.1416,2.8653c10.5059,11.1777,21.06,22.65,31.2657,33.7461q6.9637,7.57,13.9384,15.13a13.7933,13.7933,0,0,1,3.7207,9.71q-.0351,22.3843-.02,44.8047l.001,11.4492c-.001.1045-.0019.208-.0019.3115q2.6528-3.0453,5.2939-6.0869,5.54-6.3735,11.1055-12.73A5.7961,5.7961,0,0,0,79.21,132.04c-.0371-6.0235-.0351-12.0411-.0322-18.0586q.0044-7.7329-.0176-15.4659a13.8449,13.8449,0,0,1,3.82-9.8095l.64-.6924Q90.6749,80.3859,97.7178,72.75l6.27,5.7754Q96.9415,86.173,89.879,93.8015l-.6475.6992a5.2518,5.2518,0,0,0-1.5478,3.9658c.0234,5.18.02,10.35.0185,15.5186-.0029,5.999-.0058,11.997.0313,17.9961a14.1858,14.1858,0,0,1-3.6446,9.9052q-5.5562,6.3208-11.0683,12.6885-2.7964,3.2167-5.5957,6.4326A8.3156,8.3156,0,0,1,61.1055,164.0905Z"/>
    <g>
      <rect class="cls-1" x="110.4868" y="23.6596" width="6.3674" height="38.5792" rx="3.1837" transform="translate(63.663 -67.7976) rotate(45)"/>
      <rect class="cls-1" x="110.4868" y="23.6596" width="6.3674" height="38.5792" rx="3.1837" transform="translate(224.4174 -7.0583) rotate(135)"/>
    </g>
    <path class="cls-1" d="M113.671,82.3142a39.3648,39.3648,0,1,1,39.3642-39.3653A39.41,39.41,0,0,1,113.671,82.3142Zm0-70.2061a30.8413,30.8413,0,1,0,30.8408,30.8408A30.8764,30.8764,0,0,0,113.671,12.1081Z"/>
  </g>
</svg>
