<svg id="Layer_1" data-name="Layer 1" xmlns="http://www.w3.org/2000/svg" viewBox="0 0 127.7143 118.2857">
  <defs>
    <style>
      .cls-1 {
        fill: #00a3ef;
      }
    </style>
  </defs>
  <title>Export icon</title>
  <path class="cls-1" d="M3.7812,8.4417a5.0752,5.0752,0,0,1,.266-.762,6.4274,6.4274,0,0,1,.5507-1.0021A4.8031,4.8031,0,0,1,6.0923,5.2405a5.35,5.35,0,0,1,2.7549-.6957q21.816-.0174,43.6319-.007a5.52,5.52,0,0,1,4,1.9245q9.57,9.606,19.169,19.1834c5.5961,5.5971,11.1732,11.2135,16.8017,16.7779a6.5156,6.5156,0,0,1,2.0589,4.9372c-.0354,8.0352-.0148,16.0706-.0148,24.106v1.5414h15.0022l.2737-.3164c-1.3429-1.2421-2.7452-2.4269-4.0127-3.7418A4.6662,4.6662,0,0,1,104.7,63.9219,4.83,4.83,0,0,1,108.64,60.6a4.7242,4.7242,0,0,1,4.3118,1.369c4.2848,4.2375,8.57,8.4756,12.7748,12.7924a4.7919,4.7919,0,0,1-.0319,6.8575Q119.4193,88.04,112.9993,94.32a5.0229,5.0229,0,1,1-7.0611-7.1447c1.1993-1.273,2.5021-2.4483,3.9992-3.9013H94.4935v1.4156q0,12.5352-.0032,25.07c-.0031,2.96-1.3566,4.9541-3.8252,5.5586a9.6472,9.6472,0,0,1-2.27.1675c-26.0345.0078-52.0691-.0279-78.1034.051a9.0929,9.0929,0,0,1-3.6564-.6111A5.1021,5.1021,0,0,1,4.1465,112.61a8.5243,8.5243,0,0,1-.4888-4.0417V64.7348c0-16.1554.103-32.3144-.0035-48.4694-.0087-1.3275-.0153-2.6562-.0593-3.983A13.2489,13.2489,0,0,1,3.7812,8.4417Zm43.5847,6.2767H13.8287V105.3H84.3173V83.199c-1.1892,0-2.3047.0011-3.42,0-6.2276-.0073-12.4556.0243-18.6825-.0423a4.8771,4.8771,0,0,1-4.7058-4.4915,4.9434,4.9434,0,0,1,3.5158-5.2589,9.4243,9.4243,0,0,1,2.4992-.28c6.4688-.0217,12.9376-.0106,19.4064-.0151.4621,0,.9241-.0437,1.3616-.0658V51.5935H82.7492q-14.7056,0-29.411-.0058a9.1794,9.1794,0,0,1-2.034-.1433c-2.54-.5846-3.9318-2.5721-3.9346-5.59q-.0139-14.826-.0037-29.6521Zm10.1685,7.37V41.3956H76.87Z"/>
</svg>
