<svg id="Layer_1" data-name="Layer 1" xmlns="http://www.w3.org/2000/svg" viewBox="0 0 150 150">
  <defs>
    <style>
      .cls-1 {
        fill: #00a3ef;
      }
    </style>
  </defs>
  <title>filters 2</title>
  <path class="cls-1" d="M66.2668,148.0433a8.4143,8.4143,0,0,1-2.748-.4746,8.1205,8.1205,0,0,1-5.5459-7.3857c-.0391-.4981-.042-1-.041-1.5l.0009-.2119L57.93,125.4242q-.0059-21.4966.0215-42.9932a5.2642,5.2642,0,0,0-1.461-3.8955q-7.1073-7.69-14.1914-15.4033C32.1867,52.14,21.7307,40.7738,11.3342,29.7162A11.696,11.696,0,0,1,8.14,18.9252a10.4225,10.4225,0,0,1,7.0976-7.2881l.6543-.2168H134.9856l.73.2773c3.31,1.2549,5.4541,3.1944,6.5557,5.9268a10.23,10.23,0,0,1-2.18,11.2949q-4.2759,4.5821-8.5068,9.2051l-11.544,12.53Q107.2224,64.5618,94.386,78.4525A5.3688,5.3688,0,0,0,92.84,82.4281q.0379,7.872.02,15.7451c-.003,5.9219-.0059,11.8447.0312,17.7666a14.232,14.232,0,0,1-3.6426,9.9023q-5.5986,6.3633-11.1455,12.7774-2.7569,3.1743-5.5176,6.3467A8.3261,8.3261,0,0,1,66.2668,148.0433Zm-48.875-128.1a1.7136,1.7136,0,0,0-.9883,1.0713,3.3217,3.3217,0,0,0,1.14,2.8613c10.43,11.0918,20.9013,22.4756,31.0293,33.4844Q55.6551,65.0614,62.75,72.75a13.8077,13.8077,0,0,1,3.7246,9.6973q-.0425,21.4878-.02,42.9746l.002,13.2871c-.001.1055-.002.2119-.002.3174q2.61-2.9957,5.2139-5.9971Q77.2449,126.6078,82.85,120.21a5.8237,5.8237,0,0,0,1.5186-4.2187c-.0371-5.94-.0352-11.8809-.0323-17.8223.003-5.2334.0059-10.4668-.02-15.7A13.9145,13.9145,0,0,1,88.13,72.6634q12.8408-13.8763,25.6426-27.7861l11.5381-12.5234q4.2627-4.6349,8.5478-9.2491a1.8011,1.8011,0,0,0,.5068-2.2939c-.0546-.1348-.1835-.4551-1.0253-.8672Z"/>
</svg>
