<svg width="22" height="21" viewBox="0 0 22 21" fill="none" xmlns="http://www.w3.org/2000/svg">
<path d="M6.6 4.42105V2.21053C6.6 1.60263 6.8156 1.08205 7.2468 0.648789C7.67727 0.216263 8.195 0 8.8 0H13.2C13.805 0 14.3231 0.216263 14.7543 0.648789C15.1848 1.08205 15.4 1.60263 15.4 2.21053V4.42105H19.8C20.405 4.42105 20.9231 4.63768 21.3543 5.07095C21.7848 5.50347 22 6.02368 22 6.63158V18.7895C22 19.3974 21.7848 19.9179 21.3543 20.3512C20.9231 20.7837 20.405 21 19.8 21H2.2C1.595 21 1.07727 20.7837 0.6468 20.3512C0.2156 19.9179 0 19.3974 0 18.7895V6.63158C0 6.02368 0.2156 5.50347 0.6468 5.07095C1.07727 4.63768 1.595 4.42105 2.2 4.42105H6.6ZM8.8 4.42105H13.2V2.21053H8.8V4.42105ZM19.8 14.3684H14.3V15.4737C14.3 15.7868 14.1948 16.0492 13.9843 16.2606C13.7731 16.4728 13.5117 16.5789 13.2 16.5789H8.8C8.48833 16.5789 8.22727 16.4728 8.0168 16.2606C7.8056 16.0492 7.7 15.7868 7.7 15.4737V14.3684H2.2V18.7895H19.8V14.3684ZM9.9 14.3684H12.1V12.1579H9.9V14.3684ZM2.2 12.1579H7.7V11.0526C7.7 10.7395 7.8056 10.4768 8.0168 10.2646C8.22727 10.0531 8.48833 9.94737 8.8 9.94737H13.2C13.5117 9.94737 13.7731 10.0531 13.9843 10.2646C14.1948 10.4768 14.3 10.7395 14.3 11.0526V12.1579H19.8V6.63158H2.2V12.1579Z" fill="white"/>
</svg>
