<svg width="21" height="21" viewBox="0 0 21 21" fill="none" xmlns="http://www.w3.org/2000/svg">
<path d="M20.2125 4.20262V0.84C20.2125 0.375375 19.8371 0 19.3725 0H1.62751C1.16289 0 0.787516 0.375375 0.787516 0.84V4.20262C0.349141 4.22888 1.62643e-05 4.59375 1.62643e-05 5.04V8.49712C-0.0016648 9.13249 0.126986 9.76145 0.378016 10.3451C0.490891 10.6129 0.630016 10.8649 0.787516 11.1037V20.16C0.787516 20.622 1.16289 21 1.62751 21H19.3725C19.8371 21 20.2125 20.6246 20.2125 20.16V11.1037C20.3725 10.8643 20.5096 10.6103 20.622 10.3451C20.8714 9.75975 21 9.13762 21 8.49712V5.04C21 4.59375 20.6509 4.22888 20.2125 4.20262ZM2.67751 1.89H18.3225V4.2H2.67751V1.89ZM12.18 19.1126H8.82001V16.38H12.18V19.1126ZM18.3225 19.1126H13.86V15.54C13.86 15.0754 13.4846 14.7 13.02 14.7H7.98001C7.51539 14.7 7.14001 15.0754 7.14001 15.54V19.1126H2.67751V12.7549C2.75364 12.7916 2.83239 12.8284 2.91376 12.8599C3.49914 13.1066 4.12126 13.23 4.76176 13.23C5.40226 13.23 6.02176 13.1066 6.60976 12.8599C6.97201 12.7076 7.31326 12.5134 7.62564 12.2797C7.63089 12.2771 7.63614 12.2771 7.64139 12.2797C7.95473 12.5144 8.29596 12.7092 8.65726 12.8599C9.24263 13.1066 9.86476 13.23 10.5053 13.23C11.1458 13.23 11.7653 13.1066 12.3533 12.8599C12.7155 12.7076 13.0568 12.5134 13.3691 12.2797C13.3744 12.2771 13.3796 12.2771 13.3849 12.2797C13.6982 12.5144 14.0395 12.7092 14.4008 12.8599C14.9861 13.1066 15.6083 13.23 16.2488 13.23C16.8893 13.23 17.5088 13.1066 18.0968 12.8599C18.1755 12.8258 18.2543 12.7916 18.333 12.7549V19.1126H18.3225ZM19.11 8.49712C19.11 10.0669 17.8238 11.34 16.2409 11.34C15.1699 11.34 14.2354 10.7599 13.7419 9.89888C13.6658 9.76762 13.5293 9.68625 13.377 9.68625H13.3613C13.2116 9.68625 13.0725 9.76762 12.9964 9.89888C12.7445 10.3381 12.3809 10.7028 11.9424 10.9559C11.504 11.209 11.0063 11.3415 10.5 11.34C9.43163 11.34 8.49976 10.7625 8.00626 9.90412C7.92751 9.77025 7.78576 9.68625 7.63089 9.68625C7.47601 9.68625 7.33164 9.77025 7.25551 9.90412C7.0022 10.3417 6.6381 10.7047 6.19986 10.9568C5.76161 11.2089 5.2647 11.341 4.75914 11.34C3.17626 11.34 1.89001 10.0669 1.89001 8.49712V6.10312C1.89001 6.09525 1.89526 6.09 1.90314 6.09H19.0969C19.1048 6.09 19.11 6.09525 19.11 6.10312V8.49712Z" fill="white"/>
</svg>
