<svg width="12" height="12" viewBox="0 0 12 12" fill="none" xmlns="http://www.w3.org/2000/svg">
<path d="M0 11.1428H12V12H0V11.1428ZM10.7143 3.85702C10.828 3.85702 10.937 3.81187 11.0173 3.73149C11.0977 3.65112 11.1429 3.54211 11.1429 3.42844V2.14271C11.1428 2.05463 11.1156 1.9687 11.065 1.89662C11.0144 1.82453 10.9428 1.76979 10.86 1.73984L6.14571 0.0255323C6.05155 -0.00851078 5.94845 -0.00851078 5.85429 0.0255323L1.14 1.73984C1.05717 1.76979 0.985578 1.82453 0.934966 1.89662C0.884354 1.9687 0.85718 2.05463 0.857143 2.14271V3.42844C0.857143 3.54211 0.902296 3.65112 0.982669 3.73149C1.06304 3.81187 1.17205 3.85702 1.28571 3.85702H1.71429V9.42853H0.857143V10.2857H11.1429V9.42853H10.2857V3.85702H10.7143ZM1.71429 2.44271L6 0.882688L10.2857 2.44271V2.99986H1.71429V2.44271ZM6.85714 9.42853H5.14286V3.85702H6.85714V9.42853ZM2.57143 3.85702H4.28571V9.42853H2.57143V3.85702ZM9.42857 9.42853H7.71429V3.85702H9.42857V9.42853Z" fill="#00A3EF"/>
</svg>
