<svg width="21" height="21" viewBox="0 0 21 21" fill="none" xmlns="http://www.w3.org/2000/svg">
<path d="M20.3767 9.88297L11.1069 0.609152C10.7185 0.220555 10.1831 0 9.62669 0H2.09961C0.944823 0 0 0.945236 0 2.10053V9.63091C0 10.1875 0.220459 10.7232 0.619384 11.1118L9.88914 20.3856C10.708 21.2048 12.0412 21.2048 12.8601 20.3856L20.3872 12.8552C21.206 12.036 21.206 10.7127 20.3767 9.88297ZM11.3694 18.9047L2.09961 9.63091V2.10053H9.62669L18.8965 11.3743L11.3694 18.9047Z" fill="white"/>
<path d="M4.72411 6.30158C5.5938 6.30158 6.29882 5.59625 6.29882 4.72618C6.29882 3.85612 5.5938 3.15079 4.72411 3.15079C3.85443 3.15079 3.14941 3.85612 3.14941 4.72618C3.14941 5.59625 3.85443 6.30158 4.72411 6.30158Z" fill="white"/>
</svg>
