<svg width="12" height="16" viewBox="0 0 12 16" fill="none" xmlns="http://www.w3.org/2000/svg">
<path d="M10.2942 15.1292H4.67924C4.43104 15.1292 4.19301 15.0154 4.01751 14.8127C3.842 14.61 3.74341 14.3352 3.74341 14.0485V12.4276H4.67924V14.0485H10.2942V1.08066H4.67924V2.70164H3.74341V1.08066C3.74341 0.794049 3.842 0.51918 4.01751 0.316517C4.19301 0.113855 4.43104 0 4.67924 0H10.2942C10.5424 0 10.7804 0.113855 10.9559 0.316517C11.1314 0.51918 11.23 0.794049 11.23 1.08066V14.0485C11.23 14.3352 11.1314 14.61 10.9559 14.8127C10.7804 15.0154 10.5424 15.1292 10.2942 15.1292Z" fill="white"/>
<path d="M4.9552 10.0447L6.63034 8.10493H0V7.02428H6.63034L4.9552 5.0845L5.61496 4.32263L8.42244 7.5646L5.61496 10.8066L4.9552 10.0447Z" fill="white"/>
</svg>
