<svg width="21" height="21" viewBox="0 0 21 21" fill="none" xmlns="http://www.w3.org/2000/svg">
<path fill-rule="evenodd" clip-rule="evenodd" d="M1.05 0C1.6299 0 2.1 0.470101 2.1 1.05V17.85C2.1 18.1285 2.21062 18.3955 2.40754 18.5925C2.60445 18.7894 2.87152 18.9 3.15 18.9H19.95C20.5299 18.9 21 19.3701 21 19.95C21 20.5299 20.5299 21 19.95 21H3.15C2.31457 21 1.51335 20.6681 0.922614 20.0774C0.331874 19.4866 0 18.6854 0 17.85V1.05C0 0.470101 0.470101 0 1.05 0ZM16.8 7.35C16.2201 7.35 15.75 6.8799 15.75 6.3C15.75 5.7201 16.2201 5.25 16.8 5.25H19.95C20.5299 5.25 21 5.7201 21 6.3V9.45C21 10.0299 20.5299 10.5 19.95 10.5C19.3701 10.5 18.9 10.0299 18.9 9.45V8.83492L14.3925 13.3425C13.9824 13.7525 13.3176 13.7525 12.9075 13.3425L9.45 9.88492L5.99246 13.3425C5.58241 13.7525 4.91759 13.7525 4.50754 13.3425C4.09749 12.9324 4.09749 12.2676 4.50754 11.8575L8.70754 7.65754C9.11759 7.24749 9.78241 7.24749 10.1925 7.65754L13.65 11.1151L17.4151 7.35H16.8Z" fill="white"/>
</svg>
