<?xml version="1.0" encoding="utf-8"?>
<!-- Generator: Adobe Illustrator 24.0.0, SVG Export Plug-In . SVG Version: 6.00 Build 0)  -->
<svg version="1.1" id="Layer_1" xmlns="http://www.w3.org/2000/svg" xmlns:xlink="http://www.w3.org/1999/xlink" x="0px" y="0px"
	 viewBox="0 0 200 200" style="enable-background:new 0 0 200 200;" xml:space="preserve">
<style type="text/css">
	.st0{fill:#00A3EF;}
	.st1{fill:#18F763;}
	.st2{fill:#28292B;}
	.st3{fill:#3E94A6;}
	.st4{fill:#F91500;}
	.st5{fill:none;stroke:#00A3EF;stroke-width:9;stroke-miterlimit:10;}
	.st6{fill:none;stroke:#00A3EF;stroke-width:8;stroke-miterlimit:10;}
	.st7{fill:#005784;}
	.st8{fill:#00B4FF;}
	.st9{fill:#FFFFFF;}
	.st10{fill:#081C3D;}
</style>
<path class="st10" d="M22.5,54.8v101.8c0,7.7,6.3,14,14,14h101.8c7.7,0,14-6.3,14-14v-35c0-3.4-2.9-6-6.2-5.8l-0.1,0
	c-3,0.2-5.3,2.8-5.3,5.8v34.9c0,1.3-1,2.3-2.3,2.3H36.5c-1.3,0-2.3-1-2.3-2.3V54.8c0-1.3,1-2.3,2.3-2.3h52.6c3.2,0,5.8-2.6,5.8-5.8
	v0c0-3.2-2.6-5.8-5.8-5.8H36.5C28.7,40.8,22.5,47.1,22.5,54.8z"/>
<g>
	<path class="st10" d="M125.7,53.4c6.7,6.7,13.3,13.3,19.9,19.9c-16.8,16.8-33.7,33.7-50.4,50.4c-6.5-6.5-13.2-13.2-19.9-19.9
		C92,87.1,108.8,70.2,125.7,53.4z"/>
	<path class="st10" d="M164.4,54.7c-5.1,5.1-10.2,10.2-15.2,15.2c-6.7-6.7-13.4-13.4-20-20c5-5,10.2-10.2,15.2-15.2
		C151,41.3,157.7,48,164.4,54.7z"/>
	<path class="st10" d="M62.3,136.7c3.4-10.2,6.7-20.1,9.9-29.9c6.6,6.6,13.2,13.3,19.9,20C82.5,130,72.6,133.3,62.3,136.7z"/>
</g>
</svg>
