<?xml version="1.0" encoding="utf-8"?>
<!-- Generator: Adobe Illustrator 24.0.0, SVG Export Plug-In . SVG Version: 6.00 Build 0)  -->
<svg version="1.1" id="Layer_1" xmlns="http://www.w3.org/2000/svg" xmlns:xlink="http://www.w3.org/1999/xlink" x="0px" y="0px"
	 viewBox="0 0 200 200" style="enable-background:new 0 0 200 200;" xml:space="preserve">
<style type="text/css">
	.st0{fill:#00A3EF;}
	.st1{fill:#18F763;}
	.st2{fill:#28292B;}
	.st3{fill:#3E94A6;}
	.st4{fill:#F91500;}
	.st5{fill:none;stroke:#00A3EF;stroke-width:9;stroke-miterlimit:10;}
	.st6{fill:none;stroke:#00A3EF;stroke-width:8;stroke-miterlimit:10;}
	.st7{fill:#005784;}
	.st8{fill:#00B4FF;}
	.st9{fill:#FFFFFF;}
	.st10{fill:#081C3D;}
</style>
<path class="st9" d="M167.5,51.8v109.9c0,7.7-6.3,14-14,14H51.7c-7.7,0-14-6.3-14-14v-20.5c0-3.4,2.9-6,6.2-5.8l0.1,0
	c3,0.2,5.3,2.8,5.3,5.8v20.5c0,1.3,1,2.3,2.3,2.3h60.9v0h40.9c1.3,0,2.3-1,2.3-2.3V51.8c0-1.3-1-2.3-2.3-2.3H51.7
	c-1.3,0-2.3,1-2.3,2.3v20.5c0,3-2.3,5.6-5.3,5.8l-0.1,0c-3.4,0.3-6.2-2.4-6.2-5.8V51.8c0-7.7,6.3-14,14-14h101.8
	C161.2,37.9,167.5,44.1,167.5,51.8z"/>
<path class="st9" d="M125.2,108.3L76.7,145c-1.2,0.9-3,0-3-1.5v-18.1H28.5V88.3h45.2V70.2c0-1.5,1.7-2.4,3-1.5l48.6,36.7
	C126.2,106.1,126.2,107.5,125.2,108.3z"/>
</svg>
