<svg width="26" height="29" viewBox="0 0 26 29" fill="none" xmlns="http://www.w3.org/2000/svg">
<path d="M25.2899 28.1725C25.1173 28.572 24.8344 28.6829 24.461 28.6829C16.7719 28.6747 9.08397 28.6774 1.39486 28.676C0.774937 28.676 0.587083 28.4448 0.578864 27.7141C0.556556 25.8859 0.542467 25.8941 2.12866 25.9228C2.51376 25.9297 2.89887 25.9242 3.31449 25.9242C3.31449 25.4371 3.31449 24.9704 3.31449 24.5038C3.31449 24.3068 3.3098 24.1097 3.31684 23.9127C3.32623 23.6431 3.4636 23.4666 3.65968 23.457C3.86162 23.4474 4.02717 23.6321 4.03304 23.9099C4.04243 24.4258 4.03656 24.9403 4.03656 25.4562C4.03656 25.5958 4.03656 25.7367 4.03656 25.8996C5.17895 25.8996 6.30725 25.8996 7.45433 25.8996C7.45433 24.0085 7.45433 22.1119 7.45433 20.1961C6.32134 20.1961 5.19304 20.1961 4.03656 20.1961C4.03656 20.6449 4.03656 21.0815 4.03656 21.5193C4.03656 21.6316 4.04008 21.7451 4.03538 21.8573C4.0213 22.168 3.88393 22.339 3.65968 22.3308C3.44247 22.3226 3.31919 22.1611 3.31684 21.8546C3.31214 21.2635 3.3098 20.6737 3.31684 20.0825C3.32271 19.605 3.55753 19.3368 3.96846 19.3354C5.15077 19.3313 6.33308 19.3327 7.51539 19.3354C7.96037 19.3368 8.19284 19.6104 8.19636 20.14C8.20105 20.8434 8.19753 21.5467 8.19753 22.2487C8.19753 23.457 8.19753 24.6666 8.19753 25.8982C8.95834 25.8982 9.70859 25.8982 10.4941 25.8982C10.4941 25.7819 10.4941 25.6642 10.4941 25.5465C10.4941 22.2747 10.4941 19.0042 10.4941 15.7324C10.4941 15.6202 10.4905 15.5066 10.4999 15.3958C10.5351 14.9839 10.7641 14.728 11.121 14.7253C12.328 14.7198 13.5338 14.7212 14.7407 14.7253C15.1117 14.7266 15.3419 14.9825 15.3747 15.4108C15.383 15.5135 15.3794 15.6175 15.3794 15.7201C15.3794 18.9919 15.3794 22.2624 15.3794 25.5342C15.3794 25.6533 15.3794 25.7723 15.3794 25.9064C16.1496 25.9064 16.8952 25.9064 17.676 25.9064C17.676 25.7874 17.676 25.6697 17.676 25.552C17.676 20.4807 17.676 15.4095 17.6771 10.3382C17.6771 10.2082 17.6783 10.0741 17.6994 9.94686C17.7523 9.6417 17.946 9.42139 18.2102 9.39539C18.4415 9.37213 18.6775 9.3735 18.9088 9.39129C19.1119 9.40771 19.2269 9.56507 19.241 9.79907C19.2551 10.018 19.1013 10.2055 18.897 10.2219C18.7456 10.2342 18.5917 10.2246 18.4192 10.2246C18.4192 15.4546 18.4192 20.6682 18.4192 25.9009C19.5475 25.9009 20.6758 25.9009 21.8193 25.9009C21.8193 20.686 21.8193 15.4779 21.8193 10.226C21.4941 10.226 21.1677 10.226 20.8413 10.226C20.745 10.226 20.6476 10.2356 20.5525 10.2205C20.3505 10.1891 20.2296 10.0481 20.2261 9.80865C20.2237 9.56781 20.3458 9.40087 20.5454 9.39403C21.0432 9.37624 21.5434 9.37076 22.04 9.3995C22.3277 9.41592 22.5261 9.70055 22.5496 10.044C22.5578 10.1658 22.5555 10.2876 22.5555 10.4094C22.5555 15.4519 22.5555 20.4958 22.5555 25.5383C22.5555 25.6574 22.5555 25.7778 22.5555 25.9201C23.2188 25.9201 23.8528 25.9379 24.4869 25.9133C24.8567 25.8996 25.1232 26.0364 25.2899 26.4237C25.2899 27.0093 25.2899 27.5909 25.2899 28.1725ZM11.229 25.905C12.3761 25.905 13.5044 25.905 14.6339 25.905C14.6339 22.4526 14.6339 19.0193 14.6339 15.5846C13.4892 15.5846 12.3656 15.5846 11.229 15.5846C11.229 19.0248 11.229 22.4526 11.229 25.905ZM1.31384 27.8126C9.07575 27.8126 16.8142 27.8126 24.5538 27.8126C24.5538 27.4582 24.5538 27.1243 24.5538 26.7822C16.8024 26.7822 9.06401 26.7822 1.31384 26.7822C1.31384 27.1298 1.31384 27.4623 1.31384 27.8126Z" fill="#081C3D"/>
<path d="M23.4879 3.13362C23.3681 3.3772 23.2753 3.64677 23.1227 3.85887C22.9114 4.15171 22.6472 4.39118 22.4241 4.67443C22.356 4.76064 22.3091 4.91801 22.3208 5.03432C22.356 5.39694 22.423 5.7541 22.477 6.11398C22.5439 6.56281 22.4687 6.96102 22.1365 7.23743C21.8077 7.51111 21.4649 7.49332 21.1162 7.2689C20.8356 7.08828 20.5515 6.91039 20.2603 6.75302C20.1816 6.7106 20.056 6.70923 19.9773 6.75165C19.6791 6.91449 19.3926 7.10333 19.1015 7.28259C18.761 7.49058 18.4205 7.50837 18.1011 7.23743C17.7912 6.9747 17.6879 6.61071 17.7536 6.17282C17.8123 5.78557 17.8734 5.39831 17.9145 5.00832C17.925 4.90843 17.8898 4.76885 17.8323 4.69633C17.6068 4.41581 17.3662 4.15308 17.1278 3.88761C16.8496 3.57561 16.7274 3.20752 16.8519 2.76826C16.9717 2.34543 17.2347 2.1128 17.6127 2.05259C17.9309 2.00196 18.2479 1.94175 18.5672 1.89523C18.7152 1.87334 18.8103 1.80628 18.8749 1.63797C19.0075 1.28766 19.1602 0.946934 19.3081 0.603467C19.4748 0.218949 19.7437 0.00137493 20.1147 6.53832e-06C20.4845 -0.00136185 20.7569 0.212107 20.9248 0.596625C21.0739 0.938723 21.2289 1.27808 21.3592 1.62976C21.4273 1.81313 21.5295 1.8747 21.6856 1.89797C22.0285 1.9486 22.3713 2.0006 22.7106 2.07312C23.1403 2.1648 23.428 2.5849 23.4256 3.0912C23.4468 3.10626 23.4679 3.11994 23.4879 3.13362ZM18.4592 6.36029C18.4628 6.57376 18.5778 6.64081 18.7645 6.53134C19.0721 6.35071 19.3832 6.17145 19.6803 5.96893C19.9726 5.76915 20.245 5.75409 20.5409 5.95935C20.8168 6.14956 21.1045 6.31924 21.3933 6.48071C21.486 6.53271 21.5999 6.53271 21.7044 6.55597C21.7197 6.42598 21.7608 6.2905 21.7467 6.16461C21.7021 5.7842 21.6398 5.40789 21.5788 5.03158C21.5248 4.69222 21.5894 4.41033 21.8183 4.17087C22.0813 3.89582 22.3314 3.60298 22.5756 3.30604C22.6343 3.23489 22.6977 3.09805 22.6754 3.02689C22.6519 2.95163 22.5333 2.89142 22.4488 2.87363C22.1013 2.80247 21.7514 2.7409 21.4003 2.69574C21.1185 2.65879 20.9225 2.50827 20.8004 2.20996C20.6454 1.82955 20.4869 1.4505 20.3178 1.07967C20.2744 0.98388 20.1887 0.878514 20.1065 0.85662C20.0595 0.844304 19.9621 0.981144 19.9221 1.07146C19.7507 1.45187 19.5887 1.83913 19.4279 2.22638C19.3128 2.50416 19.1273 2.65195 18.8666 2.69163C18.5003 2.74637 18.134 2.80384 17.77 2.87773C17.6867 2.89416 17.5834 2.96394 17.5481 3.04331C17.5247 3.09668 17.5916 3.23078 17.6468 3.29646C17.9004 3.59751 18.1587 3.89171 18.424 4.17908C18.6459 4.41854 18.7152 4.69633 18.6541 5.04116C18.5778 5.48179 18.5226 5.92651 18.4592 6.36029Z" fill="#081C3D"/>
<path d="M3.37094 16.8843C3.42143 16.5381 3.49657 16.0975 3.54471 15.6528C3.55762 15.5365 3.51653 15.3764 3.44961 15.2915C3.22301 15.0014 2.97293 14.7346 2.73106 14.4595C2.4575 14.1476 2.37297 13.7754 2.49155 13.3553C2.61248 12.9283 2.89074 12.7162 3.26293 12.6533C3.58815 12.5972 3.91689 12.5547 4.23859 12.4809C4.33017 12.4603 4.43819 12.3686 4.4828 12.2742C4.646 11.9308 4.78337 11.5722 4.936 11.2206C5.10155 10.8388 5.36102 10.6171 5.73791 10.6116C6.12418 10.6075 6.39305 10.8251 6.56329 11.2192C6.71475 11.5695 6.85212 11.9294 7.01649 12.2729C7.06111 12.3673 7.16912 12.4562 7.2607 12.4767C7.58358 12.552 7.91115 12.5972 8.23637 12.6519C8.60973 12.7135 8.88447 12.9324 9.01009 13.3525C9.14042 13.7877 9.03123 14.1626 8.75532 14.4773C8.52637 14.7401 8.2986 15.0042 8.0626 15.2601C7.96046 15.3709 7.91467 15.4708 7.94637 15.6473C8.02034 16.0496 8.07082 16.4574 8.12131 16.8652C8.17179 17.2716 8.04852 17.6068 7.76556 17.8463C7.492 18.0789 7.18673 18.1227 6.87795 17.9462C6.54685 17.7574 6.22515 17.5425 5.89171 17.3592C5.81422 17.3168 5.69094 17.3168 5.61345 17.3592C5.28001 17.5425 4.96183 17.7642 4.62604 17.9435C4.01552 18.2692 3.3592 17.7615 3.37094 16.8843ZM4.10005 16.8967C4.08949 17.1813 4.18459 17.262 4.37948 17.1471C4.72349 16.9459 5.06515 16.7366 5.40329 16.5217C5.63459 16.3753 5.85884 16.3726 6.09131 16.519C6.42358 16.7283 6.75584 16.935 7.09398 17.1306C7.16325 17.1703 7.28066 17.1936 7.33115 17.1525C7.38163 17.1101 7.40042 16.9719 7.38868 16.883C7.33584 16.4574 7.27362 16.0332 7.20552 15.609C7.15621 15.2984 7.21491 15.0397 7.41568 14.8181C7.69042 14.5157 7.96046 14.2078 8.22463 13.8917C8.27864 13.8274 8.33382 13.7015 8.31503 13.6344C8.29507 13.566 8.18706 13.5044 8.11074 13.4894C7.77026 13.4209 7.4286 13.3607 7.08576 13.3156C6.76289 13.2718 6.53394 13.1076 6.40244 12.7463C6.27681 12.4029 6.12888 12.069 5.97507 11.7406C5.92341 11.6297 5.82244 11.5503 5.74495 11.4559C5.66864 11.5545 5.57353 11.6393 5.5207 11.7515C5.37159 12.0717 5.22953 12.3987 5.10625 12.7326C4.97123 13.1021 4.73876 13.2759 4.40414 13.3169C4.06131 13.3594 3.71965 13.4237 3.37916 13.4907C3.30989 13.5044 3.20305 13.5619 3.19248 13.6194C3.17839 13.6987 3.21714 13.8205 3.2688 13.8835C3.50831 14.1736 3.75017 14.4637 4.01082 14.7278C4.27851 15.0001 4.35013 15.3162 4.27969 15.7103C4.20689 16.1153 4.15641 16.5231 4.10005 16.8967Z" fill="#081C3D"/>
<path d="M10.5538 11.7765C10.6042 11.4208 10.6524 10.9829 10.7322 10.5546C10.7698 10.3575 10.7228 10.2426 10.6066 10.1181C10.3706 9.86353 10.1452 9.59669 9.91506 9.33396C9.64384 9.02334 9.54874 8.65113 9.67202 8.23104C9.7953 7.80957 10.0665 7.58789 10.4422 7.52905C10.7686 7.47842 11.0962 7.43053 11.4179 7.35527C11.5095 7.33337 11.6187 7.24443 11.6645 7.15001C11.8277 6.80654 11.9674 6.44802 12.1165 6.09635C12.2855 5.70088 12.5568 5.48057 12.9407 5.48468C13.314 5.48741 13.5782 5.70635 13.7438 6.09087C13.8952 6.44118 14.0314 6.80244 14.197 7.14317C14.2451 7.24306 14.3637 7.33337 14.4635 7.35664C14.7852 7.43327 15.1139 7.47569 15.4392 7.53179C15.8043 7.59474 16.0685 7.81642 16.1894 8.22556C16.3138 8.64566 16.2234 9.01923 15.9534 9.33123C15.708 9.61448 15.4532 9.88816 15.2172 10.181C15.1585 10.2535 15.1221 10.3931 15.1327 10.493C15.1715 10.8542 15.2349 11.2128 15.2889 11.5727C15.357 12.0297 15.2912 12.4361 14.9484 12.7221C14.6079 13.0054 14.2627 12.9629 13.907 12.7399C13.5782 12.5333 13.2342 12.1994 12.9019 12.2062C12.565 12.2131 12.2339 12.5729 11.8969 12.7714C11.2406 13.1559 10.5373 12.6756 10.5538 11.7765ZM11.2864 11.7574C11.2723 12.0625 11.3709 12.1378 11.5834 12.0119C11.9192 11.8121 12.2538 11.6082 12.5849 11.3989C12.8162 11.2524 13.0405 11.247 13.273 11.392C13.6052 11.6 13.9387 11.808 14.2756 12.0023C14.3449 12.042 14.4623 12.0666 14.5128 12.0256C14.5633 11.9832 14.5844 11.845 14.5738 11.756C14.5269 11.3578 14.474 10.9596 14.4024 10.5655C14.3355 10.1919 14.3977 9.88953 14.6502 9.6309C14.8967 9.37775 15.1304 9.10407 15.357 8.82629C15.4262 8.74145 15.4568 8.61282 15.5061 8.50335C15.411 8.44861 15.3206 8.36651 15.2208 8.34598C14.8815 8.27483 14.5386 8.21735 14.1958 8.17083C13.9011 8.13115 13.7156 7.95189 13.5958 7.64263C13.4632 7.3019 13.3211 6.96528 13.1673 6.63823C13.1109 6.51918 13.0076 6.43023 12.9266 6.32761C12.8503 6.42613 12.7552 6.51234 12.7023 6.62591C12.5462 6.96391 12.4018 7.30874 12.2644 7.65631C12.147 7.95325 11.965 8.12704 11.6809 8.16809C11.3064 8.22283 10.933 8.29125 10.562 8.36925C10.488 8.3843 10.3917 8.44998 10.3647 8.52251C10.3436 8.57587 10.4 8.69766 10.4493 8.7565C10.697 9.05071 10.9447 9.34491 11.2089 9.61996C11.4578 9.87858 11.5341 10.1769 11.466 10.5532C11.3932 10.9651 11.3416 11.3824 11.2864 11.7574Z" fill="#081C3D"/>
</svg>
