<svg width="14" height="12" viewBox="0 0 14 12" fill="none" xmlns="http://www.w3.org/2000/svg">
<path fill-rule="evenodd" clip-rule="evenodd" d="M8.93217 0.78835C9.21503 0.575202 9.61713 0.63171 9.83029 0.914567L13.497 5.78009C13.5993 5.91593 13.6436 6.08688 13.6199 6.25532C13.5962 6.42375 13.5066 6.57589 13.3708 6.67826L9.40137 9.6694C9.39494 9.67425 9.38841 9.67898 9.3818 9.68358L8.84483 10.0573H12.9233C13.2775 10.0573 13.5646 10.3445 13.5646 10.6987C13.5646 11.0529 13.2775 11.34 12.9233 11.34H6.99784C6.98678 11.3406 6.9757 11.3409 6.96458 11.3409L3.95377 11.3406C3.75245 11.3406 3.56283 11.246 3.44166 11.0852L0.866954 7.66882C0.76458 7.53298 0.720365 7.36203 0.744036 7.19359C0.767706 7.02514 0.857324 6.873 0.993173 6.77064L3.85784 4.61205C3.85969 4.61063 3.86155 4.60921 3.86341 4.6078L8.93217 0.78835ZM4.14079 6.00487L2.2773 7.40905L4.27313 10.0573H6.74053L7.15462 9.72565L4.14079 6.00487ZM8.18187 8.95603L8.6391 8.63776L12.0866 6.03986L9.1919 2.19867L5.16578 5.23247L8.18187 8.95603Z" fill="#808080"/>
</svg>
