<svg width="27" height="24" viewBox="0 0 27 24" fill="none" xmlns="http://www.w3.org/2000/svg">
<path d="M26.92 22.7491C26.7111 23.2328 26.3686 23.3669 25.9167 23.3669C16.6096 23.357 10.5996 23.3603 1.29252 23.3587C0.542151 23.3587 0.314768 23.0787 0.30482 22.1943C0.277818 19.9814 0.260764 19.9913 2.18073 20.0261C2.64687 20.0344 3.113 20.0278 3.61609 20.0278C3.61609 19.4381 3.61609 18.8733 3.61609 18.3085C3.61609 18.07 3.6104 17.8315 3.61893 17.593C3.6303 17.2667 3.79657 17.053 4.03391 17.0414C4.27834 17.0298 4.47872 17.2534 4.48583 17.5897C4.4972 18.2141 4.49009 18.8369 4.49009 19.4613C4.49009 19.6303 4.49009 19.8009 4.49009 19.998C5.87287 19.998 7.23859 19.998 8.62705 19.998C8.62705 17.7089 8.62705 11.0001 8.62705 8.68289C7.25564 8.68289 5.88992 8.68289 4.49009 8.68289C4.49009 9.22617 4.49009 14.1677 4.49009 14.6977C4.49009 14.8335 4.49436 14.971 4.48867 15.1068C4.47162 15.4828 4.30534 15.6898 4.03391 15.6799C3.77099 15.67 3.62177 15.4745 3.61893 15.1035C3.61325 14.388 3.6104 9.26095 3.61893 8.54542C3.62604 7.96736 3.91027 7.64272 4.40767 7.64106C5.83876 7.63609 7.26985 7.63775 8.70095 7.64106C9.23956 7.64271 9.52095 7.97398 9.52521 8.61498C9.5309 9.46634 9.52663 14.7292 9.52663 15.5805C9.52663 17.0431 9.52663 18.5073 9.52663 19.998C10.4475 19.998 11.3556 19.998 12.3064 19.998C12.3064 19.8572 12.3064 19.7147 12.3064 19.5723C12.3064 15.612 12.3064 5.18371 12.3064 1.22342C12.3064 1.0876 12.3021 0.950128 12.3135 0.815965C12.3561 0.317409 12.6333 0.00767069 13.0653 0.00435951C14.5262 -0.0022667 15.9857 -0.000611202 17.4467 0.00435927C17.8958 0.00601482 18.1743 0.315751 18.2141 0.834184C18.224 0.958409 18.2198 1.08429 18.2198 1.20851C18.2198 5.16881 18.2198 15.5971 18.2198 19.5574C18.2198 19.7015 18.2198 19.8456 18.2198 20.0079C19.152 20.0079 20.0545 20.0079 20.9995 20.0079C20.9995 19.8638 20.9995 19.7214 20.9995 19.5789C20.9995 13.4405 20.9995 7.30216 21.001 1.16379C21.001 1.00644 21.0024 0.844119 21.028 0.69008C21.0919 0.320718 21.3264 0.0540474 21.6462 0.022578C21.9261 -0.00558017 22.2118 -0.0039227 22.4917 0.0176093C22.7376 0.0374858 22.8769 0.227963 22.8939 0.511195C22.911 0.77621 22.7248 1.00313 22.4775 1.02301C22.2942 1.03791 22.108 1.02632 21.8991 1.02632C21.8991 7.35682 21.8991 13.6675 21.8991 20.0013C23.2648 20.0013 24.6306 20.0013 26.0148 20.0013C26.0148 13.689 26.0148 7.38498 26.0148 1.02797C25.6211 1.02797 25.226 1.02797 24.8309 1.02797C24.7144 1.02797 24.5965 1.03957 24.4813 1.02135C24.2369 0.983252 24.0905 0.812649 24.0863 0.52279C24.0834 0.231276 24.2312 0.029204 24.4728 0.0209223C25.0754 -0.000611695 25.6808 -0.00723786 26.2819 0.0275464C26.6301 0.0474229 26.8703 0.391942 26.8987 0.807681C26.9087 0.955094 26.9058 1.10251 26.9058 1.24992C26.9072 7.35682 26.92 22.0452 26.92 22.7491ZM13.1975 20.0046C14.5859 20.0046 15.9516 20.0046 17.3188 20.0046C17.3188 15.8257 17.3188 5.20028 17.3188 1.04288C15.9332 1.04288 14.5731 1.04288 13.1975 1.04288C13.1975 5.20856 13.1975 15.8257 13.1975 20.0046ZM1.19588 22.3135C10.5911 22.3135 16.6622 22.3135 26.029 22.3135C26.029 21.8845 26.029 21.4804 26.029 21.0663C16.6466 21.0663 10.5754 21.0663 1.19588 21.0663C1.19588 21.487 1.19588 21.8912 1.19588 22.3135Z" fill="#081C3D"/>
</svg>
