<svg width="14" height="14" viewBox="0 0 14 14" fill="none" xmlns="http://www.w3.org/2000/svg">
<path d="M3.85657 8.5107L2.88863 12.7021C2.85866 12.829 2.86766 12.962 2.91445 13.0837C2.96125 13.2054 3.04366 13.3102 3.15093 13.3844C3.2582 13.4585 3.38534 13.4986 3.51575 13.4994C3.64615 13.5002 3.77376 13.4616 3.88191 13.3887L7.41911 11.0306L10.9563 13.3887C11.067 13.4622 11.1975 13.5 11.3303 13.4971C11.4631 13.4942 11.5918 13.4507 11.6991 13.3724C11.8064 13.2942 11.8872 13.185 11.9306 13.0594C11.974 12.9339 11.9779 12.7981 11.9418 12.6702L10.7536 8.51265L13.7003 5.86088C13.7947 5.7759 13.8621 5.66513 13.8942 5.54225C13.9263 5.41937 13.9216 5.28978 13.8809 5.16951C13.8401 5.04924 13.7649 4.94356 13.6647 4.86554C13.5645 4.78752 13.4437 4.74059 13.3171 4.73054L9.61354 4.43561L8.01092 0.888007C7.95982 0.773774 7.87675 0.676772 7.77174 0.608707C7.66672 0.540643 7.54426 0.504425 7.41911 0.504425C7.29397 0.504425 7.1715 0.540643 7.06649 0.608707C6.96148 0.676772 6.87841 0.773774 6.8273 0.888007L5.22468 4.43561L1.52117 4.72989C1.39674 4.73974 1.27778 4.78524 1.17853 4.86094C1.07928 4.93663 1.00394 5.03932 0.961517 5.15671C0.919096 5.2741 0.911395 5.40123 0.939333 5.52288C0.967272 5.64454 1.02967 5.75557 1.11906 5.84269L3.85657 8.5107ZM5.70995 5.70042C5.82591 5.69129 5.93727 5.65113 6.03236 5.58415C6.12746 5.51717 6.20278 5.42585 6.25044 5.31975L7.41911 2.73359L8.58779 5.31975C8.63545 5.42585 8.71077 5.51717 8.80586 5.58415C8.90096 5.65113 9.01232 5.69129 9.12827 5.70042L11.7086 5.90506L9.58366 7.81755C9.39917 7.98385 9.32576 8.23981 9.39332 8.47887L10.2073 11.3275L7.7803 9.70926C7.67378 9.63776 7.54838 9.59958 7.42009 9.59958C7.29179 9.59958 7.1664 9.63776 7.05987 9.70926L4.52374 11.4002L5.20584 8.44704C5.23085 8.33842 5.2275 8.2252 5.1961 8.11825C5.1647 8.01131 5.10631 7.91424 5.02655 7.83639L3.05299 5.9122L5.70995 5.70042Z" fill="white"/>
</svg>
