<?xml version="1.0" encoding="utf-8"?>
<!-- Generator: Adobe Illustrator 24.0.0, SVG Export Plug-In . SVG Version: 6.00 Build 0)  -->
<svg version="1.1" id="Layer_1" xmlns="http://www.w3.org/2000/svg" xmlns:xlink="http://www.w3.org/1999/xlink" x="0px" y="0px"
	 viewBox="0 0 93.8 86.1" style="enable-background:new 0 0 93.8 86.1;" xml:space="preserve">
<style type="text/css">
	.st0{opacity:2.000000e-02;fill:#00B8FF;}
	.st1{opacity:0.12;fill:#00B8FF;}
	.st2{fill:#FFFFFF;}
	.st3{fill:#C6DDFF;}
	.st4{opacity:0.24;fill:#00B8FF;}
	.st5{fill:#8DBFFC;}
	.st6{fill:#00B8FF;}
	.st7{fill:#007AFF;}
	.st8{fill:#033E56;}
	.st9{fill:#005784;}
	.st10{fill:#E0E1E2;}
	.st11{fill:#EDF2F9;}
	.st12{fill:#CADCFC;}
	.st13{fill:#98BEF7;}
	.st14{fill:#032B35;}
	.st15{fill:#04343F;}
	.st16{fill:#FAC896;}
	.st17{fill:#006292;}
	.st18{fill:#DFCCC3;}
	.st19{fill:#F39C55;}
	.st20{fill:#023444;}
	.st21{fill:#E62822;}
	.st22{fill:#231F20;}
	.st23{fill:#EBEBEB;}
	.st24{fill-rule:evenodd;clip-rule:evenodd;fill:#00A3EF;}
	.st25{fill:#FFFFFF;fill-opacity:0.2;}
	.st26{fill:#00A3EF;}
</style>
<path class="st26" d="M91.6,24.5v41.8c0,0.3,0,0.6,0,0.9v0c-0.1,1.6-0.6,3.1-1.4,4.4c-0.6-0.6-1.2-1.2-1.7-1.8
	c-0.8-0.8-1.6-1.6-2.4-2.3c-1.6-1.6-3.2-3.1-4.7-4.7c-3.1-3.1-6.3-6.3-9.5-9.4l-7.9-7.8c0,0,13-12.9,14.2-14
	c2.1-2.1,4.2-4.2,6.3-6.3c1.1-1.1,2.1-2.1,3.2-3.2c0.9-0.9,1.7-1.8,2.6-2.6C91.1,21,91.5,22.7,91.6,24.5z"/>
<path class="st26" d="M7.9,15.7c0,0-0.1-0.1-0.1-0.1c1.5-0.8,3.2-1.3,5.1-1.3h68.3c0.3,0,0.6,0,0.9,0c0,0,0,0,0,0s0,0,0,0
	c1.5,0.1,3,0.6,4.2,1.3c0,0-0.1,0.1-0.1,0.1C74,27.9,61.8,40.2,49.6,52.4c-1.7,1.7-3.3,1.7-5,0C32.4,40.2,20.1,27.9,7.9,15.7z"/>
<path class="st26" d="M30.2,45.4c-8.8,8.7-17.6,17.4-26.3,26.1c-0.2,0.2-0.4,0.3-0.5,0.5C3.5,71.9,3,70.8,3,70.7
	c-0.2-0.7-0.3-1.4-0.3-2.2c0-0.2,0-0.4,0-0.6v0c0,0,0,0,0,0c-0.1-2.9-0.1-9.4-0.1-16.7c0-11,0.1-23.7,0.1-28.1c0,0,0,0,0,0s0,0,0,0
	c0,0,0,0,0,0s0,0,0,0c0.2-1.3,0.7-2.5,1.3-3.6C12.7,28.1,21.5,36.7,30.2,45.4z"/>
<path class="st26" d="M60.1,49.3c8.7,8.6,17.4,17.2,26.3,26c-1.5,0.9-3.3,1.4-5.1,1.4H11c-1.3,0-2.5-0.1-3.7-0.7
	c0.2-0.2,0.4-0.4,0.6-0.6c8.8-8.7,17.5-17.3,26.3-26c2.2,2.2,4.6,4.6,7,7c2.5,2.4,5.4,3.1,8.6,2c1.2-0.4,2.3-1.2,3.3-2.1
	C55.3,54.2,60,49.5,60.1,49.3z"/>
</svg>
