<?xml version="1.0" encoding="utf-8"?>
<!-- Generator: Adobe Illustrator 24.0.0, SVG Export Plug-In . SVG Version: 6.00 Build 0)  -->
<svg version="1.1" id="Layer_1" xmlns="http://www.w3.org/2000/svg" xmlns:xlink="http://www.w3.org/1999/xlink" x="0px" y="0px"
	 viewBox="0 0 86 86" style="enable-background:new 0 0 86 86;" xml:space="preserve">
<style type="text/css">
	.st0{opacity:2.000000e-02;fill:#00B8FF;}
	.st1{opacity:0.12;fill:#00B8FF;}
	.st2{fill:#FFFFFF;}
	.st3{fill:#C6DDFF;}
	.st4{opacity:0.24;fill:#00B8FF;}
	.st5{fill:#8DBFFC;}
	.st6{fill:#00B8FF;}
	.st7{fill:#007AFF;}
	.st8{fill:#033E56;}
	.st9{fill:#005784;}
	.st10{fill:#E0E1E2;}
	.st11{fill:#EDF2F9;}
	.st12{fill:#CADCFC;}
	.st13{fill:#98BEF7;}
	.st14{fill:#032B35;}
	.st15{fill:#04343F;}
	.st16{fill:#FAC896;}
	.st17{fill:#006292;}
	.st18{fill:#DFCCC3;}
	.st19{fill:#F39C55;}
	.st20{fill:#023444;}
	.st21{fill:#E62822;}
	.st22{fill:#231F20;}
	.st23{fill:#EBEBEB;}
	.st24{fill-rule:evenodd;clip-rule:evenodd;fill:#00A3EF;}
	.st25{fill:#FFFFFF;fill-opacity:0.2;}
	.st26{fill:#00A3EF;}
</style>
<path class="st24" d="M48.8,46h13l2-15h-15v-9.7c-0.2-1.9,0.4-3.8,1.6-5.4c0.8-0.7,1.8-1.2,2.8-1.5c1-0.3,2.1-0.4,3.2-0.3l8.1-0.2
	V0.4c-4.3-0.3-7.8-0.3-11.7-0.2c-2.6-0.1-5.2,0.3-7.6,1.1c-2.4,0.9-4.7,2.2-6.6,4c-1.9,1.9-3.3,4.2-4.2,6.8
	c-0.9,2.5-1.3,5.2-1.1,7.9V31h-13v15h13v38.4h15.6V46z"/>
</svg>
