<?xml version="1.0" encoding="utf-8"?>
<!-- Generator: Adobe Illustrator 24.0.0, SVG Export Plug-In . SVG Version: 6.00 Build 0)  -->
<svg version="1.1" id="Layer_1" xmlns="http://www.w3.org/2000/svg" xmlns:xlink="http://www.w3.org/1999/xlink" x="0px" y="0px"
	 viewBox="0 0 93.8 86.1" style="enable-background:new 0 0 93.8 86.1;" xml:space="preserve">
<style type="text/css">
	.st0{opacity:2.000000e-02;fill:#00B8FF;}
	.st1{opacity:0.12;fill:#00B8FF;}
	.st2{fill:#FFFFFF;}
	.st3{fill:#C6DDFF;}
	.st4{opacity:0.24;fill:#00B8FF;}
	.st5{fill:#8DBFFC;}
	.st6{fill:#00B8FF;}
	.st7{fill:#007AFF;}
	.st8{fill:#033E56;}
	.st9{fill:#005784;}
	.st10{fill:#E0E1E2;}
	.st11{fill:#EDF2F9;}
	.st12{fill:#CADCFC;}
	.st13{fill:#98BEF7;}
	.st14{fill:#032B35;}
	.st15{fill:#04343F;}
	.st16{fill:#FAC896;}
	.st17{fill:#006292;}
	.st18{fill:#DFCCC3;}
	.st19{fill:#F39C55;}
	.st20{fill:#023444;}
	.st21{fill:#E62822;}
	.st22{fill:#231F20;}
	.st23{fill:#EBEBEB;}
	.st24{fill-rule:evenodd;clip-rule:evenodd;fill:#00A3EF;}
	.st25{fill:#FFFFFF;fill-opacity:0.2;}
	.st26{fill:#00A3EF;}
</style>
<path class="st24" d="M70.3,49.8v32.4c0,0.3,0,0.6,0.2,0.9c0.1,0.3,0.3,0.5,0.5,0.7c0.4,0.4,0.9,0.6,1.5,0.6h15.4
	c0.6,0,1.1-0.2,1.5-0.6c0.2-0.2,0.4-0.4,0.5-0.7c0.1-0.3,0.2-0.6,0.2-0.9v-36c0.2-2.9-0.2-5.8-1.3-8.5c-1-2.7-2.6-5.1-4.7-7.2
	c-4.6-3.8-10.5-5.7-16.4-5.4c-2.7-0.1-5.5,0.3-8,1.2c-2.6,0.9-4.9,2.3-7,4.2c0-0.5,0-0.9-0.2-1.4v-1c-0.1-0.5-0.3-0.9-0.7-1.2
	c-0.4-0.3-0.8-0.4-1.3-0.4H35.9c-0.6,0-1.1,0.3-1.5,0.7c-0.4,0.4-0.6,0.9-0.7,1.5v53.4c0,0.3,0,0.6,0.2,0.9c0.1,0.3,0.3,0.5,0.5,0.7
	c0.4,0.4,0.9,0.6,1.5,0.6h15c0.3,0,0.6,0,0.9-0.1c0.3-0.1,0.5-0.3,0.7-0.5c0.2-0.2,0.4-0.5,0.5-0.7c0.1-0.3,0.1-0.6,0.1-0.9V53.4
	c-0.2-3.1,0.6-6.2,2.2-8.9c0.9-1.1,2-2,3.4-2.6c1.3-0.6,2.8-0.8,4.2-0.6c1.1-0.1,2.2,0,3.2,0.3c1,0.4,2,1,2.7,1.7
	C69.9,45.3,70.5,47.6,70.3,49.8L70.3,49.8L70.3,49.8z M23,3.2c-0.9-1-2.1-1.7-3.3-2.2c-1.2-0.5-2.6-0.8-3.9-0.7
	c-1.3,0-2.7,0.2-3.9,0.7c-1.2,0.5-2.4,1.3-3.3,2.2c-1,0.9-1.7,2.1-2.2,3.3c-0.5,1.2-0.8,2.6-0.7,3.9c0,1.4,0.2,2.7,0.7,4
	c0.5,1.3,1.3,2.4,2.2,3.4c0.9,1,2,1.8,3.3,2.3c1.2,0.5,2.6,0.8,3.9,0.8c1.4,0,2.7-0.2,3.9-0.8c1.2-0.5,2.4-1.3,3.3-2.3
	c1-1,1.7-2.1,2.2-3.4c0.5-1.3,0.8-2.6,0.7-4c0-1.3-0.2-2.7-0.7-3.9C24.7,5.2,24,4.1,23,3.2L23,3.2z M24.9,27.4
	c-0.2-0.2-0.4-0.4-0.7-0.5c-0.3-0.1-0.5-0.2-0.8-0.2h-15c-0.3,0-0.6,0-0.9,0.2S7,27.2,6.8,27.4c-0.4,0.4-0.6,0.9-0.6,1.5v53.4
	c0,0.3,0,0.6,0.1,0.9c0.1,0.3,0.3,0.5,0.5,0.7C7,84,7.3,84.2,7.5,84.3c0.3,0.1,0.6,0.1,0.9,0.1h15c0.6,0,1.1-0.2,1.5-0.6
	c0.2-0.2,0.4-0.4,0.5-0.7c0.1-0.3,0.2-0.6,0.2-0.9V28.9c0-0.3-0.1-0.6-0.2-0.8C25.3,27.8,25.1,27.6,24.9,27.4L24.9,27.4z"/>
</svg>
