<?xml version="1.0" encoding="utf-8"?>
<!-- Generator: Adobe Illustrator 24.0.0, SVG Export Plug-In . SVG Version: 6.00 Build 0)  -->
<svg version="1.1" id="Layer_1" xmlns="http://www.w3.org/2000/svg" xmlns:xlink="http://www.w3.org/1999/xlink" x="0px" y="0px"
	 viewBox="0 0 86 86" style="enable-background:new 0 0 86 86;" xml:space="preserve">
<style type="text/css">
	.st0{opacity:2.000000e-02;fill:#00B8FF;}
	.st1{opacity:0.12;fill:#00B8FF;}
	.st2{fill:#FFFFFF;}
	.st3{fill:#C6DDFF;}
	.st4{opacity:0.24;fill:#00B8FF;}
	.st5{fill:#8DBFFC;}
	.st6{fill:#00B8FF;}
	.st7{fill:#007AFF;}
	.st8{fill:#033E56;}
	.st9{fill:#005784;}
	.st10{fill:#E0E1E2;}
	.st11{fill:#EDF2F9;}
	.st12{fill:#CADCFC;}
	.st13{fill:#98BEF7;}
	.st14{fill:#032B35;}
	.st15{fill:#04343F;}
	.st16{fill:#FAC896;}
	.st17{fill:#006292;}
	.st18{fill:#DFCCC3;}
	.st19{fill:#F39C55;}
	.st20{fill:#023444;}
	.st21{fill:#E62822;}
	.st22{fill:#231F20;}
	.st23{fill:#EBEBEB;}
	.st24{fill-rule:evenodd;clip-rule:evenodd;fill:#00A3EF;}
	.st25{fill:#FFFFFF;fill-opacity:0.2;}
	.st26{fill:#00A3EF;}
</style>
<path class="st24" d="M85.4,15.7c-3.2,1.3-6.6,2.2-10.1,2.6c3.7-2.1,6.4-5.5,7.7-9.5c-3.4,2-7.2,3.4-11.1,4.2
	c-1.6-1.7-3.6-3.1-5.8-4c-2.2-0.9-4.5-1.4-6.9-1.3c-2.3,0-4.5,0.4-6.6,1.3c-2.1,0.9-4,2.2-5.6,3.8c-1.6,1.6-2.9,3.5-3.8,5.6
	c-0.9,2.1-1.3,4.3-1.3,6.6c0,1.3,0.1,2.7,0.4,4c-6.9-0.4-13.7-2.2-19.9-5.4C16.6,20.3,11.3,16,7,10.8c-1.6,2.6-2.4,5.6-2.4,8.7
	c-0.1,2.9,0.6,5.7,2,8.2c1.3,2.5,3.3,4.7,5.7,6.2c-2.8-0.1-5.5-0.9-7.9-2.2v0.2c0,4,1.4,7.8,4,10.9c2.5,3.1,6,5.2,9.9,6
	c-1.5,0.5-3,0.8-4.5,0.8c-1.1,0-2.1-0.1-3.2-0.4c1,3.4,3.2,6.4,6,8.5c2.9,2.2,6.5,3.5,10.2,3.6C20.6,66,13,68.6,5.2,68.5
	c-1.4,0-2.8-0.1-4.2-0.2c7.9,5.1,17.1,7.8,26.5,7.7c7.3,0.1,14.4-1.4,21-4.4c6-2.7,11.3-6.6,15.6-11.6c4-4.7,7.1-10,9.3-15.7
	c2.1-5.6,3.3-11.5,3.3-17.5v-2.2C80.1,22.2,83.1,19.2,85.4,15.7L85.4,15.7z"/>
</svg>
