<?xml version="1.0" encoding="utf-8"?>
<!-- Generator: Adobe Illustrator 24.0.0, SVG Export Plug-In . SVG Version: 6.00 Build 0)  -->
<svg version="1.1" id="Layer_1" xmlns="http://www.w3.org/2000/svg" xmlns:xlink="http://www.w3.org/1999/xlink" x="0px" y="0px"
	 viewBox="0 0 28 26.5" style="enable-background:new 0 0 28 26.5;" xml:space="preserve">
<style type="text/css">
	.st0{fill:#0BA7F0;}
	.st1{fill:#ED1C24;}
	.st2{fill:#FFFFFF;}
	.st3{fill-rule:evenodd;clip-rule:evenodd;fill:#FFFFFF;}
</style>
<path class="st3" d="M15.1,14.9h3.5l0.5-4h-4V8.3c-0.1-0.5,0.1-1,0.4-1.4c0.2-0.2,0.5-0.3,0.7-0.4c0.3-0.1,0.6-0.1,0.9-0.1l2.2-0.1
	V2.7c-1.2-0.1-2.1-0.1-3.1-0.1c-0.7,0-1.4,0.1-2,0.3c-0.6,0.2-1.3,0.6-1.8,1.1c-0.5,0.5-0.9,1.1-1.1,1.8C11,6.5,10.9,7.3,11,8v2.9
	H7.5v4H11v10.3h4.2L15.1,14.9L15.1,14.9z"/>
</svg>
