<?xml version="1.0" encoding="utf-8"?>
<!-- Generator: Adobe Illustrator 24.0.0, SVG Export Plug-In . SVG Version: 6.00 Build 0)  -->
<svg version="1.1" id="Layer_1" xmlns="http://www.w3.org/2000/svg" xmlns:xlink="http://www.w3.org/1999/xlink" x="0px" y="0px"
	 viewBox="0 0 28 26.5" style="enable-background:new 0 0 28 26.5;" xml:space="preserve">
<style type="text/css">
	.st0{fill:#0BA7F0;}
	.st1{fill:#ED1C24;}
	.st2{fill:#FFFFFF;}
	.st3{fill-rule:evenodd;clip-rule:evenodd;fill:#FFFFFF;}
</style>
<path class="st3" d="M27.7,5.2c-1,0.4-2.1,0.7-3.2,0.8c1.2-0.7,2-1.7,2.4-3c-1.1,0.6-2.3,1.1-3.5,1.3c-0.5-0.5-1.1-1-1.8-1.3
	s-1.4-0.4-2.2-0.4c-0.7,0-1.4,0.1-2.1,0.4c-0.7,0.3-1.3,0.7-1.8,1.2S14.7,5.4,14.4,6C14.1,6.7,14,7.4,14,8.1c0,0.4,0,0.8,0.1,1.3
	c-2.2-0.1-4.3-0.7-6.3-1.7C6,6.6,4.4,5.3,3,3.6C2.5,4.5,2.3,5.4,2.3,6.4c0,0.9,0.2,1.8,0.6,2.6c0.4,0.8,1,1.5,1.8,2
	c-0.9,0-1.7-0.3-2.5-0.7v0.1c0,1.3,0.4,2.5,1.3,3.4c0.8,1,1.9,1.6,3.1,1.9c-0.5,0.2-0.9,0.3-1.4,0.3c-0.3,0-0.7,0-1-0.1
	c0.3,1.1,1,2,1.9,2.7c0.9,0.7,2,1.1,3.2,1.1c-2,1.5-4.3,2.3-6.8,2.3c-0.4,0-0.9,0-1.3-0.1c2.5,1.6,5.4,2.5,8.3,2.4
	c2.3,0,4.5-0.4,6.6-1.4c1.9-0.8,3.6-2.1,4.9-3.6c1.3-1.5,2.2-3.1,2.9-4.9c0.7-1.8,1-3.6,1-5.5V8C26,7.2,26.9,6.3,27.7,5.2L27.7,5.2z
	"/>
</svg>
