<?xml version="1.0" encoding="utf-8"?>
<!-- Generator: Adobe Illustrator 24.0.0, SVG Export Plug-In . SVG Version: 6.00 Build 0)  -->
<svg version="1.1" id="Layer_1" xmlns="http://www.w3.org/2000/svg" xmlns:xlink="http://www.w3.org/1999/xlink" x="0px" y="0px"
	 viewBox="0 0 28 26.5" style="enable-background:new 0 0 28 26.5;" xml:space="preserve">
<style type="text/css">
	.st0{fill:#0BA7F0;}
	.st1{fill:#ED1C24;}
	.st2{fill:#FFFFFF;}
	.st3{fill-rule:evenodd;clip-rule:evenodd;fill:#FFFFFF;}
</style>
<g>
	<path class="st2" d="M27.1,8v12.3c0,0.1,0,0.2,0,0.3l0,0c0,0.5-0.2,0.9-0.4,1.3c-0.2-0.2-0.4-0.4-0.5-0.5c-0.2-0.2-0.5-0.5-0.7-0.7
		c-0.5-0.5-0.9-0.9-1.4-1.4c-0.9-0.9-1.9-1.9-2.8-2.8L19,14.2c0,0,3.8-3.8,4.2-4.1c0.6-0.6,1.2-1.2,1.9-1.9c0.3-0.3,0.6-0.6,0.9-0.9
		c0.3-0.3,0.5-0.5,0.8-0.8C27,6.9,27.1,7.4,27.1,8z"/>
	<path class="st2" d="M2.4,5.4L2.4,5.4C2.9,5.1,3.4,5,3.9,5h20.2c0.1,0,0.2,0,0.3,0l0,0l0,0c0.4,0,0.9,0.2,1.2,0.4l0,0
		c-3.6,3.6-7.2,7.2-10.8,10.8c-0.5,0.5-1,0.5-1.5,0C9.7,12.6,6,9,2.4,5.4z"/>
	<path class="st2" d="M9,14.1c-2.6,2.6-5.2,5.1-7.8,7.7c-0.1,0.1-0.1,0.1-0.1,0.1c0,0-0.1-0.4-0.1-0.4c-0.1-0.2-0.1-0.4-0.1-0.6
		c0-0.1,0-0.1,0-0.2l0,0l0,0c0-0.9,0-2.8,0-4.9c0-3.2,0-7,0-8.3l0,0l0,0l0,0l0,0C1,7.2,1.1,6.8,1.3,6.5C3.9,9,6.5,11.6,9,14.1z"/>
	<path class="st2" d="M17.8,15.3c2.6,2.5,5.1,5.1,7.8,7.7c-0.4,0.3-1,0.4-1.5,0.4H3.4c-0.4,0-0.7,0-1.1-0.2c0.1-0.1,0.1-0.1,0.2-0.2
		c2.6-2.6,5.2-5.1,7.8-7.7c0.6,0.6,1.4,1.4,2.1,2.1c0.7,0.7,1.6,0.9,2.5,0.6c0.4-0.1,0.7-0.4,1-0.6C16.4,16.7,17.8,15.4,17.8,15.3z"
		/>
</g>
</svg>
