<?xml version="1.0" encoding="utf-8"?>
<!-- Generator: Adobe Illustrator 24.0.0, SVG Export Plug-In . SVG Version: 6.00 Build 0)  -->
<svg version="1.1" id="Layer_1" xmlns="http://www.w3.org/2000/svg" xmlns:xlink="http://www.w3.org/1999/xlink" x="0px" y="0px"
	 viewBox="0 0 28 26.5" style="enable-background:new 0 0 28 26.5;" xml:space="preserve">
<style type="text/css">
	.st0{fill:#0BA7F0;}
	.st1{fill:#ED1C24;}
	.st2{fill:#FFFFFF;}
	.st3{fill-rule:evenodd;clip-rule:evenodd;fill:#FFFFFF;}
</style>
<path class="st3" d="M19.9,15.2v8.5c0,0.1,0,0.2,0.1,0.2c0,0.1,0.1,0.1,0.1,0.2c0.1,0.1,0.2,0.2,0.4,0.2h4c0.2,0,0.3-0.1,0.4-0.2
	c0.1-0.1,0.1-0.1,0.1-0.2c0-0.1,0.1-0.2,0.1-0.2v-9.4c0.1-0.8-0.1-1.5-0.3-2.2c-0.3-0.7-0.7-1.3-1.2-1.9c-1.2-1-2.7-1.5-4.3-1.4
	c-0.7,0-1.4,0.1-2.1,0.3c-0.7,0.2-1.3,0.6-1.8,1.1c0-0.1,0-0.2-0.1-0.4V9.5c0-0.1-0.1-0.2-0.2-0.3c-0.1-0.1-0.2-0.1-0.3-0.1h-3.8
	c-0.2,0-0.3,0.1-0.4,0.2c-0.1,0.1-0.2,0.2-0.2,0.4v14c0,0.1,0,0.2,0.1,0.2c0,0.1,0.1,0.1,0.1,0.2c0.1,0.1,0.2,0.2,0.4,0.2h3.9
	c0.1,0,0.2,0,0.2,0c0.1,0,0.1-0.1,0.2-0.1c0.1-0.1,0.1-0.1,0.1-0.2c0-0.1,0-0.2,0-0.2v-7.5c-0.1-0.8,0.2-1.6,0.6-2.3
	c0.2-0.3,0.5-0.5,0.9-0.7c0.3-0.2,0.7-0.2,1.1-0.2c0.3,0,0.6,0,0.8,0.1c0.3,0.1,0.5,0.3,0.7,0.4C19.8,14,19.9,14.6,19.9,15.2
	L19.9,15.2L19.9,15.2z M7.5,3C7.3,2.8,6.9,2.6,6.6,2.5S6,2.3,5.6,2.3c-0.3,0-0.7,0.1-1,0.2C4.3,2.6,4,2.8,3.7,3
	C3.5,3.3,3.3,3.6,3.2,3.9S2.9,4.6,3,4.9C3,5.3,3,5.6,3.2,6c0.1,0.3,0.3,0.6,0.6,0.9C4,7.1,4.3,7.3,4.6,7.5c0.3,0.1,0.7,0.2,1,0.2
	c0.4,0,0.7-0.1,1-0.2c0.3-0.1,0.6-0.3,0.9-0.6C7.8,6.6,7.9,6.3,8.1,6c0.1-0.3,0.2-0.7,0.2-1c0-0.3-0.1-0.7-0.2-1
	C7.9,3.6,7.8,3.3,7.5,3L7.5,3z M8,9.4C7.9,9.3,7.9,9.3,7.8,9.2c-0.1,0-0.1-0.1-0.2-0.1H3.7c-0.1,0-0.2,0-0.2,0.1
	C3.4,9.3,3.3,9.3,3.3,9.4C3.2,9.5,3.1,9.6,3.1,9.8v14c0,0.1,0,0.2,0,0.2s0.1,0.1,0.1,0.2c0.1,0,0.1,0.1,0.2,0.1c0.1,0,0.2,0,0.2,0
	h3.9c0.2,0,0.3-0.1,0.4-0.2C8,24.1,8.1,24,8.1,23.9c0-0.1,0.1-0.2,0.1-0.2V9.8c0-0.1,0-0.2-0.1-0.2C8.1,9.5,8,9.4,8,9.4L8,9.4z"/>
</svg>
