<svg id="Layer_1" data-name="Layer 1" xmlns="http://www.w3.org/2000/svg" viewBox="0 0 200 200"><defs><style>.cls-1{fill:#00a3ef;}.cls-2{fill:#18f763;}</style></defs><title>Enrollers icon other </title><path class="cls-1" d="M128.47,79.62a4.72,4.72,0,0,0-.13,1.13h0a3.84,3.84,0,0,0,.09.89s0,0,0,.08l0,.11c0-.36,0-.72,0-1.09S128.45,80,128.47,79.62Zm52.66,1.14a4.56,4.56,0,0,0-.13-1.11c0,.37,0,.73,0,1.1s0,.74,0,1.1A4.4,4.4,0,0,0,181.13,80.76ZM154.73,107c-.37,0-.73,0-1.1,0a5,5,0,0,0,1.1.13,4.94,4.94,0,0,0,1.1-.13C155.47,107,155.11,107,154.73,107ZM128.47,79.62a4.72,4.72,0,0,0-.13,1.13h0a3.84,3.84,0,0,0,.09.89s0,0,0,.08l0,.11c0-.36,0-.72,0-1.09S128.45,80,128.47,79.62Z"/><path class="cls-1" d="M154.75,54.35v.1h0c-.34,0-.69,0-1,0a.94.94,0,0,1,.24-.06l.32,0a3.55,3.55,0,0,1,.46,0Z"/><path class="cls-1" d="M155.8,54.48c-.35,0-.69,0-1.05,0h0c-.34,0-.69,0-1,0a.94.94,0,0,1,.24-.06l.32,0a3.55,3.55,0,0,1,.46,0h0a3.15,3.15,0,0,1,.53,0l.37,0,.08,0Z"/><path class="cls-1" d="M164.27,46.23a35.57,35.57,0,0,0-9.52-1.29h0a35.81,35.81,0,0,0-35.8,35.81,35.92,35.92,0,0,0,6.94,21.17,36,36,0,0,0,7.09,7.23,35.53,35.53,0,0,0,21.25,7.39h.52a35.81,35.81,0,0,0,9.54-70.32Zm.16,58.94a25.91,25.91,0,0,1-8.6,1.84,4.94,4.94,0,0,1-1.1.13,5,5,0,0,1-1.1-.13,26.16,26.16,0,0,1-17.94-8.17,25.75,25.75,0,0,1-4.25-5.94,4,4,0,0,1-.27-.5,25.93,25.93,0,0,1-2.7-10.55h0l0-.11s0,0,0-.08a3.84,3.84,0,0,1-.09-.89h0a4.72,4.72,0,0,1,.13-1.13,25.83,25.83,0,0,1,2-9.06,26.3,26.3,0,0,1,23.2-16.08.94.94,0,0,1,.24-.06l.32,0a3.55,3.55,0,0,1,.46,0h0a3.15,3.15,0,0,1,.53,0l.37,0,.08,0,.07,0a25.7,25.7,0,0,1,8.47,1.77A26.32,26.32,0,0,1,181,79.65a4.56,4.56,0,0,1,.13,1.11,4.4,4.4,0,0,1-.13,1.09A26.32,26.32,0,0,1,164.43,105.17Z"/><circle class="cls-2" cx="154.73" cy="80.75" r="16.79"/><path class="cls-1" d="M18.81,94.49c3.18.58,6.33,1.13,9.48,1.71v57.22H18.81Z"/><path class="cls-1" d="M181.32,112.25v41.17h-10V118.18a49.37,49.37,0,0,0,9.16-5.37C180.7,112.64,180.94,112.5,181.32,112.25Z"/><path class="cls-1" d="M114,83.43H34.21a5.92,5.92,0,0,0-5.92,5.92v16.09Q24.17,104.68,20,104c-1-.18-1.26-.52-1.24-1.6.06-4.76-.15-9.55-.1-14.32a14.6,14.6,0,0,1,14.67-14.7q39.78-.07,79.56,0c.43,0,.87,0,1.35.08A50.72,50.72,0,0,0,114,83.43Z"/><path class="cls-1" d="M179.81,171.78c-2.81,5.21-7.22,8.06-13.13,8.06q-66.65.07-133.3,0a14.62,14.62,0,0,1-14.7-14.52c0-2.13.13-11.12.13-13.41h9.48v12.19A5.92,5.92,0,0,0,34.21,170H165.4a5.92,5.92,0,0,0,5.92-5.92V153.42l10-.22C181.32,157.64,182,167.66,179.81,171.78Z"/><path class="cls-1" d="M115.44,67c0-3.26,0-6.52,0-9.78a8.74,8.74,0,0,0-2-6.06,8.08,8.08,0,0,0-6.24-3c-4.72,0-9.44-.05-14.15,0a8.42,8.42,0,0,0-8.4,8.47c0,3.43,0,6.85,0,10.52-2.8,0-5.5,0-8.2,0-.24,0-.66-.58-.66-.89,0-6.2-.19-12.42.08-18.61.22-5.06,4.35-8.62,9.45-8.64q14.74,0,29.49,0a9.42,9.42,0,0,1,9.54,9.39,10.74,10.74,0,0,1-2.24,7.33c-2.33,3.16-3.89,6.87-5.77,10.35-.18.33-.32.68-.48,1Z"/><path class="cls-1" d="M100,147.9a5.5,5.5,0,0,1-1.6-10.77l47.26-14.39a5.5,5.5,0,0,1,3.2,10.53L101.6,147.66A5.54,5.54,0,0,1,100,147.9Z"/><path class="cls-1" d="M100.05,147.9a5.54,5.54,0,0,1-1.6-.24L51.19,133.27a5.5,5.5,0,0,1,3.2-10.53l47.26,14.39a5.5,5.5,0,0,1-1.6,10.77Z"/></svg>