<svg width="20" height="19" viewBox="0 0 20 19" fill="none" xmlns="http://www.w3.org/2000/svg">
<path d="M9 11.5C3.08 11.5 0 15 0 17V18H18V17C18 15 14.92 11.5 9 11.5Z" fill="#3E94A6"/>
<path d="M9 10C11.7614 10 14 7.76142 14 5C14 2.23858 11.7614 0 9 0C6.23858 0 4 2.23858 4 5C4 7.76142 6.23858 10 9 10Z" fill="#3E94A6"/>
<circle cx="17" cy="16" r="2" fill="white"/>
<path d="M20 16C20 16.7956 19.6839 17.5587 19.1213 18.1213C18.5587 18.6839 17.7956 19 17 19C16.2044 19 15.4413 18.6839 14.8787 18.1213C14.3161 17.5587 14 16.7956 14 16C14 15.2044 14.3161 14.4413 14.8787 13.8787C15.4413 13.3161 16.2044 13 17 13C17.7956 13 18.5587 13.3161 19.1213 13.8787C19.6839 14.4413 20 15.2044 20 16V16ZM18.5112 14.8637C18.4845 14.8371 18.4526 14.816 18.4175 14.802C18.3824 14.7879 18.3448 14.781 18.307 14.7818C18.2692 14.7825 18.2319 14.7909 18.1974 14.8064C18.1629 14.8219 18.1319 14.8442 18.1062 14.872L16.8039 16.5314L16.019 15.7461C15.9657 15.6964 15.8952 15.6694 15.8223 15.6707C15.7494 15.672 15.6799 15.7015 15.6284 15.753C15.5769 15.8045 15.5473 15.8741 15.5461 15.9469C15.5448 16.0198 15.5718 16.0903 15.6215 16.1436L16.6137 17.1362C16.6405 17.1629 16.6723 17.184 16.7073 17.1981C16.7424 17.2122 16.7799 17.2191 16.8177 17.2184C16.8554 17.2177 16.8927 17.2094 16.9271 17.194C16.9616 17.1786 16.9927 17.1564 17.0184 17.1288L18.5154 15.2575C18.5664 15.2044 18.5946 15.1335 18.5939 15.0599C18.5932 14.9862 18.5637 14.9158 18.5116 14.8637H18.5112Z" fill="#4CD964"/>
</svg>
