<svg id="Layer_1" data-name="Layer 1" xmlns="http://www.w3.org/2000/svg" viewBox="0 0 200 200"><defs><style>.cls-1{fill:#00a3ef;}</style></defs><title>Enrollers icon 4</title><path class="cls-1" d="M124.66,42.77a4.44,4.44,0,0,0-.11,1,3.16,3.16,0,0,0,.08.76.19.19,0,0,0,0,.08s0,.06,0,.09c0-.31,0-.62,0-.94S124.65,43.09,124.66,42.77Zm0,0a4.44,4.44,0,0,0-.11,1,3.16,3.16,0,0,0,.08.76.19.19,0,0,0,0,.08s0,.06,0,.09c0-.31,0-.62,0-.94S124.65,43.09,124.66,42.77Z"/><path class="cls-1" d="M147.16,21.15v.08h0l-.88,0,.22,0,.27,0,.39,0Z"/><path class="cls-1" d="M148.05,21.25l-.89,0h0l-.88,0,.22,0,.27,0,.39,0h0a3.4,3.4,0,0,1,.45,0l.32,0,.06,0Z"/><path class="cls-1" d="M155.3,14.19a30.35,30.35,0,0,0-8.14-1.1h0A30.63,30.63,0,0,0,116.5,43.73c0,.88,0,1.75.11,2.62a29.59,29.59,0,0,0,1.56,7.36,30.6,30.6,0,0,0,9.5,13.66A30.64,30.64,0,1,0,155.3,14.19Zm-7.22,52c-.31,0-.62,0-.94,0s-.63,0-.94,0a22.51,22.51,0,0,1-19-12.07c-.08-.14-.15-.28-.22-.43a22.27,22.27,0,0,1-2.18-7.36c-.07-.55-.12-1.11-.14-1.67h0s0-.06,0-.09a.19.19,0,0,1,0-.08,3.16,3.16,0,0,1-.08-.76,4.44,4.44,0,0,1,.11-1,22.5,22.5,0,0,1,21.6-21.52l.22,0,.27,0,.39,0h0a3.4,3.4,0,0,1,.45,0l.32,0,.06,0h.06a22.12,22.12,0,0,1,7.25,1.52,22.52,22.52,0,0,1,14.32,20c0,.31,0,.62,0,.93s0,.64,0,1A22.52,22.52,0,0,1,148.08,66.21Z"/><path class="cls-1" d="M167.44,43.73c0,.29,0,.58,0,.86a3.68,3.68,0,0,1-3.58,2.82h-13v13A3.67,3.67,0,0,1,148,64l-.85,0-.85,0a3.67,3.67,0,0,1-2.82-3.57v-13h-13a2.23,2.23,0,0,1-.37,0,1.35,1.35,0,0,1-.29,0l-.27-.06-.07,0a2.29,2.29,0,0,1-.28-.09,3.61,3.61,0,0,1-1.26-.8l0,0-.21-.23a.65.65,0,0,1-.13-.16h0s-.06-.08-.08-.12a.83.83,0,0,1-.08-.12,1.22,1.22,0,0,1-.12-.19,1.74,1.74,0,0,1-.1-.19.61.61,0,0,1-.07-.14,2,2,0,0,1-.1-.26l0-.09v0s0,0,0,0a0,0,0,0,1,0,0,.83.83,0,0,1,0-.15h0c0-.28,0-.56,0-.85s0-.58,0-.86a3.64,3.64,0,0,1,2.46-2.61l.43-.11a3.45,3.45,0,0,1,.55-.07h13.16V27a2,2,0,0,1,0-.25,3.62,3.62,0,0,1,1.84-2.93l.38-.19a2.11,2.11,0,0,1,.55-.19l.1,0,.79,0h0l.8,0,.28.07.26.1.14.06.25.12a3.82,3.82,0,0,1,.88.66c.07.08.14.15.2.23a1.37,1.37,0,0,1,.18.24l.09.14a2.89,2.89,0,0,1,.29.55,3.66,3.66,0,0,1,.28,1.41v.81l0,0v12.2h13a3.67,3.67,0,0,1,3.58,2.82C167.43,43.17,167.44,43.45,167.44,43.73Z"/><path class="cls-1" d="M78.58,103.14h0A4.7,4.7,0,0,0,83,108.05q36,0,72.06,0a4.7,4.7,0,0,0,4.45-4.91h0a4.7,4.7,0,0,0-4.45-4.91H83A4.7,4.7,0,0,0,78.58,103.14Z"/><path class="cls-1" d="M124.15,120.91c2.11.09,4.78,2.11,6,4a6.5,6.5,0,0,1-1.46,8.88,20.92,20.92,0,0,1-9.8,4c-5.27.5-10.67-.27-16-.52-2-.09-4.28-.59-4.63,2.19-.38,3,2,3.29,4.18,3.3,7,0,14.06.3,21-.23a11.72,11.72,0,0,0,7.53-3.7c3-3.66,7-4.23,10.91-5.34,3.14-.88,6.23-2,9.41-2.63,4.16-.86,7.45.84,9.15,4.32s1.21,7.64-2.11,9.9C141.88,156.29,125.06,167,105,170.21c-10,1.58-19.75-1.5-29.21-4.44-5-1.54-8.61-1-12.47,2.43-4.62,4.12-6,3.74-9.75-1.13-4.47-5.79-8.89-11.61-13.4-17.37-1.93-2.45-2.28-4.78.43-6.76,10.85-8,21.59-16.27,34.62-20.34C81.55,120.61,114.51,120.49,124.15,120.91Z"/><polygon class="cls-1" points="60.61 85.91 65.19 95.19 75.42 96.67 68.02 103.89 69.77 114.09 60.61 109.28 51.45 114.09 53.2 103.89 45.8 96.67 56.03 95.19 60.61 85.91"/><path class="cls-1" d="M159.54,72.28a4.7,4.7,0,0,1-4.45,4.91q-36,0-72.06,0a4.93,4.93,0,0,1,0-9.82h44.63a30.59,30.59,0,0,0,31.85,4.4C159.53,71.94,159.54,72.11,159.54,72.28Z"/><polygon class="cls-1" points="60.61 55.05 65.19 64.33 75.42 65.82 68.02 73.04 69.77 83.23 60.61 78.42 51.45 83.23 53.2 73.04 45.8 65.82 56.03 64.33 60.61 55.05"/><path class="cls-1" d="M116.5,43.73c0,.88,0,1.75.11,2.62H83a4.71,4.71,0,0,1-4.45-4.91h0A4.7,4.7,0,0,1,83,36.51h34.32A30.63,30.63,0,0,0,116.5,43.73Z"/><path class="cls-1" d="M124.64,43.73c0,.32,0,.63,0,.94,0,0,0-.06,0-.09a.19.19,0,0,1,0-.08,3.16,3.16,0,0,1-.08-.76,4.44,4.44,0,0,1,.11-1C124.65,43.09,124.64,43.41,124.64,43.73Z"/><rect class="cls-1" x="143.47" y="40.07" width="0.01" height="0.01"/><polygon class="cls-1" points="60.61 24.2 65.19 33.47 75.42 34.96 68.02 42.18 69.77 52.38 60.61 47.56 51.45 52.38 53.2 42.18 45.8 34.96 56.03 33.47 60.61 24.2"/></svg>