<svg id="Layer_1" data-name="Layer 1" xmlns="http://www.w3.org/2000/svg" viewBox="0 0 200 200"><defs><style>.cls-1{fill:#00a3ef;}</style></defs><title>BIZ ICON</title><path class="cls-1" d="M109.24,56.89a4.83,4.83,0,0,0-.13,1.15h0a4,4,0,0,0,.09.91s0,.06,0,.09l0,.11c0-.37,0-.74,0-1.12S109.22,57.27,109.24,56.89Zm53.91,1.16a4.66,4.66,0,0,0-.13-1.13c0,.37,0,.74,0,1.12s0,.76,0,1.13A4.64,4.64,0,0,0,163.15,58.05Zm-27,26.9c-.38,0-.75,0-1.13,0a4.73,4.73,0,0,0,1.13.14,4.58,4.58,0,0,0,1.12-.14C136.88,84.94,136.51,85,136.13,85ZM109.24,56.89a4.83,4.83,0,0,0-.13,1.15h0a4,4,0,0,0,.09.91s0,.06,0,.09l0,.11c0-.37,0-.74,0-1.12S109.22,57.27,109.24,56.89Z"/><path class="cls-1" d="M136.15,31v.1h0c-.35,0-.71,0-1,0a1,1,0,0,1,.25-.06l.33,0a3.59,3.59,0,0,1,.47,0Z"/><path class="cls-1" d="M137.22,31.15c-.36,0-.71,0-1.07,0h0c-.35,0-.71,0-1,0a1,1,0,0,1,.25-.06l.33,0a3.59,3.59,0,0,1,.47,0h0a3.27,3.27,0,0,1,.54,0l.38.05.08,0Z"/><path class="cls-1" d="M145.89,22.7a36.41,36.41,0,0,0-9.74-1.32h0A36.64,36.64,0,0,0,99.48,58a36.66,36.66,0,0,0,7.1,21.67,37,37,0,0,0,7.26,7.41,36.38,36.38,0,0,0,21.75,7.56h.54a36.66,36.66,0,0,0,9.76-72ZM146.06,83a26.42,26.42,0,0,1-8.81,1.88,4.58,4.58,0,0,1-1.12.14,4.73,4.73,0,0,1-1.13-.14,27,27,0,0,1-22.72-14.44A4.11,4.11,0,0,1,112,70a26.63,26.63,0,0,1-2.77-10.8h0l0-.11s0-.06,0-.09a4,4,0,0,1-.09-.91h0a4.83,4.83,0,0,1,.13-1.15,26.58,26.58,0,0,1,2.09-9.28,26.92,26.92,0,0,1,23.75-16.46,1,1,0,0,1,.25-.06l.33,0a3.59,3.59,0,0,1,.47,0h0a3.27,3.27,0,0,1,.54,0l.38.05.08,0,.07,0A26.35,26.35,0,0,1,145.89,33a26.94,26.94,0,0,1,17.13,24,4.93,4.93,0,0,1,0,2.25A26.94,26.94,0,0,1,146.06,83Z"/><path class="cls-1" d="M131.74,75.92v.65h.36Z"/><path class="cls-1" d="M109.11,58h.1c0-.39,0-.77,0-1.15A4.83,4.83,0,0,0,109.11,58Zm27,26.91c-.38,0-.75,0-1.13,0a4.73,4.73,0,0,0,1.13.14,4.58,4.58,0,0,0,1.12-.14C136.88,84.94,136.51,85,136.13,85Zm0,9.74h-.54a32.68,32.68,0,0,1-1,6.38c-1.64,5.79-7.87,8.88-13.8,7.87a12.54,12.54,0,0,1-10.68-11.87c-.13-3.2,0-6.42,0-9.94h3.78a37,37,0,0,1-7.26-7.41A36.66,36.66,0,0,1,99.48,58,36.68,36.68,0,0,1,101,47.61q-23.89,0-47.77,0a12.51,12.51,0,0,0-11.84,7C37.19,62.38,32.85,70,28.71,77.8a11.66,11.66,0,0,0-1.38,4.89c-.18,4.74-.07,9.5,0,14.25a23.86,23.86,0,0,0,4.48,13.27,10.49,10.49,0,0,1,1.78,5.31c.13,17,.07,34.06.08,51.1,0,8.42,3.58,12,12.09,12q20.5,0,41,0h40c9.75,0,13-3.19,13-12.83,0-16.57-.06-33.14.09-49.71,0-2,1.08-4.06,1.83-6,1.34-3.53,3.49-6.91,4-10.55a51.32,51.32,0,0,0,.52-6.21A36.65,36.65,0,0,1,136.13,94.69ZM78.25,58.05c5.19,0,10.15-.06,15.1.06a2.56,2.56,0,0,1,2,1.36c1.12,5.51,2.07,11.06,3.13,16.92H74.93C76.05,70.19,77.13,64.24,78.25,58.05ZM73.88,87.24H99.73c-.19,4.07,0,8-.65,11.82a12.47,12.47,0,0,1-13.4,10.06A12.72,12.72,0,0,1,73.9,96.77C73.79,93.67,73.88,90.57,73.88,87.24ZM48.34,63.44C50.21,59.05,53,57.37,57.67,58c3.16.4,6.41.07,10,.07-1.19,6.4-2.29,12.38-3.41,18.4H41.39C43.86,71.88,46.47,67.82,48.34,63.44Zm-10.62,33c-.08-3,0-6,0-9.2H63.17c0,3.88.42,7.6-.09,11.18a12.57,12.57,0,0,1-13.23,10.76A12.79,12.79,0,0,1,37.72,96.41Zm59.55,71.52h-21V135.59h21Zm31.73,0H108.09c0-1.15-.15-2.36-.15-3.58,0-10.31,0-20.62,0-30.94,0-6.3-2.26-8.52-8.66-8.54q-12.69,0-25.38,0c-6.21,0-8.36,2.17-8.37,8.37,0,10.2,0,20.39,0,30.59v4H44.31v-49c9.41,1.9,17.5-.4,24.26-7.8,4.88,5.36,10.81,8.46,18,8.47a23.33,23.33,0,0,0,18-8.26c7.56,6.78,9.17,8.54,24.46,7.2Z"/><path class="cls-1" d="M160.4,58c0,.34,0,.68,0,1a4.41,4.41,0,0,1-4.27,3.38H140.52V78a4.4,4.4,0,0,1-3.38,4.28l-1,0-1,0A4.39,4.39,0,0,1,131.74,78V76.57h.36l-.36-.65V62.44H116.15a3.4,3.4,0,0,1-.45,0,1.86,1.86,0,0,1-.34,0l-.32-.07-.09,0-.32-.11a4.22,4.22,0,0,1-1.51-.95c-.11-.1-.2-.21-.3-.32a1.39,1.39,0,0,1-.15-.19h0l-.1-.15-.1-.14a1.71,1.71,0,0,1-.13-.23,1,1,0,0,1-.12-.23.48.48,0,0,1-.08-.16,1.52,1.52,0,0,1-.12-.32.3.3,0,0,1,0-.1s0,0,0,0a.43.43,0,0,1,0,0s0,0,0,0,0-.11-.05-.17h0c0-.33,0-.67,0-1h0c0-.35,0-.69,0-1a4.38,4.38,0,0,1,3-3.12l.51-.13a4.76,4.76,0,0,1,.66-.09h15.74V38.07a2.91,2.91,0,0,1,0-.3,4.3,4.3,0,0,1,2.2-3.5l.45-.24a3.09,3.09,0,0,1,.67-.22l.11,0c.31,0,.63,0,.95,0h0l1,0,.33.08.32.12a.85.85,0,0,1,.17.08,1.55,1.55,0,0,1,.29.14,4.26,4.26,0,0,1,1.05.79,2.91,2.91,0,0,1,.24.27,2.69,2.69,0,0,1,.22.28l.1.17a3.53,3.53,0,0,1,.36.66,4.5,4.5,0,0,1,.33,1.69v1l0,0V53.65h15.57A4.39,4.39,0,0,1,160.38,57C160.4,57.37,160.4,57.7,160.4,58Z"/></svg>