<svg id="Layer_1" data-name="Layer 1" xmlns="http://www.w3.org/2000/svg" viewBox="0 0 200 200"><defs><style>.cls-1{fill:#00a3ef;}</style></defs><title>BIZ ICON</title><path class="cls-1" d="M158.58,73v33.92a36.41,36.41,0,0,0-9.74-1.32V79.36l-42.61,24.28a6,6,0,0,1-9-5.23V78.91l-47,23.84a6,6,0,0,1-8.73-5.37V30.88H24.26V154.14h89.91a35.74,35.74,0,0,0,5.11,9.73H20.53a6,6,0,0,1-6-6V27.16a6,6,0,0,1,6-6H45.18a6,6,0,0,1,6,6V91.32l47-23.84A6,6,0,0,1,107,72.84V92l42.61-24.29a6,6,0,0,1,9,5.23Z"/><path class="cls-1" d="M121.93,141.05a5.5,5.5,0,0,0-.13,1.16,4.53,4.53,0,0,0,.09.91.36.36,0,0,0,0,.1l0,.11c0-.38,0-.75,0-1.13S121.92,141.43,121.93,141.05Zm53.91,1.16a4.58,4.58,0,0,0-.13-1.12q0,.56,0,1.11c0,.38,0,.76,0,1.13A4.58,4.58,0,0,0,175.84,142.21Zm-27,26.91c-.38,0-.75,0-1.12,0a4.58,4.58,0,0,0,1.12.13,4.72,4.72,0,0,0,1.13-.13C149.58,169.11,149.2,169.12,148.82,169.12Zm-26.89-28.07a5.5,5.5,0,0,0-.13,1.16,4.53,4.53,0,0,0,.09.91.36.36,0,0,0,0,.1l0,.11c0-.38,0-.75,0-1.13S121.92,141.43,121.93,141.05Z"/><path class="cls-1" d="M148.82,115.19l-.47,0a1.77,1.77,0,0,0-.32.05l-.26,0c.35,0,.7,0,1,0h0v-.1Z"/><path class="cls-1" d="M149.84,115.29h-.08a2.32,2.32,0,0,0-.38-.06,4.75,4.75,0,0,0-.54,0h0l-.47,0a1.77,1.77,0,0,0-.32.05l-.26,0c.35,0,.7,0,1,0h0c.36,0,.72,0,1.07,0Z"/><path class="cls-1" d="M127.68,161.94h0a1.24,1.24,0,0,0,.18.22A1.84,1.84,0,0,1,127.68,161.94Z"/><path class="cls-1" d="M126.88,160.36s0,0,0,0,0,.06,0,.09Z"/><path class="cls-1" d="M158.58,106.87a36.41,36.41,0,0,0-9.74-1.32h0a36.65,36.65,0,0,0-34.65,48.59,35.74,35.74,0,0,0,5.11,9.73,36.65,36.65,0,1,0,39.3-57ZM150,169.09a4.72,4.72,0,0,1-1.13.13,4.58,4.58,0,0,1-1.12-.13A26.93,26.93,0,0,1,125,154.65c-.1-.17-.18-.34-.26-.51a26.73,26.73,0,0,1-2.78-10.81h0l0-.11a.36.36,0,0,1,0-.1,4.53,4.53,0,0,1-.09-.91,5.5,5.5,0,0,1,.13-1.16,27,27,0,0,1,25.84-25.74l.26,0a1.77,1.77,0,0,1,.32-.05l.47,0h0a4.75,4.75,0,0,1,.54,0,2.32,2.32,0,0,1,.38.06h.08l.07,0a26.3,26.3,0,0,1,8.67,1.82,26.94,26.94,0,0,1,17.13,24,4.89,4.89,0,0,1,0,2.24A26.94,26.94,0,0,1,150,169.09Z"/><path class="cls-1" d="M126.86,160.32s0,0,0,0v0S126.87,160.35,126.86,160.32Z"/><path class="cls-1" d="M127.67,161.94h0a1.84,1.84,0,0,0,.17.22A1.24,1.24,0,0,1,127.67,161.94Z"/><path class="cls-1" d="M173.07,141.19a4.37,4.37,0,0,0-4.27-3.37H153.23V122.23a4.24,4.24,0,0,0-.34-1.68,3.87,3.87,0,0,0-.35-.67l-.11-.16a1.46,1.46,0,0,0-.21-.28,2.18,2.18,0,0,0-.25-.28,4,4,0,0,0-1-.79l-.3-.14-.17-.08-.32-.11a3,3,0,0,0-.32-.09c-.32,0-.64,0-1,0h0c-.32,0-.64,0-.95,0l-.11,0a2.59,2.59,0,0,0-.66.23c-.16.07-.3.15-.46.23a4.31,4.31,0,0,0-2.19,3.51,1.37,1.37,0,0,0,0,.29v15.59H128.69a3.72,3.72,0,0,0-.66.08l-.51.13a4.42,4.42,0,0,0-3,3.12c0,.35,0,.69,0,1s0,.68,0,1h0a1.67,1.67,0,0,1,.05.18l0,0a.43.43,0,0,1,0,.05v0s0,.08,0,.11a2.08,2.08,0,0,0,.12.32l.08.16a1,1,0,0,0,.12.23,1.64,1.64,0,0,0,.14.22,1,1,0,0,0,.09.15l.11.14h0a1,1,0,0,0,.16.2l.29.31a4.17,4.17,0,0,0,1.51.95l.33.11.09,0,.31.07.35.05.45,0h15.58v15.57a4.38,4.38,0,0,0,3.38,4.27c.33,0,.67,0,1,0s.68,0,1,0a4.38,4.38,0,0,0,3.38-4.27V146.6H168.8a4.38,4.38,0,0,0,4.27-3.38c0-.33,0-.68,0-1S173.09,141.53,173.07,141.19Z"/><path class="cls-1" d="M101.76,145.14a4.87,4.87,0,0,1-4.87-4.87V118.93a4.87,4.87,0,1,1,9.74,0v21.34A4.87,4.87,0,0,1,101.76,145.14Z"/><path class="cls-1" d="M79.85,145.14A4.87,4.87,0,0,1,75,140.27V118.93a4.87,4.87,0,0,1,9.74,0v21.34A4.87,4.87,0,0,1,79.85,145.14Z"/><path class="cls-1" d="M57.94,145.14a4.87,4.87,0,0,1-4.87-4.87V118.93a4.87,4.87,0,0,1,9.74,0v21.34A4.87,4.87,0,0,1,57.94,145.14Z"/><path class="cls-1" d="M36,145.14a4.88,4.88,0,0,1-4.87-4.87V118.93a4.87,4.87,0,1,1,9.74,0v21.34A4.87,4.87,0,0,1,36,145.14Z"/><rect class="cls-1" x="148.82" y="154.13" width="0.02" height="0.01"/><rect class="cls-1" x="148.82" y="154.13" width="0.02" height="0.01"/></svg>