<svg id="Layer_1" data-name="Layer 1" xmlns="http://www.w3.org/2000/svg" viewBox="0 0 200 200"><defs><style>.cls-1{fill:#00a3ef;}</style></defs><title>BIZ ICON</title><path class="cls-1" d="M115.45,44.19H22.36a5.5,5.5,0,0,1,0-11h93.09a5.5,5.5,0,0,1,0,11Z"/><path class="cls-1" d="M115.45,74.59H22.36a5.5,5.5,0,0,1,0-11h93.09a5.5,5.5,0,1,1,0,11Z"/><path class="cls-1" d="M115.45,105H22.36a5.5,5.5,0,0,1,0-11h93.09a5.5,5.5,0,0,1,0,11Z"/><path class="cls-1" d="M85.18,135.4H22.36a5.5,5.5,0,1,1,0-11H85.18a5.5,5.5,0,0,1,0,11Z"/><path class="cls-1" d="M177.64,135.4H114.82a5.5,5.5,0,0,1,0-11h62.82a5.5,5.5,0,0,1,0,11Z"/><path class="cls-1" d="M146.23,166.81a5.5,5.5,0,0,1-5.5-5.5V98.49a5.5,5.5,0,1,1,11,0v62.82A5.5,5.5,0,0,1,146.23,166.81Z"/></svg>