<svg id="Layer_1" data-name="Layer 1" xmlns="http://www.w3.org/2000/svg" viewBox="0 0 200 200"><defs><style>.cls-1{fill:#00a3ef;}</style></defs><title>BIZ ICON</title><path class="cls-1" d="M152.41,34.41H47.59A13.18,13.18,0,0,0,34.41,47.59V152.41a13.18,13.18,0,0,0,13.18,13.18h33A5.45,5.45,0,0,0,86,159.72v-.08a5.47,5.47,0,0,0-5.45-5h-33a2.18,2.18,0,0,1-2.18-2.18V47.59a2.18,2.18,0,0,1,2.18-2.18H152.41a2.18,2.18,0,0,1,2.18,2.18V79.86a5.5,5.5,0,0,0,5.5,5.5h0a5.5,5.5,0,0,0,5.5-5.5V47.59A13.18,13.18,0,0,0,152.41,34.41Z"/><path class="cls-1" d="M102.05,127.42a4.91,4.91,0,0,0-.13,1.16,4.53,4.53,0,0,0,.09.91.36.36,0,0,0,0,.1l0,.11c0-.38,0-.75,0-1.13S102,127.8,102.05,127.42ZM156,128.58a4.58,4.58,0,0,0-.13-1.12q0,.55,0,1.11t0,1.14A4.72,4.72,0,0,0,156,128.58Zm-27,26.91c-.38,0-.75,0-1.12,0a4.58,4.58,0,0,0,1.12.13,4.72,4.72,0,0,0,1.13-.13C129.69,155.48,129.32,155.49,128.94,155.49Zm-26.89-28.07a4.91,4.91,0,0,0-.13,1.16,4.53,4.53,0,0,0,.09.91.36.36,0,0,0,0,.1l0,.11c0-.38,0-.75,0-1.13S102,127.8,102.05,127.42Z"/><path class="cls-1" d="M128.94,101.56a3.59,3.59,0,0,0-.47,0,2,2,0,0,0-.33,0l-.25.05,1,0h0v-.1Z"/><path class="cls-1" d="M130,101.67l-.08,0a1.58,1.58,0,0,0-.38-.05,3.19,3.19,0,0,0-.54,0h0a3.59,3.59,0,0,0-.47,0,2,2,0,0,0-.33,0l-.25.05,1,0h0l1.07,0Z"/><path class="cls-1" d="M138.7,93.24A36.41,36.41,0,0,0,129,91.92h0a36.65,36.65,0,0,0-34.65,48.59,36,36,0,0,0,5.11,9.74,36.65,36.65,0,1,0,39.3-57Zm-8.63,62.22a4.72,4.72,0,0,1-1.13.13,4.58,4.58,0,0,1-1.12-.13A26.93,26.93,0,0,1,105.09,141q-.15-.26-.27-.51a26.72,26.72,0,0,1-2.77-10.8h0l0-.11a.36.36,0,0,1,0-.1,4.53,4.53,0,0,1-.09-.91,4.91,4.91,0,0,1,.13-1.16,27,27,0,0,1,25.84-25.74l.25-.05a2,2,0,0,1,.33,0,3.59,3.59,0,0,1,.47,0h0a3.19,3.19,0,0,1,.54,0,1.58,1.58,0,0,1,.38.05l.08,0H130a26.56,26.56,0,0,1,8.67,1.82,26.94,26.94,0,0,1,17.13,24,4.58,4.58,0,0,1,.13,1.12,4.72,4.72,0,0,1-.13,1.13A26.94,26.94,0,0,1,130.07,155.46Z"/><path class="cls-1" d="M153.19,127.57a4.38,4.38,0,0,0-4.27-3.38H133.35v-14.6l0,0v-1a4.45,4.45,0,0,0-.33-1.68,4.27,4.27,0,0,0-.35-.67l-.11-.16a1.46,1.46,0,0,0-.21-.28,2.16,2.16,0,0,0-.25-.27,3.87,3.87,0,0,0-1.05-.79,1.59,1.59,0,0,0-.29-.15l-.17-.08-.32-.11-.33-.09-1,0h0l-1,0-.11,0a2.44,2.44,0,0,0-.66.22l-.46.23a4.33,4.33,0,0,0-2.19,3.51,1.37,1.37,0,0,0,0,.29v15.59H108.81a3.61,3.61,0,0,0-.66.08l-.51.13a4.42,4.42,0,0,0-3,3.12c0,.35,0,.69,0,1s0,.68,0,1h0c0,.07,0,.12,0,.18s0,0,0,0,0,0,0,.05a.08.08,0,0,1,0,0,.3.3,0,0,0,0,.1,2.08,2.08,0,0,0,.12.32l.08.16a1,1,0,0,0,.12.23c0,.08.09.15.13.22l.1.15.1.14h0a1.49,1.49,0,0,0,.15.2c.1.1.19.22.3.31a4.08,4.08,0,0,0,1.51.95l.32.11.09,0,.32.07.35,0,.44,0h15.59v15.57a4.38,4.38,0,0,0,3.38,4.27c.33,0,.67,0,1,0s.68,0,1,0a4.37,4.37,0,0,0,3.37-4.27V133h15.59a4.38,4.38,0,0,0,4.27-3.38q0-.5,0-1C153.22,128.24,153.21,127.9,153.19,127.57Z"/></svg>