<svg id="Layer_1" data-name="Layer 1" xmlns="http://www.w3.org/2000/svg" viewBox="0 0 200 200"><defs><style>.cls-1{fill:#00a3ef;}</style></defs><title>BIZ ICON</title><path class="cls-1" d="M37.82,117.71a4.35,4.35,0,0,0-.11,1,3.74,3.74,0,0,0,.08.75.22.22,0,0,0,0,.08.29.29,0,0,1,0,.09c0-.31,0-.61,0-.93S37.81,118,37.82,117.71Zm44.51,1a4.08,4.08,0,0,0-.11-.93c0,.31,0,.61,0,.92s0,.63,0,.94A4.08,4.08,0,0,0,82.33,118.67ZM60,140.88l-.93,0a4,4,0,0,0,1.86,0Zm-22.2-23.17a4.35,4.35,0,0,0-.11,1,3.74,3.74,0,0,0,.08.75.22.22,0,0,0,0,.08.29.29,0,0,1,0,.09c0-.31,0-.61,0-.93S37.81,118,37.82,117.71Z"/><path class="cls-1" d="M60,96.36v.08h0l-.87,0,.21,0,.27,0,.39,0Z"/><path class="cls-1" d="M60.92,96.46l-.89,0h0l-.87,0,.21,0,.27,0,.39,0h0a3.29,3.29,0,0,1,.45,0,1.77,1.77,0,0,1,.32,0h.12Z"/><path class="cls-1" d="M68.07,89.49a30,30,0,0,0-8-1.09h0a30.26,30.26,0,0,0-28.61,40.11,29.81,29.81,0,0,0,4.22,8A30.25,30.25,0,1,0,68.07,89.49ZM61,140.86a4,4,0,0,1-1.86,0,22.24,22.24,0,0,1-18.76-11.92c-.08-.14-.15-.28-.22-.43a22,22,0,0,1-2.29-8.91h0a.29.29,0,0,0,0-.09.22.22,0,0,1,0-.08,3.74,3.74,0,0,1-.08-.75,4.35,4.35,0,0,1,.11-1A22.26,22.26,0,0,1,59.15,96.46l.21,0,.27,0,.39,0h0a3.29,3.29,0,0,1,.45,0,1.77,1.77,0,0,1,.32,0h.12a22.25,22.25,0,0,1,21.3,21.28,4,4,0,0,1,0,1.86A22.25,22.25,0,0,1,61,140.86Z"/><path class="cls-1" d="M80,117.84a3.62,3.62,0,0,0-3.53-2.79H63.66V102.18a3.59,3.59,0,0,0-.28-1.39,2.89,2.89,0,0,0-.29-.55L63,100.1c-.05-.08-.11-.15-.17-.23a2.18,2.18,0,0,0-.21-.22,3.42,3.42,0,0,0-.86-.65,1.15,1.15,0,0,0-.25-.12l-.13-.07-.27-.09-.27-.07c-.26,0-.52,0-.79,0h0c-.26,0-.53,0-.78,0l-.09,0a2.37,2.37,0,0,0-.55.18l-.38.19a3.57,3.57,0,0,0-1.81,2.9,1.85,1.85,0,0,0,0,.24v12.87h-13a3.35,3.35,0,0,0-.54.08l-.42.1A3.65,3.65,0,0,0,40,117.81c0,.28,0,.57,0,.86s0,.56,0,.83h0a1,1,0,0,1,0,.14s0,0,0,0v0a.05.05,0,0,1,0,0,.19.19,0,0,0,0,.08,1.48,1.48,0,0,0,.1.27l.06.13a1.74,1.74,0,0,0,.1.19l.11.18.08.12.09.12h0a.88.88,0,0,0,.12.17l.24.25a3.41,3.41,0,0,0,1.25.79l.27.09.07,0,.27.06.28,0,.37,0H56.4v12.86a3.61,3.61,0,0,0,2.78,3.52c.28,0,.56,0,.84,0s.56,0,.84,0a3.61,3.61,0,0,0,2.79-3.52V122.3H76.51A3.64,3.64,0,0,0,80,119.51c0-.28,0-.56,0-.84S80.05,118.11,80,117.84Z"/><path class="cls-1" d="M154.58,72.22a56.55,56.55,0,0,0-54.47-41.15c-1.54,0-3.11.07-4.65.19-27.74,2.29-49.13,23-52,50.35a54.74,54.74,0,0,0-.12,7.12c0,1.07.06,2.15.06,3.24v1.42a29.84,29.84,0,0,1,8.19-3.79c0-.36,0-.72,0-1.07a45.2,45.2,0,0,1,3.21-18.48,48.42,48.42,0,0,1,45-30.53,50.16,50.16,0,0,1,16,2.65,47.47,47.47,0,0,1,28.32,64.29c-2.86,6.44-7.16,11.91-11.39,16.86a81.58,81.58,0,0,0-17.51,34.11,1.64,1.64,0,0,1-.09.27,2.87,2.87,0,0,1-.39,0q-8.36,0-16.71,0h-13l-5.7-15.78a30.32,30.32,0,0,1-7.4,4.55,78.76,78.76,0,0,1,6.37,22.13,8.7,8.7,0,0,0,4.55,6.81c.71.37.78.6.71,1.3a8.49,8.49,0,0,0,0,1.33v.24a9.49,9.49,0,0,0,9.62,9.36c2.29,0,4.57,0,6.86,0s4.42,0,6.62,0a9.53,9.53,0,0,0,9.5-8.7,10.67,10.67,0,0,0,0-1.37,6.55,6.55,0,0,1,0-1.2,1.46,1.46,0,0,1,.22-.5,10.15,10.15,0,0,0,5.25-7.89c2.12-14.45,7-26.25,15-36.07l.09-.12c3.15-3.88,6.4-7.9,9.33-12.07C156.41,105.06,159.26,89.08,154.58,72.22ZM107.84,177.88c-.07,1.1-.55,1.33-1.3,1.34q-3.36,0-6.72,0c-2.17,0-4.35,0-6.52,0-.75,0-1.23-.23-1.29-1.31,0-.32,0-.63,0-1h15.86C107.86,177.27,107.86,177.58,107.84,177.88Zm5.38-10.4a2.39,2.39,0,0,1-1.31.92c-3.71.06-7.8.08-12.87.08h-11c-.89,0-1.26-.32-1.41-1.23-.06-.35-.11-.7-.16-1.07h27A3.56,3.56,0,0,1,113.22,167.48Z"/><path class="cls-1" d="M113.58,107.85c7.8-6,11.74-13.07,12.06-21.48.42-11.3-7.2-21.46-18.53-24.71a24.5,24.5,0,0,0-6.78-.94A26.09,26.09,0,0,0,78.09,73.31c-1.06,1.84-1.41,3.37-1,4.68a3.86,3.86,0,0,0,2,2.37,4.11,4.11,0,0,0,2,.56c2,0,3.35-1.74,4.3-3.26,3.51-5.63,8.41-8.48,14.58-8.48.66,0,1.35,0,2,.1a16.08,16.08,0,0,1,14.34,11.07c2.3,6.28.89,12.15-4.18,17.46a47.21,47.21,0,0,1-4.7,4.09c-.82.66-1.65,1.32-2.46,2-4,3.39-8.63,8.22-9.29,15.61a59.31,59.31,0,0,0-.09,6.52c0,.45,0,.9,0,1.35h-.09v9.38c0,.33,0,.66,0,1a4.21,4.21,0,0,0,4.11,4.1h.09a4.15,4.15,0,0,0,4.17-4.27c0-4.93,0-10.15,0-15.5a10.15,10.15,0,0,1,2.27-7.13A56.12,56.12,0,0,1,113.58,107.85Z"/><path class="cls-1" d="M149.4,131.18h-.1c-2.38.06-5.06,2.82-5,5.19a4.2,4.2,0,0,0,4.17,4.14h0a5.18,5.18,0,0,0,3.61-1.75,5,5,0,0,0,1.55-3.55A4.25,4.25,0,0,0,149.4,131.18Z"/><path class="cls-1" d="M164.48,109.06a4.38,4.38,0,0,0-3.1,1.45,5.81,5.81,0,0,0-1.64,4.14,4.18,4.18,0,0,0,4.18,4H164c2.47-.06,4.68-2.66,4.63-5.45A4.23,4.23,0,0,0,164.48,109.06Z"/><path class="cls-1" d="M30,85.31h0c1,0,4.18-.38,4.25-5.13a4.17,4.17,0,0,0-4-4.57h-.13c-2.53,0-4.2,2-4.26,5.05a4.66,4.66,0,0,0,1.23,3.48A4,4,0,0,0,30,85.31Z"/><path class="cls-1" d="M30.16,89.06A4.14,4.14,0,0,0,26,93.36a5.81,5.81,0,0,0,1.45,4.25,3.92,3.92,0,0,0,2.86,1.16h.16a4.24,4.24,0,0,0,4-4.44C34.5,91.13,32.81,89.06,30.16,89.06Z"/><path class="cls-1" d="M168.71,96.24h-.2c-2.53,0-4.36,2.17-4.45,5.29a4.27,4.27,0,0,0,1.15,3.13,4.16,4.16,0,0,0,2.95,1.26h.07c2.61,0,4.46-2.22,4.48-5.39A4.22,4.22,0,0,0,168.71,96.24Z"/><path class="cls-1" d="M76.4,24.69c2.89,0,5.44-2.15,5.47-4.6a4.24,4.24,0,0,0-1.24-3,4.35,4.35,0,0,0-3.1-1.28h0c-3,.08-5.35,2.15-5.32,4.73A4.22,4.22,0,0,0,76.4,24.69Z"/><path class="cls-1" d="M126.42,26A5.9,5.9,0,0,0,130,27.45h.09a4.28,4.28,0,0,0,3-1.29,4.13,4.13,0,0,0,1.21-3c0-2.4-2.68-4.69-5.44-4.7a4.23,4.23,0,0,0-4.19,4.13A4.44,4.44,0,0,0,126.42,26Z"/><path class="cls-1" d="M44.1,48.07h0c2.38,0,5-2.64,5-5.13a4.17,4.17,0,0,0-4-4.29H45a4.93,4.93,0,0,0-3.36,1.62,5.35,5.35,0,0,0-1.7,3.66A4.17,4.17,0,0,0,44.1,48.07Z"/><path class="cls-1" d="M170.09,82.86H170c-2.53,0-4.18,1.94-4.19,4.93a5.07,5.07,0,0,0,1.31,3.69A4,4,0,0,0,170,92.62h0c2.51,0,4.2-2,4.19-5C174.18,84.81,172.53,82.91,170.09,82.86Z"/><path class="cls-1" d="M32.51,62.42h0c-2.57.06-4.48,2.43-4.43,5.52a4.2,4.2,0,0,0,4.16,4.14h0a4.18,4.18,0,0,0,3-1.27,5.85,5.85,0,0,0,1.61-4.16A4.2,4.2,0,0,0,32.51,62.42Z"/><path class="cls-1" d="M139,139.74h-.11c-2.58.06-5.21,2.56-5.21,4.94a4.25,4.25,0,0,0,4.17,4.18h0c2.49,0,5.28-2.54,5.35-4.84a4.09,4.09,0,0,0-1.18-3A4.23,4.23,0,0,0,139,139.74Z"/><path class="cls-1" d="M117.44,22.84h0a4.27,4.27,0,0,0,3.07-1.25,4.17,4.17,0,0,0,1.17-3c0-2.51-2.36-4.41-5.36-4.41h-.18a4.27,4.27,0,0,0-3,1.37,4.11,4.11,0,0,0-1.1,3C112.14,21,114.42,22.84,117.44,22.84Z"/><path class="cls-1" d="M53.31,38.25h0c2.48,0,5.15-2.57,5.18-5a4.15,4.15,0,0,0-4-4.25h-.11a5.41,5.41,0,0,0-3.67,1.75,4.91,4.91,0,0,0-1.56,3.38A4.22,4.22,0,0,0,53.31,38.25Z"/><path class="cls-1" d="M159.81,54.08h.05A4.21,4.21,0,0,0,164,49.92c0-2.63-2.5-5.31-5-5.31h-.12a4.12,4.12,0,0,0-4,4.27C155,51.5,157.41,54.08,159.81,54.08Z"/><path class="cls-1" d="M164.72,73.58a6,6,0,0,0,1.43,4.33A4,4,0,0,0,169,79.2h.12A4.21,4.21,0,0,0,173.28,75a5.8,5.8,0,0,0-1.44-4.27,4,4,0,0,0-3-1.21A4.1,4.1,0,0,0,164.72,73.58Z"/><path class="cls-1" d="M89.61,21.4h.08C92.88,21.35,95,19.58,95,17a4.21,4.21,0,0,0-4.42-4.13h-.14a5.68,5.68,0,0,0-4.09,1.54,3.94,3.94,0,0,0-1.06,3A4.14,4.14,0,0,0,89.61,21.4Z"/><path class="cls-1" d="M64,30.37h.16a5.76,5.76,0,0,0,3.91-1.78,4.49,4.49,0,0,0,1.44-3.12,4.15,4.15,0,0,0-4.17-4.14c-2.68,0-5.28,2.3-5.35,4.73A4.21,4.21,0,0,0,64,30.37Z"/><path class="cls-1" d="M141.63,34.39h.08a4.18,4.18,0,0,0,3-1.29,4.27,4.27,0,0,0,1.2-3.05c-.07-2.27-2.89-4.86-5.35-4.86a4.2,4.2,0,0,0-4.11,4.21C136.44,31.73,139.16,34.34,141.63,34.39Z"/><path class="cls-1" d="M161.05,60.52a5.83,5.83,0,0,0,1.54,4.23,4.25,4.25,0,0,0,3.07,1.42h0a4.16,4.16,0,0,0,4.17-4.09c.07-2.9-2-5.43-4.49-5.53h-.17A4.15,4.15,0,0,0,161.05,60.52Z"/><path class="cls-1" d="M158,120.89a4.8,4.8,0,0,0-3.29,1.6,5.5,5.5,0,0,0-1.68,3.79,4.31,4.31,0,0,0,4.23,4.08h0c2.39,0,4.86-2.67,4.89-5.27A4.15,4.15,0,0,0,158,120.89Z"/><path class="cls-1" d="M37.65,49.94a4.49,4.49,0,0,0-3.18,1.48,5.69,5.69,0,0,0-1.62,4,4.15,4.15,0,0,0,4.18,4h.09c2.42,0,4.72-2.66,4.73-5.37A4.25,4.25,0,0,0,37.65,49.94Z"/><path class="cls-1" d="M103.63,20.75h.12c2.7,0,4.58-1.61,4.67-4a3.93,3.93,0,0,0-1-2.94,5.47,5.47,0,0,0-4.08-1.46c-2.76,0-4.56,1.63-4.57,4.15S100.54,20.7,103.63,20.75Z"/><path class="cls-1" d="M151.72,43.34h0a4.19,4.19,0,0,0,4.17-4.14A5.88,5.88,0,0,0,150.79,34a4.18,4.18,0,0,0-4.18,4,5.15,5.15,0,0,0,1.58,3.62A5.06,5.06,0,0,0,151.72,43.34Z"/><path class="cls-1" d="M100.06,144.26H99.9a4.11,4.11,0,0,0-4.16,4,4.19,4.19,0,0,0,1.15,3.11,4.12,4.12,0,0,0,3,1.28h0a4.18,4.18,0,0,0,.15-8.36Z"/></svg>