<svg id="Layer_1" data-name="Layer 1" xmlns="http://www.w3.org/2000/svg" viewBox="0 0 200 200"><defs><style>.cls-1{fill:#00a3ef;}</style></defs><title>BIZ ICON</title><path class="cls-1" d="M140.69,127.68a1.77,1.77,0,0,0-.33,0,1,1,0,0,0-.24,0,1.13,1.13,0,0,0-.18,0h.76v-.07ZM121.62,146a3.68,3.68,0,0,0-.09.82,2.81,2.81,0,0,0,.06.65s0,0,0,.07l0,.07c0-.26,0-.53,0-.8S121.61,146.29,121.62,146Zm38.23.82a3.5,3.5,0,0,0-.09-.8c0,.27,0,.53,0,.79s0,.54,0,.81A3.5,3.5,0,0,0,159.85,146.84Zm-18.44-19.09h0l-.27,0a2.48,2.48,0,0,0-.39,0h0a1.77,1.77,0,0,0-.33,0,1,1,0,0,0-.24,0,1.13,1.13,0,0,0-.18,0h1.47Zm-.72,38.17c-.27,0-.53,0-.8,0a3.25,3.25,0,0,0,1.6,0C141.22,165.92,141,165.92,140.69,165.92Zm-15-5.09h0a.61.61,0,0,0,.12.16A.91.91,0,0,1,125.7,160.83Zm-.58-1.12s0,0,0,0a.64.64,0,0,0,0,.07S125.12,159.73,125.12,159.71ZM121.62,146a3.68,3.68,0,0,0-.09.82,2.81,2.81,0,0,0,.06.65s0,0,0,.07l0,.07c0-.26,0-.53,0-.8S121.61,146.29,121.62,146Z"/><path class="cls-1" d="M147.61,121.77a25.84,25.84,0,0,0-6.91-.93h0a26,26,0,1,0,6.92.93Zm-22.5,37.91s0,0,0,0,0,0,0,0A.64.64,0,0,1,125.11,159.68Zm.58,1.15h0a.91.91,0,0,0,.11.16A.61.61,0,0,1,125.69,160.83Zm15.8,5.07a3.25,3.25,0,0,1-1.6,0,19.11,19.11,0,0,1-16.12-10.24,3,3,0,0,1-.18-.36,18.84,18.84,0,0,1-2-7.66h0l0-.07s0-.05,0-.07a2.81,2.81,0,0,1-.06-.65,3.68,3.68,0,0,1,.09-.82,19.12,19.12,0,0,1,18.32-18.26,1.13,1.13,0,0,1,.18,0,1,1,0,0,1,.24,0,1.77,1.77,0,0,1,.33,0h0a2.48,2.48,0,0,1,.39,0l.27,0h.1A19.11,19.11,0,0,1,159.76,146a3.6,3.6,0,0,1,0,1.6A19.1,19.1,0,0,1,141.49,165.9Z"/><path class="cls-1" d="M157.89,146.12a3.11,3.11,0,0,0-3-2.4h-11V133.37h0v-.69a3.11,3.11,0,0,0-.23-1.19,2.34,2.34,0,0,0-.25-.47.83.83,0,0,0-.08-.12,1,1,0,0,0-.15-.2,1.54,1.54,0,0,0-.17-.19,2.72,2.72,0,0,0-.75-.56,1,1,0,0,0-.21-.11l-.11-.05-.23-.08a.86.86,0,0,0-.23-.06c-.23,0-.46,0-.69,0h0c-.23,0-.45,0-.67,0h-.08a2.16,2.16,0,0,0-.47.16,3.41,3.41,0,0,0-.33.17,3,3,0,0,0-1.55,2.48,1.48,1.48,0,0,0,0,.21v11.05H126.41a3.78,3.78,0,0,0-.47.06c-.12,0-.23.07-.36.09a3.14,3.14,0,0,0-2.09,2.22c0,.24,0,.48,0,.73s0,.49,0,.72h0a.56.56,0,0,0,0,.12,0,0,0,0,0,0,0v0a0,0,0,0,1,0,0l0,.07a.92.92,0,0,0,.09.23.37.37,0,0,0,0,.11.91.91,0,0,0,.09.17l.09.16.07.1.08.1h0a.76.76,0,0,0,.11.14l.21.22a2.92,2.92,0,0,0,1.07.68l.23.08h.06l.23.05.24,0h11.38v11a3.09,3.09,0,0,0,2.39,3l.72,0,.72,0a3.09,3.09,0,0,0,2.39-3V150h11.06a3.11,3.11,0,0,0,3-2.39c0-.24,0-.48,0-.73S157.9,146.36,157.89,146.12Zm-17.19,8.35h0Z"/><path class="cls-1" d="M135.26,126.86a1.83,1.83,0,0,0-.33,0,.85.85,0,0,0-.23,0,.84.84,0,0,0-.18,0h.76v-.07ZM116.19,145.2a3.68,3.68,0,0,0-.09.82,3.49,3.49,0,0,0,.06.65s0,0,0,.07l0,.07c0-.26,0-.53,0-.8S116.18,145.47,116.19,145.2Zm38.24.82a3,3,0,0,0-.1-.8c0,.27,0,.53,0,.79s0,.54,0,.81A3,3,0,0,0,154.43,146ZM136,126.93h0l-.27,0a2.42,2.42,0,0,0-.38,0h0a1.83,1.83,0,0,0-.33,0,.85.85,0,0,0-.23,0,.84.84,0,0,0-.18,0H136Zm-.72,38.17c-.27,0-.53,0-.79,0a3,3,0,0,0,.79.1,3,3,0,0,0,.8-.1C135.8,165.1,135.53,165.1,135.26,165.1Zm-15-5.09h0a.65.65,0,0,0,.13.16A.61.61,0,0,1,120.27,160Zm-.57-1.12,0,0a.64.64,0,0,0,0,.07Zm-3.51-13.69a3.68,3.68,0,0,0-.09.82,3.49,3.49,0,0,0,.06.65s0,0,0,.07l0,.07c0-.26,0-.53,0-.8S116.18,145.47,116.19,145.2Z"/><path class="cls-1" d="M130.48,56.66c0,1.43,0,2.87-.1,4.26l0,.72A61.39,61.39,0,0,1,128.26,74a2.67,2.67,0,0,0-.08.58,2.07,2.07,0,0,0,.28,1,12.5,12.5,0,0,1,1.49,6,16.38,16.38,0,0,1-.55,4,17.43,17.43,0,0,1-4.87,8.83,5.17,5.17,0,0,0-1,2,38.53,38.53,0,0,1-6,12.16c0,3.08.07,6.21.14,9.34a3.5,3.5,0,0,0,1.39,2.72l.21.18a3.28,3.28,0,0,1,1.21,1.61,33.83,33.83,0,0,0-5.35,6.68,2.58,2.58,0,0,1-1.58-.66,20.83,20.83,0,0,1-4.16-5,9.27,9.27,0,0,1-1.4-5c0-2.6-.07-5.23-.13-7.75v-.29q-.06-2.15-.09-4.29a2.94,2.94,0,0,1,.88-2.21c3.11-2.77,5-6.55,6.13-12.27l.07-.34c.13-.67.29-1.43.38-2.14a2.29,2.29,0,0,1,2.28-2.12c1,0,1.71-.39,2.21-2.23.24-.93.42-1.92.58-2.87l0-.1a2.5,2.5,0,0,0,0-.47,1.91,1.91,0,0,0-.86-1.6,3.81,3.81,0,0,1-1.73-3.14,6,6,0,0,1,.34-1.84,58.37,58.37,0,0,0,2.92-15.69c0-.49,0-1,0-1.43a24.09,24.09,0,0,0-1.41-8.74c-1.39-3.7-4.06-5.84-8.18-6.57a6.06,6.06,0,0,1-4.14-2.48c-1-1.44-2.63-2.26-5-2.56a42.76,42.76,0,0,0-5.61-.38,30.56,30.56,0,0,0-9.8,1.5A16.67,16.67,0,0,0,75.92,49a25.15,25.15,0,0,0-1.22,7.12c0,.74-.06,1.51-.06,2.27a76.61,76.61,0,0,0,2.49,17.33,4.51,4.51,0,0,1,.14,1,2.84,2.84,0,0,1-1.34,2.43,2.65,2.65,0,0,0-1.3,2.31,4.27,4.27,0,0,0,.16,1.13c.22.87.53,1.77.83,2.62l.24.74c.07.2.16.47,1.07.65,2.16.44,2.7,1,3,3.16a28.23,28.23,0,0,0,2.66,8.67,13.45,13.45,0,0,0,3.74,4.92,2.83,2.83,0,0,1,1,2.18c0,1.79-.06,3.55-.11,5.32v.15c0,2.43-.11,4.85-.13,7.28,0,3.67-2,6.31-3.75,8.19a27.59,27.59,0,0,1-9.47,6.22c-2.66,1.2-5.39,2.36-8,3.47-2,.83-3.88,1.65-5.79,2.48a38,38,0,0,0-10.76,6.42,18.61,18.61,0,0,0-5.53,8.72H63q23.61,0,47.24,0a4.75,4.75,0,0,1,.78.06,30.64,30.64,0,0,0,1,3.73,33,33,0,0,0,2.5,5.55H33.31l.09-1.72c0-.37,0-.74,0-1.11.05-.85.08-1.67.14-2.49.86-10.55,6-18.61,15.12-24A110.08,110.08,0,0,1,61.14,128l3.22-1.37c2.82-1.23,5.65-2.63,8.39-4L74,122a9,9,0,0,0,1.59-1.11l.2-.16A4.75,4.75,0,0,0,77.67,117c0-1.61.12-3.21.2-4.81,0-1.1.11-2.21.15-3.3-3.5-4-5.28-8.83-6.45-12.62a5.73,5.73,0,0,0-1.67-2.64c-2.36-2.17-3.77-5-4.45-9.09a18.67,18.67,0,0,1-.27-3.07,12.43,12.43,0,0,1,1.89-6.84,67,67,0,0,1-1.86-15.79c0-1.76.07-3.55.2-5.33.84-11,6.18-18.81,15.87-23.23a36,36,0,0,1,15.08-3.06h.56a32.75,32.75,0,0,1,10.5,1.43A16.41,16.41,0,0,1,113,31.79a8.4,8.4,0,0,0,3,1.67c7.07,2.31,11.65,7.35,13.62,15A32.27,32.27,0,0,1,130.48,56.66Z"/></svg>