<svg id="Layer_1" data-name="Layer 1" xmlns="http://www.w3.org/2000/svg" viewBox="0 0 200 200"><defs><style>.cls-1{fill:#00a3ef;}</style></defs><title>BIZ ICON</title><path class="cls-1" d="M92.79,30.16c2.72.44,5.5.68,8.16,1.35,22.52,5.68,36.71,19.84,42.54,42.29a53.25,53.25,0,0,1,1.09,19c-.05.49-.18,1-.25,1.37L134,93c0-2.33,0-4.76,0-7.18a45.08,45.08,0,0,0-34.49-43.5C74.64,36.23,49.23,52.77,44.71,77.86c-2,10.94.06,21.1,5.07,30.84,5.75,11.18,13.39,21,22,30.05,5,5.28,10.33,10.23,15.52,15.32.51.51,1.08,1,1.69,1.49L93.05,152,98.3,162c-2.86,2.37-5.84,4.88-8.88,7.32-.23.18-1,0-1.34-.32-3.54-3-7.14-5.92-10.54-9.06-11.8-10.87-22.66-22.6-31.48-36.07-5.44-8.29-10.07-17-11.94-26.83-3.14-16.52.38-31.62,10.56-45A54.57,54.57,0,0,1,77.38,31.4c2.56-.56,5.18-.83,7.77-1.24Z"/><path class="cls-1" d="M101.52,137a32.74,32.74,0,1,1,32.6,32.84A32.78,32.78,0,0,1,101.52,137Zm21.35,18.6a21.62,21.62,0,0,0,28-4.39c7.28-8.53,6-20,1.79-25.41Zm22-37.38c-6.59-4.27-18.27-4.48-26.2,3.66s-7.38,19.57-3.29,25.72Z"/><path class="cls-1" d="M114.88,86a25.92,25.92,0,1,1-26-25.87A26,26,0,0,1,114.88,86Zm-10.91,0a15,15,0,1,0-15,15A15,15,0,0,0,104,86.06Z"/></svg>