<svg width="20" height="19" viewBox="0 0 20 19" fill="none" xmlns="http://www.w3.org/2000/svg">
<path d="M9 11.5C3.08 11.5 0 15 0 17V18H18V17C18 15 14.92 11.5 9 11.5Z" fill="#BDBDBD"/>
<path d="M9 10C11.7614 10 14 7.76142 14 5C14 2.23858 11.7614 0 9 0C6.23858 0 4 2.23858 4 5C4 7.76142 6.23858 10 9 10Z" fill="#BDBDBD"/>
<circle cx="17" cy="16" r="2" fill="white"/>
<path d="M19.1374 13.8753C17.9674 12.7082 16.0475 12.7082 14.8775 13.8753C13.7075 15.0424 13.7075 16.9576 14.8775 18.1247C16.0475 19.2918 17.9374 19.2918 19.1074 18.1247C20.2773 16.9576 20.3073 15.0424 19.1374 13.8753V13.8753ZM17.8474 17.2569L17.0074 16.419L16.1674 17.2569L15.7475 16.8379L16.5874 16L15.7475 15.1621L16.1674 14.7431L17.0074 15.581L17.8474 14.7431L18.2674 15.1621L17.4274 16L18.2674 16.8379L17.8474 17.2569V17.2569Z" fill="#DA5C5C"/>
</svg>
