<svg id="Layer_1" data-name="Layer 1" xmlns="http://www.w3.org/2000/svg" viewBox="0 0 200 200"><defs><style>.cls-1{fill:#00a3ef;}.cls-2{fill:#28292b;}</style></defs><title>Enrollers icon other </title><path class="cls-1" d="M109.24,58.75a4.83,4.83,0,0,0-.13,1.15h0a4,4,0,0,0,.09.91s0,.06,0,.09l0,.11c0-.37,0-.74,0-1.12S109.22,59.13,109.24,58.75Zm53.91,1.16a4.66,4.66,0,0,0-.13-1.13c0,.37,0,.74,0,1.12s0,.76,0,1.13A4.64,4.64,0,0,0,163.15,59.91Zm-27,26.9c-.38,0-.75,0-1.13,0a4.73,4.73,0,0,0,1.13.14,4.58,4.58,0,0,0,1.12-.14C136.88,86.8,136.51,86.81,136.13,86.81ZM109.24,58.75a4.83,4.83,0,0,0-.13,1.15h0a4,4,0,0,0,.09.91s0,.06,0,.09l0,.11c0-.37,0-.74,0-1.12S109.22,59.13,109.24,58.75Z"/><path class="cls-1" d="M136.15,32.88V33h0c-.35,0-.71,0-1,0a1,1,0,0,1,.25-.06l.33,0a3.59,3.59,0,0,1,.47,0Z"/><path class="cls-1" d="M137.22,33c-.36,0-.71,0-1.07,0h0c-.35,0-.71,0-1,0a1,1,0,0,1,.25-.06l.33,0a3.59,3.59,0,0,1,.47,0h0a3.27,3.27,0,0,1,.54,0l.38,0,.08,0Z"/><path class="cls-1" d="M145.89,24.56a36.41,36.41,0,0,0-9.74-1.32h0A36.64,36.64,0,0,0,99.48,59.9a36.66,36.66,0,0,0,7.1,21.67A37,37,0,0,0,113.84,89a36.38,36.38,0,0,0,21.75,7.56h.54a36.66,36.66,0,0,0,9.76-72Zm.17,60.34a26.42,26.42,0,0,1-8.81,1.88,4.58,4.58,0,0,1-1.12.14,4.73,4.73,0,0,1-1.13-.14,27,27,0,0,1-22.72-14.44,4.11,4.11,0,0,1-.27-.51A26.63,26.63,0,0,1,109.24,61h0l0-.11s0-.06,0-.09a4,4,0,0,1-.09-.91h0a4.83,4.83,0,0,1,.13-1.15,26.58,26.58,0,0,1,2.09-9.28A26.92,26.92,0,0,1,135.08,33a1,1,0,0,1,.25-.06l.33,0a3.59,3.59,0,0,1,.47,0h0a3.27,3.27,0,0,1,.54,0l.38,0,.08,0,.07,0a26.35,26.35,0,0,1,8.67,1.81,26.94,26.94,0,0,1,17.13,24A4.93,4.93,0,0,1,163,61,26.94,26.94,0,0,1,146.06,84.9Z"/><path class="cls-1" d="M109.11,59.9h.1c0-.39,0-.77,0-1.15A4.83,4.83,0,0,0,109.11,59.9Zm27,26.91c-.38,0-.75,0-1.13,0a4.73,4.73,0,0,0,1.13.14,4.58,4.58,0,0,0,1.12-.14C136.88,86.8,136.51,86.81,136.13,86.81Zm0,9.74h-.54a32.68,32.68,0,0,1-1,6.38c-1.64,5.79-7.87,8.88-13.8,7.87a12.54,12.54,0,0,1-10.68-11.87c-.13-3.2,0-6.42,0-9.94h3.78a37,37,0,0,1-7.26-7.41,36.66,36.66,0,0,1-7.1-21.67A36.68,36.68,0,0,1,101,49.47q-23.89,0-47.77,0a12.51,12.51,0,0,0-11.84,7c-4.19,7.73-8.53,15.39-12.67,23.15a11.66,11.66,0,0,0-1.38,4.89c-.18,4.74-.07,9.5,0,14.25a23.86,23.86,0,0,0,4.48,13.27,10.49,10.49,0,0,1,1.78,5.31c.13,17,.07,34.06.08,51.1,0,8.42,3.58,12,12.09,12q20.5,0,41,0h40c9.75,0,13-3.19,13-12.83,0-16.57-.06-33.14.09-49.71,0-2,1.08-4.06,1.83-6,1.34-3.53,3.49-6.91,4-10.55a51.32,51.32,0,0,0,.52-6.21A36.65,36.65,0,0,1,136.13,96.55ZM78.25,59.91c5.19,0,10.15-.06,15.1.06a2.56,2.56,0,0,1,2,1.36c1.12,5.51,2.07,11.06,3.13,16.92H74.93C76.05,72.05,77.13,66.1,78.25,59.91ZM73.88,89.1H99.73c-.19,4.07,0,8-.65,11.82A12.47,12.47,0,0,1,85.68,111,12.72,12.72,0,0,1,73.9,98.63C73.79,95.53,73.88,92.43,73.88,89.1ZM48.34,65.3c1.87-4.39,4.62-6.07,9.33-5.47,3.16.4,6.41.07,10,.07-1.19,6.4-2.29,12.38-3.41,18.4H41.39C43.86,73.74,46.47,69.68,48.34,65.3Zm-10.62,33c-.08-3,0-6,0-9.2H63.17c0,3.88.42,7.6-.09,11.18A12.57,12.57,0,0,1,49.85,111,12.79,12.79,0,0,1,37.72,98.27Zm59.55,71.52h-21V137.45h21Zm31.73,0H108.09c0-1.15-.15-2.36-.15-3.58,0-10.31,0-20.62,0-30.94,0-6.3-2.26-8.52-8.66-8.54q-12.69,0-25.38,0c-6.21,0-8.36,2.17-8.37,8.37,0,10.2,0,20.39,0,30.59v4.05H44.31v-49c9.41,1.9,17.5-.4,24.26-7.8,4.88,5.36,10.81,8.46,18,8.47a23.33,23.33,0,0,0,18-8.26c7.56,6.77,9.17,8.54,24.46,7.2Z"/><circle class="cls-2" cx="136.12" cy="59.9" r="17.19"/></svg>