<svg id="Layer_1" data-name="Layer 1" xmlns="http://www.w3.org/2000/svg" viewBox="0 0 200 200"><defs><style>.cls-1{fill:#00a3ef;}.cls-2{fill:#28292b;}</style></defs><title>Enrollers icon other </title><path class="cls-1" d="M128.47,72.89a4.58,4.58,0,0,0-.13,1.12h0a3.84,3.84,0,0,0,.09.89s0,.06,0,.09l0,.1c0-.36,0-.72,0-1.09S128.45,73.26,128.47,72.89ZM181.13,74a4.42,4.42,0,0,0-.13-1.1c0,.36,0,.72,0,1.09s0,.74,0,1.1A4.4,4.4,0,0,0,181.13,74Zm-26.4,26.28c-.37,0-.73,0-1.1,0a5,5,0,0,0,1.1.13,4.94,4.94,0,0,0,1.1-.13C155.47,100.29,155.11,100.3,154.73,100.3ZM128.47,72.89a4.58,4.58,0,0,0-.13,1.12h0a3.84,3.84,0,0,0,.09.89s0,.06,0,.09l0,.1c0-.36,0-.72,0-1.09S128.45,73.26,128.47,72.89Z"/><path class="cls-1" d="M154.75,47.61v.1h0c-.34,0-.69,0-1,0a.94.94,0,0,1,.24-.06l.32,0a3.55,3.55,0,0,1,.46,0Z"/><path class="cls-1" d="M155.8,47.74c-.35,0-.69,0-1.05,0h0c-.34,0-.69,0-1,0a.94.94,0,0,1,.24-.06l.32,0a3.55,3.55,0,0,1,.46,0h0a3.15,3.15,0,0,1,.53,0l.37.05.08,0Z"/><path class="cls-1" d="M164.27,39.49a35.57,35.57,0,0,0-9.52-1.29h0A35.81,35.81,0,0,0,118.93,74a35.92,35.92,0,0,0,6.94,21.17,36.3,36.3,0,0,0,7.09,7.24,35.58,35.58,0,0,0,21.25,7.38h.52a35.81,35.81,0,0,0,9.54-70.32Zm.16,58.94a25.66,25.66,0,0,1-8.6,1.84,4.94,4.94,0,0,1-1.1.13,5,5,0,0,1-1.1-.13,26.16,26.16,0,0,1-17.94-8.17,25.75,25.75,0,0,1-4.25-5.94,4,4,0,0,1-.27-.5,25.93,25.93,0,0,1-2.7-10.55h0l0-.1s0-.06,0-.09a3.84,3.84,0,0,1-.09-.89h0a4.58,4.58,0,0,1,.13-1.12,25.83,25.83,0,0,1,2-9.07,26.3,26.3,0,0,1,23.2-16.08.94.94,0,0,1,.24-.06l.32,0a3.55,3.55,0,0,1,.46,0h0a3.15,3.15,0,0,1,.53,0l.37.05.08,0,.07,0a25.7,25.7,0,0,1,8.47,1.77A26.32,26.32,0,0,1,181,72.92a4.68,4.68,0,0,1,0,2.19A26.32,26.32,0,0,1,164.43,98.43Z"/><circle class="cls-2" cx="154.73" cy="74.01" r="16.79"/><path class="cls-1" d="M18.81,87.75c3.18.58,6.33,1.13,9.48,1.71v57.22H18.81Z"/><path class="cls-1" d="M181.32,105.51v41.17h-10V111.44a49.37,49.37,0,0,0,9.16-5.37C180.7,105.9,180.94,105.76,181.32,105.51Z"/><path class="cls-1" d="M114,76.69H34.21a5.92,5.92,0,0,0-5.92,5.92V98.7q-4.12-.77-8.27-1.48c-1-.18-1.26-.51-1.24-1.59.06-4.76-.15-9.56-.1-14.33A14.6,14.6,0,0,1,33.35,66.6q39.78-.07,79.56,0c.43,0,.87,0,1.35.08A50.72,50.72,0,0,0,114,76.69Z"/><path class="cls-1" d="M179.81,165c-2.81,5.21-7.22,8.06-13.13,8.06q-66.65.08-133.3,0a14.62,14.62,0,0,1-14.7-14.52c0-2.13.13-11.12.13-13.41h9.48v12.19a5.92,5.92,0,0,0,5.92,5.92H165.4a5.92,5.92,0,0,0,5.92-5.92V146.68l10-.21C181.32,150.91,182,160.92,179.81,165Z"/><path class="cls-1" d="M115.44,60.25c0-3.26,0-6.52,0-9.77a8.75,8.75,0,0,0-2-6.07,8.08,8.08,0,0,0-6.24-3c-4.72,0-9.44,0-14.15,0a8.42,8.42,0,0,0-8.4,8.48c0,3.42,0,6.84,0,10.51-2.8,0-5.5,0-8.2,0-.24,0-.66-.58-.66-.89,0-6.2-.19-12.41.08-18.61.22-5.06,4.35-8.62,9.45-8.63q14.74,0,29.49,0a9.4,9.4,0,0,1,9.54,9.38A10.74,10.74,0,0,1,122.08,49c-2.33,3.16-3.89,6.87-5.77,10.35-.18.33-.32.68-.48,1Z"/><path class="cls-1" d="M100,141.16a5.5,5.5,0,0,1-1.6-10.77L145.66,116a5.5,5.5,0,0,1,3.2,10.53L101.6,140.92A5.54,5.54,0,0,1,100,141.16Z"/><path class="cls-1" d="M100.05,141.16a5.54,5.54,0,0,1-1.6-.24L51.19,126.53A5.5,5.5,0,0,1,54.39,116l47.26,14.39a5.5,5.5,0,0,1-1.6,10.77Z"/></svg>