<?xml version="1.0" encoding="utf-8"?>
<!-- Generator: Adobe Illustrator 24.0.0, SVG Export Plug-In . SVG Version: 6.00 Build 0)  -->
<svg version="1.1" id="Layer_1" xmlns="http://www.w3.org/2000/svg" xmlns:xlink="http://www.w3.org/1999/xlink" x="0px" y="0px"
	 viewBox="0 0 200 200" style="enable-background:new 0 0 200 200;" xml:space="preserve">
<style type="text/css">
	.st0{fill:#00A3EF;}
	.st1{fill:#18F763;}
	.st2{fill:#28292B;}
	.st3{fill:none;stroke:#E4F000;stroke-miterlimit:10;}
	.st4{fill:#FFFFFF;}
</style>
<g>
	<path class="st4" d="M191.7,7.6c-1.5-0.7-4.3,0.2-5.8,1.4c-0.6,0.5-1.3,1-1.8,1.6c-4.7,4.6-9.3,9.2-13.8,13.8
		c-0.8,0.8-1.4,0.8-2.5,0.6c-3.9-0.6-7.7-1.3-11.6-1.7c-13.7-1.6-27.4-3.2-41-4.7c-2.4-0.3-4.7-0.6-7.1-0.8
		c-4.9-0.3-9.6,1.5-13.1,4.9c-26.7,26.7-53.4,53.4-80.2,80.2c-5.6,5.6-6.5,13.8-2.7,20.6c1.7,3.1,64.3,65,65.6,66
		c6.8,5.1,15.9,3.6,21.8-2.2c8.1-8.2,16.3-16.3,24.5-24.5c18.3-18.4,36.7-36.7,55.1-55c3.6-3.6,5.6-7.7,5.4-12.8
		c-0.1-2.6-0.5-5.3-0.8-7.9c-1.4-12.5-2.8-25.1-4.2-37.6c-0.5-4.7-1.1-7.9-1.9-13.9c-0.3-2.1-0.1-3.1,1.2-4.5
		c4.9-4.8,9.7-9.6,14.5-14.5C196.3,13.6,195.6,9.5,191.7,7.6z M91.7,179.7c-0.8,0.8-1.9,1.5-3.1,1.8c-3.4,0.9-4.8-0.8-6.2-2.3
		l-59.3-59.3c-2.7-2.7-2.7-7.1,0-9.9c3.5-3.4,6.9-6.9,10.2-10.3c23.1,23.1,46.1,46.1,69.1,69.1C98.9,172.4,95.4,176.1,91.7,179.7z
		 M171.5,100c-4.1,4.1-60.8,60.9-60.8,60.9L41.5,91.6c0,0,40.5-40.4,60-60c2.2-2.2,4.4-3.1,7.5-2.8c16.8,2,33.7,3.8,51,5.7
		c-0.6,0.7-1,1.1-1.4,1.5c-1.8,1.8-7.2,7.2-10.4,10.5c3.3,1.6,6,4.3,7.6,7.6c4.1-4,9.3-9.3,11.9-12c0.3,2.7,0.6,5,0.9,7.3
		c1.7,15,3.3,30,5,45C173.8,96.7,173.1,98.5,171.5,100z"/>
	<path class="st4" d="M88,120.3c-0.6,0.1-1.2,0.1-1.8-0.1c-1.7-0.4-3.2-1.7-3.9-3.3c-0.4-0.9-0.5-2-0.3-2.9c0.4-1.9,1.8-3.1,3.1-4.4
		c1.6-1.6,3.1-3.1,4.7-4.7c3.1-3.1,6.3-6.3,9.4-9.4c3.1-3.1,6.3-6.3,9.4-9.4c1.6-1.6,3.2-3.2,4.8-4.7c1-1,2.4-1.9,3.8-2.2
		c2.1-0.6,4.3,0.5,5.4,2.4c1.2,2,1.1,4-0.1,6c-0.4,0.5-0.8,1-1.3,1.5c-9.8,9.8-19.6,19.6-29.3,29.3C90.8,119.2,89.5,120.1,88,120.3z
		"/>
	<path class="st4" d="M95,55.8c2.2,0.1,3.8,1,4.8,3c1.3,2.6,0.3,5-1.6,6.9C88.5,75.4,78.3,84.9,68.9,95c-1.5,1.5-3.2,2.6-5.5,2.2
		c-4-0.7-5.9-5.2-3.5-8.5c0.4-0.5,0.8-0.9,1.2-1.3c9.8-9.8,19.6-19.6,29.3-29.3C91.8,56.7,93.1,55.7,95,55.8z"/>
	<path class="st4" d="M144.7,103.3c2,1.7,2.3,4.7,1,7c-0.3,0.4-0.7,0.9-1,1.2c-10.1,10.2-20,20.3-30.2,30.4
		c-2.4,2.3-5.6,2.4-7.8,0.2c-2.2-2.2-2.2-5.5,0.2-7.9c9.7-9.7,19.4-19.4,29.1-29.1c0.4-0.4,0.8-0.8,1.3-1.3c1.7-1.7,3.8-2.3,6.1-1.3
		C143.8,102.7,144.2,103,144.7,103.3z"/>
</g>
<path class="st4" d="M156.4,55.7c-0.2-0.5-0.4-1-0.6-1.5c-1.6-3.3-4.3-6-7.6-7.6c-1.7-0.8-3.6-1.4-5.6-1.5c-0.5,0-0.9-0.1-1.4-0.1
	c-5,0-9.5,2.3-12.5,5.9c-0.3,0.3-0.5,0.7-0.8,1c-0.1,0.2-0.2,0.3-0.3,0.5c-0.1,0.2-0.3,0.4-0.4,0.6c-0.1,0.2-0.3,0.5-0.4,0.7
	c-0.1,0.2-0.3,0.5-0.4,0.7c-0.4,1-0.8,2-1.1,3.1c-0.1,0.3-0.1,0.5-0.2,0.8c0,0.3-0.1,0.6-0.1,0.8c0,0,0,0.1,0,0.1
	c-0.1,0.6-0.1,1.2-0.1,1.8c0,0.1,0,0.3,0,0.4v0.1c0,0.1,0,0.2,0,0.3c0,0.1,0,0.2,0,0.3c0,0.1,0,0.3,0,0.4c0,0.1,0,0.2,0,0.4
	c0,0.3,0.1,0.6,0.1,0.9c0,0.1,0,0.1,0,0.2c0,0.2,0.1,0.5,0.1,0.7c0.1,0.2,0.1,0.4,0.1,0.6c0.1,0.2,0.1,0.4,0.2,0.6
	c0.1,0.2,0.1,0.4,0.2,0.6c0.1,0.4,0.3,0.7,0.4,1.1c0.1,0.2,0.2,0.4,0.2,0.5c0,0.1,0.1,0.1,0.1,0.2c0.1,0.2,0.2,0.3,0.3,0.5
	c0,0,0,0.1,0,0.1c0,0,0,0,0,0c0.2,0.4,0.5,0.8,0.7,1.2c0.2,0.3,0.4,0.6,0.7,1c0.5,0.7,1.1,1.4,1.8,2c0.1,0.1,0.3,0.3,0.4,0.4
	c0.1,0.1,0.1,0.1,0.2,0.1c0.1,0.1,0.2,0.2,0.3,0.2c0.2,0.2,0.4,0.3,0.6,0.5c0.2,0.2,0.5,0.3,0.7,0.5c0,0,0,0,0,0c0,0,0,0,0,0
	c0.2,0.1,0.4,0.3,0.7,0.4l0.4,0.2c0,0,0,0,0.1,0c0.4,0.2,0.8,0.4,1.2,0.6c0.3,0.1,0.5,0.2,0.7,0.3c0.3,0.1,0.5,0.2,0.8,0.3
	c0.2,0.1,0.5,0.1,0.7,0.2c0,0,0.1,0,0.1,0c0.2,0.1,0.4,0.1,0.6,0.1c0.1,0,0.3,0.1,0.5,0.1c1,0.2,2.1,0.3,3.2,0.3
	c9,0,16.2-7.3,16.2-16.2C157.4,59.3,157,57.4,156.4,55.7z M141.1,66.9c-3.1,0-5.7-2.6-5.7-5.7c0-3.2,2.6-5.7,5.7-5.7
	c3.2,0,5.7,2.6,5.7,5.7C146.8,64.3,144.3,66.9,141.1,66.9z"/>
</svg>
