<svg width="22" height="23" viewBox="0 0 22 23" fill="none" xmlns="http://www.w3.org/2000/svg">
<path fill-rule="evenodd" clip-rule="evenodd" d="M9.8718 0C10.3391 0 10.7179 0.376736 10.7179 0.841463V4.20732C10.7179 4.87683 10.9854 5.51892 11.4614 5.99233C11.9375 6.46575 12.5832 6.73171 13.2564 6.73171H14.3846C16.8667 6.73171 18.6154 8.02195 18.6154 9.81707C18.6154 10.2818 18.2365 10.6585 17.7692 10.6585C17.3019 10.6585 16.9231 10.2818 16.9231 9.81707C16.9231 9.36829 16.4154 8.41463 14.3846 8.41463H13.2564C12.1343 8.41463 11.0582 7.97136 10.2648 7.18234C9.47138 6.39331 9.02564 5.32317 9.02564 4.20732V0.841463C9.02564 0.376736 9.40448 0 9.8718 0ZM21.1538 0C21.6212 0 22 0.376736 22 0.841463C22 1.80497 21.5961 2.53252 20.9823 3.02845C20.6413 3.30398 20.2507 3.49675 19.8583 3.63265C21.0437 4.74127 22 6.64214 22 9.81707C22 10.2818 21.6212 10.6585 21.1538 10.6585C20.6865 10.6585 20.3077 10.2818 20.3077 9.81707C20.3077 6.65653 19.2611 5.24993 18.3897 4.6C17.9345 4.26047 17.4797 4.09112 17.1409 4.00689C17.0298 3.97926 16.9323 3.9611 16.8531 3.94918C16.8224 3.94704 16.7938 3.94488 16.7672 3.94275C16.6984 3.93725 16.6432 3.93198 16.604 3.92792L16.5574 3.92285L16.5434 3.92123L16.5389 3.92068L16.5373 3.92048C16.537 3.92045 16.5361 3.92033 16.641 3.08537C16.641 2.2439 16.6417 2.2439 16.6423 2.2439L16.6437 2.24391L16.6468 2.24392L16.6544 2.24399L16.6744 2.24435C16.69 2.24473 16.7099 2.2454 16.734 2.2466C16.782 2.24898 16.8464 2.25346 16.9251 2.26184C16.9569 2.26523 16.9911 2.26927 17.0276 2.27408C17.1216 2.27993 17.2353 2.28525 17.3638 2.28791C17.7533 2.29598 18.2546 2.27898 18.7415 2.18819C19.2395 2.09533 19.647 1.93893 19.9151 1.72231C20.1475 1.53456 20.3077 1.2804 20.3077 0.841463C20.3077 0.376736 20.6865 0 21.1538 0ZM16.641 3.08537V2.2439C16.1941 2.2439 15.8243 2.58951 15.7965 3.03308C15.7687 3.47664 16.0926 3.86521 16.5361 3.92033L16.641 3.08537ZM16.9231 12.061C16.9231 11.5962 17.3019 11.2195 17.7692 11.2195H21.1538C21.6212 11.2195 22 11.5962 22 12.061V22.1585C22 22.6233 21.6212 23 21.1538 23H0.846154C0.378836 23 0 22.6233 0 22.1585V17.6707C0 17.4251 0.107938 17.1917 0.295484 17.0318L4.2442 13.666C4.52504 13.4266 4.92967 13.3964 5.24333 13.5913L9.30769 16.1175L13.3721 13.5913C13.6625 13.4108 14.0337 13.4222 14.3123 13.6202L16.9231 15.4746V12.061ZM16.9231 17.5428L13.7891 15.3167L9.75615 17.8233C9.48177 17.9939 9.13361 17.9939 8.85923 17.8233L4.87356 15.3461L1.69231 18.0578V21.3171H16.9231V17.5428ZM18.6154 21.3171H20.3077V12.9024H18.6154V21.3171Z" fill="white"/>
</svg>
