<svg width="23" height="22" viewBox="0 0 23 22" fill="none" xmlns="http://www.w3.org/2000/svg">
<path d="M3.3992 15.217C5.17295 15.217 6.70666 16.8113 6.70459 18.6533C6.70251 20.47 5.17191 21.9978 3.35244 21.9989C1.48205 21.9999 0.0137975 20.4816 0.0117193 18.5447C0.0106802 16.7111 1.53193 15.217 3.3992 15.217ZM3.30048 19.7509C4.00396 19.771 4.47363 19.3239 4.48714 18.6185C4.50065 17.95 4.02786 17.4471 3.36491 17.427C2.73937 17.4081 2.20111 17.9363 2.19072 18.5816C2.17825 19.2395 2.64481 19.732 3.30048 19.7509Z" fill="white"/>
<path d="M3.32252 6.77554C1.46356 6.77132 -0.00884602 5.24878 0.0119361 3.35298C0.031679 1.50357 1.53526 -0.00420874 3.35473 8.82655e-06C5.19291 0.0042264 6.70688 1.55946 6.7048 3.44155C6.70169 5.28146 5.18148 6.78081 3.32252 6.77554ZM3.35473 2.21212C2.72504 2.20053 2.19925 2.72245 2.18678 3.37301C2.17431 4.03306 2.68555 4.57396 3.33395 4.58662C3.97612 4.59927 4.47489 4.09632 4.48839 3.42257C4.5019 2.73616 4.02184 2.22372 3.35473 2.21212Z" fill="white"/>
<path d="M3.37946 14.2248C1.89666 14.1879 0.58531 13.2833 0.157199 11.98C-0.441325 10.1549 0.729745 8.19583 2.64377 7.87213C4.0237 7.63911 5.23946 7.986 6.09672 9.16587C7.433 11.0058 6.46144 13.5205 4.22009 14.0846C3.94577 14.1542 3.66002 14.1795 3.37946 14.2248ZM3.34517 12.0423C3.92707 12.0412 4.36973 11.7175 4.4674 11.2219C4.5817 10.6473 4.26997 10.1264 3.72652 9.98302C3.07708 9.81116 2.41101 10.1306 2.23437 10.6979C2.02031 11.3833 2.56688 12.0444 3.34517 12.0423Z" fill="white"/>
<path d="M15.3793 9.75847C17.1624 9.75847 18.9445 9.75636 20.7276 9.76058C20.9074 9.76058 21.0934 9.77428 21.2659 9.82068C21.7366 9.94615 22.0192 10.3521 22.0005 10.8382C21.9808 11.3369 21.6566 11.7291 21.1807 11.8209C21.0622 11.8441 20.9406 11.8557 20.8201 11.8557C17.1936 11.8578 13.5682 11.8567 9.94171 11.8567C9.46476 11.8567 9.07198 11.6996 8.86312 11.2315C8.55762 10.5461 9.01794 9.79643 9.77233 9.76374C10.1869 9.74582 10.6026 9.75741 11.0182 9.75741C12.4709 9.75847 13.9256 9.75847 15.3793 9.75847Z" fill="white"/>
<path d="M15.4154 17.5609C17.1808 17.5609 18.9463 17.5588 20.7117 17.563C20.8998 17.563 21.0951 17.5714 21.2759 17.621C21.7321 17.7443 22.022 18.1756 21.9981 18.6522C21.9732 19.1435 21.6614 19.5294 21.1959 19.6222C21.0359 19.6539 20.8696 19.6655 20.7065 19.6655C17.158 19.6676 13.6105 19.6676 10.0619 19.6655C9.92476 19.6655 9.78552 19.6528 9.6494 19.6296C9.07997 19.5305 8.7485 19.114 8.77655 18.5415C8.80253 18.0132 9.2057 17.6062 9.75643 17.5693C9.9975 17.5535 10.2406 17.5619 10.4828 17.5619C12.1266 17.5609 13.7715 17.5609 15.4154 17.5609Z" fill="white"/>
<path d="M15.3977 4.44004C13.6229 4.44004 11.8481 4.44109 10.0733 4.43793C9.90187 4.43793 9.72523 4.42633 9.55897 4.38732C9.07579 4.2745 8.78068 3.89597 8.77548 3.40778C8.76925 2.91433 9.07267 2.50312 9.54858 2.38502C9.69821 2.34812 9.85719 2.33441 10.011 2.33441C13.5606 2.33336 17.1101 2.33441 20.6587 2.33968C20.8218 2.33968 20.9881 2.35866 21.1481 2.3903C21.704 2.50206 22.0293 2.89957 21.9991 3.41517C21.9648 4.00035 21.5856 4.39575 21.0078 4.43371C20.7574 4.44952 20.5059 4.44004 20.2545 4.44004C18.6345 4.44004 17.0166 4.44004 15.3977 4.44004Z" fill="white"/>
</svg>
