<svg width="28" height="23" viewBox="0 0 28 23" fill="none" xmlns="http://www.w3.org/2000/svg">
<g clip-path="url(#clip0_788_34)">
<path d="M17.8355 10.4049C19.2396 7.51673 22.7292 7.81888 23.8548 10.4049C24.1955 10.4049 24.5835 10.4049 24.9701 10.4049C25.2915 10.4049 25.6129 10.3946 25.9328 10.4108C26.6556 10.4464 27.1237 10.8567 27.14 11.4521C27.1577 12.0727 26.6704 12.5096 25.9091 12.5437C25.564 12.5585 25.2189 12.5481 24.8724 12.5496C24.5524 12.5496 24.234 12.5496 23.8696 12.5496C23.2653 13.8071 22.3174 14.6128 20.8896 14.6187C19.4633 14.6246 18.4813 13.8707 17.8666 12.5496C17.5363 12.5496 17.2179 12.5496 16.9009 12.5496C11.8429 12.5496 6.78488 12.5511 1.72684 12.5481C1.4321 12.5481 1.12995 12.5511 0.842614 12.4963C0.355325 12.403 0.0131852 11.9705 0.00133626 11.5024C-0.0119938 11.0063 0.346438 10.5486 0.866312 10.4553C1.15513 10.4034 1.4558 10.4094 1.75054 10.4079C6.80858 10.4049 11.8666 10.4064 16.9246 10.4064C17.2194 10.4049 17.5141 10.4049 17.8355 10.4049ZM19.8662 11.4773C19.8662 12.0356 20.2868 12.4607 20.8452 12.4681C21.3828 12.4755 21.8583 12.0371 21.882 11.5128C21.9071 10.9692 21.4065 10.4731 20.8437 10.4819C20.2883 10.4923 19.8662 10.9204 19.8662 11.4773Z" fill="white"/>
<path d="M13.4632 20.8868C12.1687 23.6135 8.77401 23.6624 7.42915 20.8868C6.67526 20.8868 5.89027 20.8868 5.10379 20.8868C3.87002 20.8868 2.63624 20.8927 1.40247 20.8823C1.16104 20.8809 0.904808 20.8586 0.679678 20.7772C0.216086 20.6098 -0.0594026 20.1166 0.0102102 19.6634C0.0827852 19.1924 0.466396 18.8221 0.95961 18.7717C1.1803 18.7495 1.40395 18.7614 1.62463 18.7614C3.54713 18.7614 5.46963 18.7614 7.41434 18.7614C8.03938 17.5172 8.94286 16.6937 10.3988 16.6819C11.8533 16.6685 12.8012 17.421 13.4544 18.7614C13.6854 18.7614 13.9491 18.7614 14.2127 18.7614C18.0118 18.7614 21.8123 18.7614 25.6114 18.7614C26.6334 18.7614 27.1577 19.1317 27.137 19.8352C27.1162 20.5358 26.5964 20.8853 25.564 20.8868C21.8138 20.8883 18.0636 20.8868 14.3134 20.8868C14.0216 20.8868 13.7284 20.8868 13.4632 20.8868ZM9.43015 19.8248C9.43608 20.3343 9.90559 20.8112 10.4181 20.8275C10.9602 20.8453 11.44 20.361 11.4356 19.7982C11.4311 19.2472 11.015 18.8251 10.4655 18.8132C9.90263 18.8028 9.42423 19.2694 9.43015 19.8248Z" fill="white"/>
<path d="M9.30142 4.19307C8.23649 6.72579 4.74252 7.21604 3.22289 4.19307C2.58749 4.19307 1.92395 4.19899 1.2604 4.19159C0.488738 4.1827 0.00292969 3.77391 0.00292969 3.14739C0.00292969 2.51644 0.485776 2.08987 1.25152 2.0721C1.91654 2.05729 2.58156 2.06914 3.27473 2.06914C3.88347 0.801296 4.8388 0.00297073 6.26512 8.48146e-06C7.69144 -0.00295376 8.66306 0.770192 9.2792 2.06766C9.58283 2.06766 9.87609 2.06766 10.1708 2.06766C15.2777 2.06766 20.3847 2.06766 25.4916 2.06914C25.7611 2.06914 26.0396 2.05729 26.3003 2.11357C26.8157 2.22614 27.1638 2.7001 27.1386 3.19035C27.1119 3.71763 26.6913 4.14123 26.1314 4.18566C25.9107 4.20344 25.6871 4.19159 25.4649 4.19159C20.3832 4.19159 15.3 4.19159 10.2182 4.19159C9.92497 4.19307 9.63023 4.19307 9.30142 4.19307ZM6.31696 4.13975C6.86349 4.12345 7.27672 3.69245 7.27524 3.14147C7.27376 2.58161 6.78055 2.10024 6.23846 2.1269C5.72895 2.15208 5.2624 2.63789 5.25943 3.14591C5.25795 3.68949 5.75561 4.15604 6.31696 4.13975Z" fill="white"/>
</g>
<defs>
<clipPath id="clip0_788_34">
<rect width="27.1401" height="22.95" fill="white"/>
</clipPath>
</defs>
</svg>
