<svg width="39" height="20" viewBox="0 0 39 20" fill="none" xmlns="http://www.w3.org/2000/svg">
<path d="M38.9992 4.91139C38.9992 5.79437 38.9958 6.67651 39.0009 7.5595C39.0034 8.04135 38.8338 8.44752 38.497 8.78558C35.0093 12.2788 31.5234 15.7729 28.0323 19.2628C27.0431 20.2518 25.6566 20.2433 24.6698 19.2552C23.0415 17.6264 21.4114 15.9991 19.7847 14.3686C19.0314 13.6134 18.8282 12.6589 19.254 11.7347C19.3825 11.4556 19.5781 11.1907 19.7957 10.972C23.2682 7.48465 26.75 4.0057 30.2284 0.523377C30.5786 0.172706 30.9968 0.000314459 31.4898 0.000314459C33.2248 0.0011554 34.9598 -0.00136741 36.6948 0.0011554C37.994 0.00367821 38.995 1.00607 38.9984 2.30364C39.0017 3.17401 38.9992 4.0427 38.9992 4.91139ZM34.2031 2.11527C33.4053 2.11527 32.6075 2.11107 31.8097 2.12116C31.7056 2.12284 31.5746 2.17245 31.5015 2.24562C28.1012 5.6388 24.7051 9.03702 21.309 12.4344C21.0957 12.648 21.0957 12.6951 21.3115 12.9112C22.9155 14.5157 24.5203 16.1202 26.1243 17.7239C26.3343 17.9333 26.3746 17.9341 26.5829 17.7256C29.9773 14.3265 33.3726 10.9283 36.7628 7.52418C36.8359 7.45101 36.8863 7.32067 36.8871 7.21723C36.8947 5.61945 36.893 4.02167 36.8922 2.42389C36.8922 2.14807 36.8586 2.11611 36.5747 2.11527C35.7853 2.11527 34.9942 2.11527 34.2031 2.11527Z" fill="white"/>
<path d="M19.9678 4.91895C19.9678 5.78764 19.9644 6.65632 19.9686 7.52501C19.9711 8.02789 19.7973 8.45172 19.4421 8.8066C15.9636 12.2881 12.4869 15.7721 9.00679 19.2536C8.01079 20.2501 6.61674 20.2459 5.62494 19.2536C3.99238 17.6188 2.35982 15.984 0.727266 14.3492C-0.245215 13.3754 -0.241856 11.9744 0.733984 10.9972C4.21241 7.51408 7.69167 4.0326 11.1667 0.547758C11.5337 0.179428 11.9645 -0.000532828 12.4819 0.000308109C14.1959 0.00283092 15.9099 0.000308109 17.6247 0.00198998C18.9701 0.00283092 19.9678 1.00607 19.9686 2.35493C19.9678 3.20932 19.9678 4.06371 19.9678 4.91895ZM17.8624 4.8256C17.8624 4.02671 17.8632 3.22782 17.8624 2.42893C17.8624 2.15563 17.8221 2.11611 17.545 2.11611C15.9561 2.11526 14.368 2.11358 12.7791 2.12199C12.67 2.12283 12.5331 2.18002 12.4558 2.25738C9.0513 5.65729 5.65265 9.06224 2.25317 12.4664C2.06758 12.6522 2.06842 12.7018 2.25989 12.8936C3.86809 14.5039 5.4763 16.1143 7.0845 17.7247C7.28941 17.9299 7.34484 17.9316 7.54723 17.7289C10.9425 14.3299 14.3378 10.9316 17.7272 7.52753C17.8045 7.45017 17.8557 7.31141 17.8574 7.20125C17.8674 6.40909 17.8624 5.61693 17.8624 4.8256Z" fill="white"/>
<path d="M33.1465 4.50187C33.144 3.74166 33.7579 3.11937 34.512 3.11768C35.2653 3.11516 35.8876 3.73829 35.8876 4.4943C35.8876 5.25534 35.2762 5.87512 34.5196 5.87932C33.7679 5.88268 33.149 5.26291 33.1465 4.50187Z" fill="white"/>
<path d="M16.8563 4.49175C16.863 5.24186 16.2424 5.8692 15.4857 5.87761C14.74 5.88602 14.1076 5.25784 14.1026 4.50352C14.0975 3.7534 14.719 3.12438 15.474 3.11681C16.2205 3.11009 16.8504 3.73574 16.8563 4.49175Z" fill="white"/>
</svg>
